<?xml version="1.0" encoding="utf-8"?>
<!-- Generator: Adobe Illustrator 19.0.0, SVG Export Plug-In . SVG Version: 6.00 Build 0)  -->
<!DOCTYPE svg PUBLIC "-//W3C//DTD SVG 1.1//EN" "http://www.w3.org/Graphics/SVG/1.1/DTD/svg11.dtd">
<svg version="1.1" xmlns="http://www.w3.org/2000/svg" xmlns:xlink="http://www.w3.org/1999/xlink" x="0px" y="0px"
	 viewBox="0 0 728.3 394.6" enable-background="new 0 0 728.3 394.6" xml:space="preserve">
<g id="Layer_7">
	<path fill="#DC7676" d="M495.6-833.9v-29.8c0-5.5-4.4-9.9-9.9-9.9H231.9c-5.5,0-9.9,4.4-9.9,9.9v314.5c0,5.5,4.4,9.9,9.9,9.9h253.9
		c5.5,0,9.9-4.4,9.9-9.9v-17h-11.3v-16.5h0.2v-70.2h11.1v-82.6v-15.8v-20.6h-11.1v-62H495.6z"/>
	<g>
		<path fill="#DC7676" stroke="#F8E2D2" stroke-miterlimit="10" d="M94.1-736.4v72c0,5.6,17.2,10.2,38.4,10.2
			c21.2,0,38.4-4.6,38.4-10.2v-72H94.1z"/>
		<ellipse fill="#DC7676" stroke="#F8E2D2" stroke-miterlimit="10" cx="132.4" cy="-736.4" rx="38.4" ry="10.2"/>
		<g>
			<path fill="#DC7676" d="M82.2-761l-1.4,0.5l-0.7-1.9l6.2-2.2c4.6-1.7,8.7,0,10.5,4.8c1.8,4.8-0.3,8.8-4.9,10.4l-3.4,1.2
				c-1,0.4-1.5,0.1-1.9-0.9L82.2-761z M89-750.4l2-0.7c3.4-1.2,4.9-4.1,3.5-7.8c-1.4-3.7-4.3-4.9-7.7-3.7l-2.5,0.9l4,11.1
				C88.5-750.4,88.7-750.3,89-750.4z"/>
			<path fill="#DC7676" d="M106.4-760.4l0.5-0.1l0-0.1c-0.3-2-1.2-2.6-3-2.3c-0.5,0.1-1.9,0.5-1.7,1.2l0.1,0.7l-2.1,0.3l-0.2-1.1
				c-0.3-1.9,2.5-2.6,3.6-2.8c3.7-0.6,5,1.2,5.5,3.7l0.8,4.9c0.1,0.3,0.3,0.5,0.6,0.4l0.9-0.2l0.3,1.9l-2.1,0.3
				c-1,0.2-1.5-0.3-1.6-1.1c-0.1-0.4-0.1-0.7-0.1-0.7l0,0c0,0-0.5,2.4-3.3,2.9c-2,0.3-4.1-0.5-4.5-2.8
				C99.5-759,104.5-760,106.4-760.4z M104.8-754.3c1.9-0.3,2.7-2.5,2.5-4.2l-0.1-0.4l-0.6,0.1c-1.7,0.3-4.6,0.9-4.3,3
				C102.5-754.8,103.3-754,104.8-754.3z"/>
			<path fill="#DC7676" d="M113-763.8l-1.5,0.1l-0.2-1.8l1.6-0.1l-0.3-3.2l2.2-0.2l0.3,3.2l2.8-0.3l0.2,1.8l-2.8,0.3l0.5,5.3
				c0.2,2.3,1.8,2.5,2.7,2.4c0.3,0,0.5-0.1,0.5-0.1l0.2,2c0,0-0.3,0.1-0.8,0.1c-1.5,0.1-4.5,0-4.8-3.9L113-763.8z"/>
			<path fill="#DC7676" d="M127.2-762.1l0.5,0l0-0.1c-0.1-2-0.9-2.8-2.7-2.7c-0.6,0-1.9,0.2-1.9,1l0,0.7l-2.1,0.1l0-1.1
				c-0.1-1.9,2.8-2.3,3.9-2.3c3.8-0.1,4.8,1.8,4.9,4.4l0.2,4.9c0,0.3,0.2,0.5,0.5,0.5l0.9,0l0.1,1.9l-2.1,0.1c-1,0-1.5-0.5-1.5-1.3
				c0-0.4,0-0.7,0-0.7l0,0c0,0-0.8,2.3-3.6,2.4c-2,0.1-4-1.1-4.1-3.4C120.2-761.7,125.3-762.1,127.2-762.1z M124.8-756.3
				c1.9-0.1,3-2.1,3-3.8l0-0.4l-0.6,0c-1.7,0.1-4.7,0.3-4.6,2.4C122.6-757.2,123.4-756.3,124.8-756.3z"/>
			<path fill="#DC7676" d="M134.2-768.8c0-0.3-0.2-0.5-0.5-0.5l-0.9,0l0.1-1.9l2.2,0.1c1,0,1.5,0.5,1.4,1.5l-0.1,3.8
				c0,0.6-0.1,1-0.1,1l0,0c0,0,1.1-1.9,3.8-1.8c3.1,0.1,5,2.7,4.9,6.3c-0.1,3.7-2.4,6-5.5,5.9c-2.6-0.1-3.6-2.1-3.6-2.1l0,0
				c0,0,0,0.4,0,0.9l0,0.8l-2.1-0.1L134.2-768.8z M139.2-756.5c1.8,0.1,3.4-1.4,3.5-4c0.1-2.5-1.2-4.2-3.2-4.3
				c-1.7-0.1-3.4,1.1-3.5,4.1C136-758.7,137-756.6,139.2-756.5z"/>
			<path fill="#DC7676" d="M153.8-761l0.5,0.1l0-0.1c0.2-2-0.4-2.8-2.3-3c-0.5-0.1-1.9-0.1-2,0.7l-0.1,0.7l-2.1-0.2l0.1-1.1
				c0.2-1.9,3.1-1.9,4.2-1.7c3.7,0.4,4.5,2.5,4.3,5l-0.5,4.9c0,0.3,0.1,0.5,0.4,0.6l0.9,0.1l-0.2,1.9l-2.1-0.2
				c-1-0.1-1.4-0.7-1.3-1.5c0-0.4,0.1-0.7,0.1-0.7l0,0c0,0-1.2,2.2-3.9,1.9c-2-0.2-3.8-1.6-3.5-4C146.8-761.5,151.9-761.2,153.8-761
				z M150.6-755.6c1.9,0.2,3.3-1.6,3.5-3.3l0-0.4l-0.6-0.1c-1.7-0.2-4.7-0.4-4.9,1.7C148.6-756.7,149.2-755.7,150.6-755.6z"/>
			<path fill="#DC7676" d="M159.7-756.2c0,0,1,2,3.1,2.4c1.1,0.2,2.1-0.1,2.3-1.1c0.4-2.1-5.9-3.1-5.1-6.8c0.4-2.2,2.6-2.8,4.9-2.3
				c1.4,0.3,3.6,1.2,3.3,3l-0.2,1.1l-2-0.4l0.1-0.6c0.1-0.7-0.8-1.2-1.5-1.3c-1.3-0.3-2.2,0-2.4,0.9c-0.4,2.2,5.9,2.9,5.1,6.8
				c-0.4,2-2.5,3-4.9,2.5c-3-0.6-4.2-2.9-4.2-2.9L159.7-756.2z"/>
			<path fill="#DC7676" d="M177.5-760.4c3.1,1.2,3.8,4.1,2.8,6.9c-0.1,0.3-0.4,0.8-0.4,0.8l-7.9-3c-0.8,2.4,0.4,4.3,2.4,5.1
				c1.9,0.7,3.7-0.1,3.7-0.1l0.3,1.8c0,0-2.2,1-4.8,0c-3.4-1.3-4.9-4.7-3.6-7.9C171.2-760.3,174.4-761.6,177.5-760.4z M178.3-755
				c0.6-1.8-0.2-3.2-1.5-3.7c-1.6-0.6-3.2-0.1-4.3,1.6L178.3-755z"/>
		</g>
		<path fill="#DC7676" stroke="#F8E2D2" stroke-miterlimit="10" d="M132.4-701.7c-21.2,0-38.4-4.6-38.4-10.2"/>
		<path fill="#DC7676" stroke="#F8E2D2" stroke-miterlimit="10" d="M170.8-711.9c0,5.6-17.2,10.2-38.4,10.2"/>
		<path fill="#DC7676" stroke="#F8E2D2" stroke-miterlimit="10" d="M132.4-677.2c-21.2,0-38.4-4.6-38.4-10.2"/>
		<path fill="#DC7676" stroke="#F8E2D2" stroke-miterlimit="10" d="M170.8-687.4c0,5.6-17.2,10.2-38.4,10.2"/>
	</g>
	<g>
		<g>
			<path fill="#F8E2D2" d="M338.8-621.1h-36c-4.8,0-8.7-3.9-8.7-8.7v-24c0-4.8,3.9-8.7,8.7-8.7h36c4.8,0,8.7,3.9,8.7,8.7v24
				C347.4-625,343.6-621.1,338.8-621.1z"/>
		</g>
		<g>
			<line fill="#F8E2D2" x1="377.9" y1="-644.1" x2="347.4" y2="-644.1"/>
			<g>
				<line fill="none" stroke="#F8E2D2" stroke-width="4" stroke-miterlimit="10" x1="377.9" y1="-644.1" x2="361.8" y2="-644.1"/>
				<g>
					<polygon fill="#F8E2D2" points="364.7,-654.1 347.4,-644.1 364.7,-634.2 					"/>
				</g>
			</g>
		</g>
		<g>
			<path fill="#F8E2D2" d="M422.6-621.1h-36c-4.8,0-8.7-3.9-8.7-8.7v-24c0-4.8,3.9-8.7,8.7-8.7h36c4.8,0,8.7,3.9,8.7,8.7v24
				C431.3-625,427.4-621.1,422.6-621.1z"/>
		</g>
		<g>
			<line fill="#F8E2D2" x1="404.6" y1="-595.6" x2="404.6" y2="-621.7"/>
			<g>
				<line fill="none" stroke="#F8E2D2" stroke-width="4" stroke-miterlimit="10" x1="404.6" y1="-595.6" x2="404.6" y2="-607.3"/>
				<g>
					<polygon fill="#F8E2D2" points="414.6,-604.4 404.6,-621.7 394.6,-604.4 					"/>
				</g>
			</g>
		</g>
		<g>
			<path fill="#F8E2D2" d="M422.6-554.3h-36c-4.8,0-8.7-3.9-8.7-8.7v-24c0-4.8,3.9-8.7,8.7-8.7h36c4.8,0,8.7,3.9,8.7,8.7v24
				C431.3-558.2,427.4-554.3,422.6-554.3z"/>
		</g>
		<g>
			<g>
				<path fill="#F8E2D2" d="M299-682.2c-0.1-0.4-0.4-0.5-0.8-0.5h-0.4v-2.1h1.4c1.2,0,1.8,0.2,2.1,1.4l2.6,10.9
					c0.2,0.9,0.3,1.8,0.3,1.8h0c0,0,0.1-0.9,0.4-1.8l3.4-12.2h2.2l3.2,12.2c0.2,0.9,0.4,1.8,0.4,1.8h0c0,0,0.1-0.9,0.3-1.8l2.7-10.9
					c0.3-1.2,0.9-1.4,2.1-1.4h1.4v2.1h-0.4c-0.4,0-0.7,0.1-0.8,0.5l-3.7,14.4h-2.8l-2.9-10.7c-0.3-1.1-0.5-2.3-0.5-2.3h0
					c0,0-0.2,1.2-0.6,2.3l-3.1,10.7h-2.8L299-682.2z"/>
			</g>
			<g>
				<path fill="#F8E2D2" d="M322.2-677.5c0-0.4-0.2-0.5-0.5-0.5h-1v-2h2.2c1.1,0,1.6,0.4,1.6,1.4v0.8c0,0.5,0,0.8,0,0.8h0
					c0.6-1.8,2-3.2,3.8-3.2c0.3,0,0.6,0,0.6,0v2.3c0,0-0.3-0.1-0.7-0.1c-1.5,0-2.9,1.1-3.4,2.9c-0.2,0.7-0.3,1.4-0.3,2.2v5h-2.3
					V-677.5z"/>
			</g>
			<g>
				<path fill="#F8E2D2" d="M331.6-677.5c0-0.4-0.2-0.5-0.5-0.5h-1v-2h2.3c1.1,0,1.5,0.5,1.5,1.5v8.1c0,0.4,0.2,0.5,0.5,0.5h1v2
					h-2.3c-1.1,0-1.5-0.5-1.5-1.5V-677.5z M331.7-684.8h2.1v2.4h-2.1V-684.8z"/>
			</g>
			<g>
				<path fill="#F8E2D2" d="M338.2-678.1h-1.6v-1.9h1.6v-3.3h2.3v3.3h2.9v1.9h-2.9v5.6c0,2.4,1.7,2.7,2.6,2.7c0.3,0,0.6,0,0.6,0v2.1
					c0,0-0.3,0-0.8,0c-1.5,0-4.6-0.5-4.6-4.5V-678.1z"/>
			</g>
			<g>
				<path fill="#F8E2D2" d="M351.3-680.3c3.4,0,5.2,2.5,5.2,5.7c0,0.3-0.1,1-0.1,1h-8.9c0.1,2.6,2,4.1,4.2,4.1
					c2.1,0,3.6-1.4,3.6-1.4l1,1.7c0,0-1.8,1.8-4.7,1.8c-3.8,0-6.5-2.8-6.5-6.4C345.2-677.8,347.8-680.3,351.3-680.3z M354.1-675.3
					c-0.1-2-1.3-3.1-2.9-3.1c-1.8,0-3.2,1.1-3.6,3.1H354.1z"/>
			</g>
			<g>
				<path fill="#F8E2D2" d="M364.5-669.9h0.8c0.3,0,0.5-0.2,0.5-0.5l1.2-14.4h2.5l4,9c0.4,0.9,0.8,2.1,0.8,2.1h0
					c0,0,0.4-1.2,0.8-2.1l4-9h2.5l1.2,14.4c0,0.3,0.2,0.5,0.5,0.5h0.8v2.1H382c-1.1,0-1.5-0.5-1.5-1.5l-0.7-9c-0.1-1,0-2.5,0-2.5h0
					c0,0-0.5,1.6-0.9,2.5l-3.4,7.4h-2l-3.4-7.4c-0.4-0.9-0.9-2.5-0.9-2.5h0c0,0,0,1.5,0,2.5l-0.7,9c-0.1,1.1-0.5,1.5-1.6,1.5h-2.1
					V-669.9z"/>
			</g>
			<g>
				<path fill="#F8E2D2" d="M392-680.3c3.6,0,6.6,2.7,6.6,6.3c0,3.7-2.9,6.4-6.6,6.4s-6.5-2.7-6.5-6.4
					C385.4-677.6,388.3-680.3,392-680.3z M392-669.6c2.3,0,4.2-1.8,4.2-4.4c0-2.5-1.9-4.3-4.2-4.3c-2.3,0-4.2,1.8-4.2,4.3
					C387.8-671.4,389.7-669.6,392-669.6z"/>
			</g>
			<g>
				<path fill="#F8E2D2" d="M405.8-680.3c2.8,0,3.7,1.9,3.7,1.9h0c0,0,0-0.4,0-0.8v-3c0-0.4-0.2-0.5-0.5-0.5h-1v-2h2.3
					c1.1,0,1.5,0.5,1.5,1.5v12.9c0,0.4,0.2,0.5,0.5,0.5h1v2h-2.2c-1.1,0-1.5-0.5-1.5-1.3c0-0.4,0-0.6,0-0.6h0c0,0-1,2.2-4,2.2
					c-3.3,0-5.4-2.6-5.4-6.4C400.3-677.8,402.6-680.3,405.8-680.3z M409.6-673.9c0-2.2-1.1-4.3-3.5-4.3c-1.9,0-3.5,1.6-3.5,4.3
					c0,2.6,1.4,4.3,3.4,4.3C407.9-669.6,409.6-670.8,409.6-673.9z"/>
			</g>
			<g>
				<path fill="#F8E2D2" d="M420.9-680.3c3.4,0,5.2,2.5,5.2,5.7c0,0.3-0.1,1-0.1,1h-8.9c0.1,2.6,2,4.1,4.2,4.1
					c2.1,0,3.6-1.4,3.6-1.4l1,1.7c0,0-1.8,1.8-4.7,1.8c-3.8,0-6.5-2.8-6.5-6.4C414.8-677.8,417.4-680.3,420.9-680.3z M423.7-675.3
					c-0.1-2-1.3-3.1-2.9-3.1c-1.8,0-3.2,1.1-3.6,3.1H423.7z"/>
			</g>
			<g>
				<path fill="#F8E2D2" d="M429.1-682.3c0-0.4-0.2-0.5-0.5-0.5h-1v-2h2.3c1.1,0,1.5,0.5,1.5,1.5v12.9c0,0.4,0.2,0.5,0.5,0.5h1v2
					h-2.3c-1.1,0-1.5-0.5-1.5-1.5V-682.3z"/>
			</g>
		</g>
	</g>
	<g>
		<g>
			<path fill="#F8E2D2" d="M339.5-792.5h-36c-4.8,0-8.7-3.9-8.7-8.7v-24c0-4.8,3.9-8.7,8.7-8.7h36c4.8,0,8.7,3.9,8.7,8.7v24
				C348.2-796.4,344.3-792.5,339.5-792.5z"/>
		</g>
		<g>
			<line fill="#F8E2D2" x1="360" y1="-746.9" x2="336" y2="-792.5"/>
			<g>
				<line fill="none" stroke="#F8E2D2" stroke-width="4" stroke-miterlimit="10" x1="360" y1="-746.9" x2="342.7" y2="-779.8"/>
				<g>
					<polygon fill="#F8E2D2" points="352.9,-781.9 336,-792.5 335.2,-772.6 					"/>
				</g>
			</g>
		</g>
		<g>
			<path fill="#F8E2D2" d="M420.7-792.5h-36c-4.8,0-8.7-3.9-8.7-8.7v-24c0-4.8,3.9-8.7,8.7-8.7h36c4.8,0,8.7,3.9,8.7,8.7v24
				C429.4-796.4,425.5-792.5,420.7-792.5z"/>
		</g>
		<g>
			<line fill="#F8E2D2" x1="372.5" y1="-753" x2="390.9" y2="-792.5"/>
			<g>
				<line fill="none" stroke="#F8E2D2" stroke-width="4" stroke-miterlimit="10" x1="372.5" y1="-753" x2="384.8" y2="-779.5"/>
				<g>
					<polygon fill="#F8E2D2" points="392.6,-772.7 390.9,-792.5 374.5,-781.1 					"/>
				</g>
			</g>
		</g>
		<g>
			<path fill="#F8E2D2" d="M380.7-722.5h-36c-4.8,0-8.7-3.9-8.7-8.7v-24c0-4.8,3.9-8.7,8.7-8.7h36c4.8,0,8.7,3.9,8.7,8.7v24
				C389.4-726.4,385.5-722.5,380.7-722.5z"/>
		</g>
		<g>
			<g>
				<path fill="#F8E2D2" d="M299.2-858c4.9,0,8.7,3.8,8.7,8.7c0,2.1-0.8,4.1-2,5.6l1.9,1.9l-1.4,1.5l-1.9-1.9
					c-1.5,1.2-3.3,1.8-5.3,1.8c-4.9,0-8.7-3.9-8.7-8.9C290.5-854.2,294.3-858,299.2-858z M299.2-842.7c2.2,0,3.6-1.2,3.6-1.2
					l-1.9-1.8l1.4-1.6l1.8,1.9c0.8-1.1,1.2-2.5,1.2-3.9c0-3.7-2.7-6.4-6.2-6.4c-3.5,0-6.2,2.7-6.2,6.4
					C293-845.6,295.7-842.7,299.2-842.7z"/>
			</g>
			<g>
				<path fill="#F8E2D2" d="M310.9-850.3c0-0.4-0.2-0.5-0.5-0.5h-1v-2h2.3c1.1,0,1.6,0.5,1.6,1.5v5.8c0,1.7,0.3,3,2.3,3
					c2.5,0,4-2.2,4-4.6v-5.7h2.3v9.6c0,0.4,0.2,0.5,0.5,0.5h1v2H321c-1,0-1.5-0.5-1.5-1.3v-0.5c0-0.4,0-0.7,0-0.7h0
					c-0.5,1.2-2.1,2.8-4.5,2.8c-2.7,0-4.1-1.4-4.1-4.7V-850.3z"/>
			</g>
			<g>
				<path fill="#F8E2D2" d="M330.8-853.2c3.4,0,5.2,2.5,5.2,5.7c0,0.3-0.1,1-0.1,1h-8.9c0.1,2.6,2,4.1,4.2,4.1
					c2.1,0,3.6-1.4,3.6-1.4l1,1.7c0,0-1.8,1.8-4.7,1.8c-3.8,0-6.5-2.8-6.5-6.4C324.7-850.7,327.3-853.2,330.8-853.2z M333.6-848.2
					c-0.1-2-1.3-3.1-2.9-3.1c-1.8,0-3.2,1.1-3.6,3.1H333.6z"/>
			</g>
			<g>
				<path fill="#F8E2D2" d="M339.1-850.3c0-0.4-0.2-0.5-0.5-0.5h-1v-2h2.2c1.1,0,1.6,0.4,1.6,1.4v0.8c0,0.5,0,0.8,0,0.8h0
					c0.6-1.8,2-3.2,3.8-3.2c0.3,0,0.6,0,0.6,0v2.3c0,0-0.3-0.1-0.7-0.1c-1.5,0-2.9,1.1-3.4,2.9c-0.2,0.7-0.3,1.4-0.3,2.2v5h-2.3
					V-850.3z"/>
			</g>
			<g>
				<path fill="#F8E2D2" d="M349.5-837.7c0.9,0,1.7-0.7,2.1-1.8l0.6-1.3l-4.2-9.6c-0.2-0.4-0.4-0.5-0.8-0.5H347v-2h1.4
					c1,0,1.3,0.3,1.7,1.2l2.8,6.8c0.2,0.6,0.4,1.5,0.4,1.5h0c0,0,0.2-0.8,0.4-1.5l2.5-6.8c0.4-1,0.8-1.2,1.8-1.2h1.4v2h-0.3
					c-0.4,0-0.6,0.1-0.8,0.5l-4.8,11.9c-0.7,1.9-2.2,2.9-3.9,2.9c-1.8,0-2.9-1.2-2.9-1.2l1-1.7C347.7-838.5,348.5-837.7,349.5-837.7
					z"/>
			</g>
			<g>
				<path fill="#F8E2D2" d="M366.7-842.8h0.8c0.3,0,0.5-0.2,0.5-0.5l1.2-14.4h2.5l4,9c0.4,0.9,0.8,2.1,0.8,2.1h0
					c0,0,0.4-1.2,0.8-2.1l4-9h2.5l1.2,14.4c0,0.3,0.2,0.5,0.5,0.5h0.8v2.1h-2.1c-1.1,0-1.5-0.5-1.5-1.5l-0.7-9c-0.1-1,0-2.5,0-2.5h0
					c0,0-0.5,1.6-0.9,2.5l-3.4,7.4h-2l-3.4-7.4c-0.4-0.9-0.9-2.5-0.9-2.5h0c0,0,0,1.5,0,2.5l-0.7,9c-0.1,1.1-0.5,1.5-1.6,1.5h-2.1
					V-842.8z"/>
			</g>
			<g>
				<path fill="#F8E2D2" d="M394.2-853.2c3.6,0,6.6,2.7,6.6,6.3c0,3.7-2.9,6.4-6.6,6.4s-6.5-2.7-6.5-6.4
					C387.6-850.5,390.5-853.2,394.2-853.2z M394.2-842.5c2.3,0,4.2-1.8,4.2-4.4c0-2.5-1.9-4.3-4.2-4.3c-2.3,0-4.2,1.8-4.2,4.3
					C390-844.3,391.9-842.5,394.2-842.5z"/>
			</g>
			<g>
				<path fill="#F8E2D2" d="M408-853.2c2.8,0,3.7,1.9,3.7,1.9h0c0,0,0-0.4,0-0.8v-3c0-0.4-0.2-0.5-0.5-0.5h-1v-2h2.3
					c1.1,0,1.5,0.5,1.5,1.5v12.9c0,0.4,0.2,0.5,0.5,0.5h1v2h-2.2c-1.1,0-1.5-0.5-1.5-1.3c0-0.4,0-0.6,0-0.6h0c0,0-1,2.2-4,2.2
					c-3.3,0-5.4-2.6-5.4-6.4C402.5-850.7,404.7-853.2,408-853.2z M411.8-846.8c0-2.2-1.1-4.3-3.5-4.3c-1.9,0-3.5,1.6-3.5,4.3
					c0,2.6,1.4,4.3,3.4,4.3C410.1-842.5,411.8-843.7,411.8-846.8z"/>
			</g>
			<g>
				<path fill="#F8E2D2" d="M423.1-853.2c3.4,0,5.2,2.5,5.2,5.7c0,0.3-0.1,1-0.1,1h-8.9c0.1,2.6,2,4.1,4.2,4.1
					c2.1,0,3.6-1.4,3.6-1.4l1,1.7c0,0-1.8,1.8-4.7,1.8c-3.8,0-6.5-2.8-6.5-6.4C417-850.7,419.6-853.2,423.1-853.2z M425.9-848.2
					c-0.1-2-1.3-3.1-2.9-3.1c-1.8,0-3.2,1.1-3.6,3.1H425.9z"/>
			</g>
			<g>
				<path fill="#F8E2D2" d="M431.3-855.1c0-0.4-0.2-0.5-0.5-0.5h-1v-2h2.3c1.1,0,1.5,0.5,1.5,1.5v12.9c0,0.4,0.2,0.5,0.5,0.5h1v2
					h-2.3c-1.1,0-1.5-0.5-1.5-1.5V-855.1z"/>
			</g>
		</g>
	</g>
	<g>
		<path fill="#FAAE24" d="M496.6-606.9c0.8,0,1.6-0.6,1.6-1.9c0-1.6-1.7-2.7-3.2-2.7h-0.3v0.5C494.7-609.5,494.8-606.9,496.6-606.9z
			"/>
		<path fill="#FAAE24" d="M490.9-633.7c0,1.9,1.5,3.5,3.6,3.5c2.1,0,3.6-1.6,3.6-3.5c0-1.9-1.5-3.5-3.6-3.5
			C492.4-637.2,490.9-635.6,490.9-633.7z"/>
		<path fill="#FAAE24" d="M479.3-652.7v86.9c0,3.3,2.7,5.9,5.9,5.9h16.5c3.3,0,5.9-2.7,5.9-5.9v-86.9c0-3.3-2.7-5.9-5.9-5.9h-16.5
			C481.9-658.7,479.3-656,479.3-652.7z M485.5-623.9v-1.7h2v1.7H485.5z M499.5-584.5v1.9c0,0.9-0.4,1.3-1.3,1.3h-4.8
			c-1.4,0-2.5,0.3-2.5,1.8c0,1.4,1.2,2.5,2.6,2.8c0.4,0.1,0.9,0.2,1.4,0.2h4.6v1.9h-6c-1.3,0-2.5,0.2-2.5,1.7c0,1.5,1.2,2.5,2.7,2.9
			c0.4,0.1,0.8,0.1,1.3,0.1h4.6v1.9h-8c-0.3,0-0.4,0.2-0.4,0.4v0.8h-1.7v-1.9c0-0.9,0.4-1.3,1.1-1.3h0.4c0.3,0,0.6,0,0.6,0v0
			c-1.2-0.5-2.3-1.9-2.3-3.5c0-1.7,0.8-2.7,2.3-3v0c-1.2-0.6-2.3-2-2.3-3.6c0-2.3,1.3-3.3,3.9-3.3h4.4c0.3,0,0.4-0.2,0.4-0.4v-0.8
			H499.5z M499.5-596.8v1.9c0,0.9-0.4,1.3-1.1,1.3h-0.4c-0.3,0-0.6,0-0.6,0v0c1,0.4,2.3,1.7,2.3,3.7c0,2.3-1.2,3.4-3.9,3.4h-4.4
			c-0.3,0-0.4,0.2-0.4,0.4v0.8h-1.7v-1.9c0-0.9,0.4-1.3,1.2-1.3h4.8c1.4,0,2.5-0.3,2.5-1.9c0-2.1-1.8-3.3-3.8-3.3h-4.7v-1.9h8
			c0.3,0,0.4-0.2,0.4-0.4v-0.8H499.5z M499.6-603.6c0,0,0,0.3,0,0.7c0,1.3-0.4,3.9-3.8,3.9H491v1.3h-1.6v-1.4h-2.8v-1.9h2.8v-2.4
			h1.6v2.4h4.6c2,0,2.3-1.4,2.3-2.1c0-0.3,0-0.5,0-0.5H499.6z M499.5-614.6v1.8c0,0.9-0.4,1.3-1.2,1.3c-0.3,0-0.6,0-0.6,0v0
			c0,0,2,0.8,2,3.2c0,1.7-1.1,3.4-3.1,3.4c-3.3,0-3.5-4.4-3.5-6.1v-0.4h-0.1c-1.8,0-2.4,0.7-2.4,2.2c0,0.5,0.1,1.7,0.8,1.7h0.6v1.8
			h-1c-1.7,0-1.9-2.5-1.9-3.5c0-3.3,1.7-4.2,4-4.2h4.3c0.3,0,0.4-0.2,0.4-0.4v-0.8H499.5z M499.6-621.4c0,0,0,0.3,0,0.7
			c0,1.3-0.4,3.9-3.8,3.9H491v1.3h-1.6v-1.4h-2.8v-1.9h2.8v-2.4h1.6v2.4h4.6c2,0,2.3-1.4,2.3-2.1c0-0.3,0-0.5,0-0.5H499.6z
			 M499.5-627v1.9c0,0.9-0.4,1.3-1.3,1.3h-6.7c-0.3,0-0.4,0.2-0.4,0.4v0.8h-1.7v-1.9c0-0.9,0.4-1.3,1.3-1.3h6.7
			c0.3,0,0.4-0.2,0.4-0.4v-0.8H499.5z M499.8-633.7c0,3-2.2,5.4-5.3,5.4c-3.1,0-5.3-2.4-5.3-5.4c0-3,2.2-5.4,5.3-5.4
			C497.6-639.2,499.8-636.7,499.8-633.7z M499.5-652v1.9c0,0.9-0.4,1.3-1.3,1.3h-4.8c-1.4,0-2.5,0.3-2.5,1.9c0,1.6,1,2.8,2.5,3.2
			c0.4,0.1,0.9,0.2,1.4,0.2h4.7v1.9h-8c-0.3,0-0.4,0.2-0.4,0.4v0.8h-1.7v-1.9c0-0.9,0.4-1.3,1.1-1.3h0.4c0.3,0,0.6,0,0.6,0v0
			c-0.9-0.4-2.3-1.6-2.3-3.8c0-2.4,1.3-3.5,3.9-3.5h4.4c0.3,0,0.4-0.2,0.4-0.4v-0.8H499.5z"/>
	</g>
	<g>
		<path fill="#FAAE24" d="M490.3-806.5c0,1.5,0.9,2.7,2.6,3v-5.3C491.2-808.8,490.3-807.8,490.3-806.5z"/>
		<path fill="#FAAE24" d="M490.4-781.9c0,1.6,1.3,2.9,3.6,2.9c2.2,0,3.6-1.2,3.6-2.9c0-1.5-1.1-2.9-3.6-2.9
			C492.2-784.8,490.4-783.8,490.4-781.9z"/>
		<path fill="#FAAE24" d="M478.8-831.2v55.5c0,3.3,2.7,5.9,5.9,5.9h16.5c3.3,0,5.9-2.7,5.9-5.9v-55.5c0-3.3-2.7-5.9-5.9-5.9h-16.5
			C481.5-837.2,478.8-834.5,478.8-831.2z M490.7-787.9v0.8c0,0.3,0.1,0.4,0.4,0.4h12v1.9h-4.6c-0.5,0-0.9,0-0.9,0v0
			c0,0,1.7,0.9,1.7,3.3c0,2.7-2.2,4.4-5.3,4.4c-3.2,0-5.3-1.9-5.3-4.6c0-2.4,1.7-3.3,1.7-3.3v0c0,0-0.2,0-0.5,0c-0.6,0-1-0.4-1-1.2
			v-1.8H490.7z M499.1-800.3v1.9c0,0.9-0.4,1.3-1.1,1.3h-0.4c-0.3,0-0.6,0-0.6,0v0c1,0.4,2.3,1.7,2.3,3.7c0,2.3-1.2,3.4-3.9,3.4
			h-4.4c-0.3,0-0.4,0.2-0.4,0.4v0.8H489v-1.9c0-0.9,0.4-1.3,1.2-1.3h4.8c1.4,0,2.5-0.3,2.5-1.9c0-2.1-1.8-3.3-3.8-3.3H489v-1.9h8
			c0.3,0,0.4-0.2,0.4-0.4v-0.8H499.1z M494.3-810.8v7.4c2.2-0.1,3.4-1.7,3.4-3.5c0-1.7-1.2-3-1.2-3l1.4-0.8c0,0,1.5,1.5,1.5,3.9
			c0,3.2-2.3,5.4-5.3,5.4c-3.2,0-5.3-2.2-5.3-5.1c0-2.8,2.1-4.4,4.7-4.4C493.8-810.9,494.3-810.8,494.3-810.8z M490.8-819
			c0,0-0.1,0.3-0.1,0.6c0,1.2,0.9,2.4,2.4,2.8c0.6,0.2,1.2,0.2,1.8,0.2h4.1v1.9h-8c-0.3,0-0.4,0.2-0.4,0.4v0.8H489v-1.8
			c0-0.9,0.4-1.3,1.2-1.3h0.6c0.4,0,0.7,0,0.7,0v0c-1.5-0.5-2.6-1.6-2.6-3.2c0-0.3,0-0.5,0-0.5H490.8z M490.7-830.4v0.3
			c0,0.3,0.1,0.5,0.4,0.6l9.9,4c1.6,0.6,2.4,1.8,2.4,3.3c0,1.5-1,2.4-1,2.4l-1.4-0.8c0,0,0.7-0.6,0.7-1.5c0-0.8-0.6-1.4-1.5-1.8
			l-1.1-0.5l-8,3.5c-0.3,0.1-0.4,0.3-0.4,0.6v0.2H489v-1.1c0-0.8,0.2-1.1,1-1.4l5.7-2.3c0.5-0.2,1.2-0.4,1.2-0.4v0
			c0,0-0.7-0.1-1.2-0.3l-5.7-2.1c-0.8-0.3-1-0.7-1-1.5v-1.2H490.7z"/>
	</g>
	<g>
		<path fill="#DC7676" d="M676.8-734.8h-6.2h-1.8h-61.1c-5.8,0-10.6,4.7-10.6,10.6v11.5v22.5v12.7c0,5.8,4.7,10.6,10.6,10.6h61.1
			h1.8h6.2c5.8,0,10.6-4.7,10.6-10.6v-12.7v-22.5v-11.5C687.3-730.1,682.6-734.8,676.8-734.8z"/>
		<g>
			<path fill="#F8E2D2" d="M621.8-708.4c2,0,5.4,0.8,5.4,3.1v1.4h-1.9v-0.8c0-1.2-2.1-1.8-3.5-1.8c-2.9,0-5.2,2.2-5.2,5.5
				c0,3.2,2.3,5.7,5.2,5.7c2.9,0,4.6-2,4.6-2l1.1,1.5c0,0-2.1,2.4-5.7,2.4c-4.3,0-7.4-3.3-7.4-7.6
				C614.5-705.2,617.6-708.4,621.8-708.4z"/>
			<path fill="#F8E2D2" d="M629.9-706c0-0.3-0.2-0.5-0.5-0.5h-0.8v-1.7h2c0.9,0,1.3,0.4,1.3,1.3v11c0,0.3,0.2,0.5,0.5,0.5h0.8v1.7
				h-2c-0.9,0-1.3-0.4-1.3-1.3V-706z"/>
			<path fill="#F8E2D2" d="M635.5-701.9c0-0.3-0.2-0.5-0.5-0.5h-0.8v-1.7h2c0.9,0,1.3,0.4,1.3,1.3v6.9c0,0.3,0.2,0.5,0.5,0.5h0.8
				v1.7h-2c-0.9,0-1.3-0.4-1.3-1.3V-701.9z M635.6-708.2h1.8v2.1h-1.8V-708.2z"/>
			<path fill="#F8E2D2" d="M645.3-704.3c2.9,0,4.5,2.2,4.5,4.9c0,0.3-0.1,0.8-0.1,0.8h-7.6c0.1,2.2,1.7,3.5,3.6,3.5
				c1.8,0,3-1.2,3-1.2l0.9,1.4c0,0-1.5,1.5-4,1.5c-3.3,0-5.5-2.4-5.5-5.4C640.1-702.2,642.3-704.3,645.3-704.3z M647.7-700.1
				c-0.1-1.7-1.2-2.6-2.4-2.6c-1.5,0-2.8,0.9-3.1,2.6H647.7z"/>
			<path fill="#F8E2D2" d="M652.4-701.9c0-0.3-0.2-0.5-0.5-0.5h-0.8v-1.7h1.9c0.9,0,1.3,0.4,1.3,1.2v0.4c0,0.3,0,0.6,0,0.6h0
				c0.4-0.9,1.6-2.4,3.9-2.4c2.5,0,3.6,1.3,3.6,4v4.5c0,0.3,0.2,0.5,0.5,0.5h0.8v1.7h-2c-0.9,0-1.3-0.4-1.3-1.3v-4.9
				c0-1.5-0.3-2.6-2-2.6c-1.6,0-2.9,1-3.3,2.5c-0.1,0.4-0.2,0.9-0.2,1.4v4.9h-2V-701.9z"/>
			<path fill="#F8E2D2" d="M665.3-702.5H664v-1.6h1.4v-2.9h2v2.9h2.5v1.6h-2.5v4.8c0,2.1,1.4,2.3,2.2,2.3c0.3,0,0.5,0,0.5,0v1.8
				c0,0-0.3,0-0.7,0c-1.3,0-4-0.4-4-3.9V-702.5z"/>
		</g>
	</g>
	<g>
		<g>
			<path fill="none" stroke="#FAAE24" stroke-width="7" stroke-miterlimit="10" d="M268.5-594.7H147.3c-8.1,0-14.7-6.6-14.7-14.7
				v-7.6"/>
			<g>
				<polygon fill="#FAAE24" points="150.1,-611.9 132.7,-642.1 115.2,-611.9 				"/>
			</g>
		</g>
	</g>
	<g>
		<g>
			<path fill="none" stroke="#FAAE24" stroke-width="7" stroke-miterlimit="10" d="M132.7-782v-24.3c0-8.1,6.6-14.7,14.7-14.7h103.2
				"/>
			<g>
				<polygon fill="#FAAE24" points="245.4,-803.5 275.7,-821 245.4,-838.4 				"/>
			</g>
		</g>
	</g>
	<g>
		<path fill="none" d="M-29.5-703"/>
	</g>
	<g>
		<g>
			<path fill="none" stroke="#FAAE24" stroke-width="7" stroke-miterlimit="10" d="M642.2-643.4v24.3c0,8.1-6.6,14.7-14.7,14.7
				h-79.2"/>
			<g>
				<polygon fill="#FAAE24" points="553.5,-621.9 523.2,-604.4 553.5,-587 				"/>
			</g>
		</g>
	</g>
	<g>
		<g>
			<path fill="none" stroke="#FAAE24" stroke-width="7" stroke-miterlimit="10" d="M523.2-802.7h99.2c8.1,0,14.7,6.6,14.7,14.7v7.6"
				/>
			<g>
				<polygon fill="#FAAE24" points="619.6,-785.5 637.1,-755.3 654.5,-785.5 				"/>
			</g>
		</g>
	</g>
</g>
<g id="Layer_8">
	<path fill="#DC7676" d="M498.5-387.6v-29.8c0-5.5-4.4-9.9-9.9-9.9H234.7c-5.5,0-9.9,4.4-9.9,9.9v314.5c0,5.5,4.4,9.9,9.9,9.9h253.9
		c5.5,0,9.9-4.4,9.9-9.9v-17h-11.3v-16.5h0.2v-70.2h11.1v-82.6v-15.8v-20.6h-11.1v-62H498.5z"/>
	<g>
		<path fill="#FAAE24" d="M499.4-160.6c0.8,0,1.6-0.6,1.6-1.9c0-1.6-1.7-2.7-3.2-2.7h-0.3v0.5C497.5-163.2,497.6-160.6,499.4-160.6z
			"/>
		<path fill="#FAAE24" d="M493.7-187.4c0,1.9,1.5,3.5,3.6,3.5c2.1,0,3.6-1.6,3.6-3.5c0-1.9-1.5-3.5-3.6-3.5
			C495.2-190.9,493.7-189.3,493.7-187.4z"/>
		<path fill="#FAAE24" d="M482.1-206.4v86.9c0,3.3,2.7,5.9,5.9,5.9h16.5c3.3,0,5.9-2.7,5.9-5.9v-86.9c0-3.3-2.7-5.9-5.9-5.9H488
			C484.8-212.4,482.1-209.7,482.1-206.4z M488.3-177.6v-1.7h2v1.7H488.3z M502.4-138.2v1.9c0,0.9-0.4,1.3-1.3,1.3h-4.8
			c-1.4,0-2.5,0.3-2.5,1.8c0,1.4,1.2,2.5,2.6,2.8c0.4,0.1,0.9,0.2,1.4,0.2h4.6v1.9h-6c-1.3,0-2.5,0.2-2.5,1.7c0,1.5,1.2,2.5,2.7,2.9
			c0.4,0.1,0.8,0.1,1.3,0.1h4.6v1.9h-8c-0.3,0-0.4,0.2-0.4,0.4v0.8h-1.7v-1.9c0-0.9,0.4-1.3,1.1-1.3h0.4c0.3,0,0.6,0,0.6,0v0
			c-1.2-0.5-2.3-1.9-2.3-3.5c0-1.7,0.8-2.7,2.3-3v0c-1.2-0.6-2.3-2-2.3-3.6c0-2.3,1.3-3.3,3.9-3.3h4.4c0.3,0,0.4-0.2,0.4-0.4v-0.8
			H502.4z M502.4-150.5v1.9c0,0.9-0.4,1.3-1.1,1.3h-0.4c-0.3,0-0.6,0-0.6,0v0c1,0.4,2.3,1.7,2.3,3.7c0,2.3-1.2,3.4-3.9,3.4h-4.4
			c-0.3,0-0.4,0.2-0.4,0.4v0.8h-1.7v-1.9c0-0.9,0.4-1.3,1.2-1.3h4.8c1.4,0,2.5-0.3,2.5-1.9c0-2.1-1.8-3.3-3.8-3.3h-4.7v-1.9h8
			c0.3,0,0.4-0.2,0.4-0.4v-0.8H502.4z M502.4-157.3c0,0,0,0.3,0,0.7c0,1.3-0.4,3.9-3.8,3.9h-4.8v1.3h-1.6v-1.4h-2.8v-1.9h2.8v-2.4
			h1.6v2.4h4.6c2,0,2.3-1.4,2.3-2.1c0-0.3,0-0.5,0-0.5H502.4z M502.4-168.3v1.8c0,0.9-0.4,1.3-1.2,1.3c-0.3,0-0.6,0-0.6,0v0
			c0,0,2,0.8,2,3.2c0,1.7-1.1,3.4-3.1,3.4c-3.3,0-3.5-4.4-3.5-6.1v-0.4H496c-1.8,0-2.4,0.7-2.4,2.2c0,0.5,0.1,1.7,0.8,1.7h0.6v1.8
			h-1c-1.7,0-1.9-2.5-1.9-3.5c0-3.3,1.7-4.2,4-4.2h4.3c0.3,0,0.4-0.2,0.4-0.4v-0.8H502.4z M502.4-175.1c0,0,0,0.3,0,0.7
			c0,1.3-0.4,3.9-3.8,3.9h-4.8v1.3h-1.6v-1.4h-2.8v-1.9h2.8v-2.4h1.6v2.4h4.6c2,0,2.3-1.4,2.3-2.1c0-0.3,0-0.5,0-0.5H502.4z
			 M502.4-180.7v1.9c0,0.9-0.4,1.3-1.3,1.3h-6.7c-0.3,0-0.4,0.2-0.4,0.4v0.8h-1.7v-1.9c0-0.9,0.4-1.3,1.3-1.3h6.7
			c0.3,0,0.4-0.2,0.4-0.4v-0.8H502.4z M502.6-187.4c0,3-2.2,5.4-5.3,5.4c-3.1,0-5.3-2.4-5.3-5.4c0-3,2.2-5.4,5.3-5.4
			C500.4-192.9,502.6-190.4,502.6-187.4z M502.4-205.7v1.9c0,0.9-0.4,1.3-1.3,1.3h-4.8c-1.4,0-2.5,0.3-2.5,1.9c0,1.6,1,2.8,2.5,3.2
			c0.4,0.1,0.9,0.2,1.4,0.2h4.7v1.9h-8c-0.3,0-0.4,0.2-0.4,0.4v0.8h-1.7v-1.9c0-0.9,0.4-1.3,1.1-1.3h0.4c0.3,0,0.6,0,0.6,0v0
			c-0.9-0.4-2.3-1.6-2.3-3.8c0-2.4,1.3-3.5,3.9-3.5h4.4c0.3,0,0.4-0.2,0.4-0.4v-0.8H502.4z"/>
	</g>
	<g>
		<path fill="#FAAE24" d="M493.1-360.2c0,1.5,0.9,2.7,2.6,3v-5.3C494-362.5,493.1-361.5,493.1-360.2z"/>
		<path fill="#FAAE24" d="M493.3-335.6c0,1.6,1.3,2.9,3.6,2.9c2.2,0,3.6-1.2,3.6-2.9c0-1.5-1.1-2.9-3.6-2.9
			C495.1-338.5,493.3-337.5,493.3-335.6z"/>
		<path fill="#FAAE24" d="M481.6-384.9v55.5c0,3.3,2.7,5.9,5.9,5.9H504c3.3,0,5.9-2.7,5.9-5.9v-55.5c0-3.3-2.7-5.9-5.9-5.9h-16.5
			C484.3-390.9,481.6-388.2,481.6-384.9z M493.5-341.6v0.8c0,0.3,0.1,0.4,0.4,0.4h12v1.9h-4.6c-0.5,0-0.9,0-0.9,0v0
			c0,0,1.7,0.9,1.7,3.3c0,2.7-2.2,4.4-5.3,4.4c-3.2,0-5.3-1.9-5.3-4.6c0-2.4,1.7-3.3,1.7-3.3v0c0,0-0.2,0-0.5,0c-0.6,0-1-0.4-1-1.2
			v-1.8H493.5z M501.9-354v1.9c0,0.9-0.4,1.3-1.1,1.3h-0.4c-0.3,0-0.6,0-0.6,0v0c1,0.4,2.3,1.7,2.3,3.7c0,2.3-1.2,3.4-3.9,3.4h-4.4
			c-0.3,0-0.4,0.2-0.4,0.4v0.8h-1.7v-1.9c0-0.9,0.4-1.3,1.2-1.3h4.8c1.4,0,2.5-0.3,2.5-1.9c0-2.1-1.8-3.3-3.8-3.3h-4.7v-1.9h8
			c0.3,0,0.4-0.2,0.4-0.4v-0.8H501.9z M497.1-364.5v7.4c2.2-0.1,3.4-1.7,3.4-3.5c0-1.7-1.2-3-1.2-3l1.4-0.8c0,0,1.5,1.5,1.5,3.9
			c0,3.2-2.3,5.4-5.3,5.4c-3.2,0-5.3-2.2-5.3-5.1c0-2.8,2.1-4.4,4.7-4.4C496.6-364.6,497.1-364.5,497.1-364.5z M493.7-372.7
			c0,0-0.1,0.3-0.1,0.6c0,1.2,0.9,2.4,2.4,2.8c0.6,0.2,1.2,0.2,1.8,0.2h4.1v1.9h-8c-0.3,0-0.4,0.2-0.4,0.4v0.8h-1.7v-1.8
			c0-0.9,0.4-1.3,1.2-1.3h0.6c0.4,0,0.7,0,0.7,0v0c-1.5-0.5-2.6-1.6-2.6-3.2c0-0.3,0-0.5,0-0.5H493.7z M493.5-384.1v0.3
			c0,0.3,0.1,0.5,0.4,0.6l9.9,4c1.6,0.6,2.4,1.8,2.4,3.3c0,1.5-1,2.4-1,2.4l-1.4-0.8c0,0,0.7-0.6,0.7-1.5c0-0.8-0.6-1.4-1.5-1.8
			l-1.1-0.5l-8,3.5c-0.3,0.1-0.4,0.3-0.4,0.6v0.2h-1.7v-1.1c0-0.8,0.2-1.1,1-1.4l5.7-2.3c0.5-0.2,1.2-0.4,1.2-0.4v0
			c0,0-0.7-0.1-1.2-0.3l-5.7-2.1c-0.8-0.3-1-0.7-1-1.5v-1.2H493.5z"/>
	</g>
	<g>
		<path fill="#DC7676" stroke="#F8E2D2" stroke-miterlimit="10" d="M81.7-374.4v72c0,5.6,17.2,10.2,38.4,10.2
			c21.2,0,38.4-4.6,38.4-10.2v-72H81.7z"/>
		<ellipse fill="#DC7676" stroke="#F8E2D2" stroke-miterlimit="10" cx="120.1" cy="-374.4" rx="38.4" ry="10.2"/>
		<g>
			<path fill="#DC7676" d="M69.9-399l-1.4,0.5l-0.7-1.9l6.2-2.2c4.6-1.7,8.7,0,10.5,4.8c1.8,4.8-0.3,8.8-4.9,10.4l-3.4,1.2
				c-1,0.4-1.5,0.1-1.9-0.9L69.9-399z M76.7-388.5l2-0.7c3.4-1.2,4.9-4.1,3.5-7.8c-1.4-3.7-4.3-4.9-7.7-3.7l-2.5,0.9l4,11.1
				C76.1-388.5,76.4-388.3,76.7-388.5z"/>
			<path fill="#DC7676" d="M94.1-398.4l0.5-0.1l0-0.1c-0.3-2-1.2-2.6-3-2.3c-0.5,0.1-1.9,0.5-1.7,1.2l0.1,0.7l-2.1,0.3l-0.2-1.1
				c-0.3-1.9,2.5-2.6,3.6-2.8c3.7-0.6,5,1.2,5.5,3.7l0.8,4.9c0.1,0.3,0.3,0.5,0.6,0.4l0.9-0.2l0.3,1.9l-2.1,0.3
				c-1,0.2-1.5-0.3-1.6-1.1c-0.1-0.4-0.1-0.7-0.1-0.7l0,0c0,0-0.5,2.4-3.3,2.9c-2,0.3-4.1-0.5-4.5-2.8C87.2-397,92.1-398,94.1-398.4
				z M92.5-392.3c1.9-0.3,2.7-2.5,2.5-4.2l-0.1-0.4l-0.6,0.1c-1.7,0.3-4.6,0.9-4.3,3C90.2-392.8,91-392,92.5-392.3z"/>
			<path fill="#DC7676" d="M100.7-401.8l-1.5,0.1l-0.2-1.8l1.6-0.1l-0.3-3.2l2.2-0.2l0.3,3.2l2.8-0.3l0.2,1.8l-2.8,0.3l0.5,5.3
				c0.2,2.3,1.8,2.5,2.7,2.4c0.3,0,0.5-0.1,0.5-0.1l0.2,2c0,0-0.3,0.1-0.8,0.1c-1.5,0.1-4.5,0-4.8-3.9L100.7-401.8z"/>
			<path fill="#DC7676" d="M114.9-400.2l0.5,0l0-0.1c-0.1-2-0.9-2.8-2.7-2.7c-0.6,0-1.9,0.2-1.9,1l0,0.7l-2.1,0.1l0-1.1
				c-0.1-1.9,2.8-2.3,3.9-2.3c3.8-0.1,4.8,1.8,4.9,4.4l0.2,4.9c0,0.3,0.2,0.5,0.5,0.5l0.9,0l0.1,1.9l-2.1,0.1c-1,0-1.5-0.5-1.5-1.3
				c0-0.4,0-0.7,0-0.7l0,0c0,0-0.8,2.3-3.6,2.4c-2,0.1-4-1.1-4.1-3.4C107.9-399.7,112.9-400.1,114.9-400.2z M112.5-394.3
				c1.9-0.1,3-2.1,3-3.8l0-0.4l-0.6,0c-1.7,0.1-4.7,0.3-4.6,2.4C110.3-395.2,111-394.3,112.5-394.3z"/>
			<path fill="#DC7676" d="M121.8-406.9c0-0.3-0.2-0.5-0.5-0.5l-0.9,0l0.1-1.9l2.2,0.1c1,0,1.5,0.5,1.4,1.5l-0.1,3.8
				c0,0.6-0.1,1-0.1,1l0,0c0,0,1.1-1.9,3.8-1.8c3.1,0.1,5,2.7,4.9,6.3c-0.1,3.7-2.4,6-5.5,5.9c-2.6-0.1-3.6-2.1-3.6-2.1l0,0
				c0,0,0,0.4,0,0.9l0,0.8l-2.1-0.1L121.8-406.9z M126.9-394.5c1.8,0.1,3.4-1.4,3.5-4c0.1-2.5-1.2-4.2-3.2-4.3
				c-1.7-0.1-3.4,1.1-3.5,4.1C123.7-396.7,124.7-394.6,126.9-394.5z"/>
			<path fill="#DC7676" d="M141.5-399l0.5,0.1l0-0.1c0.2-2-0.4-2.8-2.3-3c-0.5-0.1-1.9-0.1-2,0.7l-0.1,0.7l-2.1-0.2l0.1-1.1
				c0.2-1.9,3.1-1.9,4.2-1.7c3.7,0.4,4.5,2.5,4.3,5l-0.5,4.9c0,0.3,0.1,0.5,0.4,0.6l0.9,0.1l-0.2,1.9l-2.1-0.2
				c-1-0.1-1.4-0.7-1.3-1.5c0-0.4,0.1-0.7,0.1-0.7l0,0c0,0-1.2,2.2-3.9,1.9c-2-0.2-3.8-1.6-3.5-4C134.5-399.5,139.6-399.2,141.5-399
				z M138.3-393.6c1.9,0.2,3.3-1.6,3.5-3.3l0-0.4l-0.6-0.1c-1.7-0.2-4.7-0.4-4.9,1.7C136.2-394.7,136.8-393.8,138.3-393.6z"/>
			<path fill="#DC7676" d="M147.4-394.2c0,0,1,2,3.1,2.4c1.1,0.2,2.1-0.1,2.3-1.1c0.4-2.1-5.9-3.1-5.1-6.8c0.4-2.2,2.6-2.8,4.9-2.3
				c1.4,0.3,3.6,1.2,3.3,3l-0.2,1.1l-2-0.4l0.1-0.6c0.1-0.7-0.8-1.2-1.5-1.3c-1.3-0.3-2.2,0-2.4,0.9c-0.4,2.2,5.9,2.9,5.1,6.8
				c-0.4,2-2.5,3-4.9,2.5c-3-0.6-4.2-2.9-4.2-2.9L147.4-394.2z"/>
			<path fill="#DC7676" d="M165.1-398.4c3.1,1.2,3.8,4.1,2.8,6.9c-0.1,0.3-0.4,0.8-0.4,0.8l-7.9-3c-0.8,2.4,0.4,4.3,2.4,5.1
				c1.9,0.7,3.7-0.1,3.7-0.1l0.3,1.8c0,0-2.2,1-4.8,0c-3.4-1.3-4.9-4.7-3.6-7.9C158.8-398.3,162-399.6,165.1-398.4z M166-393.1
				c0.6-1.8-0.2-3.2-1.5-3.7c-1.6-0.6-3.2-0.1-4.3,1.6L166-393.1z"/>
		</g>
		<path fill="#DC7676" stroke="#F8E2D2" stroke-miterlimit="10" d="M120.1-339.7c-21.2,0-38.4-4.6-38.4-10.2"/>
		<path fill="#DC7676" stroke="#F8E2D2" stroke-miterlimit="10" d="M158.5-349.9c0,5.6-17.2,10.2-38.4,10.2"/>
		<path fill="#DC7676" stroke="#F8E2D2" stroke-miterlimit="10" d="M120.1-315.2c-21.2,0-38.4-4.6-38.4-10.2"/>
		<path fill="#DC7676" stroke="#F8E2D2" stroke-miterlimit="10" d="M158.5-325.4c0,5.6-17.2,10.2-38.4,10.2"/>
	</g>
	<g>
		<g>
			<path fill="#F8E2D2" d="M305.2-148.2h-36c-4.8,0-8.7-3.9-8.7-8.7v-24c0-4.8,3.9-8.7,8.7-8.7h36c4.8,0,8.7,3.9,8.7,8.7v24
				C313.8-152,310-148.2,305.2-148.2z"/>
		</g>
		<g>
			<path fill="#F8E2D2" d="M436.6-142.6h-36c-4.8,0-8.7-3.9-8.7-8.7v-24c0-4.8,3.9-8.7,8.7-8.7h36c4.8,0,8.7,3.9,8.7,8.7v24
				C445.3-146.5,441.4-142.6,436.6-142.6z"/>
		</g>
		<g>
			<path fill="#F8E2D2" d="M348.5-136.1c2.3,0,6.4,1,6.4,3.7v1.7h-2.2v-1c0-1.4-2.4-2.1-4.1-2.1c-3.4,0-6,2.6-6,6.4
				c0,3.7,2.7,6.6,6.1,6.6c3.4,0,5.4-2.3,5.4-2.3l1.3,1.7c0,0-2.4,2.8-6.7,2.8c-5.1,0-8.6-3.9-8.6-8.9
				C340-132.4,343.7-136.1,348.5-136.1z"/>
			<path fill="#F8E2D2" d="M363.5-131.3c3.6,0,6.6,2.7,6.6,6.3c0,3.7-2.9,6.4-6.6,6.4c-3.6,0-6.5-2.7-6.5-6.4
				C356.9-128.6,359.8-131.3,363.5-131.3z M363.5-120.6c2.3,0,4.2-1.8,4.2-4.4c0-2.5-1.9-4.3-4.2-4.3c-2.3,0-4.2,1.8-4.2,4.3
				C359.3-122.4,361.2-120.6,363.5-120.6z"/>
			<path fill="#F8E2D2" d="M372.9-128.5c0-0.4-0.2-0.5-0.5-0.5h-1v-2h2.2c1.1,0,1.5,0.5,1.5,1.3v0.5c0,0.4,0,0.7,0,0.7h0
				c0.6-1.4,2.3-2.8,4.2-2.8c2.1,0,3.2,0.9,3.6,2.8h0c0.7-1.5,2.4-2.8,4.3-2.8c2.7,0,4,1.6,4,4.7v5.3c0,0.4,0.2,0.5,0.5,0.5h1v2
				h-2.3c-1.1,0-1.5-0.5-1.5-1.5v-5.7c0-1.7-0.3-3-2.1-3c-1.7,0-3,1.5-3.4,3.1c-0.1,0.5-0.2,1-0.2,1.7v5.5H381v-7.3
				c0-1.6-0.2-3-2.1-3c-1.8,0-3,1.5-3.5,3.2c-0.1,0.5-0.2,1-0.2,1.6v5.5h-2.3V-128.5z"/>
			<path fill="#F8E2D2" d="M395.4-128.5c0-0.4-0.2-0.5-0.5-0.5h-1v-2h2.2c1.1,0,1.5,0.5,1.5,1.3v0.5c0,0.4,0,0.7,0,0.7h0
				c0.6-1.4,2.3-2.8,4.2-2.8c2.1,0,3.2,0.9,3.6,2.8h0c0.7-1.5,2.4-2.8,4.3-2.8c2.7,0,4,1.6,4,4.7v5.3c0,0.4,0.2,0.5,0.5,0.5h1v2
				h-2.3c-1.1,0-1.5-0.5-1.5-1.5v-5.7c0-1.7-0.3-3-2.1-3c-1.7,0-3,1.5-3.4,3.1c-0.1,0.5-0.2,1-0.2,1.7v5.5h-2.3v-7.3
				c0-1.6-0.2-3-2.1-3c-1.8,0-3,1.5-3.5,3.2c-0.1,0.5-0.2,1-0.2,1.6v5.5h-2.3V-128.5z"/>
			<path fill="#F8E2D2" d="M424-126.4h0.5v-0.1c0-2.1-0.8-2.9-2.7-2.9c-0.6,0-2,0.1-2,0.9v0.7h-2.2v-1.2c0-2,3-2.3,4.2-2.3
				c3.9,0,5,2.1,5,4.8v5.2c0,0.4,0.2,0.5,0.5,0.5h1v2h-2.2c-1.1,0-1.5-0.5-1.5-1.4c0-0.4,0-0.7,0-0.7h0c0,0-1,2.4-3.9,2.4
				c-2.1,0-4.1-1.3-4.1-3.7C416.7-126.2,422-126.4,424-126.4z M421.4-120.4c2,0,3.2-2.1,3.2-3.9v-0.4H424c-1.8,0-4.9,0.1-4.9,2.3
				C419.1-121.4,419.8-120.4,421.4-120.4z"/>
			<path fill="#F8E2D2" d="M430.9-128.5c0-0.4-0.2-0.5-0.5-0.5h-1v-2h2.2c1,0,1.5,0.5,1.5,1.3v0.5c0,0.4,0,0.7,0,0.7h0
				c0.5-1.1,1.9-2.8,4.6-2.8c2.9,0,4.2,1.6,4.2,4.7v5.3c0,0.4,0.2,0.5,0.5,0.5h1v2h-2.3c-1.1,0-1.5-0.5-1.5-1.5v-5.7
				c0-1.7-0.3-3-2.3-3c-1.9,0-3.4,1.2-3.8,3c-0.2,0.5-0.2,1-0.2,1.6v5.7h-2.3V-128.5z"/>
			<path fill="#F8E2D2" d="M450.3-131.3c2.8,0,3.7,1.9,3.7,1.9h0c0,0,0-0.4,0-0.8v-3c0-0.4-0.2-0.5-0.5-0.5h-1v-2h2.3
				c1.1,0,1.5,0.5,1.5,1.5v12.9c0,0.4,0.2,0.5,0.5,0.5h1v2h-2.2c-1.1,0-1.5-0.5-1.5-1.3c0-0.4,0-0.6,0-0.6h0c0,0-1,2.2-4,2.2
				c-3.3,0-5.4-2.6-5.4-6.4C444.8-128.8,447.1-131.3,450.3-131.3z M454.1-125c0-2.2-1.1-4.3-3.5-4.3c-1.9,0-3.5,1.6-3.5,4.3
				c0,2.6,1.4,4.3,3.4,4.3C452.4-120.6,454.1-121.9,454.1-125z"/>
		</g>
		<g>
			<path fill="#F8E2D2" d="M253-212.1h-1.6v-2.1h10c1.1,0,1.5,0.5,1.5,1.5v2.1h-2.2v-1.1c0-0.4-0.2-0.5-0.5-0.5h-4.8v5.3h5.9v2.1
				h-5.9v4.9c0,0.3,0.2,0.5,0.5,0.5h4.9c0.3,0,0.5-0.2,0.5-0.5v-1.1h2.2v2.1c0,1.1-0.5,1.5-1.5,1.5h-7.5c-1.1,0-1.5-0.5-1.5-1.5
				V-212.1z"/>
			<path fill="#F8E2D2" d="M265.3-206.9c-0.1-0.4-0.4-0.5-0.7-0.5h-0.2v-2h1.2c1.1,0,1.5,0.3,1.8,1.2l2.6,7c0.2,0.7,0.4,1.6,0.4,1.6
				h0c0,0,0.2-0.9,0.4-1.6l2.6-7c0.4-1,0.8-1.2,1.8-1.2h1.1v2h-0.2c-0.4,0-0.6,0.1-0.8,0.5l-3.7,9.7h-2.7L265.3-206.9z"/>
			<path fill="#F8E2D2" d="M283.5-209.7c3.4,0,5.2,2.5,5.2,5.7c0,0.3-0.1,1-0.1,1h-8.9c0.1,2.6,2,4.1,4.2,4.1c2.1,0,3.6-1.4,3.6-1.4
				l1,1.7c0,0-1.8,1.8-4.7,1.8c-3.8,0-6.5-2.8-6.5-6.4C277.4-207.2,280.1-209.7,283.5-209.7z M286.4-204.7c-0.1-2-1.3-3.1-2.9-3.1
				c-1.8,0-3.2,1.1-3.6,3.1H286.4z"/>
			<path fill="#F8E2D2" d="M291.9-206.9c0-0.4-0.2-0.5-0.5-0.5h-1v-2h2.2c1,0,1.5,0.5,1.5,1.3v0.5c0,0.4,0,0.7,0,0.7h0
				c0.5-1.1,1.9-2.8,4.6-2.8c2.9,0,4.2,1.6,4.2,4.7v5.3c0,0.4,0.2,0.5,0.5,0.5h1v2h-2.3c-1.1,0-1.5-0.5-1.5-1.5v-5.7
				c0-1.7-0.3-3-2.3-3c-1.9,0-3.4,1.2-3.8,3c-0.2,0.5-0.2,1-0.2,1.6v5.7h-2.3V-206.9z"/>
			<path fill="#F8E2D2" d="M307-207.5h-1.6v-1.9h1.6v-3.3h2.3v3.3h2.9v1.9h-2.9v5.6c0,2.4,1.7,2.7,2.6,2.7c0.3,0,0.6,0,0.6,0v2.1
				c0,0-0.3,0-0.8,0c-1.5,0-4.6-0.5-4.6-4.5V-207.5z"/>
			<path fill="#F8E2D2" d="M315.1-200.6c0,0,1.4,1.8,3.7,1.8c1.1,0,2.1-0.5,2.1-1.6c0-2.2-6.6-1.9-6.6-5.9c0-2.3,2-3.4,4.5-3.4
				c1.5,0,4,0.5,4,2.4v1.2h-2.1v-0.6c0-0.7-1.1-1-1.8-1c-1.4,0-2.3,0.5-2.3,1.4c0,2.3,6.6,1.8,6.6,5.9c0,2.2-1.9,3.6-4.5,3.6
				c-3.2,0-4.8-2.1-4.8-2.1L315.1-200.6z"/>
		</g>
		<path fill="#F8E2D2" stroke="#DC7676" stroke-width="2" stroke-miterlimit="10" d="M310.3-142.6h-36c-4.8,0-8.7-3.9-8.7-8.7v-24
			c0-4.8,3.9-8.7,8.7-8.7h36c4.8,0,8.7,3.9,8.7,8.7v24C318.9-146.5,315.1-142.6,310.3-142.6z"/>
		<path fill="#F8E2D2" stroke="#DC7676" stroke-width="2" stroke-miterlimit="10" d="M315.9-136.5h-36c-4.8,0-8.7-3.9-8.7-8.7v-24
			c0-4.8,3.9-8.7,8.7-8.7h36c4.8,0,8.7,3.9,8.7,8.7v24C324.6-140.4,320.7-136.5,315.9-136.5z"/>
	</g>
	<g>
		<g>
			<path fill="#F8E2D2" d="M338.1-330.1h-36c-4.8,0-8.7-3.9-8.7-8.7v-24c0-4.8,3.9-8.7,8.7-8.7h36c4.8,0,8.7,3.9,8.7,8.7v24
				C346.7-333.9,342.9-330.1,338.1-330.1z"/>
		</g>
		<g>
			<line fill="#F8E2D2" x1="358.6" y1="-284.5" x2="334.6" y2="-330.1"/>
			<g>
				<line fill="none" stroke="#F8E2D2" stroke-width="4" stroke-miterlimit="10" x1="358.6" y1="-284.5" x2="341.3" y2="-317.4"/>
				<g>
					<polygon fill="#F8E2D2" points="351.4,-319.4 334.6,-330.1 333.8,-310.1 					"/>
				</g>
			</g>
		</g>
		<g>
			<path fill="#F8E2D2" d="M419.2-330.1h-36c-4.8,0-8.7-3.9-8.7-8.7v-24c0-4.8,3.9-8.7,8.7-8.7h36c4.8,0,8.7,3.9,8.7,8.7v24
				C427.9-333.9,424-330.1,419.2-330.1z"/>
		</g>
		<g>
			<line fill="#F8E2D2" x1="371" y1="-290.6" x2="389.4" y2="-330.1"/>
			<g>
				<line fill="none" stroke="#F8E2D2" stroke-width="4" stroke-miterlimit="10" x1="371" y1="-290.6" x2="383.3" y2="-317.1"/>
				<g>
					<polygon fill="#F8E2D2" points="391.2,-310.2 389.4,-330.1 373.1,-318.6 					"/>
				</g>
			</g>
		</g>
		<g>
			<path fill="#F8E2D2" d="M379.2-260h-36c-4.8,0-8.7-3.9-8.7-8.7v-24c0-4.8,3.9-8.7,8.7-8.7h36c4.8,0,8.7,3.9,8.7,8.7v24
				C387.9-263.9,384-260,379.2-260z"/>
		</g>
		<g>
			<path fill="#F8E2D2" d="M297.7-395.5c4.9,0,8.7,3.8,8.7,8.7c0,2.1-0.8,4.1-2,5.6l1.9,1.9l-1.4,1.5l-1.9-1.9
				c-1.5,1.2-3.3,1.8-5.3,1.8c-4.9,0-8.7-3.9-8.7-8.9C289.1-391.7,292.8-395.5,297.7-395.5z M297.7-380.2c2.2,0,3.6-1.2,3.6-1.2
				l-1.9-1.8l1.4-1.6l1.8,1.9c0.8-1.1,1.2-2.5,1.2-3.9c0-3.7-2.7-6.4-6.2-6.4c-3.5,0-6.2,2.7-6.2,6.4
				C291.5-383.1,294.3-380.2,297.7-380.2z"/>
			<path fill="#F8E2D2" d="M309.4-387.9c0-0.4-0.2-0.5-0.5-0.5h-1v-2h2.3c1.1,0,1.6,0.5,1.6,1.5v5.8c0,1.7,0.3,3,2.3,3
				c2.5,0,4-2.2,4-4.6v-5.7h2.3v9.6c0,0.4,0.2,0.5,0.5,0.5h1v2h-2.2c-1,0-1.5-0.5-1.5-1.3v-0.5c0-0.4,0-0.7,0-0.7h0
				c-0.5,1.2-2.1,2.8-4.5,2.8c-2.7,0-4.1-1.4-4.1-4.7V-387.9z"/>
			<path fill="#F8E2D2" d="M329.3-390.7c3.4,0,5.2,2.5,5.2,5.7c0,0.3-0.1,1-0.1,1h-8.9c0.1,2.6,2,4.1,4.2,4.1c2.1,0,3.6-1.4,3.6-1.4
				l1,1.7c0,0-1.8,1.8-4.7,1.8c-3.8,0-6.5-2.8-6.5-6.4C323.2-388.2,325.8-390.7,329.3-390.7z M332.1-385.7c-0.1-2-1.3-3.1-2.9-3.1
				c-1.8,0-3.2,1.1-3.6,3.1H332.1z"/>
			<path fill="#F8E2D2" d="M337.6-387.9c0-0.4-0.2-0.5-0.5-0.5h-1v-2h2.2c1.1,0,1.6,0.4,1.6,1.4v0.8c0,0.5,0,0.8,0,0.8h0
				c0.6-1.8,2-3.2,3.8-3.2c0.3,0,0.6,0,0.6,0v2.3c0,0-0.3-0.1-0.7-0.1c-1.5,0-2.9,1.1-3.4,2.9c-0.2,0.7-0.3,1.4-0.3,2.2v5h-2.3
				V-387.9z"/>
			<path fill="#F8E2D2" d="M348-375.2c0.9,0,1.7-0.7,2.1-1.8l0.6-1.3l-4.2-9.6c-0.2-0.4-0.4-0.5-0.8-0.5h-0.3v-2h1.4
				c1,0,1.3,0.3,1.7,1.2l2.8,6.8c0.2,0.6,0.4,1.5,0.4,1.5h0c0,0,0.2-0.8,0.4-1.5l2.5-6.8c0.4-1,0.8-1.2,1.8-1.2h1.4v2h-0.3
				c-0.4,0-0.6,0.1-0.8,0.5l-4.8,11.9c-0.7,1.9-2.2,2.9-3.9,2.9c-1.8,0-2.9-1.2-2.9-1.2l1-1.7C346.3-376.1,347-375.2,348-375.2z"/>
			<path fill="#F8E2D2" d="M365.2-380.3h0.8c0.3,0,0.5-0.2,0.5-0.5l1.2-14.4h2.5l4,9c0.4,0.9,0.8,2.1,0.8,2.1h0c0,0,0.4-1.2,0.8-2.1
				l4-9h2.5l1.2,14.4c0,0.3,0.2,0.5,0.5,0.5h0.8v2.1h-2.1c-1.1,0-1.5-0.5-1.5-1.5l-0.7-9c-0.1-1,0-2.5,0-2.5h0c0,0-0.5,1.6-0.9,2.5
				l-3.4,7.4h-2l-3.4-7.4c-0.4-0.9-0.9-2.5-0.9-2.5h0c0,0,0,1.5,0,2.5l-0.7,9c-0.1,1.1-0.5,1.5-1.6,1.5h-2.1V-380.3z"/>
			<path fill="#F8E2D2" d="M392.7-390.7c3.6,0,6.6,2.7,6.6,6.3c0,3.7-2.9,6.4-6.6,6.4s-6.5-2.7-6.5-6.4
				C386.2-388,389.1-390.7,392.7-390.7z M392.7-380c2.3,0,4.2-1.8,4.2-4.4c0-2.5-1.9-4.3-4.2-4.3c-2.3,0-4.2,1.8-4.2,4.3
				C388.6-381.8,390.4-380,392.7-380z"/>
			<path fill="#F8E2D2" d="M406.5-390.7c2.8,0,3.7,1.9,3.7,1.9h0c0,0,0-0.4,0-0.8v-3c0-0.4-0.2-0.5-0.5-0.5h-1v-2h2.3
				c1.1,0,1.5,0.5,1.5,1.5v12.9c0,0.4,0.2,0.5,0.5,0.5h1v2h-2.2c-1.1,0-1.5-0.5-1.5-1.3c0-0.4,0-0.6,0-0.6h0c0,0-1,2.2-4,2.2
				c-3.3,0-5.4-2.6-5.4-6.4C401-388.2,403.3-390.7,406.5-390.7z M410.3-384.4c0-2.2-1.1-4.3-3.5-4.3c-1.9,0-3.5,1.6-3.5,4.3
				c0,2.6,1.4,4.3,3.4,4.3C408.6-380,410.3-381.3,410.3-384.4z"/>
			<path fill="#F8E2D2" d="M421.6-390.7c3.4,0,5.2,2.5,5.2,5.7c0,0.3-0.1,1-0.1,1h-8.9c0.1,2.6,2,4.1,4.2,4.1c2.1,0,3.6-1.4,3.6-1.4
				l1,1.7c0,0-1.8,1.8-4.7,1.8c-3.8,0-6.5-2.8-6.5-6.4C415.5-388.2,418.1-390.7,421.6-390.7z M424.4-385.7c-0.1-2-1.3-3.1-2.9-3.1
				c-1.8,0-3.2,1.1-3.6,3.1H424.4z"/>
			<path fill="#F8E2D2" d="M429.9-392.7c0-0.4-0.2-0.5-0.5-0.5h-1v-2h2.3c1.1,0,1.5,0.5,1.5,1.5v12.9c0,0.4,0.2,0.5,0.5,0.5h1v2
				h-2.3c-1.1,0-1.5-0.5-1.5-1.5V-392.7z"/>
		</g>
	</g>
	<g>
		<path fill="#DC7676" stroke="#F8E2D2" stroke-miterlimit="10" d="M82.7-189.9v72c0,5.6,17.2,10.2,38.4,10.2
			c21.2,0,38.4-4.6,38.4-10.2v-72H82.7z"/>
		<ellipse fill="#DC7676" stroke="#F8E2D2" stroke-miterlimit="10" cx="121.1" cy="-189.9" rx="38.4" ry="10.2"/>
		<g>
			<path fill="#DC7676" d="M67.3-207.7l-1.2,0.6l-0.8-1.5l7.4-3.8c0.8-0.4,1.3-0.3,1.7,0.5l0.8,1.6l-1.6,0.8l-0.4-0.8
				c-0.1-0.3-0.3-0.3-0.6-0.2l-3.6,1.9l2,3.9l4.4-2.3l0.8,1.5l-4.4,2.3l1.9,3.6c0.1,0.2,0.3,0.3,0.6,0.2l3.7-1.9
				c0.2-0.1,0.3-0.3,0.2-0.6l-0.4-0.8l1.6-0.8l0.8,1.6c0.4,0.8,0.3,1.3-0.5,1.7l-5.6,2.9c-0.8,0.4-1.3,0.3-1.7-0.5L67.3-207.7z"/>
			<path fill="#DC7676" d="M79.7-208.5c-0.2-0.3-0.4-0.3-0.7-0.2l-0.2,0.1l-0.4-1.6l1-0.3c0.9-0.2,1.3-0.1,1.7,0.6l3.6,5.1
				c0.3,0.5,0.7,1.2,0.7,1.2l0,0c0,0,0-0.8,0-1.4l0.6-6.2c0.1-0.9,0.4-1.2,1.2-1.4l0.9-0.2l0.4,1.6l-0.2,0c-0.3,0.1-0.5,0.2-0.5,0.6
				l-1,8.6l-2.2,0.6L79.7-208.5z"/>
			<path fill="#DC7676" d="M94.6-214.1c2.8-0.4,4.6,1.4,5,4c0,0.3,0.1,0.8,0.1,0.8l-7.3,1.1c0.4,2.1,2.2,3.1,4,2.8
				c1.7-0.3,2.7-1.6,2.7-1.6l1,1.2c0,0-1.3,1.7-3.6,2.1c-3.2,0.5-5.7-1.5-6.1-4.4C89.9-211.2,91.7-213.6,94.6-214.1z M97.5-210.4
				c-0.3-1.7-1.5-2.4-2.7-2.2c-1.5,0.2-2.5,1.3-2.6,3L97.5-210.4z"/>
			<path fill="#DC7676" d="M102.2-212.7c0-0.3-0.2-0.4-0.5-0.4l-0.8,0.1l-0.1-1.7l1.9-0.1c0.9-0.1,1.3,0.3,1.4,1l0,0.4
				c0,0.3,0,0.6,0,0.6l0,0c0.3-0.9,1.4-2.4,3.6-2.6c2.4-0.2,3.6,1,3.8,3.6l0.3,4.4c0,0.3,0.2,0.4,0.5,0.4l0.8-0.1l0.1,1.7l-1.9,0.1
				c-0.9,0.1-1.3-0.3-1.4-1.2l-0.4-4.7c-0.1-1.4-0.5-2.5-2.1-2.4c-1.6,0.1-2.7,1.2-3,2.7c-0.1,0.4-0.1,0.9-0.1,1.4l0.4,4.7l-1.9,0.1
				L102.2-212.7z"/>
			<path fill="#DC7676" d="M115-214.1l-1.3,0l0-1.6l1.4,0l-0.1-2.8l1.9,0l0.1,2.8l2.4-0.1l0,1.6l-2.4,0.1l0.1,4.6
				c0,2,1.4,2.2,2.2,2.2c0.3,0,0.5,0,0.5,0l0,1.7c0,0-0.3,0-0.7,0.1c-1.3,0-3.9-0.3-3.9-3.7L115-214.1z"/>
			<path fill="#DC7676" d="M127.6-208.8c0,0,1.3,1.8,3.4,1.9c1.3,0.1,2.5-0.7,2.5-2c0.2-3-6.7-2.9-6.5-7.2c0.1-2.1,2.1-3.7,4.7-3.5
				c1.5,0.1,4,0.9,3.9,2.8l-0.1,1.2l-1.8-0.1l0-0.7c0-0.7-1-1.3-2.1-1.4c-1.5-0.1-2.5,0.7-2.6,1.8c-0.1,2.9,6.7,2.6,6.4,7.2
				c-0.1,2.2-1.9,3.9-4.7,3.8c-3-0.2-4.6-2.3-4.6-2.3L127.6-208.8z"/>
			<path fill="#DC7676" d="M138.7-213.4l-1.3-0.1l0.2-1.6l1.4,0.1l0.3-2.8l1.9,0.2l-0.3,2.8l2.4,0.3l-0.2,1.6l-2.4-0.3l-0.5,4.6
				c-0.2,2,1.2,2.4,1.9,2.5c0.3,0,0.5,0,0.5,0l-0.2,1.7c0,0-0.3,0-0.7,0c-1.3-0.1-3.8-0.8-3.4-4.2L138.7-213.4z"/>
			<path fill="#DC7676" d="M150.5-213.6c3,0.5,5,3.1,4.5,6.1c-0.5,3-3.3,4.8-6.3,4.3c-3-0.5-5-3.1-4.4-6.2
				C144.8-212.3,147.5-214.1,150.5-213.6z M149-204.8c1.9,0.3,3.7-0.9,4.1-3c0.4-2.1-0.9-3.8-2.8-4.1c-1.9-0.3-3.7,0.9-4,3
				C145.8-206.9,147.1-205.1,149-204.8z"/>
			<path fill="#DC7676" d="M158.3-209.6c0.1-0.3,0-0.5-0.3-0.5l-0.8-0.2l0.5-1.6l1.8,0.5c0.8,0.2,1.2,0.7,0.9,1.5l-0.2,0.6
				c-0.1,0.4-0.2,0.7-0.2,0.7l0,0c0.9-1.3,2.3-2.1,3.8-1.7c0.3,0.1,0.5,0.2,0.5,0.2l-0.5,1.8c0,0-0.2-0.1-0.5-0.2
				c-1.2-0.3-2.5,0.2-3.4,1.5c-0.3,0.5-0.6,1.1-0.7,1.7l-1.1,4l-1.9-0.5L158.3-209.6z"/>
			<path fill="#DC7676" d="M171-207.4c2.5,1.3,2.9,3.9,1.7,6.2c-0.1,0.2-0.4,0.7-0.4,0.7l-6.5-3.4c-0.9,2-0.1,3.8,1.5,4.6
				c1.5,0.8,3.2,0.3,3.2,0.3l0.1,1.6c0,0-2,0.6-4.1-0.5c-2.8-1.5-3.7-4.5-2.3-7.2C165.5-207.9,168.4-208.7,171-207.4z M171.2-202.7
				c0.7-1.5,0.2-2.8-0.9-3.4c-1.3-0.7-2.8-0.4-3.8,0.9L171.2-202.7z"/>
		</g>
		<path fill="#DC7676" stroke="#F8E2D2" stroke-miterlimit="10" d="M121.1-155.2c-21.2,0-38.4-4.6-38.4-10.2"/>
		<path fill="#DC7676" stroke="#F8E2D2" stroke-miterlimit="10" d="M159.5-165.4c0,5.6-17.2,10.2-38.4,10.2"/>
		<path fill="#DC7676" stroke="#F8E2D2" stroke-miterlimit="10" d="M121.1-130.7c-21.2,0-38.4-4.6-38.4-10.2"/>
		<path fill="#DC7676" stroke="#F8E2D2" stroke-miterlimit="10" d="M159.5-141c0,5.6-17.2,10.2-38.4,10.2"/>
	</g>
	<g>
		<line fill="#FAAE24" x1="247" y1="-161.6" x2="169.2" y2="-161.6"/>
		<g>
			<line fill="none" stroke="#FAAE24" stroke-width="7" stroke-miterlimit="10" x1="247" y1="-161.6" x2="194.3" y2="-161.6"/>
			<g>
				<polygon fill="#FAAE24" points="199.4,-179 169.2,-161.6 199.4,-144.1 				"/>
			</g>
		</g>
	</g>
	<g>
		<line fill="#FAAE24" x1="379.7" y1="-161.6" x2="336.2" y2="-161.6"/>
		<g>
			<line fill="none" stroke="#FAAE24" stroke-width="7" stroke-miterlimit="10" x1="379.7" y1="-161.6" x2="361.3" y2="-161.6"/>
			<g>
				<polygon fill="#FAAE24" points="366.5,-179 336.2,-161.6 366.5,-144.1 				"/>
			</g>
		</g>
	</g>
	<g>
		<line fill="#FAAE24" x1="122.7" y1="-227.7" x2="122.7" y2="-277.3"/>
		<g>
			<line fill="none" stroke="#FAAE24" stroke-width="7" stroke-miterlimit="10" x1="122.7" y1="-227.7" x2="122.7" y2="-252.2"/>
			<g>
				<polygon fill="#FAAE24" points="140.2,-247.1 122.7,-277.3 105.3,-247.1 				"/>
			</g>
		</g>
	</g>
	<g>
		<line fill="#FAAE24" x1="172.6" y1="-344.8" x2="250.4" y2="-344.8"/>
		<g>
			<line fill="none" stroke="#FAAE24" stroke-width="7" stroke-miterlimit="10" x1="172.6" y1="-344.8" x2="225.3" y2="-344.8"/>
			<g>
				<polygon fill="#FAAE24" points="220.2,-327.3 250.4,-344.8 220.2,-362.2 				"/>
			</g>
		</g>
	</g>
	<g>
		<path fill="#DC7676" d="M676.8-292.5h-6.2h-1.8h-61.1c-5.8,0-10.6,4.7-10.6,10.6v11.5v22.5v12.7c0,5.8,4.7,10.6,10.6,10.6h61.1
			h1.8h6.2c5.8,0,10.6-4.7,10.6-10.6V-248v-22.5v-11.5C687.3-287.7,682.6-292.5,676.8-292.5z"/>
		<g>
			<path fill="#F8E2D2" d="M621.8-266.1c2,0,5.4,0.8,5.4,3.1v1.4h-1.9v-0.8c0-1.2-2.1-1.8-3.5-1.8c-2.9,0-5.2,2.2-5.2,5.5
				c0,3.2,2.3,5.7,5.2,5.7c2.9,0,4.6-2,4.6-2l1.1,1.5c0,0-2.1,2.4-5.7,2.4c-4.3,0-7.4-3.3-7.4-7.6
				C614.5-262.9,617.6-266.1,621.8-266.1z"/>
			<path fill="#F8E2D2" d="M629.9-263.7c0-0.3-0.2-0.5-0.5-0.5h-0.8v-1.7h2c0.9,0,1.3,0.4,1.3,1.3v11c0,0.3,0.2,0.5,0.5,0.5h0.8v1.7
				h-2c-0.9,0-1.3-0.4-1.3-1.3V-263.7z"/>
			<path fill="#F8E2D2" d="M635.5-259.6c0-0.3-0.2-0.5-0.5-0.5h-0.8v-1.7h2c0.9,0,1.3,0.4,1.3,1.3v6.9c0,0.3,0.2,0.5,0.5,0.5h0.8
				v1.7h-2c-0.9,0-1.3-0.4-1.3-1.3V-259.6z M635.6-265.8h1.8v2.1h-1.8V-265.8z"/>
			<path fill="#F8E2D2" d="M645.3-262c2.9,0,4.5,2.2,4.5,4.9c0,0.3-0.1,0.8-0.1,0.8h-7.6c0.1,2.2,1.7,3.5,3.6,3.5c1.8,0,3-1.2,3-1.2
				l0.9,1.4c0,0-1.5,1.5-4,1.5c-3.3,0-5.5-2.4-5.5-5.4C640.1-259.8,642.3-262,645.3-262z M647.7-257.7c-0.1-1.7-1.2-2.6-2.4-2.6
				c-1.5,0-2.8,0.9-3.1,2.6H647.7z"/>
			<path fill="#F8E2D2" d="M652.4-259.6c0-0.3-0.2-0.5-0.5-0.5h-0.8v-1.7h1.9c0.9,0,1.3,0.4,1.3,1.2v0.4c0,0.3,0,0.6,0,0.6h0
				c0.4-0.9,1.6-2.4,3.9-2.4c2.5,0,3.6,1.3,3.6,4v4.5c0,0.3,0.2,0.5,0.5,0.5h0.8v1.7h-2c-0.9,0-1.3-0.4-1.3-1.3v-4.9
				c0-1.5-0.3-2.6-2-2.6c-1.6,0-2.9,1-3.3,2.5c-0.1,0.4-0.2,0.9-0.2,1.4v4.9h-2V-259.6z"/>
			<path fill="#F8E2D2" d="M665.3-260.1H664v-1.6h1.4v-2.9h2v2.9h2.5v1.6h-2.5v4.8c0,2.1,1.4,2.3,2.2,2.3c0.3,0,0.5,0,0.5,0v1.8
				c0,0-0.3,0-0.7,0c-1.3,0-4-0.4-4-3.9V-260.1z"/>
		</g>
	</g>
	<g>
		<g>
			<path fill="none" stroke="#FAAE24" stroke-width="7" stroke-miterlimit="10" d="M642.2-201.1v24.3c0,8.1-6.6,14.7-14.7,14.7
				h-79.2"/>
			<g>
				<polygon fill="#FAAE24" points="553.5,-179.5 523.2,-162.1 553.5,-144.6 				"/>
			</g>
		</g>
	</g>
	<g>
		<g>
			<path fill="none" stroke="#FAAE24" stroke-width="7" stroke-miterlimit="10" d="M523.2-360.3h99.2c8.1,0,14.7,6.6,14.7,14.7v7.6"
				/>
			<g>
				<polygon fill="#FAAE24" points="619.6,-343.2 637.1,-313 654.5,-343.2 				"/>
			</g>
		</g>
	</g>
</g>
<g id="Layer_9">
	<path fill="#DC7676" d="M490.5,344.5v-39.6h0.2v-4.4v-26.2h11.1v-21.4h-12V130.2h12v-19h-11.1v-62h11.1V19.4c0-5.5-4.4-9.9-9.9-9.9
		H238.1c-5.5,0-9.9,4.4-9.9,9.9V185v148.9v44c0,5.5,4.4,9.9,9.9,9.9H492c5.5,0,9.9-4.4,9.9-9.9v-17h-11.3v-6V344.5z"/>
	<g>
		<path fill="#FAAE24" d="M502.4,319.7c0.8,0,1.6-0.6,1.6-1.9c0-1.6-1.7-2.7-3.2-2.7h-0.3v0.5C500.4,317,500.5,319.7,502.4,319.7z"
			/>
		<path fill="#FAAE24" d="M496.6,292.8c0,1.9,1.5,3.5,3.6,3.5c2.1,0,3.6-1.6,3.6-3.5c0-1.9-1.5-3.5-3.6-3.5
			C498.1,289.4,496.6,290.9,496.6,292.8z"/>
		<path fill="#FAAE24" d="M485,273.8v86.9c0,3.3,2.7,5.9,5.9,5.9h16.5c3.3,0,5.9-2.7,5.9-5.9v-86.9c0-3.3-2.7-5.9-5.9-5.9H491
			C487.7,267.9,485,270.5,485,273.8z M491.2,302.6v-1.7h2v1.7H491.2z M505.3,342.1v1.9c0,0.9-0.4,1.3-1.3,1.3h-4.8
			c-1.4,0-2.5,0.3-2.5,1.8c0,1.4,1.2,2.5,2.6,2.8c0.4,0.1,0.9,0.2,1.4,0.2h4.6v1.9h-6c-1.3,0-2.5,0.2-2.5,1.7c0,1.5,1.2,2.5,2.7,2.9
			c0.4,0.1,0.8,0.1,1.3,0.1h4.6v1.9h-8c-0.3,0-0.4,0.2-0.4,0.4v0.8h-1.7v-1.9c0-0.9,0.4-1.3,1.1-1.3h0.4c0.3,0,0.6,0,0.6,0v0
			c-1.2-0.5-2.3-1.9-2.3-3.5c0-1.7,0.8-2.7,2.3-3v0c-1.2-0.6-2.3-2-2.3-3.6c0-2.3,1.3-3.3,3.9-3.3h4.4c0.3,0,0.4-0.2,0.4-0.4v-0.8
			H505.3z M505.3,329.7v1.9c0,0.9-0.4,1.3-1.1,1.3h-0.4c-0.3,0-0.6,0-0.6,0v0c1,0.4,2.3,1.7,2.3,3.7c0,2.3-1.2,3.4-3.9,3.4h-4.4
			c-0.3,0-0.4,0.2-0.4,0.4v0.8h-1.7v-1.9c0-0.9,0.4-1.3,1.2-1.3h4.8c1.4,0,2.5-0.3,2.5-1.9c0-2.1-1.8-3.3-3.8-3.3h-4.7V331h8
			c0.3,0,0.4-0.2,0.4-0.4v-0.8H505.3z M505.3,323c0,0,0,0.3,0,0.7c0,1.3-0.4,3.9-3.8,3.9h-4.8v1.3h-1.6v-1.4h-2.8v-1.9h2.8v-2.4h1.6
			v2.4h4.6c2,0,2.3-1.4,2.3-2.1c0-0.3,0-0.5,0-0.5H505.3z M505.3,311.9v1.8c0,0.9-0.4,1.3-1.2,1.3c-0.3,0-0.6,0-0.6,0v0
			c0,0,2,0.8,2,3.2c0,1.7-1.1,3.4-3.1,3.4c-3.3,0-3.5-4.4-3.5-6.1v-0.4h-0.1c-1.8,0-2.4,0.7-2.4,2.2c0,0.5,0.1,1.7,0.8,1.7h0.6v1.8
			h-1c-1.7,0-1.9-2.5-1.9-3.5c0-3.3,1.7-4.2,4-4.2h4.3c0.3,0,0.4-0.2,0.4-0.4v-0.8H505.3z M505.3,305.2c0,0,0,0.3,0,0.7
			c0,1.3-0.4,3.9-3.8,3.9h-4.8v1.3h-1.6v-1.4h-2.8v-1.9h2.8v-2.4h1.6v2.4h4.6c2,0,2.3-1.4,2.3-2.1c0-0.3,0-0.5,0-0.5H505.3z
			 M505.3,299.5v1.9c0,0.9-0.4,1.3-1.3,1.3h-6.7c-0.3,0-0.4,0.2-0.4,0.4v0.8h-1.7V302c0-0.9,0.4-1.3,1.3-1.3h6.7
			c0.3,0,0.4-0.2,0.4-0.4v-0.8H505.3z M505.5,292.8c0,3-2.2,5.4-5.3,5.4c-3.1,0-5.3-2.4-5.3-5.4c0-3,2.2-5.4,5.3-5.4
			C503.3,287.4,505.5,289.8,505.5,292.8z M505.3,274.6v1.9c0,0.9-0.4,1.3-1.3,1.3h-4.8c-1.4,0-2.5,0.3-2.5,1.9c0,1.6,1,2.8,2.5,3.2
			c0.4,0.1,0.9,0.2,1.4,0.2h4.7v1.9h-8c-0.3,0-0.4,0.2-0.4,0.4v0.8h-1.7v-1.9c0-0.9,0.4-1.3,1.1-1.3h0.4c0.3,0,0.6,0,0.6,0v0
			c-0.9-0.4-2.3-1.6-2.3-3.8c0-2.4,1.3-3.5,3.9-3.5h4.4c0.3,0,0.4-0.2,0.4-0.4v-0.8H505.3z"/>
	</g>
	<g>
		<path fill="#FAAE24" d="M496.5,76.5c0,1.5,0.9,2.7,2.6,3v-5.3C497.4,74.2,496.5,75.2,496.5,76.5z"/>
		<path fill="#FAAE24" d="M496.6,101.1c0,1.6,1.3,2.9,3.6,2.9c2.2,0,3.6-1.2,3.6-2.9c0-1.5-1.1-2.9-3.6-2.9
			C498.4,98.2,496.6,99.2,496.6,101.1z"/>
		<path fill="#FAAE24" d="M485,51.8v55.5c0,3.3,2.7,5.9,5.9,5.9h16.5c3.3,0,5.9-2.7,5.9-5.9V51.8c0-3.3-2.7-5.9-5.9-5.9H491
			C487.7,45.8,485,48.5,485,51.8z M496.9,95.1v0.8c0,0.3,0.1,0.4,0.4,0.4h12v1.9h-4.6c-0.5,0-0.9,0-0.9,0v0c0,0,1.7,0.9,1.7,3.3
			c0,2.7-2.2,4.4-5.3,4.4c-3.2,0-5.3-1.9-5.3-4.6c0-2.4,1.7-3.3,1.7-3.3v0c0,0-0.2,0-0.5,0c-0.6,0-1-0.4-1-1.2v-1.8H496.9z
			 M505.3,82.7v1.9c0,0.9-0.4,1.3-1.1,1.3h-0.4c-0.3,0-0.6,0-0.6,0v0c1,0.4,2.3,1.7,2.3,3.7c0,2.3-1.2,3.4-3.9,3.4h-4.4
			c-0.3,0-0.4,0.2-0.4,0.4v0.8h-1.7v-1.9c0-0.9,0.4-1.3,1.2-1.3h4.8c1.4,0,2.5-0.3,2.5-1.9c0-2.1-1.8-3.3-3.8-3.3h-4.7V84h8
			c0.3,0,0.4-0.2,0.4-0.4v-0.8H505.3z M500.5,72.2v7.4c2.2-0.1,3.4-1.7,3.4-3.5c0-1.7-1.2-3-1.2-3l1.4-0.8c0,0,1.5,1.5,1.5,3.9
			c0,3.2-2.3,5.4-5.3,5.4c-3.2,0-5.3-2.2-5.3-5.1c0-2.8,2.1-4.4,4.7-4.4C500,72.1,500.5,72.2,500.5,72.2z M497,64
			c0,0-0.1,0.3-0.1,0.6c0,1.2,0.9,2.4,2.4,2.8c0.6,0.2,1.2,0.2,1.8,0.2h4.1v1.9h-8c-0.3,0-0.4,0.2-0.4,0.4v0.8h-1.7V69
			c0-0.9,0.4-1.3,1.2-1.3h0.6c0.4,0,0.7,0,0.7,0v0c-1.5-0.5-2.6-1.6-2.6-3.2c0-0.3,0-0.5,0-0.5H497z M496.9,52.6v0.3
			c0,0.3,0.1,0.5,0.4,0.6l9.9,4c1.6,0.6,2.4,1.8,2.4,3.3c0,1.5-1,2.4-1,2.4l-1.4-0.8c0,0,0.7-0.6,0.7-1.5c0-0.8-0.6-1.4-1.5-1.8
			l-1.1-0.5l-8,3.5c-0.3,0.1-0.4,0.3-0.4,0.6V63h-1.7v-1.1c0-0.8,0.2-1.1,1-1.4l5.7-2.3c0.5-0.2,1.2-0.4,1.2-0.4v0
			c0,0-0.7-0.1-1.2-0.3l-5.7-2.1c-0.8-0.3-1-0.7-1-1.5v-1.2H496.9z"/>
	</g>
	<g>
		<path fill="#DC7676" stroke="#F8E2D2" stroke-miterlimit="10" d="M85.1,62.3v72c0,5.6,17.2,10.2,38.4,10.2
			c21.2,0,38.4-4.6,38.4-10.2v-72H85.1z"/>
		<ellipse fill="#DC7676" stroke="#F8E2D2" stroke-miterlimit="10" cx="123.5" cy="62.3" rx="38.4" ry="10.2"/>
		<g>
			<path fill="#DC7676" d="M73.2,37.7l-1.4,0.5l-0.7-1.9l6.2-2.2c4.6-1.7,8.7,0,10.5,4.8c1.8,4.8-0.3,8.8-4.9,10.4l-3.4,1.2
				c-1,0.4-1.5,0.1-1.9-0.9L73.2,37.7z M80,48.3l2-0.7c3.4-1.2,4.9-4.1,3.5-7.8c-1.4-3.7-4.3-4.9-7.7-3.7l-2.5,0.9l4,11.1
				C79.5,48.2,79.7,48.4,80,48.3z"/>
			<path fill="#DC7676" d="M97.4,38.3l0.5-0.1l0-0.1c-0.3-2-1.2-2.6-3-2.3c-0.5,0.1-1.9,0.5-1.7,1.2l0.1,0.7L91.2,38L91,36.9
				c-0.3-1.9,2.5-2.6,3.6-2.8c3.7-0.6,5,1.2,5.5,3.7l0.8,4.9c0.1,0.3,0.3,0.5,0.6,0.4l0.9-0.2l0.3,1.9l-2.1,0.3
				c-1,0.2-1.5-0.3-1.6-1.1C99,43.7,99,43.4,99,43.4l0,0c0,0-0.5,2.4-3.3,2.9c-2,0.3-4.1-0.5-4.5-2.8C90.5,39.7,95.5,38.7,97.4,38.3
				z M95.8,44.4c1.9-0.3,2.7-2.5,2.5-4.2l-0.1-0.4L97.7,40c-1.7,0.3-4.6,0.9-4.3,3C93.5,43.9,94.4,44.7,95.8,44.4z"/>
			<path fill="#DC7676" d="M104,34.9l-1.5,0.1l-0.2-1.8l1.6-0.1l-0.3-3.2l2.2-0.2l0.3,3.2l2.8-0.3l0.2,1.8l-2.8,0.3l0.5,5.3
				c0.2,2.3,1.8,2.5,2.7,2.4c0.3,0,0.5-0.1,0.5-0.1l0.2,2c0,0-0.3,0.1-0.8,0.1c-1.5,0.1-4.5,0-4.8-3.9L104,34.9z"/>
			<path fill="#DC7676" d="M118.2,36.5l0.5,0l0-0.1c-0.1-2-0.9-2.8-2.7-2.7c-0.6,0-1.9,0.2-1.9,1l0,0.7l-2.1,0.1l0-1.1
				c-0.1-1.9,2.8-2.3,3.9-2.3c3.8-0.1,4.8,1.8,4.9,4.4l0.2,4.9c0,0.3,0.2,0.5,0.5,0.5l0.9,0l0.1,1.9l-2.1,0.1c-1,0-1.5-0.5-1.5-1.3
				c0-0.4,0-0.7,0-0.7l0,0c0,0-0.8,2.3-3.6,2.4c-2,0.1-4-1.1-4.1-3.4C111.2,37,116.3,36.6,118.2,36.5z M115.9,42.4
				c1.9-0.1,3-2.1,3-3.8l0-0.4l-0.6,0c-1.7,0.1-4.7,0.3-4.6,2.4C113.7,41.5,114.4,42.4,115.9,42.4z"/>
			<path fill="#DC7676" d="M125.2,29.9c0-0.3-0.2-0.5-0.5-0.5l-0.9,0l0.1-1.9l2.2,0.1c1,0,1.5,0.5,1.4,1.5l-0.1,3.8
				c0,0.6-0.1,1-0.1,1l0,0c0,0,1.1-1.9,3.8-1.8c3.1,0.1,5,2.7,4.9,6.3c-0.1,3.7-2.4,6-5.5,5.9c-2.6-0.1-3.6-2.1-3.6-2.1l0,0
				c0,0,0,0.4,0,0.9l0,0.8l-2.1-0.1L125.2,29.9z M130.3,42.2c1.8,0.1,3.4-1.4,3.5-4c0.1-2.5-1.2-4.2-3.2-4.3
				c-1.7-0.1-3.4,1.1-3.5,4.1C127.1,40,128.1,42.1,130.3,42.2z"/>
			<path fill="#DC7676" d="M144.9,37.7l0.5,0.1l0-0.1c0.2-2-0.4-2.8-2.3-3c-0.5-0.1-1.9-0.1-2,0.7l-0.1,0.7l-2.1-0.2l0.1-1.1
				c0.2-1.9,3.1-1.9,4.2-1.7c3.7,0.4,4.5,2.5,4.3,5l-0.5,4.9c0,0.3,0.1,0.5,0.4,0.6l0.9,0.1l-0.2,1.9l-2.1-0.2
				c-1-0.1-1.4-0.7-1.3-1.5c0-0.4,0.1-0.7,0.1-0.7l0,0c0,0-1.2,2.2-3.9,1.9c-2-0.2-3.8-1.6-3.5-4C137.9,37.2,142.9,37.5,144.9,37.7z
				 M141.7,43.1c1.9,0.2,3.3-1.6,3.5-3.3l0-0.4l-0.6-0.1c-1.7-0.2-4.7-0.4-4.9,1.7C139.6,42,140.2,43,141.7,43.1z"/>
			<path fill="#DC7676" d="M150.7,42.5c0,0,1,2,3.1,2.4c1.1,0.2,2.1-0.1,2.3-1.1c0.4-2.1-5.9-3.1-5.1-6.8c0.4-2.2,2.6-2.8,4.9-2.3
				c1.4,0.3,3.6,1.2,3.3,3l-0.2,1.1l-2-0.4l0.1-0.6c0.1-0.7-0.8-1.2-1.5-1.3c-1.3-0.3-2.2,0-2.4,0.9c-0.4,2.2,5.9,2.9,5.1,6.8
				c-0.4,2-2.5,3-4.9,2.5c-3-0.6-4.2-2.9-4.2-2.9L150.7,42.5z"/>
			<path fill="#DC7676" d="M168.5,38.3c3.1,1.2,3.8,4.1,2.8,6.9c-0.1,0.3-0.4,0.8-0.4,0.8l-7.9-3c-0.8,2.4,0.4,4.3,2.4,5.1
				c1.9,0.7,3.7-0.1,3.7-0.1l0.3,1.8c0,0-2.2,1-4.8,0c-3.4-1.3-4.9-4.7-3.6-7.9C162.2,38.4,165.4,37.1,168.5,38.3z M169.4,43.7
				c0.6-1.8-0.2-3.2-1.5-3.7c-1.6-0.6-3.2-0.1-4.3,1.6L169.4,43.7z"/>
		</g>
		<path fill="#DC7676" stroke="#F8E2D2" stroke-miterlimit="10" d="M123.5,97c-21.2,0-38.4-4.6-38.4-10.2"/>
		<path fill="#DC7676" stroke="#F8E2D2" stroke-miterlimit="10" d="M161.9,86.8c0,5.6-17.2,10.2-38.4,10.2"/>
		<path fill="#DC7676" stroke="#F8E2D2" stroke-miterlimit="10" d="M123.5,121.5c-21.2,0-38.4-4.6-38.4-10.2"/>
		<path fill="#DC7676" stroke="#F8E2D2" stroke-miterlimit="10" d="M161.9,111.3c0,5.6-17.2,10.2-38.4,10.2"/>
	</g>
	<g>
		<g>
			<path fill="#F8E2D2" d="M308.5,341.7h-36c-4.8,0-8.7-3.9-8.7-8.7v-24c0-4.8,3.9-8.7,8.7-8.7h36c4.8,0,8.7,3.9,8.7,8.7v24
				C317.2,337.9,313.3,341.7,308.5,341.7z"/>
		</g>
		<g>
			<path fill="#F8E2D2" d="M440,347.3h-36c-4.8,0-8.7-3.9-8.7-8.7v-24c0-4.8,3.9-8.7,8.7-8.7h36c4.8,0,8.7,3.9,8.7,8.7v24
				C448.7,343.4,444.8,347.3,440,347.3z"/>
		</g>
		<g>
			<path fill="#F8E2D2" d="M351.9,353.8c2.3,0,6.4,1,6.4,3.7v1.7h-2.2v-1c0-1.4-2.4-2.1-4.1-2.1c-3.4,0-6,2.6-6,6.4
				c0,3.7,2.7,6.6,6.1,6.6c3.4,0,5.4-2.3,5.4-2.3l1.3,1.7c0,0-2.4,2.8-6.7,2.8c-5.1,0-8.6-3.9-8.6-8.9
				C343.4,357.5,347.1,353.8,351.9,353.8z"/>
			<path fill="#F8E2D2" d="M366.8,358.6c3.6,0,6.6,2.7,6.6,6.3c0,3.7-2.9,6.4-6.6,6.4c-3.6,0-6.5-2.7-6.5-6.4
				C360.3,361.3,363.2,358.6,366.8,358.6z M366.8,369.3c2.3,0,4.2-1.8,4.2-4.4c0-2.5-1.9-4.3-4.2-4.3c-2.3,0-4.2,1.8-4.2,4.3
				C362.7,367.5,364.5,369.3,366.8,369.3z"/>
			<path fill="#F8E2D2" d="M376.3,361.4c0-0.4-0.2-0.5-0.5-0.5h-1v-2h2.2c1.1,0,1.5,0.5,1.5,1.3v0.5c0,0.4,0,0.7,0,0.7h0
				c0.6-1.4,2.3-2.8,4.2-2.8c2.1,0,3.2,0.9,3.6,2.8h0c0.7-1.5,2.4-2.8,4.3-2.8c2.7,0,4,1.6,4,4.7v5.3c0,0.4,0.2,0.5,0.5,0.5h1v2
				h-2.3c-1.1,0-1.5-0.5-1.5-1.5v-5.7c0-1.7-0.3-3-2.1-3c-1.7,0-3,1.5-3.4,3.1c-0.1,0.5-0.2,1-0.2,1.7v5.5h-2.3v-7.3
				c0-1.6-0.2-3-2.1-3c-1.8,0-3,1.5-3.5,3.2c-0.1,0.5-0.2,1-0.2,1.6v5.5h-2.3V361.4z"/>
			<path fill="#F8E2D2" d="M398.8,361.4c0-0.4-0.2-0.5-0.5-0.5h-1v-2h2.2c1.1,0,1.5,0.5,1.5,1.3v0.5c0,0.4,0,0.7,0,0.7h0
				c0.6-1.4,2.3-2.8,4.2-2.8c2.1,0,3.2,0.9,3.6,2.8h0c0.7-1.5,2.4-2.8,4.3-2.8c2.7,0,4,1.6,4,4.7v5.3c0,0.4,0.2,0.5,0.5,0.5h1v2
				h-2.3c-1.1,0-1.5-0.5-1.5-1.5v-5.7c0-1.7-0.3-3-2.1-3c-1.7,0-3,1.5-3.4,3.1c-0.1,0.5-0.2,1-0.2,1.7v5.5h-2.3v-7.3
				c0-1.6-0.2-3-2.1-3c-1.8,0-3,1.5-3.5,3.2c-0.1,0.5-0.2,1-0.2,1.6v5.5h-2.3V361.4z"/>
			<path fill="#F8E2D2" d="M427.4,363.5h0.5v-0.1c0-2.1-0.8-2.9-2.7-2.9c-0.6,0-2,0.1-2,0.9v0.7h-2.2v-1.2c0-2,3-2.3,4.2-2.3
				c3.9,0,5,2.1,5,4.8v5.2c0,0.4,0.2,0.5,0.5,0.5h1v2h-2.2c-1.1,0-1.5-0.5-1.5-1.4c0-0.4,0-0.7,0-0.7h0c0,0-1,2.4-3.9,2.4
				c-2.1,0-4.1-1.3-4.1-3.7C420.1,363.7,425.4,363.5,427.4,363.5z M424.7,369.5c2,0,3.2-2.1,3.2-3.9v-0.4h-0.6
				c-1.8,0-4.9,0.1-4.9,2.3C422.5,368.5,423.2,369.5,424.7,369.5z"/>
			<path fill="#F8E2D2" d="M434.3,361.4c0-0.4-0.2-0.5-0.5-0.5h-1v-2h2.2c1,0,1.5,0.5,1.5,1.3v0.5c0,0.4,0,0.7,0,0.7h0
				c0.5-1.1,1.9-2.8,4.6-2.8c2.9,0,4.2,1.6,4.2,4.7v5.3c0,0.4,0.2,0.5,0.5,0.5h1v2h-2.3c-1.1,0-1.5-0.5-1.5-1.5v-5.7
				c0-1.7-0.3-3-2.3-3c-1.9,0-3.4,1.2-3.8,3c-0.2,0.5-0.2,1-0.2,1.6v5.7h-2.3V361.4z"/>
			<path fill="#F8E2D2" d="M453.7,358.6c2.8,0,3.7,1.9,3.7,1.9h0c0,0,0-0.4,0-0.8v-3c0-0.4-0.2-0.5-0.5-0.5h-1v-2h2.3
				c1.1,0,1.5,0.5,1.5,1.5v12.9c0,0.4,0.2,0.5,0.5,0.5h1v2H459c-1.1,0-1.5-0.5-1.5-1.3c0-0.4,0-0.6,0-0.6h0c0,0-1,2.2-4,2.2
				c-3.3,0-5.4-2.6-5.4-6.4C448.2,361.1,450.5,358.6,453.7,358.6z M457.5,364.9c0-2.2-1.1-4.3-3.5-4.3c-1.9,0-3.5,1.6-3.5,4.3
				c0,2.6,1.4,4.3,3.4,4.3C455.8,369.3,457.5,368,457.5,364.9z"/>
		</g>
		<g>
			<path fill="#F8E2D2" d="M256.3,277.8h-1.6v-2.1h10c1.1,0,1.5,0.5,1.5,1.5v2.1h-2.2v-1.1c0-0.4-0.2-0.5-0.5-0.5h-4.8v5.3h5.9v2.1
				h-5.9v4.9c0,0.3,0.2,0.5,0.5,0.5h4.9c0.3,0,0.5-0.2,0.5-0.5V289h2.2v2.1c0,1.1-0.5,1.5-1.5,1.5h-7.5c-1.1,0-1.5-0.5-1.5-1.5
				V277.8z"/>
			<path fill="#F8E2D2" d="M268.7,283c-0.1-0.4-0.4-0.5-0.7-0.5h-0.2v-2h1.2c1.1,0,1.5,0.3,1.8,1.2l2.6,7c0.2,0.7,0.4,1.6,0.4,1.6h0
				c0,0,0.2-0.9,0.4-1.6l2.6-7c0.4-1,0.8-1.2,1.8-1.2h1.1v2h-0.2c-0.4,0-0.6,0.1-0.8,0.5l-3.7,9.7h-2.7L268.7,283z"/>
			<path fill="#F8E2D2" d="M286.9,280.2c3.4,0,5.2,2.5,5.2,5.7c0,0.3-0.1,1-0.1,1h-8.9c0.1,2.6,2,4.1,4.2,4.1c2.1,0,3.6-1.4,3.6-1.4
				l1,1.7c0,0-1.8,1.8-4.7,1.8c-3.8,0-6.5-2.8-6.5-6.4C280.8,282.7,283.5,280.2,286.9,280.2z M289.7,285.2c-0.1-2-1.3-3.1-2.9-3.1
				c-1.8,0-3.2,1.1-3.6,3.1H289.7z"/>
			<path fill="#F8E2D2" d="M295.2,283.1c0-0.4-0.2-0.5-0.5-0.5h-1v-2h2.2c1,0,1.5,0.5,1.5,1.3v0.5c0,0.4,0,0.7,0,0.7h0
				c0.5-1.1,1.9-2.8,4.6-2.8c2.9,0,4.2,1.6,4.2,4.7v5.3c0,0.4,0.2,0.5,0.5,0.5h1v2h-2.3c-1.1,0-1.5-0.5-1.5-1.5v-5.7
				c0-1.7-0.3-3-2.3-3c-1.9,0-3.4,1.2-3.8,3c-0.2,0.5-0.2,1-0.2,1.6v5.7h-2.3V283.1z"/>
			<path fill="#F8E2D2" d="M310.4,282.4h-1.6v-1.9h1.6v-3.3h2.3v3.3h2.9v1.9h-2.9v5.6c0,2.4,1.7,2.7,2.6,2.7c0.3,0,0.6,0,0.6,0v2.1
				c0,0-0.3,0-0.8,0c-1.5,0-4.6-0.5-4.6-4.5V282.4z"/>
			<path fill="#F8E2D2" d="M318.5,289.3c0,0,1.4,1.8,3.7,1.8c1.1,0,2.1-0.5,2.1-1.6c0-2.2-6.6-1.9-6.6-5.9c0-2.3,2-3.4,4.5-3.4
				c1.5,0,4,0.5,4,2.4v1.2h-2.1v-0.6c0-0.7-1.1-1-1.8-1c-1.4,0-2.3,0.5-2.3,1.4c0,2.3,6.6,1.8,6.6,5.9c0,2.2-1.9,3.6-4.5,3.6
				c-3.2,0-4.8-2.1-4.8-2.1L318.5,289.3z"/>
		</g>
		<path fill="#F8E2D2" stroke="#DC7676" stroke-width="2" stroke-miterlimit="10" d="M313.6,347.3h-36c-4.8,0-8.7-3.9-8.7-8.7v-24
			c0-4.8,3.9-8.7,8.7-8.7h36c4.8,0,8.7,3.9,8.7,8.7v24C322.3,343.4,318.4,347.3,313.6,347.3z"/>
		<path fill="#F8E2D2" stroke="#DC7676" stroke-width="2" stroke-miterlimit="10" d="M319.3,353.4h-36c-4.8,0-8.7-3.9-8.7-8.7v-24
			c0-4.8,3.9-8.7,8.7-8.7h36c4.8,0,8.7,3.9,8.7,8.7v24C328,349.5,324.1,353.4,319.3,353.4z"/>
	</g>
	<g>
		<g>
			<path fill="#F8E2D2" d="M331.2,88h-36c-4.8,0-8.7-3.9-8.7-8.7v-24c0-4.8,3.9-8.7,8.7-8.7h36c4.8,0,8.7,3.9,8.7,8.7v24
				C339.9,84.1,336,88,331.2,88z"/>
		</g>
		<g>
			<line fill="#F8E2D2" x1="351.7" y1="133.6" x2="327.7" y2="88"/>
			<g>
				<line fill="none" stroke="#F8E2D2" stroke-width="4" stroke-miterlimit="10" x1="351.7" y1="133.6" x2="334.4" y2="100.7"/>
				<g>
					<polygon fill="#F8E2D2" points="344.6,98.7 327.7,88 326.9,107.9 					"/>
				</g>
			</g>
		</g>
		<g>
			<path fill="#F8E2D2" d="M412.4,88h-36c-4.8,0-8.7-3.9-8.7-8.7v-24c0-4.8,3.9-8.7,8.7-8.7h36c4.8,0,8.7,3.9,8.7,8.7v24
				C421,84.1,417.1,88,412.4,88z"/>
		</g>
		<g>
			<line fill="#F8E2D2" x1="364.1" y1="127.5" x2="382.5" y2="88"/>
			<g>
				<line fill="none" stroke="#F8E2D2" stroke-width="4" stroke-miterlimit="10" x1="364.1" y1="127.5" x2="376.5" y2="101"/>
				<g>
					<polygon fill="#F8E2D2" points="384.3,107.9 382.5,88 366.2,99.5 					"/>
				</g>
			</g>
		</g>
		<g>
			<path fill="#F8E2D2" d="M372.4,158h-36c-4.8,0-8.7-3.9-8.7-8.7v-24c0-4.8,3.9-8.7,8.7-8.7h36c4.8,0,8.7,3.9,8.7,8.7v24
				C381,154.2,377.1,158,372.4,158z"/>
		</g>
		<g>
			<path fill="#F8E2D2" d="M290.8,22.6c4.9,0,8.7,3.8,8.7,8.7c0,2.1-0.8,4.1-2,5.6l1.9,1.9l-1.4,1.5l-1.9-1.9
				c-1.5,1.2-3.3,1.8-5.3,1.8c-4.9,0-8.7-3.9-8.7-8.9C282.2,26.4,285.9,22.6,290.8,22.6z M290.8,37.9c2.2,0,3.6-1.2,3.6-1.2
				l-1.9-1.8l1.4-1.6l1.8,1.9c0.8-1.1,1.2-2.5,1.2-3.9c0-3.7-2.7-6.4-6.2-6.4c-3.5,0-6.2,2.7-6.2,6.4
				C284.7,35,287.4,37.9,290.8,37.9z"/>
			<path fill="#F8E2D2" d="M302.5,30.2c0-0.4-0.2-0.5-0.5-0.5h-1v-2h2.3c1.1,0,1.6,0.5,1.6,1.5v5.8c0,1.7,0.3,3,2.3,3
				c2.5,0,4-2.2,4-4.6v-5.7h2.3v9.6c0,0.4,0.2,0.5,0.5,0.5h1v2h-2.2c-1,0-1.5-0.5-1.5-1.3V38c0-0.4,0-0.7,0-0.7h0
				c-0.5,1.2-2.1,2.8-4.5,2.8c-2.7,0-4.1-1.4-4.1-4.7V30.2z"/>
			<path fill="#F8E2D2" d="M322.4,27.4c3.4,0,5.2,2.5,5.2,5.7c0,0.3-0.1,1-0.1,1h-8.9c0.1,2.6,2,4.1,4.2,4.1c2.1,0,3.6-1.4,3.6-1.4
				l1,1.7c0,0-1.8,1.8-4.7,1.8c-3.8,0-6.5-2.8-6.5-6.4C316.3,29.9,319,27.4,322.4,27.4z M325.3,32.3c-0.1-2-1.3-3.1-2.9-3.1
				c-1.8,0-3.2,1.1-3.6,3.1H325.3z"/>
			<path fill="#F8E2D2" d="M330.7,30.2c0-0.4-0.2-0.5-0.5-0.5h-1v-2h2.2c1.1,0,1.6,0.4,1.6,1.4v0.8c0,0.5,0,0.8,0,0.8h0
				c0.6-1.8,2-3.2,3.8-3.2c0.3,0,0.6,0,0.6,0v2.3c0,0-0.3-0.1-0.7-0.1c-1.5,0-2.9,1.1-3.4,2.9c-0.2,0.7-0.3,1.4-0.3,2.2v5h-2.3V30.2
				z"/>
			<path fill="#F8E2D2" d="M341.2,42.8c0.9,0,1.7-0.7,2.1-1.8l0.6-1.3l-4.2-9.6c-0.2-0.4-0.4-0.5-0.8-0.5h-0.3v-2h1.4
				c1,0,1.3,0.3,1.7,1.2l2.8,6.8c0.2,0.6,0.4,1.5,0.4,1.5h0c0,0,0.2-0.8,0.4-1.5l2.5-6.8c0.4-1,0.8-1.2,1.8-1.2h1.4v2h-0.3
				c-0.4,0-0.6,0.1-0.8,0.5L345.2,42c-0.7,1.9-2.2,2.9-3.9,2.9c-1.8,0-2.9-1.2-2.9-1.2l1-1.7C339.4,42,340.1,42.8,341.2,42.8z"/>
			<path fill="#F8E2D2" d="M358.3,37.8h0.8c0.3,0,0.5-0.2,0.5-0.5l1.2-14.4h2.5l4,9c0.4,0.9,0.8,2.1,0.8,2.1h0c0,0,0.4-1.2,0.8-2.1
				l4-9h2.5l1.2,14.4c0,0.3,0.2,0.5,0.5,0.5h0.8v2.1h-2.1c-1.1,0-1.5-0.5-1.5-1.5l-0.7-9c-0.1-1,0-2.5,0-2.5h0c0,0-0.5,1.6-0.9,2.5
				l-3.4,7.4h-2l-3.4-7.4c-0.4-0.9-0.9-2.5-0.9-2.5h0c0,0,0,1.5,0,2.5l-0.7,9c-0.1,1.1-0.5,1.5-1.6,1.5h-2.1V37.8z"/>
			<path fill="#F8E2D2" d="M385.8,27.4c3.6,0,6.6,2.7,6.6,6.3c0,3.7-2.9,6.4-6.6,6.4s-6.5-2.7-6.5-6.4
				C379.3,30.1,382.2,27.4,385.8,27.4z M385.8,38.1c2.3,0,4.2-1.8,4.2-4.4c0-2.5-1.9-4.3-4.2-4.3c-2.3,0-4.2,1.8-4.2,4.3
				C381.7,36.3,383.5,38.1,385.8,38.1z"/>
			<path fill="#F8E2D2" d="M399.6,27.4c2.8,0,3.7,1.9,3.7,1.9h0c0,0,0-0.4,0-0.8v-3c0-0.4-0.2-0.5-0.5-0.5h-1v-2h2.3
				c1.1,0,1.5,0.5,1.5,1.5v12.9c0,0.4,0.2,0.5,0.5,0.5h1v2H405c-1.1,0-1.5-0.5-1.5-1.3c0-0.4,0-0.6,0-0.6h0c0,0-1,2.2-4,2.2
				c-3.3,0-5.4-2.6-5.4-6.4C394.1,29.9,396.4,27.4,399.6,27.4z M403.4,33.7c0-2.2-1.1-4.3-3.5-4.3c-1.9,0-3.5,1.6-3.5,4.3
				c0,2.6,1.4,4.3,3.4,4.3C401.7,38.1,403.4,36.8,403.4,33.7z"/>
			<path fill="#F8E2D2" d="M414.7,27.4c3.4,0,5.2,2.5,5.2,5.7c0,0.3-0.1,1-0.1,1H411c0.1,2.6,2,4.1,4.2,4.1c2.1,0,3.6-1.4,3.6-1.4
				l1,1.7c0,0-1.8,1.8-4.7,1.8c-3.8,0-6.5-2.8-6.5-6.4C408.6,29.9,411.3,27.4,414.7,27.4z M417.6,32.3c-0.1-2-1.3-3.1-2.9-3.1
				c-1.8,0-3.2,1.1-3.6,3.1H417.6z"/>
			<path fill="#F8E2D2" d="M423,25.4c0-0.4-0.2-0.5-0.5-0.5h-1v-2h2.3c1.1,0,1.5,0.5,1.5,1.5v12.9c0,0.4,0.2,0.5,0.5,0.5h1v2h-2.3
				c-1.1,0-1.5-0.5-1.5-1.5V25.4z"/>
		</g>
	</g>
	<g>
		<path fill="#DC7676" stroke="#F8E2D2" stroke-miterlimit="10" d="M83.4,203.5v72c0,5.6,17.2,10.2,38.4,10.2
			c21.2,0,38.4-4.6,38.4-10.2v-72H83.4z"/>
		<ellipse fill="#DC7676" stroke="#F8E2D2" stroke-miterlimit="10" cx="121.8" cy="203.5" rx="38.4" ry="10.2"/>
		<g>
			<path fill="#DC7676" d="M68,185.8l-1.2,0.6l-0.8-1.5l7.4-3.8c0.8-0.4,1.3-0.3,1.7,0.5l0.8,1.6l-1.6,0.8l-0.4-0.8
				c-0.1-0.3-0.3-0.3-0.6-0.2l-3.6,1.9l2,3.9l4.4-2.3l0.8,1.5l-4.4,2.3l1.9,3.6c0.1,0.2,0.3,0.3,0.6,0.2l3.7-1.9
				c0.2-0.1,0.3-0.3,0.2-0.6l-0.4-0.8l1.6-0.8l0.8,1.6c0.4,0.8,0.3,1.3-0.5,1.7l-5.6,2.9c-0.8,0.4-1.3,0.3-1.7-0.5L68,185.8z"/>
			<path fill="#DC7676" d="M80.4,185c-0.2-0.3-0.4-0.3-0.7-0.2l-0.2,0.1l-0.4-1.6l1-0.3c0.9-0.2,1.3-0.1,1.7,0.6l3.6,5.1
				c0.3,0.5,0.7,1.2,0.7,1.2l0,0c0,0,0-0.8,0-1.4l0.6-6.2c0.1-0.9,0.4-1.2,1.2-1.4l0.9-0.2l0.4,1.6l-0.2,0c-0.3,0.1-0.5,0.2-0.5,0.6
				l-1,8.6l-2.2,0.6L80.4,185z"/>
			<path fill="#DC7676" d="M95.3,179.4c2.8-0.4,4.6,1.4,5,4c0,0.3,0.1,0.8,0.1,0.8l-7.3,1.1c0.4,2.1,2.2,3.1,4,2.8
				c1.7-0.3,2.7-1.6,2.7-1.6l1,1.2c0,0-1.3,1.7-3.6,2.1c-3.2,0.5-5.7-1.5-6.1-4.4C90.6,182.2,92.5,179.9,95.3,179.4z M98.3,183.1
				c-0.3-1.7-1.5-2.4-2.7-2.2c-1.5,0.2-2.5,1.3-2.6,3L98.3,183.1z"/>
			<path fill="#DC7676" d="M102.9,180.8c0-0.3-0.2-0.4-0.5-0.4l-0.8,0.1l-0.1-1.7l1.9-0.1c0.9-0.1,1.3,0.3,1.4,1l0,0.4
				c0,0.3,0,0.6,0,0.6l0,0c0.3-0.9,1.4-2.4,3.6-2.6c2.4-0.2,3.6,1,3.8,3.6l0.3,4.4c0,0.3,0.2,0.4,0.5,0.4l0.8-0.1l0.1,1.7l-1.9,0.1
				c-0.9,0.1-1.3-0.3-1.4-1.2l-0.4-4.7c-0.1-1.4-0.5-2.5-2.1-2.4c-1.6,0.1-2.7,1.2-3,2.7c-0.1,0.4-0.1,0.9-0.1,1.4l0.4,4.7l-1.9,0.1
				L102.9,180.8z"/>
			<path fill="#DC7676" d="M115.7,179.4l-1.3,0l0-1.6l1.4,0l-0.1-2.8l1.9,0l0.1,2.8l2.4-0.1l0,1.6l-2.4,0.1l0.1,4.6
				c0,2,1.4,2.2,2.2,2.2c0.3,0,0.5,0,0.5,0l0,1.7c0,0-0.3,0-0.7,0.1c-1.3,0-3.9-0.3-3.9-3.7L115.7,179.4z"/>
			<path fill="#DC7676" d="M128.3,184.7c0,0,1.3,1.8,3.4,1.9c1.3,0.1,2.5-0.7,2.5-2c0.2-3-6.7-2.9-6.5-7.2c0.1-2.1,2.1-3.7,4.7-3.5
				c1.5,0.1,4,0.9,3.9,2.8l-0.1,1.2l-1.8-0.1l0-0.7c0-0.7-1-1.3-2.1-1.4c-1.5-0.1-2.5,0.7-2.6,1.8c-0.1,2.9,6.7,2.6,6.4,7.2
				c-0.1,2.2-1.9,3.9-4.7,3.8c-3-0.2-4.6-2.3-4.6-2.3L128.3,184.7z"/>
			<path fill="#DC7676" d="M139.4,180.1l-1.3-0.1l0.2-1.6l1.4,0.1l0.3-2.8l1.9,0.2l-0.3,2.8l2.4,0.3l-0.2,1.6l-2.4-0.3l-0.5,4.6
				c-0.2,2,1.2,2.4,1.9,2.5c0.3,0,0.5,0,0.5,0l-0.2,1.7c0,0-0.3,0-0.7,0c-1.3-0.1-3.8-0.8-3.4-4.2L139.4,180.1z"/>
			<path fill="#DC7676" d="M151.2,179.9c3,0.5,5,3.1,4.5,6.1c-0.5,3-3.3,4.8-6.3,4.3c-3-0.5-5-3.1-4.4-6.2
				C145.5,181.1,148.2,179.4,151.2,179.9z M149.7,188.7c1.9,0.3,3.7-0.9,4.1-3c0.4-2.1-0.9-3.8-2.8-4.1c-1.9-0.3-3.7,0.9-4,3
				C146.5,186.6,147.8,188.4,149.7,188.7z"/>
			<path fill="#DC7676" d="M159,183.9c0.1-0.3,0-0.5-0.3-0.5l-0.8-0.2l0.5-1.6l1.8,0.5c0.8,0.2,1.2,0.7,0.9,1.5l-0.2,0.6
				c-0.1,0.4-0.2,0.7-0.2,0.7l0,0c0.9-1.3,2.3-2.1,3.8-1.7c0.3,0.1,0.5,0.2,0.5,0.2l-0.5,1.8c0,0-0.2-0.1-0.5-0.2
				c-1.2-0.3-2.5,0.2-3.4,1.5c-0.3,0.5-0.6,1.1-0.7,1.7l-1.1,4l-1.9-0.5L159,183.9z"/>
			<path fill="#DC7676" d="M171.7,186.1c2.5,1.3,2.9,3.9,1.7,6.2c-0.1,0.2-0.4,0.7-0.4,0.7l-6.5-3.4c-0.9,2-0.1,3.8,1.5,4.6
				c1.5,0.8,3.2,0.3,3.2,0.3l0.1,1.6c0,0-2,0.6-4.1-0.5c-2.8-1.5-3.7-4.5-2.3-7.2C166.2,185.6,169.1,184.8,171.7,186.1z
				 M171.9,190.8c0.7-1.5,0.2-2.8-0.9-3.4c-1.3-0.7-2.8-0.4-3.8,0.9L171.9,190.8z"/>
		</g>
		<path fill="#DC7676" stroke="#F8E2D2" stroke-miterlimit="10" d="M121.8,238.3c-21.2,0-38.4-4.6-38.4-10.2"/>
		<path fill="#DC7676" stroke="#F8E2D2" stroke-miterlimit="10" d="M160.2,228c0,5.6-17.2,10.2-38.4,10.2"/>
		<path fill="#DC7676" stroke="#F8E2D2" stroke-miterlimit="10" d="M121.8,262.8c-21.2,0-38.4-4.6-38.4-10.2"/>
		<path fill="#DC7676" stroke="#F8E2D2" stroke-miterlimit="10" d="M160.2,252.5c0,5.6-17.2,10.2-38.4,10.2"/>
	</g>
	<g>
		<line fill="#FAAE24" x1="383.1" y1="328.3" x2="339.6" y2="328.3"/>
		<g>
			<line fill="none" stroke="#FAAE24" stroke-width="7" stroke-miterlimit="10" x1="383.1" y1="328.3" x2="364.7" y2="328.3"/>
			<g>
				<polygon fill="#FAAE24" points="369.8,310.9 339.6,328.3 369.8,345.8 				"/>
			</g>
		</g>
	</g>
	<g>
		<line fill="#FAAE24" x1="176" y1="91.9" x2="253.8" y2="91.9"/>
		<g>
			<line fill="none" stroke="#FAAE24" stroke-width="7" stroke-miterlimit="10" x1="176" y1="91.9" x2="228.7" y2="91.9"/>
			<g>
				<polygon fill="#FAAE24" points="223.6,109.4 253.8,91.9 223.6,74.5 				"/>
			</g>
		</g>
	</g>
	<g>
		<path fill="#FAAE24" d="M496.7,221.7c0,1.5,1.1,2.9,3.6,2.9c1.8,0,3.6-0.9,3.6-2.9c0-1.6-1.3-2.9-3.6-2.9
			C498.1,218.8,496.7,220,496.7,221.7z"/>
		<path fill="#FAAE24" d="M496.6,152.4c0,1.9,1.5,3.5,3.6,3.5c2.1,0,3.6-1.6,3.6-3.5c0-1.9-1.5-3.5-3.6-3.5
			C498.1,149,496.6,150.5,496.6,152.4z"/>
		<path fill="#FAAE24" d="M485,133.4v116.4c0,3.3,2.7,5.9,5.9,5.9h16.5c3.3,0,5.9-2.7,5.9-5.9V133.4c0-3.3-2.7-5.9-5.9-5.9H491
			C487.7,127.5,485,130.2,485,133.4z M491.2,162.2v-1.7h2v1.7H491.2z M491.2,186.8v-1.7h2v1.7H491.2z M505.5,245c0,2.7-1.8,4-1.8,4
			l-1.3-1c0,0,1.5-1.2,1.5-3.1c0-0.9-0.4-1.8-1.3-1.8c-1.8,0-1.6,5.5-4.9,5.5c-1.9,0-2.8-1.7-2.8-3.8c0-1.2,0.4-3.3,2-3.3h1v1.7
			h-0.5c-0.6,0-0.9,0.9-0.9,1.5c0,1.1,0.4,1.9,1.2,1.9c1.9,0,1.5-5.5,4.9-5.5C504.4,241.2,505.5,242.8,505.5,245z M505.3,228.5v1.9
			c0,0.9-0.4,1.3-1.1,1.3h-0.4c-0.3,0-0.6,0-0.6,0v0c1,0.4,2.3,1.7,2.3,3.7c0,2.3-1.2,3.4-3.9,3.4h-4.4c-0.3,0-0.4,0.2-0.4,0.4v0.8
			h-1.7v-1.9c0-0.9,0.4-1.3,1.2-1.3h4.8c1.4,0,2.5-0.3,2.5-1.9c0-2.1-1.8-3.3-3.8-3.3h-4.7v-1.9h8c0.3,0,0.4-0.2,0.4-0.4v-0.8H505.3
			z M505.5,221.4c0,2.3-1.7,3.2-1.7,3.2v0c0,0,0.3,0,0.8,0h0.7v1.9h-12c-0.3,0-0.4,0.2-0.4,0.4v0.8h-1.7v-1.9c0-0.9,0.4-1.3,1.3-1.3
			h3.3c0.5,0,0.8,0,0.8,0v0c0,0-1.7-0.9-1.7-3.3c0-2.7,2.2-4.4,5.3-4.4C503.5,216.8,505.5,218.8,505.5,221.4z M505.5,211.5
			c0,2.7-1.8,4-1.8,4l-1.3-1c0,0,1.5-1.2,1.5-3.1c0-0.9-0.4-1.8-1.3-1.8c-1.8,0-1.6,5.5-4.9,5.5c-1.9,0-2.8-1.7-2.8-3.8
			c0-1.2,0.4-3.3,2-3.3h1v1.7h-0.5c-0.6,0-0.9,0.9-0.9,1.5c0,1.1,0.4,1.9,1.2,1.9c1.9,0,1.5-5.5,4.9-5.5
			C504.4,207.8,505.5,209.4,505.5,211.5z M505.5,200.9c0,3.2-2.3,5.4-5.3,5.4c-3,0-5.3-2.2-5.3-5.4c0-1.2,0.5-3.6,2.2-3.6h1v1.8
			h-0.6c-0.7,0-1,1.1-1,1.9c0,2,1.5,3.5,3.6,3.5c2.3,0,3.6-1.7,3.6-3.6c0-1.9-1.4-3.1-1.4-3.1l1.4-0.8
			C503.8,196.8,505.5,198.2,505.5,200.9z M497,189.1c0,0-0.1,0.3-0.1,0.6c0,1.2,0.9,2.4,2.4,2.8c0.6,0.2,1.2,0.2,1.8,0.2h4.1v1.9h-8
			c-0.3,0-0.4,0.2-0.4,0.4v0.8h-1.7v-1.8c0-0.9,0.4-1.3,1.2-1.3h0.6c0.4,0,0.7,0,0.7,0v0c-1.5-0.5-2.6-1.6-2.6-3.2
			c0-0.3,0-0.5,0-0.5H497z M505.3,183.7v1.9c0,0.9-0.4,1.3-1.3,1.3h-6.7c-0.3,0-0.4,0.2-0.4,0.4v0.8h-1.7v-1.9
			c0-0.9,0.4-1.3,1.3-1.3h6.7c0.3,0,0.4-0.2,0.4-0.4v-0.8H505.3z M505.5,176.4c0,2.2-1.6,3.1-1.6,3.1v0c0,0,0.4,0,0.9,0h4.5v1.9h-12
			c-0.3,0-0.4,0.2-0.4,0.4v0.8h-1.7v-1.8c0-0.9,0.4-1.2,1-1.2c0.3,0,0.5,0,0.5,0v0c0,0-1.8-0.8-1.8-3.4c0-2.7,2.2-4.5,5.3-4.5
			C503.5,171.8,505.5,173.8,505.5,176.4z M505.3,164.8c0,0,0,0.3,0,0.7c0,1.3-0.4,3.9-3.8,3.9h-4.8v1.3h-1.6v-1.4h-2.8v-1.9h2.8V165
			h1.6v2.4h4.6c2,0,2.3-1.4,2.3-2.1c0-0.3,0-0.5,0-0.5H505.3z M505.3,159.1v1.9c0,0.9-0.4,1.3-1.3,1.3h-6.7c-0.3,0-0.4,0.2-0.4,0.4
			v0.8h-1.7v-1.9c0-0.9,0.4-1.3,1.3-1.3h6.7c0.3,0,0.4-0.2,0.4-0.4v-0.8H505.3z M505.5,152.4c0,3-2.2,5.4-5.3,5.4
			c-3.1,0-5.3-2.4-5.3-5.4c0-3,2.2-5.4,5.3-5.4C503.3,147,505.5,149.4,505.5,152.4z M505.3,134.2v1.9c0,0.9-0.4,1.3-1.3,1.3h-4.8
			c-1.4,0-2.5,0.3-2.5,1.9c0,1.6,1,2.8,2.5,3.2c0.4,0.1,0.9,0.2,1.4,0.2h4.7v1.9h-8c-0.3,0-0.4,0.2-0.4,0.4v0.8h-1.7V144
			c0-0.9,0.4-1.3,1.1-1.3h0.4c0.3,0,0.6,0,0.6,0v0c-0.9-0.4-2.3-1.6-2.3-3.8c0-2.4,1.3-3.5,3.9-3.5h4.4c0.3,0,0.4-0.2,0.4-0.4v-0.8
			H505.3z"/>
		<path fill="#FAAE24" d="M496.7,176.7c0,1.5,1.1,2.9,3.6,2.9c1.8,0,3.6-1,3.6-2.9c0-1.6-1.3-2.9-3.6-2.9
			C498.1,173.8,496.7,175,496.7,176.7z"/>
	</g>
	<path fill="none" stroke="#FAAE24" stroke-width="7" stroke-miterlimit="10" d="M202.1,107.3"/>
	<g>
		<g>
			<path fill="none" stroke="#FAAE24" stroke-width="7" stroke-miterlimit="10" d="M69.4,234.3H25.1c-8.1,0-14.7-6.6-14.7-14.7
				V107.3c0-8.1,6.6-14.7,14.7-14.7h19.2"/>
			<g>
				<polygon fill="#FAAE24" points="39.2,110.1 69.4,92.6 39.2,75.2 				"/>
			</g>
		</g>
	</g>
	<g>
		<g>
			<path fill="none" stroke="#FAAE24" stroke-width="7" stroke-miterlimit="10" d="M251.9,344.8H138.8c-8.1,0-14.7-6.6-14.7-14.7
				v-7.6"/>
			<g>
				<polygon fill="#FAAE24" points="141.6,327.6 124.1,297.4 106.7,327.6 				"/>
			</g>
		</g>
	</g>
	<g>
		<line fill="#FAAE24" x1="176" y1="218.8" x2="253.8" y2="218.8"/>
		<g>
			<line fill="none" stroke="#FAAE24" stroke-width="7" stroke-miterlimit="10" x1="176" y1="218.8" x2="228.7" y2="218.8"/>
			<g>
				<polygon fill="#FAAE24" points="223.6,236.2 253.8,218.8 223.6,201.3 				"/>
			</g>
		</g>
	</g>
	<g>
		<g>
			<path fill="#F8E2D2" d="M311.7,235.5h-36c-4.8,0-8.7-3.9-8.7-8.7v-24c0-4.8,3.9-8.7,8.7-8.7h36c4.8,0,8.7,3.9,8.7,8.7v24
				C320.4,231.7,316.5,235.5,311.7,235.5z"/>
		</g>
		<g>
			<path fill="#F8E2D2" d="M264.8,173.6h-1.6v-2.1h10c1.1,0,1.5,0.5,1.5,1.5v2.1h-2.2v-1.1c0-0.4-0.2-0.5-0.5-0.5h-4.8v5.3h5.9v2.1
				h-5.9v4.9c0,0.3,0.2,0.5,0.5,0.5h4.9c0.3,0,0.5-0.2,0.5-0.5v-1.1h2.2v2.1c0,1.1-0.5,1.5-1.5,1.5h-7.5c-1.1,0-1.5-0.5-1.5-1.5
				V173.6z"/>
			<path fill="#F8E2D2" d="M277.2,178.8c-0.1-0.4-0.4-0.5-0.7-0.5h-0.2v-2h1.2c1.1,0,1.5,0.3,1.8,1.2l2.6,7c0.2,0.7,0.4,1.6,0.4,1.6
				h0c0,0,0.2-0.9,0.4-1.6l2.6-7c0.4-1,0.8-1.2,1.8-1.2h1.1v2h-0.2c-0.4,0-0.6,0.1-0.8,0.5l-3.7,9.7h-2.7L277.2,178.8z"/>
			<path fill="#F8E2D2" d="M295.3,176.1c3.4,0,5.2,2.5,5.2,5.7c0,0.3-0.1,1-0.1,1h-8.9c0.1,2.6,2,4.1,4.2,4.1c2.1,0,3.6-1.4,3.6-1.4
				l1,1.7c0,0-1.8,1.8-4.7,1.8c-3.8,0-6.5-2.8-6.5-6.4C289.2,178.6,291.9,176.1,295.3,176.1z M298.2,181c-0.1-2-1.3-3.1-2.9-3.1
				c-1.8,0-3.2,1.1-3.6,3.1H298.2z"/>
			<path fill="#F8E2D2" d="M303.7,178.9c0-0.4-0.2-0.5-0.5-0.5h-1v-2h2.2c1,0,1.5,0.5,1.5,1.3v0.5c0,0.4,0,0.7,0,0.7h0
				c0.5-1.1,1.9-2.8,4.6-2.8c2.9,0,4.2,1.6,4.2,4.7v5.3c0,0.4,0.2,0.5,0.5,0.5h1v2h-2.3c-1.1,0-1.5-0.5-1.5-1.5v-5.7
				c0-1.7-0.3-3-2.3-3c-1.9,0-3.4,1.2-3.8,3c-0.2,0.5-0.2,1-0.2,1.6v5.7h-2.3V178.9z"/>
			<path fill="#F8E2D2" d="M318.8,178.2h-1.6v-1.9h1.6V173h2.3v3.3h2.9v1.9h-2.9v5.6c0,2.4,1.7,2.7,2.6,2.7c0.3,0,0.6,0,0.6,0v2.1
				c0,0-0.3,0-0.8,0c-1.5,0-4.6-0.5-4.6-4.5V178.2z"/>
		</g>
	</g>
	<g>
		<g>
			<path fill="#F8E2D2" d="M425.7,235.5h-36c-4.8,0-8.7-3.9-8.7-8.7v-24c0-4.8,3.9-8.7,8.7-8.7h36c4.8,0,8.7,3.9,8.7,8.7v24
				C434.4,231.7,430.5,235.5,425.7,235.5z"/>
		</g>
		<g>
			<path fill="#F8E2D2" d="M378.8,173.6h-1.6v-2.1h10c1.1,0,1.5,0.5,1.5,1.5v2.1h-2.2v-1.1c0-0.4-0.2-0.5-0.5-0.5h-4.8v5.3h5.9v2.1
				h-5.9v4.9c0,0.3,0.2,0.5,0.5,0.5h4.9c0.3,0,0.5-0.2,0.5-0.5v-1.1h2.2v2.1c0,1.1-0.5,1.5-1.5,1.5h-7.5c-1.1,0-1.5-0.5-1.5-1.5
				V173.6z"/>
			<path fill="#F8E2D2" d="M391.2,178.8c-0.1-0.4-0.4-0.5-0.7-0.5h-0.2v-2h1.2c1.1,0,1.5,0.3,1.8,1.2l2.6,7c0.2,0.7,0.4,1.6,0.4,1.6
				h0c0,0,0.2-0.9,0.4-1.6l2.6-7c0.4-1,0.8-1.2,1.8-1.2h1.1v2h-0.2c-0.4,0-0.6,0.1-0.8,0.5l-3.7,9.7h-2.7L391.2,178.8z"/>
			<path fill="#F8E2D2" d="M409.3,176.1c3.4,0,5.2,2.5,5.2,5.7c0,0.3-0.1,1-0.1,1h-8.9c0.1,2.6,2,4.1,4.2,4.1c2.1,0,3.6-1.4,3.6-1.4
				l1,1.7c0,0-1.8,1.8-4.7,1.8c-3.8,0-6.5-2.8-6.5-6.4C403.2,178.6,405.9,176.1,409.3,176.1z M412.2,181c-0.1-2-1.3-3.1-2.9-3.1
				c-1.8,0-3.2,1.1-3.6,3.1H412.2z"/>
			<path fill="#F8E2D2" d="M417.7,178.9c0-0.4-0.2-0.5-0.5-0.5h-1v-2h2.2c1,0,1.5,0.5,1.5,1.3v0.5c0,0.4,0,0.7,0,0.7h0
				c0.5-1.1,1.9-2.8,4.6-2.8c2.9,0,4.2,1.6,4.2,4.7v5.3c0,0.4,0.2,0.5,0.5,0.5h1v2h-2.3c-1.1,0-1.5-0.5-1.5-1.5v-5.7
				c0-1.7-0.3-3-2.3-3c-1.9,0-3.4,1.2-3.8,3c-0.2,0.5-0.2,1-0.2,1.6v5.7h-2.3V178.9z"/>
			<path fill="#F8E2D2" d="M432.8,178.2h-1.6v-1.9h1.6V173h2.3v3.3h2.9v1.9h-2.9v5.6c0,2.4,1.7,2.7,2.6,2.7c0.3,0,0.6,0,0.6,0v2.1
				c0,0-0.3,0-0.8,0c-1.5,0-4.6-0.5-4.6-4.5V178.2z"/>
		</g>
	</g>
	<g>
		<line fill="#FAAE24" x1="328.5" y1="218.8" x2="372" y2="218.8"/>
		<g>
			<line fill="none" stroke="#FAAE24" stroke-width="7" stroke-miterlimit="10" x1="328.5" y1="218.8" x2="346.9" y2="218.8"/>
			<g>
				<polygon fill="#FAAE24" points="341.8,236.2 372,218.8 341.8,201.3 				"/>
			</g>
		</g>
	</g>
	<g>
		<line fill="#FAAE24" x1="439.5" y1="218.8" x2="478.2" y2="218.8"/>
		<g>
			<line fill="none" stroke="#FAAE24" stroke-width="7" stroke-miterlimit="10" x1="439.5" y1="218.8" x2="453.1" y2="218.8"/>
			<g>
				<polygon fill="#FAAE24" points="448,236.2 478.2,218.8 448,201.3 				"/>
			</g>
		</g>
	</g>
	<g>
		<line fill="#FAAE24" x1="434.7" y1="91.9" x2="478.2" y2="91.9"/>
		<g>
			<line fill="none" stroke="#FAAE24" stroke-width="7" stroke-miterlimit="10" x1="434.7" y1="91.9" x2="453.1" y2="91.9"/>
			<g>
				<polygon fill="#FAAE24" points="448,109.4 478.2,91.9 448,74.5 				"/>
			</g>
		</g>
	</g>
	<g>
		<g>
			
				<line fill="none" stroke="#FAAE24" stroke-width="7" stroke-linecap="round" stroke-miterlimit="10" x1="530.3" y1="206.3" x2="530.3" y2="206.3"/>
			<g>
				<path fill="#FAAE24" d="M577.5,206.3c0-1.9,1.6-3.5,3.5-3.5l0,0c1.9,0,3.5,1.6,3.5,3.5l0,0c0,1.9-1.6,3.5-3.5,3.5l0,0
					C579.1,209.8,577.5,208.2,577.5,206.3z M567.4,206.3c0-1.9,1.6-3.5,3.5-3.5l0,0c1.9,0,3.5,1.6,3.5,3.5l0,0
					c0,1.9-1.6,3.5-3.5,3.5l0,0C568.9,209.8,567.4,208.2,567.4,206.3z M557.2,206.3c0-1.9,1.6-3.5,3.5-3.5l0,0
					c1.9,0,3.5,1.6,3.5,3.5l0,0c0,1.9-1.6,3.5-3.5,3.5l0,0C558.8,209.8,557.2,208.2,557.2,206.3z M547.1,206.3
					c0-1.9,1.6-3.5,3.5-3.5l0,0c1.9,0,3.5,1.6,3.5,3.5l0,0c0,1.9-1.6,3.5-3.5,3.5l0,0C548.7,209.8,547.1,208.2,547.1,206.3z
					 M537,206.3c0-1.9,1.6-3.5,3.5-3.5l0,0c1.9,0,3.5,1.6,3.5,3.5l0,0c0,1.9-1.6,3.5-3.5,3.5l0,0C538.5,209.8,537,208.2,537,206.3z"
					/>
			</g>
			
				<line fill="none" stroke="#FAAE24" stroke-width="7" stroke-linecap="round" stroke-miterlimit="10" x1="591.1" y1="206.3" x2="591.1" y2="206.3"/>
			<g>
				<polygon fill="#FAAE24" points="586,223.8 616.3,206.3 586,188.9 				"/>
			</g>
		</g>
	</g>
	<g>
		<path fill="#DC7676" d="M708.8,175h-6.2h-1.8h-61.1c-5.8,0-10.6,4.7-10.6,10.6v11.5v22.5v12.7c0,5.8,4.7,10.6,10.6,10.6h61.1h1.8
			h6.2c5.8,0,10.6-4.7,10.6-10.6v-12.7v-22.5v-11.5C719.4,179.8,714.7,175,708.8,175z"/>
		<g>
			<path fill="#F8E2D2" d="M653.8,201.4c2,0,5.4,0.8,5.4,3.1v1.4h-1.9v-0.8c0-1.2-2.1-1.8-3.5-1.8c-2.9,0-5.2,2.2-5.2,5.5
				c0,3.2,2.3,5.7,5.2,5.7c2.9,0,4.6-2,4.6-2l1.1,1.5c0,0-2.1,2.4-5.7,2.4c-4.3,0-7.4-3.3-7.4-7.6
				C646.6,204.6,649.7,201.4,653.8,201.4z"/>
			<path fill="#F8E2D2" d="M662,203.8c0-0.3-0.2-0.5-0.5-0.5h-0.8v-1.7h2c0.9,0,1.3,0.4,1.3,1.3v11c0,0.3,0.2,0.5,0.5,0.5h0.8v1.7
				h-2c-0.9,0-1.3-0.4-1.3-1.3V203.8z"/>
			<path fill="#F8E2D2" d="M667.6,207.9c0-0.3-0.2-0.5-0.5-0.5h-0.8v-1.7h2c0.9,0,1.3,0.4,1.3,1.3v6.9c0,0.3,0.2,0.5,0.5,0.5h0.8
				v1.7h-2c-0.9,0-1.3-0.4-1.3-1.3V207.9z M667.6,201.7h1.8v2.1h-1.8V201.7z"/>
			<path fill="#F8E2D2" d="M677.4,205.5c2.9,0,4.5,2.2,4.5,4.9c0,0.3-0.1,0.8-0.1,0.8h-7.6c0.1,2.2,1.7,3.5,3.6,3.5
				c1.8,0,3-1.2,3-1.2l0.9,1.4c0,0-1.5,1.5-4,1.5c-3.3,0-5.5-2.4-5.5-5.4C672.1,207.7,674.4,205.5,677.4,205.5z M679.8,209.8
				c-0.1-1.7-1.2-2.6-2.4-2.6c-1.5,0-2.8,0.9-3.1,2.6H679.8z"/>
			<path fill="#F8E2D2" d="M684.5,207.9c0-0.3-0.2-0.5-0.5-0.5h-0.8v-1.7h1.9c0.9,0,1.3,0.4,1.3,1.2v0.4c0,0.3,0,0.6,0,0.6h0
				c0.4-0.9,1.6-2.4,3.9-2.4c2.5,0,3.6,1.3,3.6,4v4.5c0,0.3,0.2,0.5,0.5,0.5h0.8v1.7h-2c-0.9,0-1.3-0.4-1.3-1.3V210
				c0-1.5-0.3-2.6-2-2.6c-1.6,0-2.9,1-3.3,2.5c-0.1,0.4-0.2,0.9-0.2,1.4v4.9h-2V207.9z"/>
			<path fill="#F8E2D2" d="M697.4,207.4h-1.4v-1.6h1.4v-2.9h2v2.9h2.5v1.6h-2.5v4.8c0,2.1,1.4,2.3,2.2,2.3c0.3,0,0.5,0,0.5,0v1.8
				c0,0-0.3,0-0.7,0c-1.3,0-4-0.4-4-3.9V207.4z"/>
		</g>
	</g>
	<g>
		<g>
			<path fill="none" stroke="#FAAE24" stroke-width="7" stroke-miterlimit="10" d="M674.3,262.7v40.8c0,8.1-6.6,14.7-14.7,14.7
				H556.4"/>
			<g>
				<polygon fill="#FAAE24" points="561.5,300.8 531.3,318.2 561.5,335.7 				"/>
			</g>
		</g>
	</g>
	<g>
		<g>
			<path fill="none" stroke="#FAAE24" stroke-width="7" stroke-miterlimit="10" d="M530.3,79.4h124.1c8.1,0,14.7,6.6,14.7,14.7v41.3
				"/>
			<g>
				<polygon fill="#FAAE24" points="651.7,130.3 669.1,160.5 686.6,130.3 				"/>
			</g>
		</g>
	</g>
</g>
</svg>
