<?xml version="1.0" encoding="utf-8"?>
<!-- Generator: Adobe Illustrator 21.1.0, SVG Export Plug-In . SVG Version: 6.00 Build 0)  -->
<!DOCTYPE svg PUBLIC "-//W3C//DTD SVG 1.1//EN" "http://www.w3.org/Graphics/SVG/1.1/DTD/svg11.dtd" [
	<!ENTITY ns_extend "http://ns.adobe.com/Extensibility/1.0/">
	<!ENTITY ns_ai "http://ns.adobe.com/AdobeIllustrator/10.0/">
	<!ENTITY ns_graphs "http://ns.adobe.com/Graphs/1.0/">
	<!ENTITY ns_vars "http://ns.adobe.com/Variables/1.0/">
	<!ENTITY ns_imrep "http://ns.adobe.com/ImageReplacement/1.0/">
	<!ENTITY ns_sfw "http://ns.adobe.com/SaveForWeb/1.0/">
	<!ENTITY ns_custom "http://ns.adobe.com/GenericCustomNamespace/1.0/">
	<!ENTITY ns_adobe_xpath "http://ns.adobe.com/XPath/1.0/">
]>
<svg version="1.1" id="Layer_1" xmlns:x="&ns_extend;" xmlns:i="&ns_ai;" xmlns:graph="&ns_graphs;"
	 xmlns="http://www.w3.org/2000/svg" xmlns:xlink="http://www.w3.org/1999/xlink" x="0px" y="0px" width="270px" height="164px"
	 viewBox="0 0 270 164" style="enable-background:new 0 0 270 164;" xml:space="preserve">
<style type="text/css">
	.st0{fill:#4F486E;}
	.st1{fill:#E672C9;}
	.st2{fill:#FFFFFF;}
	.st3{fill:#27D7DF;}
	.st4{fill:none;stroke:url(#SVGID_1_);stroke-width:20;stroke-linecap:round;stroke-miterlimit:10;}
	.st5{fill:none;stroke:url(#SVGID_2_);stroke-width:5;stroke-linecap:round;stroke-miterlimit:10;}
	.st6{fill:none;stroke:url(#SVGID_3_);stroke-width:5;stroke-linecap:round;stroke-miterlimit:10;}
	.st7{fill:none;stroke:url(#SVGID_4_);stroke-width:20;stroke-linecap:round;stroke-miterlimit:10;}
	.st8{fill:none;stroke:url(#SVGID_5_);stroke-width:5;stroke-linecap:round;stroke-miterlimit:10;}
	.st9{fill:none;stroke:url(#SVGID_6_);stroke-width:5;stroke-linecap:round;stroke-miterlimit:10;}
	.st10{fill:url(#SVGID_7_);}
	.st11{fill:#112B49;}
	.st12{fill:url(#SVGID_8_);}
	.st13{fill:url(#SVGID_9_);}
</style>
<metadata>
	<sfw  xmlns="&ns_sfw;">
		<slices></slices>
		<sliceSourceBounds  bottomLeftOrigin="true" height="162.6" width="266" x="-3214.9" y="477.2"></sliceSourceBounds>
	</sfw>
</metadata>
<g>
	<rect x="106" y="40.1" class="st0" width="162" height="33"/>
	<g>
		<path class="st1" d="M112.2,56.8c0-0.5,0.1-0.9,0.2-1.3s0.3-0.7,0.5-1s0.5-0.5,0.8-0.7s0.7-0.2,1.1-0.2c0.4,0,0.7,0.1,1,0.2
			s0.5,0.3,0.7,0.6l0-0.6h1v8.8h-1.1v-3c-0.2,0.2-0.5,0.4-0.7,0.5s-0.6,0.2-1,0.2c-0.4,0-0.8-0.1-1.1-0.2s-0.6-0.4-0.8-0.7
			s-0.4-0.6-0.5-1c-0.1-0.4-0.2-0.8-0.2-1.3V56.8z M113.3,57c0,0.3,0,0.6,0.1,0.9s0.2,0.5,0.3,0.7c0.1,0.2,0.3,0.4,0.5,0.5
			s0.5,0.2,0.8,0.2c0.3,0,0.6-0.1,0.9-0.2s0.4-0.4,0.6-0.6v-3.1c-0.1-0.1-0.2-0.2-0.3-0.3s-0.2-0.2-0.3-0.3s-0.2-0.1-0.4-0.2
			s-0.3-0.1-0.5-0.1c-0.3,0-0.6,0.1-0.8,0.2s-0.4,0.3-0.5,0.5s-0.2,0.5-0.3,0.7s-0.1,0.6-0.1,0.9V57z"/>
		<path class="st1" d="M123.7,59.2c-0.2,0.3-0.5,0.6-0.8,0.7s-0.7,0.3-1.1,0.3c-0.3,0-0.6-0.1-0.9-0.2s-0.5-0.3-0.7-0.5
			s-0.3-0.5-0.4-0.8c-0.1-0.3-0.2-0.7-0.2-1.2v-3.8h1.1v3.8c0,0.3,0,0.6,0.1,0.9c0.1,0.2,0.1,0.4,0.2,0.5s0.2,0.2,0.4,0.3
			s0.3,0.1,0.5,0.1c0.4,0,0.8-0.1,1.1-0.3s0.5-0.4,0.6-0.7v-4.5h1.1v6.3h-1L123.7,59.2z"/>
		<path class="st1" d="M129.6,60.2c-0.4,0-0.9-0.1-1.2-0.2s-0.7-0.4-1-0.6s-0.5-0.6-0.6-1c-0.1-0.4-0.2-0.8-0.2-1.2v-0.2
			c0-0.5,0.1-1,0.2-1.4s0.4-0.7,0.7-1s0.6-0.5,0.9-0.6s0.7-0.2,1.1-0.2c0.5,0,0.9,0.1,1.2,0.2s0.6,0.4,0.9,0.7s0.4,0.6,0.5,1
			s0.2,0.8,0.2,1.2v0.5h-4.5c0,0.3,0.1,0.6,0.2,0.8s0.2,0.5,0.4,0.7c0.2,0.2,0.4,0.3,0.6,0.4s0.5,0.2,0.8,0.2c0.4,0,0.7-0.1,1-0.2
			s0.6-0.4,0.8-0.6l0.7,0.5c-0.1,0.2-0.2,0.3-0.4,0.5s-0.3,0.3-0.5,0.4s-0.4,0.2-0.7,0.3S129.9,60.2,129.6,60.2z M129.5,54.5
			c-0.2,0-0.4,0-0.6,0.1s-0.4,0.2-0.5,0.4s-0.3,0.3-0.4,0.6s-0.2,0.5-0.2,0.8h3.4v-0.1c0-0.2-0.1-0.4-0.1-0.6s-0.2-0.4-0.3-0.6
			s-0.3-0.3-0.5-0.4S129.8,54.5,129.5,54.5z"/>
		<path class="st1" d="M138.2,53.6c0.1,0,0.2,0,0.3,0s0.2,0,0.3,0s0.2,0,0.3,0s0.2,0,0.2,0.1l-0.1,1.1c-0.2,0-0.4-0.1-0.6-0.1
			s-0.4,0-0.6,0c-0.5,0-0.9,0.1-1.2,0.3s-0.5,0.6-0.7,1v4.1h-1.1v-6.3h1l0.1,1c0.3-0.3,0.6-0.6,0.9-0.8S137.7,53.6,138.2,53.6z"/>
		<path class="st1" d="M143.6,57.8l0.3,0.8l1.9-4.9h1.2l-3.2,7.3c-0.1,0.2-0.2,0.3-0.3,0.5s-0.3,0.4-0.4,0.5s-0.4,0.3-0.6,0.4
			s-0.5,0.2-0.8,0.2c-0.1,0-0.1,0-0.2,0s-0.1,0-0.2,0s-0.1,0-0.2,0s-0.1,0-0.1,0l0.2-0.9c0,0,0.1,0,0.1,0s0.1,0,0.1,0s0.1,0,0.1,0
			s0.1,0,0.1,0c0.1,0,0.3,0,0.4-0.1s0.2-0.2,0.3-0.3s0.2-0.2,0.2-0.4s0.1-0.2,0.2-0.3l0.4-0.8l-2.7-6h1.2L143.6,57.8z"/>
	</g>
	<path class="st2" d="M160.3,62.2c-0.3,0-0.5-0.1-0.7-0.1s-0.4-0.2-0.6-0.3s-0.3-0.3-0.4-0.5s-0.2-0.4-0.3-0.6s-0.1-0.4-0.2-0.6
		s-0.1-0.4-0.1-0.6v-1c0-0.6-0.1-1-0.4-1.2s-0.7-0.4-1.2-0.4V56c0.6,0,1-0.1,1.2-0.4s0.4-0.7,0.4-1.2v-1c0-0.2,0-0.4,0.1-0.6
		s0.1-0.4,0.2-0.6s0.2-0.4,0.3-0.6s0.3-0.3,0.4-0.5s0.4-0.2,0.6-0.3s0.5-0.1,0.7-0.1l0.1,0.7c-0.3,0-0.5,0.1-0.7,0.2
		s-0.3,0.3-0.4,0.5s-0.1,0.4-0.2,0.7s0,0.5,0,0.7v1c0,0.5-0.1,0.9-0.3,1.2s-0.5,0.6-1,0.8c0.5,0.2,0.8,0.4,1,0.8s0.3,0.8,0.3,1.2v1
		c0,0.2,0,0.5,0.1,0.7s0.1,0.5,0.2,0.7s0.2,0.4,0.4,0.5s0.4,0.2,0.6,0.2L160.3,62.2z"/>
	<g>
		<path class="st3" d="M171.6,60.1v-5.5h-1.7v-0.8h1.7v-0.4c0-0.4,0.1-0.8,0.2-1.1s0.3-0.6,0.5-0.8s0.5-0.4,0.8-0.5s0.6-0.2,1-0.2
			c0.3,0,0.5,0,0.8,0.1s0.5,0.1,0.8,0.2l-0.1,0.9c-0.2-0.1-0.3-0.1-0.6-0.1s-0.4-0.1-0.7-0.1c-0.5,0-0.9,0.1-1.1,0.4
			s-0.4,0.6-0.4,1.2v0.4h2.4v0.8h-2.4v5.5H171.6z"/>
		<path class="st3" d="M176.9,56.8c0-0.5,0.1-0.9,0.2-1.3s0.3-0.7,0.6-1s0.5-0.5,0.9-0.7s0.8-0.2,1.2-0.2c0.4,0,0.9,0.1,1.2,0.2
			s0.7,0.4,0.9,0.7s0.4,0.6,0.6,1s0.2,0.8,0.2,1.3V57c0,0.5-0.1,0.9-0.2,1.3c-0.1,0.4-0.3,0.7-0.6,1s-0.5,0.5-0.9,0.7
			s-0.8,0.2-1.2,0.2c-0.4,0-0.9-0.1-1.2-0.2s-0.7-0.4-0.9-0.7s-0.4-0.6-0.6-1c-0.1-0.4-0.2-0.8-0.2-1.3V56.8z M178,57
			c0,0.3,0,0.6,0.1,0.9s0.2,0.5,0.3,0.7c0.2,0.2,0.3,0.4,0.6,0.5s0.5,0.2,0.8,0.2c0.3,0,0.6-0.1,0.8-0.2s0.4-0.3,0.6-0.5
			c0.2-0.2,0.3-0.5,0.3-0.7s0.1-0.6,0.1-0.9v-0.1c0-0.3,0-0.6-0.1-0.9s-0.2-0.5-0.3-0.7s-0.3-0.4-0.6-0.5s-0.5-0.2-0.8-0.2
			s-0.6,0.1-0.8,0.2s-0.4,0.3-0.6,0.5s-0.3,0.5-0.3,0.7s-0.1,0.6-0.1,0.9V57z"/>
		<path class="st3" d="M184.1,56.8c0-0.5,0.1-0.9,0.2-1.3s0.3-0.7,0.6-1s0.5-0.5,0.9-0.7s0.8-0.2,1.2-0.2c0.4,0,0.9,0.1,1.2,0.2
			s0.7,0.4,0.9,0.7s0.4,0.6,0.6,1s0.2,0.8,0.2,1.3V57c0,0.5-0.1,0.9-0.2,1.3c-0.1,0.4-0.3,0.7-0.6,1s-0.5,0.5-0.9,0.7
			s-0.8,0.2-1.2,0.2c-0.4,0-0.9-0.1-1.2-0.2s-0.7-0.4-0.9-0.7s-0.4-0.6-0.6-1c-0.1-0.4-0.2-0.8-0.2-1.3V56.8z M185.2,57
			c0,0.3,0,0.6,0.1,0.9s0.2,0.5,0.3,0.7c0.2,0.2,0.3,0.4,0.6,0.5s0.5,0.2,0.8,0.2c0.3,0,0.6-0.1,0.8-0.2s0.4-0.3,0.6-0.5
			c0.2-0.2,0.3-0.5,0.3-0.7s0.1-0.6,0.1-0.9v-0.1c0-0.3,0-0.6-0.1-0.9s-0.2-0.5-0.3-0.7s-0.3-0.4-0.6-0.5s-0.5-0.2-0.8-0.2
			s-0.6,0.1-0.8,0.2s-0.4,0.3-0.6,0.5s-0.3,0.5-0.3,0.7s-0.1,0.6-0.1,0.9V57z"/>
	</g>
	<path class="st2" d="M203.5,62.2c-0.3,0-0.5-0.1-0.7-0.1s-0.4-0.2-0.6-0.3s-0.3-0.3-0.4-0.5s-0.2-0.4-0.3-0.6s-0.1-0.4-0.2-0.6
		s-0.1-0.4-0.1-0.6v-1c0-0.6-0.1-1-0.4-1.2s-0.7-0.4-1.2-0.4V56c0.6,0,1-0.1,1.2-0.4s0.4-0.7,0.4-1.2v-1c0-0.2,0-0.4,0.1-0.6
		s0.1-0.4,0.2-0.6s0.2-0.4,0.3-0.6s0.3-0.3,0.4-0.5s0.4-0.2,0.6-0.3s0.5-0.1,0.7-0.1l0.1,0.7c-0.3,0-0.5,0.1-0.7,0.2
		s-0.3,0.3-0.4,0.5s-0.1,0.4-0.2,0.7s0,0.5,0,0.7v1c0,0.5-0.1,0.9-0.3,1.2s-0.5,0.6-1,0.8c0.5,0.2,0.8,0.4,1,0.8s0.3,0.8,0.3,1.2v1
		c0,0.2,0,0.5,0.1,0.7s0.1,0.5,0.2,0.7s0.2,0.4,0.4,0.5s0.4,0.2,0.6,0.2L203.5,62.2z"/>
	<g>
		<path class="st3" d="M218.6,57c0,0.5-0.1,0.9-0.2,1.3c-0.1,0.4-0.3,0.7-0.5,1s-0.5,0.5-0.8,0.7s-0.7,0.2-1.1,0.2
			c-0.4,0-0.8-0.1-1.1-0.2s-0.6-0.4-0.8-0.6l-0.1,0.7h-1v-9h1.1v3.3c0.2-0.3,0.5-0.5,0.8-0.6s0.6-0.2,1-0.2c0.4,0,0.8,0.1,1.1,0.2
			s0.6,0.4,0.8,0.7s0.4,0.6,0.5,1s0.2,0.8,0.2,1.3V57z M217.5,56.8c0-0.3,0-0.6-0.1-0.9s-0.2-0.5-0.3-0.7s-0.3-0.4-0.5-0.5
			s-0.5-0.2-0.8-0.2c-0.2,0-0.4,0-0.5,0.1s-0.3,0.1-0.4,0.2s-0.2,0.2-0.3,0.3s-0.2,0.2-0.2,0.4v2.8c0.1,0.1,0.2,0.3,0.2,0.4
			s0.2,0.2,0.3,0.3s0.3,0.2,0.4,0.2s0.3,0.1,0.5,0.1c0.3,0,0.6-0.1,0.8-0.2s0.4-0.3,0.5-0.5c0.1-0.2,0.2-0.5,0.3-0.7
			s0.1-0.6,0.1-0.9V56.8z"/>
		<path class="st3" d="M224.6,60.1c0-0.1-0.1-0.2-0.1-0.3s0-0.3-0.1-0.4c-0.1,0.1-0.2,0.2-0.4,0.3s-0.3,0.2-0.4,0.3
			s-0.3,0.1-0.5,0.2s-0.4,0.1-0.6,0.1c-0.3,0-0.6,0-0.9-0.1s-0.5-0.2-0.7-0.4s-0.3-0.4-0.4-0.6s-0.2-0.5-0.2-0.7
			c0-0.3,0.1-0.7,0.2-0.9s0.3-0.5,0.6-0.7s0.6-0.3,0.9-0.4s0.8-0.1,1.2-0.1h1.2v-0.5c0-0.2,0-0.4-0.1-0.5s-0.2-0.3-0.3-0.4
			s-0.3-0.2-0.5-0.2s-0.4-0.1-0.6-0.1c-0.2,0-0.4,0-0.6,0.1s-0.3,0.1-0.4,0.2s-0.2,0.2-0.3,0.3s-0.1,0.3-0.1,0.4h-1.1
			c0-0.2,0.1-0.5,0.2-0.7s0.3-0.4,0.5-0.6s0.5-0.3,0.8-0.4s0.7-0.2,1.1-0.2c0.4,0,0.7,0,1,0.1s0.6,0.2,0.8,0.4s0.4,0.4,0.5,0.7
			s0.2,0.6,0.2,0.9v2.9c0,0.2,0,0.4,0.1,0.7s0.1,0.4,0.2,0.6v0.1H224.6z M222.7,59.2c0.2,0,0.4,0,0.6-0.1s0.4-0.1,0.5-0.2
			s0.3-0.2,0.4-0.3c0.1-0.1,0.2-0.2,0.3-0.4V57h-1c-0.6,0-1.1,0.1-1.5,0.3s-0.5,0.5-0.5,0.9c0,0.2,0,0.3,0.1,0.4
			c0.1,0.1,0.1,0.2,0.2,0.3s0.2,0.2,0.4,0.2S222.5,59.2,222.7,59.2z"/>
		<path class="st3" d="M231.8,53.6c0.1,0,0.2,0,0.3,0s0.2,0,0.3,0s0.2,0,0.3,0s0.2,0,0.2,0.1l-0.1,1.1c-0.2,0-0.4-0.1-0.6-0.1
			s-0.4,0-0.6,0c-0.5,0-0.9,0.1-1.2,0.3s-0.5,0.6-0.7,1v4.1h-1.1v-6.3h1l0.1,1c0.3-0.3,0.6-0.6,0.9-0.8S231.3,53.6,231.8,53.6z"/>
	</g>
	<path class="st2" d="M242.9,61.5c0.2,0,0.4-0.1,0.6-0.2s0.3-0.3,0.4-0.5s0.2-0.4,0.2-0.7s0.1-0.5,0.1-0.7v-1c0-0.5,0.1-0.9,0.3-1.2
		s0.5-0.6,1-0.8c-0.5-0.2-0.8-0.5-1-0.8s-0.3-0.8-0.3-1.2v-1c0-0.2,0-0.5,0-0.7s-0.1-0.5-0.2-0.7s-0.2-0.4-0.4-0.5s-0.4-0.2-0.7-0.2
		l0.1-0.7c0.3,0,0.5,0.1,0.7,0.1s0.4,0.2,0.6,0.3s0.3,0.3,0.4,0.5s0.2,0.4,0.3,0.6s0.1,0.4,0.2,0.6s0.1,0.4,0.1,0.6v1
		c0,0.6,0.1,1,0.4,1.2s0.7,0.4,1.2,0.4v0.8c-0.5,0-1,0.1-1.2,0.4s-0.4,0.7-0.4,1.2v1c0,0.3,0,0.6-0.1,0.9s-0.2,0.6-0.4,0.9
		s-0.4,0.5-0.7,0.6s-0.6,0.3-1,0.3L242.9,61.5z"/>
	<path class="st2" d="M257.3,61.5c0.2,0,0.4-0.1,0.6-0.2s0.3-0.3,0.4-0.5s0.2-0.4,0.2-0.7s0.1-0.5,0.1-0.7v-1c0-0.5,0.1-0.9,0.3-1.2
		s0.5-0.6,1-0.8c-0.5-0.2-0.8-0.5-1-0.8s-0.3-0.8-0.3-1.2v-1c0-0.2,0-0.5,0-0.7s-0.1-0.5-0.2-0.7s-0.2-0.4-0.4-0.5s-0.4-0.2-0.7-0.2
		l0.1-0.7c0.3,0,0.5,0.1,0.7,0.1s0.4,0.2,0.6,0.3s0.3,0.3,0.4,0.5s0.2,0.4,0.3,0.6s0.1,0.4,0.2,0.6s0.1,0.4,0.1,0.6v1
		c0,0.6,0.1,1,0.4,1.2s0.7,0.4,1.2,0.4v0.8c-0.5,0-1,0.1-1.2,0.4s-0.4,0.7-0.4,1.2v1c0,0.3,0,0.6-0.1,0.9s-0.2,0.6-0.4,0.9
		s-0.4,0.5-0.7,0.6s-0.6,0.3-1,0.3L257.3,61.5z"/>
</g>
<g>
	<rect x="106" y="83.5" class="st0" width="162" height="33"/>
	<path class="st2" d="M117.4,100.1l-0.3,0.1l0.3,0.1l3.6,1.4v1.1l-5-2.2v-0.9l5-2.2v1.1L117.4,100.1z"/>
	<g>
		<path class="st1" d="M123,100.7c0-0.5,0.1-0.9,0.2-1.3s0.3-0.7,0.5-1s0.5-0.5,0.8-0.7s0.7-0.2,1-0.2c0.4,0,0.7,0.1,1,0.2
			s0.5,0.3,0.7,0.6v-3.3h1.1v9h-1l0-0.7c-0.2,0.3-0.5,0.5-0.8,0.6s-0.6,0.2-1,0.2c-0.4,0-0.7-0.1-1-0.2s-0.6-0.4-0.8-0.7
			s-0.4-0.6-0.5-1s-0.2-0.8-0.2-1.3V100.7z M124.1,100.8c0,0.3,0,0.6,0.1,0.9s0.2,0.5,0.3,0.7s0.3,0.4,0.5,0.5s0.5,0.2,0.8,0.2
			c0.2,0,0.3,0,0.5-0.1s0.3-0.1,0.4-0.2s0.2-0.2,0.3-0.3s0.2-0.2,0.2-0.4v-2.9c-0.1-0.3-0.3-0.5-0.6-0.6s-0.5-0.2-0.9-0.2
			c-0.3,0-0.6,0.1-0.8,0.2s-0.4,0.3-0.5,0.5s-0.2,0.5-0.3,0.7s-0.1,0.6-0.1,0.9V100.8z"/>
		<path class="st1" d="M130.6,97.6h3.2v5.4h2.1v0.9h-5.3V103h2.2v-4.5h-2.2V97.6z M132.6,95.9c0-0.2,0.1-0.3,0.2-0.5
			s0.3-0.2,0.5-0.2c0.2,0,0.4,0.1,0.5,0.2s0.2,0.3,0.2,0.5c0,0.2-0.1,0.3-0.2,0.4s-0.3,0.2-0.5,0.2c-0.2,0-0.4-0.1-0.5-0.2
			S132.6,96.1,132.6,95.9z"/>
		<path class="st1" d="M140.1,102.4l0.1,0.4l0.1-0.4l1.8-4.8h1.1l-2.6,6.3h-0.8l-2.6-6.3h1.1L140.1,102.4z"/>
	</g>
	<path class="st2" d="M144.8,98.6v-1.1l5.2,2.2v0.9l-5.2,2.2v-1.1l3.8-1.4l0.4-0.1l-0.4-0.1L144.8,98.6z"/>
	<path class="st2" d="M156.7,106.1c-0.3,0-0.5-0.1-0.7-0.1s-0.4-0.2-0.6-0.3s-0.3-0.3-0.4-0.5s-0.2-0.4-0.3-0.6s-0.1-0.4-0.2-0.6
		s-0.1-0.4-0.1-0.6v-1c0-0.6-0.1-1-0.4-1.2s-0.7-0.4-1.2-0.4v-0.8c0.6,0,1-0.1,1.2-0.4s0.4-0.7,0.4-1.2v-1c0-0.2,0-0.4,0.1-0.6
		s0.1-0.4,0.2-0.6s0.2-0.4,0.3-0.6s0.3-0.3,0.4-0.5s0.4-0.2,0.6-0.3s0.5-0.1,0.7-0.1l0.1,0.7c-0.3,0-0.5,0.1-0.7,0.2
		s-0.3,0.3-0.4,0.5s-0.1,0.4-0.2,0.7s0,0.5,0,0.7v1c0,0.5-0.1,0.9-0.3,1.2s-0.5,0.6-1,0.8c0.5,0.2,0.8,0.4,1,0.8s0.3,0.8,0.3,1.2v1
		c0,0.2,0,0.5,0.1,0.7s0.1,0.5,0.2,0.7s0.2,0.4,0.4,0.5s0.4,0.2,0.6,0.2L156.7,106.1z"/>
	<g>
		<path class="st3" d="M160.8,103.9v-5.5h-1.7v-0.8h1.7v-0.4c0-0.4,0.1-0.8,0.2-1.1s0.3-0.6,0.5-0.8s0.5-0.4,0.8-0.5s0.6-0.2,1-0.2
			c0.3,0,0.5,0,0.8,0.1s0.5,0.1,0.8,0.2l-0.1,0.9c-0.2-0.1-0.3-0.1-0.6-0.1s-0.4-0.1-0.7-0.1c-0.5,0-0.9,0.1-1.1,0.4
			s-0.4,0.6-0.4,1.2v0.4h2.4v0.8h-2.4v5.5H160.8z"/>
		<path class="st3" d="M166.1,100.7c0-0.5,0.1-0.9,0.2-1.3s0.3-0.7,0.6-1s0.5-0.5,0.9-0.7s0.8-0.2,1.2-0.2c0.4,0,0.9,0.1,1.2,0.2
			s0.7,0.4,0.9,0.7s0.4,0.6,0.6,1s0.2,0.8,0.2,1.3v0.1c0,0.5-0.1,0.9-0.2,1.3s-0.3,0.7-0.6,1s-0.5,0.5-0.9,0.7s-0.8,0.2-1.2,0.2
			c-0.4,0-0.9-0.1-1.2-0.2s-0.7-0.4-0.9-0.7s-0.4-0.6-0.6-1s-0.2-0.8-0.2-1.3V100.7z M167.2,100.8c0,0.3,0,0.6,0.1,0.9
			s0.2,0.5,0.3,0.7s0.3,0.4,0.6,0.5s0.5,0.2,0.8,0.2c0.3,0,0.6-0.1,0.8-0.2s0.4-0.3,0.6-0.5s0.3-0.5,0.3-0.7s0.1-0.6,0.1-0.9v-0.1
			c0-0.3,0-0.6-0.1-0.9s-0.2-0.5-0.3-0.7s-0.3-0.4-0.6-0.5s-0.5-0.2-0.8-0.2s-0.6,0.1-0.8,0.2s-0.4,0.3-0.6,0.5s-0.3,0.5-0.3,0.7
			s-0.1,0.6-0.1,0.9V100.8z"/>
		<path class="st3" d="M173.3,100.7c0-0.5,0.1-0.9,0.2-1.3s0.3-0.7,0.6-1s0.5-0.5,0.9-0.7s0.8-0.2,1.2-0.2c0.4,0,0.9,0.1,1.2,0.2
			s0.7,0.4,0.9,0.7s0.4,0.6,0.6,1s0.2,0.8,0.2,1.3v0.1c0,0.5-0.1,0.9-0.2,1.3s-0.3,0.7-0.6,1s-0.5,0.5-0.9,0.7s-0.8,0.2-1.2,0.2
			c-0.4,0-0.9-0.1-1.2-0.2s-0.7-0.4-0.9-0.7s-0.4-0.6-0.6-1s-0.2-0.8-0.2-1.3V100.7z M174.4,100.8c0,0.3,0,0.6,0.1,0.9
			s0.2,0.5,0.3,0.7s0.3,0.4,0.6,0.5s0.5,0.2,0.8,0.2c0.3,0,0.6-0.1,0.8-0.2s0.4-0.3,0.6-0.5s0.3-0.5,0.3-0.7s0.1-0.6,0.1-0.9v-0.1
			c0-0.3,0-0.6-0.1-0.9s-0.2-0.5-0.3-0.7s-0.3-0.4-0.6-0.5s-0.5-0.2-0.8-0.2s-0.6,0.1-0.8,0.2s-0.4,0.3-0.6,0.5s-0.3,0.5-0.3,0.7
			s-0.1,0.6-0.1,0.9V100.8z"/>
	</g>
	<path class="st2" d="M182.7,103.2c0-0.1,0-0.2,0.1-0.3s0.1-0.2,0.2-0.3s0.2-0.1,0.3-0.2s0.2-0.1,0.4-0.1s0.3,0,0.4,0.1
		s0.2,0.1,0.3,0.2s0.1,0.2,0.2,0.3s0.1,0.2,0.1,0.3c0,0.1,0,0.2-0.1,0.3s-0.1,0.2-0.2,0.3s-0.2,0.1-0.3,0.2s-0.2,0.1-0.4,0.1
		s-0.3,0-0.4-0.1s-0.2-0.1-0.3-0.2s-0.1-0.2-0.2-0.3S182.7,103.4,182.7,103.2z"/>
	<g>
		<path class="st3" d="M193.4,100.8c0,0.5-0.1,0.9-0.2,1.3s-0.3,0.7-0.5,1s-0.5,0.5-0.8,0.7s-0.7,0.2-1.1,0.2
			c-0.4,0-0.8-0.1-1.1-0.2s-0.6-0.4-0.8-0.6l-0.1,0.7h-1v-9h1.1v3.3c0.2-0.3,0.5-0.5,0.8-0.6s0.6-0.2,1-0.2c0.4,0,0.8,0.1,1.1,0.2
			s0.6,0.4,0.8,0.7s0.4,0.6,0.5,1s0.2,0.8,0.2,1.3V100.8z M192.3,100.7c0-0.3,0-0.6-0.1-0.9s-0.2-0.5-0.3-0.7s-0.3-0.4-0.5-0.5
			s-0.5-0.2-0.8-0.2c-0.2,0-0.4,0-0.5,0.1s-0.3,0.1-0.4,0.2s-0.2,0.2-0.3,0.3s-0.2,0.2-0.2,0.4v2.8c0.1,0.1,0.2,0.3,0.2,0.4
			s0.2,0.2,0.3,0.3s0.3,0.2,0.4,0.2s0.3,0.1,0.5,0.1c0.3,0,0.6-0.1,0.8-0.2s0.4-0.3,0.5-0.5s0.2-0.5,0.3-0.7s0.1-0.6,0.1-0.9V100.7z
			"/>
		<path class="st3" d="M199.4,103.9c0-0.1-0.1-0.2-0.1-0.3s0-0.3-0.1-0.4c-0.1,0.1-0.2,0.2-0.4,0.3s-0.3,0.2-0.4,0.3
			s-0.3,0.1-0.5,0.2s-0.4,0.1-0.6,0.1c-0.3,0-0.6,0-0.9-0.1s-0.5-0.2-0.7-0.4s-0.3-0.4-0.4-0.6s-0.2-0.5-0.2-0.7
			c0-0.3,0.1-0.7,0.2-0.9s0.3-0.5,0.6-0.7s0.6-0.3,0.9-0.4s0.8-0.1,1.2-0.1h1.2v-0.5c0-0.2,0-0.4-0.1-0.5s-0.2-0.3-0.3-0.4
			s-0.3-0.2-0.5-0.2s-0.4-0.1-0.6-0.1c-0.2,0-0.4,0-0.6,0.1s-0.3,0.1-0.4,0.2s-0.2,0.2-0.3,0.3s-0.1,0.3-0.1,0.4h-1.1
			c0-0.2,0.1-0.5,0.2-0.7s0.3-0.4,0.5-0.6s0.5-0.3,0.8-0.4s0.7-0.2,1.1-0.2c0.4,0,0.7,0,1,0.1s0.6,0.2,0.8,0.4s0.4,0.4,0.5,0.7
			s0.2,0.6,0.2,0.9v2.9c0,0.2,0,0.4,0.1,0.7s0.1,0.4,0.2,0.6v0.1H199.4z M197.5,103.1c0.2,0,0.4,0,0.6-0.1s0.4-0.1,0.5-0.2
			s0.3-0.2,0.4-0.3s0.2-0.2,0.3-0.4v-1.3h-1c-0.6,0-1.1,0.1-1.5,0.3s-0.5,0.5-0.5,0.9c0,0.2,0,0.3,0.1,0.4s0.1,0.2,0.2,0.3
			s0.2,0.2,0.4,0.2S197.3,103.1,197.5,103.1z"/>
		<path class="st3" d="M206.6,97.5c0.1,0,0.2,0,0.3,0s0.2,0,0.3,0s0.2,0,0.3,0s0.2,0,0.2,0.1l-0.1,1.1c-0.2,0-0.4-0.1-0.6-0.1
			s-0.4,0-0.6,0c-0.5,0-0.9,0.1-1.2,0.3s-0.5,0.6-0.7,1v4.1h-1.1v-6.3h1l0.1,1c0.3-0.3,0.6-0.6,0.9-0.8S206.1,97.5,206.6,97.5z"/>
	</g>
	<path class="st2" d="M210.5,105.4c0.2,0,0.4-0.1,0.6-0.2s0.3-0.3,0.4-0.5s0.2-0.4,0.2-0.7s0.1-0.5,0.1-0.7v-1
		c0-0.5,0.1-0.9,0.3-1.2s0.5-0.6,1-0.8c-0.5-0.2-0.8-0.5-1-0.8s-0.3-0.8-0.3-1.2v-1c0-0.2,0-0.5,0-0.7s-0.1-0.5-0.2-0.7
		s-0.2-0.4-0.4-0.5s-0.4-0.2-0.7-0.2l0.1-0.7c0.3,0,0.5,0.1,0.7,0.1s0.4,0.2,0.6,0.3s0.3,0.3,0.4,0.5s0.2,0.4,0.3,0.6
		s0.1,0.4,0.2,0.6s0.1,0.4,0.1,0.6v1c0,0.6,0.1,1,0.4,1.2s0.7,0.4,1.2,0.4v0.8c-0.5,0-1,0.1-1.2,0.4s-0.4,0.7-0.4,1.2v1
		c0,0.3,0,0.6-0.1,0.9s-0.2,0.6-0.4,0.9s-0.4,0.5-0.7,0.6s-0.6,0.3-1,0.3L210.5,105.4z"/>
	<g>
		<path class="st1" d="M231,100.7c0-0.5,0.1-0.9,0.2-1.3s0.3-0.7,0.5-1s0.5-0.5,0.8-0.7s0.7-0.2,1-0.2c0.4,0,0.7,0.1,1,0.2
			s0.5,0.3,0.7,0.6v-3.3h1.1v9h-1l0-0.7c-0.2,0.3-0.5,0.5-0.8,0.6s-0.6,0.2-1,0.2c-0.4,0-0.7-0.1-1-0.2s-0.6-0.4-0.8-0.7
			s-0.4-0.6-0.5-1s-0.2-0.8-0.2-1.3V100.7z M232.1,100.8c0,0.3,0,0.6,0.1,0.9s0.2,0.5,0.3,0.7s0.3,0.4,0.5,0.5s0.5,0.2,0.8,0.2
			c0.2,0,0.3,0,0.5-0.1s0.3-0.1,0.4-0.2s0.2-0.2,0.3-0.3s0.2-0.2,0.2-0.4v-2.9c-0.1-0.3-0.3-0.5-0.6-0.6s-0.5-0.2-0.9-0.2
			c-0.3,0-0.6,0.1-0.8,0.2s-0.4,0.3-0.5,0.5s-0.2,0.5-0.3,0.7s-0.1,0.6-0.1,0.9V100.8z"/>
		<path class="st1" d="M238.6,97.6h3.2v5.4h2.1v0.9h-5.3V103h2.2v-4.5h-2.2V97.6z M240.6,95.9c0-0.2,0.1-0.3,0.2-0.5
			s0.3-0.2,0.5-0.2c0.2,0,0.4,0.1,0.5,0.2s0.2,0.3,0.2,0.5c0,0.2-0.1,0.3-0.2,0.4s-0.3,0.2-0.5,0.2c-0.2,0-0.4-0.1-0.5-0.2
			S240.6,96.1,240.6,95.9z"/>
		<path class="st1" d="M248.1,102.4l0.1,0.4l0.1-0.4l1.8-4.8h1.1l-2.6,6.3h-0.8l-2.6-6.3h1.1L248.1,102.4z"/>
	</g>
	<g>
		<path class="st2" d="M218.2,100.1l-0.3,0.1l0.3,0.1l3.6,1.4v1.1l-5-2.2v-0.9l5-2.2v1.1L218.2,100.1z"/>
		<path class="st2" d="M225.5,104.7h-1l3.6-9.3h1L225.5,104.7z"/>
		<path class="st2" d="M252.9,98.6v-1.1l5.2,2.2v0.9l-5.2,2.2v-1.1l3.8-1.4l0.4-0.1l-0.4-0.1L252.9,98.6z"/>
	</g>
</g>
<linearGradient id="SVGID_1_" gradientUnits="userSpaceOnUse" x1="21.8334" y1="163.2766" x2="21.8334" y2="112.8756">
	<stop  offset="0" style="stop-color:#ECECEC"/>
	<stop  offset="1" style="stop-color:#FAFAFA"/>
</linearGradient>
<line class="st4" x1="31.5" y1="122.9" x2="12.2" y2="153.3"/>
<linearGradient id="SVGID_2_" gradientUnits="userSpaceOnUse" x1="46.0398" y1="125.3756" x2="46.0398" y2="74.699">
	<stop  offset="0" style="stop-color:#ECECEC"/>
	<stop  offset="1" style="stop-color:#FAFAFA"/>
</linearGradient>
<line class="st5" x1="60.6" y1="77.2" x2="31.5" y2="122.9"/>
<linearGradient id="SVGID_3_" gradientUnits="userSpaceOnUse" x1="123.7938" y1="79.699" x2="123.7938" y2="8.2235">
	<stop  offset="0" style="stop-color:#FAFAFA"/>
	<stop  offset="1" style="stop-color:#ECECEC"/>
</linearGradient>
<polyline class="st6" points="187,34.7 187,10.7 102.9,10.7 60.6,77.2 "/>
<linearGradient id="SVGID_4_" gradientUnits="userSpaceOnUse" x1="21.7461" y1="-203.8593" x2="21.7461" y2="-254.5883" gradientTransform="matrix(1 0 0 -1 0 -203.1358)">
	<stop  offset="0" style="stop-color:#ECECEC"/>
	<stop  offset="1" style="stop-color:#FAFAFA"/>
</linearGradient>
<line class="st7" x1="31.5" y1="41.5" x2="12" y2="10.7"/>
<linearGradient id="SVGID_5_" gradientUnits="userSpaceOnUse" x1="47.3502" y1="-242.0883" x2="47.3502" y2="-296.9705" gradientTransform="matrix(1 0 0 -1 0 -203.1358)">
	<stop  offset="0" style="stop-color:#ECECEC"/>
	<stop  offset="1" style="stop-color:#FAFAFA"/>
</linearGradient>
<line class="st8" x1="63.2" y1="91.3" x2="31.5" y2="41.5"/>
<linearGradient id="SVGID_6_" gradientUnits="userSpaceOnUse" x1="124.9374" y1="-291.9705" x2="124.9374" y2="-358.9124" gradientTransform="matrix(1 0 0 -1 0 -203.1358)">
	<stop  offset="0" style="stop-color:#FAFAFA"/>
	<stop  offset="1" style="stop-color:#ECECEC"/>
</linearGradient>
<polyline class="st9" points="186.7,129.3 186.7,153.3 102.5,153.3 63.2,91.3 "/>
<g>
	<linearGradient id="SVGID_7_" gradientUnits="userSpaceOnUse" x1="56.1035" y1="108.0919" x2="56.1035" y2="58.9007">
		<stop  offset="0" style="stop-color:#ECECEC"/>
		<stop  offset="1" style="stop-color:#FAFAFA"/>
	</linearGradient>
	<circle class="st10" cx="56.1" cy="83.5" r="24.6"/>
	<g>
		<polygon class="st11" points="63.2,89.5 59.9,89.5 56.1,78.7 54,84.6 57.3,84.6 58.2,87.1 53.2,87.1 52.3,89.5 49,89.5 54.3,75.8 
			57.9,75.8 		"/>
		<path class="st11" d="M70.5,79.5c1.3,4.8,0.2,10-3.1,13.8c-5.4,6.3-14.9,7-21.2,1.6s-7-14.9-1.6-21.2s14.9-7,21.2-1.6
			c0.4-0.2,0.9-0.1,1.3,0c0.9,0.4,1.4,1.4,1,2.4c-0.4,0.9-1.4,1.4-2.4,1c-0.9-0.4-1.4-1.4-1-2.4c-2.4-2.1-5.5-3.2-8.7-3.2
			c-7.5,0-13.5,6.1-13.5,13.5C42.5,91,48.6,97,56.1,97S69.6,91,69.6,83.5c0-1.2-0.2-2.5-0.5-3.7l0,0c-0.1-0.4,0-0.8,0.4-0.9
			c0.4-0.2,0.8,0,1,0.4c0,0,0,0,0,0C70.5,79.4,70.5,79.4,70.5,79.5L70.5,79.5z"/>
	</g>
</g>
<linearGradient id="SVGID_8_" gradientUnits="userSpaceOnUse" x1="189.897" y1="127.163" x2="189.897" y2="116.4963">
	<stop  offset="0" style="stop-color:#ECECEC"/>
	<stop  offset="1" style="stop-color:#FAFAFA"/>
</linearGradient>
<rect x="134.3" y="116.5" class="st12" width="111.3" height="10.7"/>
<linearGradient id="SVGID_9_" gradientUnits="userSpaceOnUse" x1="187.0142" y1="29.3901" x2="187.0142" y2="40.0568">
	<stop  offset="0" style="stop-color:#ECECEC"/>
	<stop  offset="1" style="stop-color:#FAFAFA"/>
</linearGradient>
<rect x="131.4" y="29.4" class="st13" width="111.3" height="10.7"/>
</svg>
