<?xml version="1.0" encoding="utf-8"?>
<!-- Generator: Adobe Illustrator 19.0.0, SVG Export Plug-In . SVG Version: 6.00 Build 0)  -->
<!DOCTYPE svg PUBLIC "-//W3C//DTD SVG 1.1//EN" "http://www.w3.org/Graphics/SVG/1.1/DTD/svg11.dtd">
<svg version="1.1" xmlns="http://www.w3.org/2000/svg" xmlns:xlink="http://www.w3.org/1999/xlink" x="0px" y="0px"
	 viewBox="0 0 639.2 356.3" enable-background="new 0 0 639.2 356.3" xml:space="preserve">
<g id="Layer_7">
	<path fill="#DC7676" d="M438.9-394.5v-29.8c0-5.5-4.4-9.9-9.9-9.9H175.1c-5.5,0-9.9,4.4-9.9,9.9v314.5c0,5.5,4.4,9.9,9.9,9.9H429
		c5.5,0,9.9-4.4,9.9-9.9v-17h-11.3v-16.5h0.2v-70.2h11.1V-296v-15.8v-20.6h-11.1v-62H438.9z"/>
	<g>
		<path fill="#DC7676" stroke="#F8E2D2" stroke-miterlimit="10" d="M37.3-297v72c0,5.6,17.2,10.2,38.4,10.2
			c21.2,0,38.4-4.6,38.4-10.2v-72H37.3z"/>
		<ellipse fill="#DC7676" stroke="#F8E2D2" stroke-miterlimit="10" cx="75.7" cy="-297" rx="38.4" ry="10.2"/>
		<g>
			<path fill="#DC7676" d="M25.4-321.7l-1.4,0.5l-0.7-1.9l6.2-2.2c4.6-1.7,8.7,0,10.5,4.8c1.8,4.8-0.3,8.8-4.9,10.4l-3.4,1.2
				c-1,0.4-1.5,0.1-1.9-0.9L25.4-321.7z M32.2-311.1l2-0.7c3.4-1.2,4.9-4.1,3.5-7.8c-1.4-3.7-4.3-4.9-7.7-3.7l-2.5,0.9l4,11.1
				C31.7-311.1,31.9-311,32.2-311.1z"/>
			<path fill="#DC7676" d="M49.6-321l0.5-0.1l0-0.1c-0.3-2-1.2-2.6-3-2.3c-0.5,0.1-1.9,0.5-1.7,1.2l0.1,0.7l-2.1,0.3l-0.2-1.1
				c-0.3-1.9,2.5-2.6,3.6-2.8c3.7-0.6,5,1.2,5.5,3.7l0.8,4.9c0.1,0.3,0.3,0.5,0.6,0.4l0.9-0.2l0.3,1.9l-2.1,0.3
				c-1,0.2-1.5-0.3-1.6-1.1c-0.1-0.4-0.1-0.7-0.1-0.7l0,0c0,0-0.5,2.4-3.3,2.9c-2,0.3-4.1-0.5-4.5-2.8
				C42.7-319.6,47.7-320.7,49.6-321z M48-314.9c1.9-0.3,2.7-2.5,2.5-4.2l-0.1-0.4l-0.6,0.1c-1.7,0.3-4.6,0.9-4.3,3
				C45.7-315.5,46.6-314.7,48-314.9z"/>
			<path fill="#DC7676" d="M56.2-324.5l-1.5,0.1l-0.2-1.8l1.6-0.1l-0.3-3.2l2.2-0.2l0.3,3.2l2.8-0.3l0.2,1.8l-2.8,0.3l0.5,5.3
				c0.2,2.3,1.8,2.5,2.7,2.4c0.3,0,0.5-0.1,0.5-0.1l0.2,2c0,0-0.3,0.1-0.8,0.1c-1.5,0.1-4.5,0-4.8-3.9L56.2-324.5z"/>
			<path fill="#DC7676" d="M70.4-322.8l0.5,0l0-0.1c-0.1-2-0.9-2.8-2.7-2.7c-0.6,0-1.9,0.2-1.9,1l0,0.7l-2.1,0.1l0-1.1
				c-0.1-1.9,2.8-2.3,3.9-2.3c3.8-0.1,4.8,1.8,4.9,4.4l0.2,4.9c0,0.3,0.2,0.5,0.5,0.5l0.9,0l0.1,1.9l-2.1,0.1c-1,0-1.5-0.5-1.5-1.3
				c0-0.4,0-0.7,0-0.7l0,0c0,0-0.8,2.3-3.6,2.4c-2,0.1-4-1.1-4.1-3.4C63.4-322.3,68.5-322.7,70.4-322.8z M68-317
				c1.9-0.1,3-2.1,3-3.8l0-0.4l-0.6,0c-1.7,0.1-4.7,0.3-4.6,2.4C65.8-317.8,66.6-316.9,68-317z"/>
			<path fill="#DC7676" d="M77.4-329.5c0-0.3-0.2-0.5-0.5-0.5l-0.9,0l0.1-1.9l2.2,0.1c1,0,1.5,0.5,1.4,1.5l-0.1,3.8
				c0,0.6-0.1,1-0.1,1l0,0c0,0,1.1-1.9,3.8-1.8c3.1,0.1,5,2.7,4.9,6.3c-0.1,3.7-2.4,6-5.5,5.9c-2.6-0.1-3.6-2.1-3.6-2.1l0,0
				c0,0,0,0.4,0,0.9l0,0.8l-2.1-0.1L77.4-329.5z M82.4-317.1c1.8,0.1,3.4-1.4,3.5-4c0.1-2.5-1.2-4.2-3.2-4.3
				c-1.7-0.1-3.4,1.1-3.5,4.1C79.2-319.3,80.2-317.2,82.4-317.1z"/>
			<path fill="#DC7676" d="M97-321.6l0.5,0.1l0-0.1c0.2-2-0.4-2.8-2.3-3c-0.5-0.1-1.9-0.1-2,0.7l-0.1,0.7l-2.1-0.2l0.1-1.1
				c0.2-1.9,3.1-1.9,4.2-1.7c3.7,0.4,4.5,2.5,4.3,5l-0.5,4.9c0,0.3,0.1,0.5,0.4,0.6l0.9,0.1l-0.2,1.9l-2.1-0.2
				c-1-0.1-1.4-0.7-1.3-1.5c0-0.4,0.1-0.7,0.1-0.7l0,0c0,0-1.2,2.2-3.9,1.9c-2-0.2-3.8-1.6-3.5-4C90-322.2,95.1-321.8,97-321.6z
				 M93.9-316.2c1.9,0.2,3.3-1.6,3.5-3.3l0-0.4l-0.6-0.1c-1.7-0.2-4.7-0.4-4.9,1.7C91.8-317.4,92.4-316.4,93.9-316.2z"/>
			<path fill="#DC7676" d="M102.9-316.8c0,0,1,2,3.1,2.4c1.1,0.2,2.1-0.1,2.3-1.1c0.4-2.1-5.9-3.1-5.1-6.8c0.4-2.2,2.6-2.8,4.9-2.3
				c1.4,0.3,3.6,1.2,3.3,3l-0.2,1.1l-2-0.4l0.1-0.6c0.1-0.7-0.8-1.2-1.5-1.3c-1.3-0.3-2.2,0-2.4,0.9c-0.4,2.2,5.9,2.9,5.1,6.8
				c-0.4,2-2.5,3-4.9,2.5c-3-0.6-4.2-2.9-4.2-2.9L102.9-316.8z"/>
			<path fill="#DC7676" d="M120.7-321.1c3.1,1.2,3.8,4.1,2.8,6.9c-0.1,0.3-0.4,0.8-0.4,0.8l-7.9-3c-0.8,2.4,0.4,4.3,2.4,5.1
				c1.9,0.7,3.7-0.1,3.7-0.1l0.3,1.8c0,0-2.2,1-4.8,0c-3.4-1.3-4.9-4.7-3.6-7.9C114.4-320.9,117.6-322.2,120.7-321.1z M121.6-315.7
				c0.6-1.8-0.2-3.2-1.5-3.7c-1.6-0.6-3.2-0.1-4.3,1.6L121.6-315.7z"/>
		</g>
		<path fill="#DC7676" stroke="#F8E2D2" stroke-miterlimit="10" d="M75.7-262.3c-21.2,0-38.4-4.6-38.4-10.2"/>
		<path fill="#DC7676" stroke="#F8E2D2" stroke-miterlimit="10" d="M114-272.5c0,5.6-17.2,10.2-38.4,10.2"/>
		<path fill="#DC7676" stroke="#F8E2D2" stroke-miterlimit="10" d="M75.7-237.8c-21.2,0-38.4-4.6-38.4-10.2"/>
		<path fill="#DC7676" stroke="#F8E2D2" stroke-miterlimit="10" d="M114-248c0,5.6-17.2,10.2-38.4,10.2"/>
	</g>
	<g>
		<g>
			<path fill="#F8E2D2" d="M282-181.8h-36c-4.8,0-8.7-3.9-8.7-8.7v-24c0-4.8,3.9-8.7,8.7-8.7h36c4.8,0,8.7,3.9,8.7,8.7v24
				C290.7-185.7,286.8-181.8,282-181.8z"/>
		</g>
		<g>
			<line fill="#F8E2D2" x1="321.2" y1="-204.8" x2="290.7" y2="-204.8"/>
			<g>
				<line fill="none" stroke="#F8E2D2" stroke-width="4" stroke-miterlimit="10" x1="321.2" y1="-204.8" x2="305" y2="-204.8"/>
				<g>
					<polygon fill="#F8E2D2" points="307.9,-214.7 290.7,-204.8 307.9,-194.8 					"/>
				</g>
			</g>
		</g>
		<g>
			<path fill="#F8E2D2" d="M365.8-181.8h-36c-4.8,0-8.7-3.9-8.7-8.7v-24c0-4.8,3.9-8.7,8.7-8.7h36c4.8,0,8.7,3.9,8.7,8.7v24
				C374.5-185.7,370.6-181.8,365.8-181.8z"/>
		</g>
		<g>
			<line fill="#F8E2D2" x1="347.8" y1="-156.3" x2="347.8" y2="-182.3"/>
			<g>
				<line fill="none" stroke="#F8E2D2" stroke-width="4" stroke-miterlimit="10" x1="347.8" y1="-156.3" x2="347.8" y2="-168"/>
				<g>
					<polygon fill="#F8E2D2" points="357.8,-165 347.8,-182.3 337.9,-165 					"/>
				</g>
			</g>
		</g>
		<g>
			<path fill="#F8E2D2" d="M365.8-114.9h-36c-4.8,0-8.7-3.9-8.7-8.7v-24c0-4.8,3.9-8.7,8.7-8.7h36c4.8,0,8.7,3.9,8.7,8.7v24
				C374.5-118.8,370.6-114.9,365.8-114.9z"/>
		</g>
		<g>
			<g>
				<path fill="#F8E2D2" d="M242.2-242.8c-0.1-0.4-0.4-0.5-0.8-0.5h-0.4v-2.1h1.4c1.2,0,1.8,0.2,2.1,1.4l2.6,10.9
					c0.2,0.9,0.3,1.8,0.3,1.8h0c0,0,0.1-0.9,0.4-1.8l3.4-12.2h2.2l3.2,12.2c0.2,0.9,0.4,1.8,0.4,1.8h0c0,0,0.1-0.9,0.3-1.8L260-244
					c0.3-1.2,0.9-1.4,2.1-1.4h1.4v2.1h-0.4c-0.4,0-0.7,0.1-0.8,0.5l-3.7,14.4h-2.8l-2.9-10.7c-0.3-1.1-0.5-2.3-0.5-2.3h0
					c0,0-0.2,1.2-0.6,2.3l-3.1,10.7H246L242.2-242.8z"/>
			</g>
			<g>
				<path fill="#F8E2D2" d="M265.4-238.1c0-0.4-0.2-0.5-0.5-0.5h-1v-2h2.2c1.1,0,1.6,0.4,1.6,1.4v0.8c0,0.5,0,0.8,0,0.8h0
					c0.6-1.8,2-3.2,3.8-3.2c0.3,0,0.6,0,0.6,0v2.3c0,0-0.3-0.1-0.7-0.1c-1.5,0-2.9,1.1-3.4,2.9c-0.2,0.7-0.3,1.4-0.3,2.2v5h-2.3
					V-238.1z"/>
			</g>
			<g>
				<path fill="#F8E2D2" d="M274.8-238.1c0-0.4-0.2-0.5-0.5-0.5h-1v-2h2.3c1.1,0,1.5,0.5,1.5,1.5v8.1c0,0.4,0.2,0.5,0.5,0.5h1v2
					h-2.3c-1.1,0-1.5-0.5-1.5-1.5V-238.1z M274.9-245.4h2.1v2.4h-2.1V-245.4z"/>
			</g>
			<g>
				<path fill="#F8E2D2" d="M281.4-238.7h-1.6v-1.9h1.6v-3.3h2.3v3.3h2.9v1.9h-2.9v5.6c0,2.4,1.7,2.7,2.6,2.7c0.3,0,0.6,0,0.6,0v2.1
					c0,0-0.3,0-0.8,0c-1.5,0-4.6-0.5-4.6-4.5V-238.7z"/>
			</g>
			<g>
				<path fill="#F8E2D2" d="M294.5-240.9c3.4,0,5.2,2.5,5.2,5.7c0,0.3-0.1,1-0.1,1h-8.9c0.1,2.6,2,4.1,4.2,4.1
					c2.1,0,3.6-1.4,3.6-1.4l1,1.7c0,0-1.8,1.8-4.7,1.8c-3.8,0-6.5-2.8-6.5-6.4C288.4-238.4,291-240.9,294.5-240.9z M297.3-236
					c-0.1-2-1.3-3.1-2.9-3.1c-1.8,0-3.2,1.1-3.6,3.1H297.3z"/>
			</g>
			<g>
				<path fill="#F8E2D2" d="M307.7-230.5h0.8c0.3,0,0.5-0.2,0.5-0.5l1.2-14.4h2.5l4,9c0.4,0.9,0.8,2.1,0.8,2.1h0
					c0,0,0.4-1.2,0.8-2.1l4-9h2.5l1.2,14.4c0,0.3,0.2,0.5,0.5,0.5h0.8v2.1h-2.1c-1.1,0-1.5-0.5-1.5-1.5l-0.7-9c-0.1-1,0-2.5,0-2.5h0
					c0,0-0.5,1.6-0.9,2.5l-3.4,7.4h-2l-3.4-7.4c-0.4-0.9-0.9-2.5-0.9-2.5h0c0,0,0,1.5,0,2.5l-0.7,9c-0.1,1.1-0.5,1.5-1.6,1.5h-2.1
					V-230.5z"/>
			</g>
			<g>
				<path fill="#F8E2D2" d="M335.2-240.9c3.6,0,6.6,2.7,6.6,6.3c0,3.7-2.9,6.4-6.6,6.4s-6.5-2.7-6.5-6.4
					C328.7-238.2,331.6-240.9,335.2-240.9z M335.2-230.2c2.3,0,4.2-1.8,4.2-4.4c0-2.5-1.9-4.3-4.2-4.3c-2.3,0-4.2,1.8-4.2,4.3
					C331-232,332.9-230.2,335.2-230.2z"/>
			</g>
			<g>
				<path fill="#F8E2D2" d="M349-240.9c2.8,0,3.7,1.9,3.7,1.9h0c0,0,0-0.4,0-0.8v-3c0-0.4-0.2-0.5-0.5-0.5h-1v-2h2.3
					c1.1,0,1.5,0.5,1.5,1.5v12.9c0,0.4,0.2,0.5,0.5,0.5h1v2h-2.2c-1.1,0-1.5-0.5-1.5-1.3c0-0.4,0-0.6,0-0.6h0c0,0-1,2.2-4,2.2
					c-3.3,0-5.4-2.6-5.4-6.4C343.5-238.4,345.8-240.9,349-240.9z M352.8-234.6c0-2.2-1.1-4.3-3.5-4.3c-1.9,0-3.5,1.6-3.5,4.3
					c0,2.6,1.4,4.3,3.4,4.3C351.1-230.2,352.8-231.5,352.8-234.6z"/>
			</g>
			<g>
				<path fill="#F8E2D2" d="M364.1-240.9c3.4,0,5.2,2.5,5.2,5.7c0,0.3-0.1,1-0.1,1h-8.9c0.1,2.6,2,4.1,4.2,4.1
					c2.1,0,3.6-1.4,3.6-1.4l1,1.7c0,0-1.8,1.8-4.7,1.8c-3.8,0-6.5-2.8-6.5-6.4C358-238.4,360.6-240.9,364.1-240.9z M366.9-236
					c-0.1-2-1.3-3.1-2.9-3.1c-1.8,0-3.2,1.1-3.6,3.1H366.9z"/>
			</g>
			<g>
				<path fill="#F8E2D2" d="M372.4-242.9c0-0.4-0.2-0.5-0.5-0.5h-1v-2h2.3c1.1,0,1.5,0.5,1.5,1.5v12.9c0,0.4,0.2,0.5,0.5,0.5h1v2
					h-2.3c-1.1,0-1.5-0.5-1.5-1.5V-242.9z"/>
			</g>
		</g>
	</g>
	<g>
		<g>
			<path fill="#F8E2D2" d="M282.7-353.2h-36c-4.8,0-8.7-3.9-8.7-8.7v-24c0-4.8,3.9-8.7,8.7-8.7h36c4.8,0,8.7,3.9,8.7,8.7v24
				C291.4-357,287.5-353.2,282.7-353.2z"/>
		</g>
		<g>
			<line fill="#F8E2D2" x1="303.2" y1="-307.5" x2="279.2" y2="-353.2"/>
			<g>
				<line fill="none" stroke="#F8E2D2" stroke-width="4" stroke-miterlimit="10" x1="303.2" y1="-307.5" x2="285.9" y2="-340.4"/>
				<g>
					<polygon fill="#F8E2D2" points="296.1,-342.5 279.2,-353.2 278.5,-333.2 					"/>
				</g>
			</g>
		</g>
		<g>
			<path fill="#F8E2D2" d="M363.9-353.2h-36c-4.8,0-8.7-3.9-8.7-8.7v-24c0-4.8,3.9-8.7,8.7-8.7h36c4.8,0,8.7,3.9,8.7,8.7v24
				C372.6-357,368.7-353.2,363.9-353.2z"/>
		</g>
		<g>
			<line fill="#F8E2D2" x1="315.7" y1="-313.7" x2="334.1" y2="-353.2"/>
			<g>
				<line fill="none" stroke="#F8E2D2" stroke-width="4" stroke-miterlimit="10" x1="315.7" y1="-313.7" x2="328" y2="-340.1"/>
				<g>
					<polygon fill="#F8E2D2" points="335.8,-333.3 334.1,-353.2 317.7,-341.7 					"/>
				</g>
			</g>
		</g>
		<g>
			<path fill="#F8E2D2" d="M323.9-283.1h-36c-4.8,0-8.7-3.9-8.7-8.7v-24c0-4.8,3.9-8.7,8.7-8.7h36c4.8,0,8.7,3.9,8.7,8.7v24
				C332.6-287,328.7-283.1,323.9-283.1z"/>
		</g>
		<g>
			<g>
				<path fill="#F8E2D2" d="M242.4-418.6c4.9,0,8.7,3.8,8.7,8.7c0,2.1-0.8,4.1-2,5.6l1.9,1.9l-1.4,1.5l-1.9-1.9
					c-1.5,1.2-3.3,1.8-5.3,1.8c-4.9,0-8.7-3.9-8.7-8.9C233.7-414.8,237.5-418.6,242.4-418.6z M242.4-403.3c2.2,0,3.6-1.2,3.6-1.2
					l-1.9-1.8l1.4-1.6l1.8,1.9c0.8-1.1,1.2-2.5,1.2-3.9c0-3.7-2.7-6.4-6.2-6.4c-3.5,0-6.2,2.7-6.2,6.4
					C236.2-406.2,238.9-403.3,242.4-403.3z"/>
			</g>
			<g>
				<path fill="#F8E2D2" d="M254.1-411c0-0.4-0.2-0.5-0.5-0.5h-1v-2h2.3c1.1,0,1.6,0.5,1.6,1.5v5.8c0,1.7,0.3,3,2.3,3
					c2.5,0,4-2.2,4-4.6v-5.7h2.3v9.6c0,0.4,0.2,0.5,0.5,0.5h1v2h-2.2c-1,0-1.5-0.5-1.5-1.3v-0.5c0-0.4,0-0.7,0-0.7h0
					c-0.5,1.2-2.1,2.8-4.5,2.8c-2.7,0-4.1-1.4-4.1-4.7V-411z"/>
			</g>
			<g>
				<path fill="#F8E2D2" d="M274-413.8c3.4,0,5.2,2.5,5.2,5.7c0,0.3-0.1,1-0.1,1h-8.9c0.1,2.6,2,4.1,4.2,4.1c2.1,0,3.6-1.4,3.6-1.4
					l1,1.7c0,0-1.8,1.8-4.7,1.8c-3.8,0-6.5-2.8-6.5-6.4C267.9-411.3,270.5-413.8,274-413.8z M276.8-408.8c-0.1-2-1.3-3.1-2.9-3.1
					c-1.8,0-3.2,1.1-3.6,3.1H276.8z"/>
			</g>
			<g>
				<path fill="#F8E2D2" d="M282.3-411c0-0.4-0.2-0.5-0.5-0.5h-1v-2h2.2c1.1,0,1.6,0.4,1.6,1.4v0.8c0,0.5,0,0.8,0,0.8h0
					c0.6-1.8,2-3.2,3.8-3.2c0.3,0,0.6,0,0.6,0v2.3c0,0-0.3-0.1-0.7-0.1c-1.5,0-2.9,1.1-3.4,2.9c-0.2,0.7-0.3,1.4-0.3,2.2v5h-2.3
					V-411z"/>
			</g>
			<g>
				<path fill="#F8E2D2" d="M292.7-398.3c0.9,0,1.7-0.7,2.1-1.8l0.6-1.3l-4.2-9.6c-0.2-0.4-0.4-0.5-0.8-0.5h-0.3v-2h1.4
					c1,0,1.3,0.3,1.7,1.2l2.8,6.8c0.2,0.6,0.4,1.5,0.4,1.5h0c0,0,0.2-0.8,0.4-1.5l2.5-6.8c0.4-1,0.8-1.2,1.8-1.2h1.4v2h-0.3
					c-0.4,0-0.6,0.1-0.8,0.5l-4.8,11.9c-0.7,1.9-2.2,2.9-3.9,2.9c-1.8,0-2.9-1.2-2.9-1.2l1-1.7C290.9-399.2,291.7-398.3,292.7-398.3
					z"/>
			</g>
			<g>
				<path fill="#F8E2D2" d="M309.9-403.4h0.8c0.3,0,0.5-0.2,0.5-0.5l1.2-14.4h2.5l4,9c0.4,0.9,0.8,2.1,0.8,2.1h0
					c0,0,0.4-1.2,0.8-2.1l4-9h2.5l1.2,14.4c0,0.3,0.2,0.5,0.5,0.5h0.8v2.1h-2.1c-1.1,0-1.5-0.5-1.5-1.5l-0.7-9c-0.1-1,0-2.5,0-2.5h0
					c0,0-0.5,1.6-0.9,2.5l-3.4,7.4h-2l-3.4-7.4c-0.4-0.9-0.9-2.5-0.9-2.5h0c0,0,0,1.5,0,2.5l-0.7,9c-0.1,1.1-0.5,1.5-1.6,1.5h-2.1
					V-403.4z"/>
			</g>
			<g>
				<path fill="#F8E2D2" d="M337.4-413.8c3.6,0,6.6,2.7,6.6,6.3c0,3.7-2.9,6.4-6.6,6.4s-6.5-2.7-6.5-6.4
					C330.8-411.1,333.8-413.8,337.4-413.8z M337.4-403.1c2.3,0,4.2-1.8,4.2-4.4c0-2.5-1.9-4.3-4.2-4.3c-2.3,0-4.2,1.8-4.2,4.3
					C333.2-404.9,335.1-403.1,337.4-403.1z"/>
			</g>
			<g>
				<path fill="#F8E2D2" d="M351.2-413.8c2.8,0,3.7,1.9,3.7,1.9h0c0,0,0-0.4,0-0.8v-3c0-0.4-0.2-0.5-0.5-0.5h-1v-2h2.3
					c1.1,0,1.5,0.5,1.5,1.5v12.9c0,0.4,0.2,0.5,0.5,0.5h1v2h-2.2c-1.1,0-1.5-0.5-1.5-1.3c0-0.4,0-0.6,0-0.6h0c0,0-1,2.2-4,2.2
					c-3.3,0-5.4-2.6-5.4-6.4C345.7-411.3,348-413.8,351.2-413.8z M355-407.4c0-2.2-1.1-4.3-3.5-4.3c-1.9,0-3.5,1.6-3.5,4.3
					c0,2.6,1.4,4.3,3.4,4.3C353.3-403.1,355-404.4,355-407.4z"/>
			</g>
			<g>
				<path fill="#F8E2D2" d="M366.3-413.8c3.4,0,5.2,2.5,5.2,5.7c0,0.3-0.1,1-0.1,1h-8.9c0.1,2.6,2,4.1,4.2,4.1
					c2.1,0,3.6-1.4,3.6-1.4l1,1.7c0,0-1.8,1.8-4.7,1.8c-3.8,0-6.5-2.8-6.5-6.4C360.2-411.3,362.8-413.8,366.3-413.8z M369.1-408.8
					c-0.1-2-1.3-3.1-2.9-3.1c-1.8,0-3.2,1.1-3.6,3.1H369.1z"/>
			</g>
			<g>
				<path fill="#F8E2D2" d="M374.6-415.8c0-0.4-0.2-0.5-0.5-0.5h-1v-2h2.3c1.1,0,1.5,0.5,1.5,1.5v12.9c0,0.4,0.2,0.5,0.5,0.5h1v2
					h-2.3c-1.1,0-1.5-0.5-1.5-1.5V-415.8z"/>
			</g>
		</g>
	</g>
	<g>
		<path fill="#FAAE24" d="M439.8-167.5c0.8,0,1.6-0.6,1.6-1.9c0-1.6-1.7-2.7-3.2-2.7h-0.3v0.5C437.9-170.1,438-167.5,439.8-167.5z"
			/>
		<path fill="#FAAE24" d="M434.1-194.3c0,1.9,1.5,3.5,3.6,3.5c2.1,0,3.6-1.6,3.6-3.5c0-1.9-1.5-3.5-3.6-3.5
			C435.6-197.8,434.1-196.3,434.1-194.3z"/>
		<path fill="#FAAE24" d="M422.5-213.4v86.9c0,3.3,2.7,5.9,5.9,5.9h16.5c3.3,0,5.9-2.7,5.9-5.9v-86.9c0-3.3-2.7-5.9-5.9-5.9h-16.5
			C425.1-219.3,422.5-216.6,422.5-213.4z M428.7-184.5v-1.7h2v1.7H428.7z M442.8-145.1v1.9c0,0.9-0.4,1.3-1.3,1.3h-4.8
			c-1.4,0-2.5,0.3-2.5,1.8c0,1.4,1.2,2.5,2.6,2.8c0.4,0.1,0.9,0.2,1.4,0.2h4.6v1.9h-6c-1.3,0-2.5,0.2-2.5,1.7c0,1.5,1.2,2.5,2.7,2.9
			c0.4,0.1,0.8,0.1,1.3,0.1h4.6v1.9h-8c-0.3,0-0.4,0.2-0.4,0.4v0.8h-1.7v-1.9c0-0.9,0.4-1.3,1.1-1.3h0.4c0.3,0,0.6,0,0.6,0v0
			c-1.2-0.5-2.3-1.9-2.3-3.5c0-1.7,0.8-2.7,2.3-3v0c-1.2-0.6-2.3-2-2.3-3.6c0-2.3,1.3-3.3,3.9-3.3h4.4c0.3,0,0.4-0.2,0.4-0.4v-0.8
			H442.8z M442.8-157.4v1.9c0,0.9-0.4,1.3-1.1,1.3h-0.4c-0.3,0-0.6,0-0.6,0v0c1,0.4,2.3,1.7,2.3,3.7c0,2.3-1.2,3.4-3.9,3.4h-4.4
			c-0.3,0-0.4,0.2-0.4,0.4v0.8h-1.7v-1.9c0-0.9,0.4-1.3,1.2-1.3h4.8c1.4,0,2.5-0.3,2.5-1.9c0-2.1-1.8-3.3-3.8-3.3h-4.7v-1.9h8
			c0.3,0,0.4-0.2,0.4-0.4v-0.8H442.8z M442.8-164.2c0,0,0,0.3,0,0.7c0,1.3-0.4,3.9-3.8,3.9h-4.8v1.3h-1.6v-1.4h-2.8v-1.9h2.8v-2.4
			h1.6v2.4h4.6c2,0,2.3-1.4,2.3-2.1c0-0.3,0-0.5,0-0.5H442.8z M442.8-175.3v1.8c0,0.9-0.4,1.3-1.2,1.3c-0.3,0-0.6,0-0.6,0v0
			c0,0,2,0.8,2,3.2c0,1.7-1.1,3.4-3.1,3.4c-3.3,0-3.5-4.4-3.5-6.1v-0.4h-0.1c-1.8,0-2.4,0.7-2.4,2.2c0,0.5,0.1,1.7,0.8,1.7h0.6v1.8
			h-1c-1.7,0-1.9-2.5-1.9-3.5c0-3.3,1.7-4.2,4-4.2h4.3c0.3,0,0.4-0.2,0.4-0.4v-0.8H442.8z M442.8-182c0,0,0,0.3,0,0.7
			c0,1.3-0.4,3.9-3.8,3.9h-4.8v1.3h-1.6v-1.4h-2.8v-1.9h2.8v-2.4h1.6v2.4h4.6c2,0,2.3-1.4,2.3-2.1c0-0.3,0-0.5,0-0.5H442.8z
			 M442.8-187.7v1.9c0,0.9-0.4,1.3-1.3,1.3h-6.7c-0.3,0-0.4,0.2-0.4,0.4v0.8h-1.7v-1.9c0-0.9,0.4-1.3,1.3-1.3h6.7
			c0.3,0,0.4-0.2,0.4-0.4v-0.8H442.8z M443-194.3c0,3-2.2,5.4-5.3,5.4c-3.1,0-5.3-2.4-5.3-5.4c0-3,2.2-5.4,5.3-5.4
			C440.8-199.8,443-197.4,443-194.3z M442.8-212.6v1.9c0,0.9-0.4,1.3-1.3,1.3h-4.8c-1.4,0-2.5,0.3-2.5,1.9c0,1.6,1,2.8,2.5,3.2
			c0.4,0.1,0.9,0.2,1.4,0.2h4.7v1.9h-8c-0.3,0-0.4,0.2-0.4,0.4v0.8h-1.7v-1.9c0-0.9,0.4-1.3,1.1-1.3h0.4c0.3,0,0.6,0,0.6,0v0
			c-0.9-0.4-2.3-1.6-2.3-3.8c0-2.4,1.3-3.5,3.9-3.5h4.4c0.3,0,0.4-0.2,0.4-0.4v-0.8H442.8z"/>
	</g>
	<g>
		<path fill="#FAAE24" d="M433.5-367.1c0,1.5,0.9,2.7,2.6,3v-5.3C434.4-369.4,433.5-368.4,433.5-367.1z"/>
		<path fill="#FAAE24" d="M433.7-342.5c0,1.6,1.3,2.9,3.6,2.9c2.2,0,3.6-1.2,3.6-2.9c0-1.5-1.1-2.9-3.6-2.9
			C435.5-345.4,433.7-344.5,433.7-342.5z"/>
		<path fill="#FAAE24" d="M422-391.9v55.5c0,3.3,2.7,5.9,5.9,5.9h16.5c3.3,0,5.9-2.7,5.9-5.9v-55.5c0-3.3-2.7-5.9-5.9-5.9H428
			C424.7-397.8,422-395.1,422-391.9z M433.9-348.5v0.8c0,0.3,0.1,0.4,0.4,0.4h12v1.9h-4.6c-0.5,0-0.9,0-0.9,0v0c0,0,1.7,0.9,1.7,3.3
			c0,2.7-2.2,4.4-5.3,4.4c-3.2,0-5.3-1.9-5.3-4.6c0-2.4,1.7-3.3,1.7-3.3v0c0,0-0.2,0-0.5,0c-0.6,0-1-0.4-1-1.2v-1.8H433.9z
			 M442.3-360.9v1.9c0,0.9-0.4,1.3-1.1,1.3h-0.4c-0.3,0-0.6,0-0.6,0v0c1,0.4,2.3,1.7,2.3,3.7c0,2.3-1.2,3.4-3.9,3.4h-4.4
			c-0.3,0-0.4,0.2-0.4,0.4v0.8h-1.7v-1.9c0-0.9,0.4-1.3,1.2-1.3h4.8c1.4,0,2.5-0.3,2.5-1.9c0-2.1-1.8-3.3-3.8-3.3h-4.7v-1.9h8
			c0.3,0,0.4-0.2,0.4-0.4v-0.8H442.3z M437.5-371.4v7.4c2.2-0.1,3.4-1.7,3.4-3.5c0-1.7-1.2-3-1.2-3l1.4-0.8c0,0,1.5,1.5,1.5,3.9
			c0,3.2-2.3,5.4-5.3,5.4c-3.2,0-5.3-2.2-5.3-5.1c0-2.8,2.1-4.4,4.7-4.4C437-371.5,437.5-371.4,437.5-371.4z M434.1-379.7
			c0,0-0.1,0.3-0.1,0.6c0,1.2,0.9,2.4,2.4,2.8c0.6,0.2,1.2,0.2,1.8,0.2h4.1v1.9h-8c-0.3,0-0.4,0.2-0.4,0.4v0.8h-1.7v-1.8
			c0-0.9,0.4-1.3,1.2-1.3h0.6c0.4,0,0.7,0,0.7,0v0c-1.5-0.5-2.6-1.6-2.6-3.2c0-0.3,0-0.5,0-0.5H434.1z M433.9-391v0.3
			c0,0.3,0.1,0.5,0.4,0.6l9.9,4c1.6,0.6,2.4,1.8,2.4,3.3c0,1.5-1,2.4-1,2.4l-1.4-0.8c0,0,0.7-0.6,0.7-1.5c0-0.8-0.6-1.4-1.5-1.8
			l-1.1-0.5l-8,3.5c-0.3,0.1-0.4,0.3-0.4,0.6v0.2h-1.7v-1.1c0-0.8,0.2-1.1,1-1.4l5.7-2.3c0.5-0.2,1.2-0.4,1.2-0.4v0
			c0,0-0.7-0.1-1.2-0.3l-5.7-2.1c-0.8-0.3-1-0.7-1-1.5v-1.2H433.9z"/>
	</g>
	<g>
		<path fill="#DC7676" d="M620-295.4h-6.2H612h-61.1c-5.8,0-10.6,4.7-10.6,10.6v11.5v22.5v12.7c0,5.8,4.7,10.6,10.6,10.6H612h1.8
			h6.2c5.8,0,10.6-4.7,10.6-10.6v-12.7v-22.5v-11.5C630.6-290.7,625.8-295.4,620-295.4z"/>
		<g>
			<path fill="#F8E2D2" d="M565-269c2,0,5.4,0.8,5.4,3.1v1.4h-1.9v-0.8c0-1.2-2.1-1.8-3.5-1.8c-2.9,0-5.2,2.2-5.2,5.5
				c0,3.2,2.3,5.7,5.2,5.7c2.9,0,4.6-2,4.6-2l1.1,1.5c0,0-2.1,2.4-5.7,2.4c-4.3,0-7.4-3.3-7.4-7.6C557.7-265.9,560.8-269,565-269z"
				/>
			<path fill="#F8E2D2" d="M573.1-266.6c0-0.3-0.2-0.5-0.5-0.5h-0.8v-1.7h2c0.9,0,1.3,0.4,1.3,1.3v11c0,0.3,0.2,0.5,0.5,0.5h0.8v1.7
				h-2c-0.9,0-1.3-0.4-1.3-1.3V-266.6z"/>
			<path fill="#F8E2D2" d="M578.7-262.5c0-0.3-0.2-0.5-0.5-0.5h-0.8v-1.7h2c0.9,0,1.3,0.4,1.3,1.3v6.9c0,0.3,0.2,0.5,0.5,0.5h0.8
				v1.7h-2c-0.9,0-1.3-0.4-1.3-1.3V-262.5z M578.8-268.8h1.8v2.1h-1.8V-268.8z"/>
			<path fill="#F8E2D2" d="M588.5-264.9c2.9,0,4.5,2.2,4.5,4.9c0,0.3-0.1,0.8-0.1,0.8h-7.6c0.1,2.2,1.7,3.5,3.6,3.5
				c1.8,0,3-1.2,3-1.2l0.9,1.4c0,0-1.5,1.5-4,1.5c-3.3,0-5.5-2.4-5.5-5.4C583.3-262.8,585.5-264.9,588.5-264.9z M590.9-260.7
				c-0.1-1.7-1.2-2.6-2.4-2.6c-1.5,0-2.8,0.9-3.1,2.6H590.9z"/>
			<path fill="#F8E2D2" d="M595.6-262.5c0-0.3-0.2-0.5-0.5-0.5h-0.8v-1.7h1.9c0.9,0,1.3,0.4,1.3,1.2v0.4c0,0.3,0,0.6,0,0.6h0
				c0.4-0.9,1.6-2.4,3.9-2.4c2.5,0,3.6,1.3,3.6,4v4.5c0,0.3,0.2,0.5,0.5,0.5h0.8v1.7h-2c-0.9,0-1.3-0.4-1.3-1.3v-4.9
				c0-1.5-0.3-2.6-2-2.6c-1.6,0-2.9,1-3.3,2.5c-0.1,0.4-0.2,0.9-0.2,1.4v4.9h-2V-262.5z"/>
			<path fill="#F8E2D2" d="M608.6-263.1h-1.4v-1.6h1.4v-2.9h2v2.9h2.5v1.6h-2.5v4.8c0,2.1,1.4,2.3,2.2,2.3c0.3,0,0.5,0,0.5,0v1.8
				c0,0-0.3,0-0.7,0c-1.3,0-4-0.4-4-3.9V-263.1z"/>
		</g>
	</g>
	<g>
		<g>
			<path fill="none" stroke="#FAAE24" stroke-width="7" stroke-miterlimit="10" d="M211.7-155.4H90.5c-8.1,0-14.7-6.6-14.7-14.7
				v-7.6"/>
			<g>
				<polygon fill="#FAAE24" points="93.3,-172.5 75.9,-202.7 58.4,-172.5 				"/>
			</g>
		</g>
	</g>
	<g>
		<g>
			<path fill="none" stroke="#FAAE24" stroke-width="7" stroke-miterlimit="10" d="M75.9-342.6v-24.3c0-8.1,6.6-14.7,14.7-14.7
				h103.2"/>
			<g>
				<polygon fill="#FAAE24" points="188.7,-364.1 218.9,-381.6 188.7,-399 				"/>
			</g>
		</g>
	</g>
	<g>
		<path fill="none" d="M-86.3-263.6"/>
	</g>
	<g>
		<g>
			<path fill="none" stroke="#FAAE24" stroke-width="7" stroke-miterlimit="10" d="M585.5-204v24.3c0,8.1-6.6,14.7-14.7,14.7h-79.2"
				/>
			<g>
				<polygon fill="#FAAE24" points="496.7,-182.5 466.4,-165 496.7,-147.6 				"/>
			</g>
		</g>
	</g>
	<g>
		<g>
			<path fill="none" stroke="#FAAE24" stroke-width="7" stroke-miterlimit="10" d="M466.4-363.3h99.2c8.1,0,14.7,6.6,14.7,14.7v7.6"
				/>
			<g>
				<polygon fill="#FAAE24" points="562.8,-346.2 580.3,-315.9 597.7,-346.2 				"/>
			</g>
		</g>
	</g>
</g>
<g id="Layer_8">
	<path fill="#DC7676" d="M441.7,51.8V22.1c0-5.5-4.4-9.9-9.9-9.9H177.9c-5.5,0-9.9,4.4-9.9,9.9v314.5c0,5.5,4.4,9.9,9.9,9.9h253.9
		c5.5,0,9.9-4.4,9.9-9.9v-17h-11.3v-16.5h0.2v-70.2h11.1v-82.6v-15.8v-20.6h-11.1v-62H441.7z"/>
	<g>
		<path fill="#FAAE24" d="M442.7,278.8c0.8,0,1.6-0.6,1.6-1.9c0-1.6-1.7-2.7-3.2-2.7h-0.3v0.5C440.7,276.2,440.8,278.8,442.7,278.8z
			"/>
		<path fill="#FAAE24" d="M436.9,252c0,1.9,1.5,3.5,3.6,3.5c2.1,0,3.6-1.6,3.6-3.5c0-1.9-1.5-3.5-3.6-3.5
			C438.4,248.5,436.9,250,436.9,252z"/>
		<path fill="#FAAE24" d="M425.3,232.9v86.9c0,3.3,2.7,5.9,5.9,5.9h16.5c3.3,0,5.9-2.7,5.9-5.9v-86.9c0-3.3-2.7-5.9-5.9-5.9h-16.5
			C428,227,425.3,229.7,425.3,232.9z M431.5,261.8V260h2v1.7H431.5z M445.6,301.2v1.9c0,0.9-0.4,1.3-1.3,1.3h-4.8
			c-1.4,0-2.5,0.3-2.5,1.8c0,1.4,1.2,2.5,2.6,2.8c0.4,0.1,0.9,0.2,1.4,0.2h4.6v1.9h-6c-1.3,0-2.5,0.2-2.5,1.7c0,1.5,1.2,2.5,2.7,2.9
			c0.4,0.1,0.8,0.1,1.3,0.1h4.6v1.9h-8c-0.3,0-0.4,0.2-0.4,0.4v0.8h-1.7v-1.9c0-0.9,0.4-1.3,1.1-1.3h0.4c0.3,0,0.6,0,0.6,0v0
			c-1.2-0.5-2.3-1.9-2.3-3.5c0-1.7,0.8-2.7,2.3-3v0c-1.2-0.6-2.3-2-2.3-3.6c0-2.3,1.3-3.3,3.9-3.3h4.4c0.3,0,0.4-0.2,0.4-0.4v-0.8
			H445.6z M445.6,288.9v1.9c0,0.9-0.4,1.3-1.1,1.3h-0.4c-0.3,0-0.6,0-0.6,0v0c1,0.4,2.3,1.7,2.3,3.7c0,2.3-1.2,3.4-3.9,3.4h-4.4
			c-0.3,0-0.4,0.2-0.4,0.4v0.8h-1.7v-1.9c0-0.9,0.4-1.3,1.2-1.3h4.8c1.4,0,2.5-0.3,2.5-1.9c0-2.1-1.8-3.3-3.8-3.3h-4.7v-1.9h8
			c0.3,0,0.4-0.2,0.4-0.4v-0.8H445.6z M445.6,282.1c0,0,0,0.3,0,0.7c0,1.3-0.4,3.9-3.8,3.9h-4.8v1.3h-1.6v-1.4h-2.8v-1.9h2.8v-2.4
			h1.6v2.4h4.6c2,0,2.3-1.4,2.3-2.1c0-0.3,0-0.5,0-0.5H445.6z M445.6,271v1.8c0,0.9-0.4,1.3-1.2,1.3c-0.3,0-0.6,0-0.6,0v0
			c0,0,2,0.8,2,3.2c0,1.7-1.1,3.4-3.1,3.4c-3.3,0-3.5-4.4-3.5-6.1v-0.4h-0.1c-1.8,0-2.4,0.7-2.4,2.2c0,0.5,0.1,1.7,0.8,1.7h0.6v1.8
			h-1c-1.7,0-1.9-2.5-1.9-3.5c0-3.3,1.7-4.2,4-4.2h4.3c0.3,0,0.4-0.2,0.4-0.4V271H445.6z M445.6,264.3c0,0,0,0.3,0,0.7
			c0,1.3-0.4,3.9-3.8,3.9h-4.8v1.3h-1.6v-1.4h-2.8v-1.9h2.8v-2.4h1.6v2.4h4.6c2,0,2.3-1.4,2.3-2.1c0-0.3,0-0.5,0-0.5H445.6z
			 M445.6,258.6v1.9c0,0.9-0.4,1.3-1.3,1.3h-6.7c-0.3,0-0.4,0.2-0.4,0.4v0.8h-1.7v-1.9c0-0.9,0.4-1.3,1.3-1.3h6.7
			c0.3,0,0.4-0.2,0.4-0.4v-0.8H445.6z M445.8,252c0,3-2.2,5.4-5.3,5.4c-3.1,0-5.3-2.4-5.3-5.4c0-3,2.2-5.4,5.3-5.4
			C443.6,246.5,445.8,249,445.8,252z M445.6,233.7v1.9c0,0.9-0.4,1.3-1.3,1.3h-4.8c-1.4,0-2.5,0.3-2.5,1.9c0,1.6,1,2.8,2.5,3.2
			c0.4,0.1,0.9,0.2,1.4,0.2h4.7v1.9h-8c-0.3,0-0.4,0.2-0.4,0.4v0.8h-1.7v-1.9c0-0.9,0.4-1.3,1.1-1.3h0.4c0.3,0,0.6,0,0.6,0v0
			c-0.9-0.4-2.3-1.6-2.3-3.8c0-2.4,1.3-3.5,3.9-3.5h4.4c0.3,0,0.4-0.2,0.4-0.4v-0.8H445.6z"/>
	</g>
	<g>
		<path fill="#FAAE24" d="M436.3,79.2c0,1.5,0.9,2.7,2.6,3v-5.3C437.2,76.9,436.3,77.9,436.3,79.2z"/>
		<path fill="#FAAE24" d="M436.5,103.8c0,1.6,1.3,2.9,3.6,2.9c2.2,0,3.6-1.2,3.6-2.9c0-1.5-1.1-2.9-3.6-2.9
			C438.3,100.9,436.5,101.8,436.5,103.8z"/>
		<path fill="#FAAE24" d="M424.9,54.4V110c0,3.3,2.7,5.9,5.9,5.9h16.5c3.3,0,5.9-2.7,5.9-5.9V54.4c0-3.3-2.7-5.9-5.9-5.9h-16.5
			C427.5,48.5,424.9,51.2,424.9,54.4z M436.7,97.8v0.8c0,0.3,0.1,0.4,0.4,0.4h12v1.9h-4.6c-0.5,0-0.9,0-0.9,0v0c0,0,1.7,0.9,1.7,3.3
			c0,2.7-2.2,4.4-5.3,4.4c-3.2,0-5.3-1.9-5.3-4.6c0-2.4,1.7-3.3,1.7-3.3v0c0,0-0.2,0-0.5,0c-0.6,0-1-0.4-1-1.2v-1.8H436.7z
			 M445.1,85.4v1.9c0,0.9-0.4,1.3-1.1,1.3h-0.4c-0.3,0-0.6,0-0.6,0v0c1,0.4,2.3,1.7,2.3,3.7c0,2.3-1.2,3.4-3.9,3.4h-4.4
			c-0.3,0-0.4,0.2-0.4,0.4v0.8H435V95c0-0.9,0.4-1.3,1.2-1.3h4.8c1.4,0,2.5-0.3,2.5-1.9c0-2.1-1.8-3.3-3.8-3.3H435v-1.9h8
			c0.3,0,0.4-0.2,0.4-0.4v-0.8H445.1z M440.3,74.9v7.4c2.2-0.1,3.4-1.7,3.4-3.5c0-1.7-1.2-3-1.2-3l1.4-0.8c0,0,1.5,1.5,1.5,3.9
			c0,3.2-2.3,5.4-5.3,5.4c-3.2,0-5.3-2.2-5.3-5.1c0-2.8,2.1-4.4,4.7-4.4C439.8,74.8,440.3,74.9,440.3,74.9z M436.9,66.6
			c0,0-0.1,0.3-0.1,0.6c0,1.2,0.9,2.4,2.4,2.8c0.6,0.2,1.2,0.2,1.8,0.2h4.1v1.9h-8c-0.3,0-0.4,0.2-0.4,0.4v0.8H435v-1.8
			c0-0.9,0.4-1.3,1.2-1.3h0.6c0.4,0,0.7,0,0.7,0v0c-1.5-0.5-2.6-1.6-2.6-3.2c0-0.3,0-0.5,0-0.5H436.9z M436.7,55.3v0.3
			c0,0.3,0.1,0.5,0.4,0.6l9.9,4c1.6,0.6,2.4,1.8,2.4,3.3c0,1.5-1,2.4-1,2.4l-1.4-0.8c0,0,0.7-0.6,0.7-1.5c0-0.8-0.6-1.4-1.5-1.8
			l-1.1-0.5l-8,3.5c-0.3,0.1-0.4,0.3-0.4,0.6v0.2H435v-1.1c0-0.8,0.2-1.1,1-1.4l5.7-2.3c0.5-0.2,1.2-0.4,1.2-0.4v0
			c0,0-0.7-0.1-1.2-0.3l-5.7-2.1c-0.8-0.3-1-0.7-1-1.5v-1.2H436.7z"/>
	</g>
	<g>
		<path fill="#DC7676" stroke="#F8E2D2" stroke-miterlimit="10" d="M25,65v72c0,5.6,17.2,10.2,38.4,10.2c21.2,0,38.4-4.6,38.4-10.2
			V65H25z"/>
		<ellipse fill="#DC7676" stroke="#F8E2D2" stroke-miterlimit="10" cx="63.3" cy="65" rx="38.4" ry="10.2"/>
		<g>
			<path fill="#DC7676" d="M13.1,40.3l-1.4,0.5L11,39l6.2-2.2c4.6-1.7,8.7,0,10.5,4.8c1.8,4.8-0.3,8.8-4.9,10.4l-3.4,1.2
				c-1,0.4-1.5,0.1-1.9-0.9L13.1,40.3z M19.9,50.9l2-0.7c3.4-1.2,4.9-4.1,3.5-7.8c-1.4-3.7-4.3-4.9-7.7-3.7l-2.5,0.9l4,11.1
				C19.3,50.9,19.6,51,19.9,50.9z"/>
			<path fill="#DC7676" d="M37.3,41l0.5-0.1l0-0.1c-0.3-2-1.2-2.6-3-2.3c-0.5,0.1-1.9,0.5-1.7,1.2l0.1,0.7l-2.1,0.3l-0.2-1.1
				c-0.3-1.9,2.5-2.6,3.6-2.8c3.7-0.6,5,1.2,5.5,3.7l0.8,4.9c0.1,0.3,0.3,0.5,0.6,0.4l0.9-0.2l0.3,1.9l-2.1,0.3
				c-1,0.2-1.5-0.3-1.6-1.1c-0.1-0.4-0.1-0.7-0.1-0.7l0,0c0,0-0.5,2.4-3.3,2.9c-2,0.3-4.1-0.5-4.5-2.8C30.4,42.4,35.3,41.3,37.3,41z
				 M35.7,47.1c1.9-0.3,2.7-2.5,2.5-4.2l-0.1-0.4l-0.6,0.1c-1.7,0.3-4.6,0.9-4.3,3C33.4,46.5,34.2,47.3,35.7,47.1z"/>
			<path fill="#DC7676" d="M43.9,37.5l-1.5,0.1l-0.2-1.8l1.6-0.1l-0.3-3.2l2.2-0.2l0.3,3.2l2.8-0.3l0.2,1.8l-2.8,0.3l0.5,5.3
				c0.2,2.3,1.8,2.5,2.7,2.4c0.3,0,0.5-0.1,0.5-0.1l0.2,2c0,0-0.3,0.1-0.8,0.1c-1.5,0.1-4.5,0-4.8-3.9L43.9,37.5z"/>
			<path fill="#DC7676" d="M58.1,39.2l0.5,0l0-0.1c-0.1-2-0.9-2.8-2.7-2.7c-0.6,0-1.9,0.2-1.9,1l0,0.7L52,38.1l0-1.1
				c-0.1-1.9,2.8-2.3,3.9-2.3c3.8-0.1,4.8,1.8,4.9,4.4l0.2,4.9c0,0.3,0.2,0.5,0.5,0.5l0.9,0l0.1,1.9l-2.1,0.1c-1,0-1.5-0.5-1.5-1.3
				c0-0.4,0-0.7,0-0.7l0,0c0,0-0.8,2.3-3.6,2.4c-2,0.1-4-1.1-4.1-3.4C51.1,39.7,56.1,39.3,58.1,39.2z M55.7,45c1.9-0.1,3-2.1,3-3.8
				l0-0.4l-0.6,0c-1.7,0.1-4.7,0.3-4.6,2.4C53.5,44.2,54.2,45.1,55.7,45z"/>
			<path fill="#DC7676" d="M65.1,32.5c0-0.3-0.2-0.5-0.5-0.5l-0.9,0l0.1-1.9l2.2,0.1c1,0,1.5,0.5,1.4,1.5l-0.1,3.8
				c0,0.6-0.1,1-0.1,1l0,0c0,0,1.1-1.9,3.8-1.8c3.1,0.1,5,2.7,4.9,6.3c-0.1,3.7-2.4,6-5.5,5.9c-2.6-0.1-3.6-2.1-3.6-2.1l0,0
				c0,0,0,0.4,0,0.9l0,0.8l-2.1-0.1L65.1,32.5z M70.1,44.9c1.8,0.1,3.4-1.4,3.5-4c0.1-2.5-1.2-4.2-3.2-4.3c-1.7-0.1-3.4,1.1-3.5,4.1
				C66.9,42.7,67.9,44.8,70.1,44.9z"/>
			<path fill="#DC7676" d="M84.7,40.4l0.5,0.1l0-0.1c0.2-2-0.4-2.8-2.3-3c-0.5-0.1-1.9-0.1-2,0.7l-0.1,0.7l-2.1-0.2l0.1-1.1
				c0.2-1.9,3.1-1.9,4.2-1.7c3.7,0.4,4.5,2.5,4.3,5l-0.5,4.9c0,0.3,0.1,0.5,0.4,0.6l0.9,0.1L88.1,48L86,47.8c-1-0.1-1.4-0.7-1.3-1.5
				c0-0.4,0.1-0.7,0.1-0.7l0,0c0,0-1.2,2.2-3.9,1.9c-2-0.2-3.8-1.6-3.5-4C77.7,39.8,82.8,40.2,84.7,40.4z M81.5,45.8
				c1.9,0.2,3.3-1.6,3.5-3.3l0-0.4L84.5,42c-1.7-0.2-4.7-0.4-4.9,1.7C79.5,44.6,80.1,45.6,81.5,45.8z"/>
			<path fill="#DC7676" d="M90.6,45.2c0,0,1,2,3.1,2.4c1.1,0.2,2.1-0.1,2.3-1.1c0.4-2.1-5.9-3.1-5.1-6.8c0.4-2.2,2.6-2.8,4.9-2.3
				c1.4,0.3,3.6,1.2,3.3,3l-0.2,1.1l-2-0.4l0.1-0.6c0.1-0.7-0.8-1.2-1.5-1.3c-1.3-0.3-2.2,0-2.4,0.9c-0.4,2.2,5.9,2.9,5.1,6.8
				c-0.4,2-2.5,3-4.9,2.5c-3-0.6-4.2-2.9-4.2-2.9L90.6,45.2z"/>
			<path fill="#DC7676" d="M108.4,40.9c3.1,1.2,3.8,4.1,2.8,6.9c-0.1,0.3-0.4,0.8-0.4,0.8l-7.9-3c-0.8,2.4,0.4,4.3,2.4,5.1
				c1.9,0.7,3.7-0.1,3.7-0.1l0.3,1.8c0,0-2.2,1-4.8,0c-3.4-1.3-4.9-4.7-3.6-7.9C102.1,41.1,105.3,39.8,108.4,40.9z M109.2,46.3
				c0.6-1.8-0.2-3.2-1.5-3.7c-1.6-0.6-3.2-0.1-4.3,1.6L109.2,46.3z"/>
		</g>
		<path fill="#DC7676" stroke="#F8E2D2" stroke-miterlimit="10" d="M63.3,99.7C42.1,99.7,25,95.1,25,89.5"/>
		<path fill="#DC7676" stroke="#F8E2D2" stroke-miterlimit="10" d="M101.7,89.5c0,5.6-17.2,10.2-38.4,10.2"/>
		<path fill="#DC7676" stroke="#F8E2D2" stroke-miterlimit="10" d="M63.3,124.2c-21.2,0-38.4-4.6-38.4-10.2"/>
		<path fill="#DC7676" stroke="#F8E2D2" stroke-miterlimit="10" d="M101.7,114c0,5.6-17.2,10.2-38.4,10.2"/>
	</g>
	<g>
		<g>
			<path fill="#F8E2D2" d="M248.4,291.2h-36c-4.8,0-8.7-3.9-8.7-8.7v-24c0-4.8,3.9-8.7,8.7-8.7h36c4.8,0,8.7,3.9,8.7,8.7v24
				C257.1,287.3,253.2,291.2,248.4,291.2z"/>
		</g>
		<g>
			<path fill="#F8E2D2" d="M379.9,296.8h-36c-4.8,0-8.7-3.9-8.7-8.7v-24c0-4.8,3.9-8.7,8.7-8.7h36c4.8,0,8.7,3.9,8.7,8.7v24
				C388.5,292.9,384.6,296.8,379.9,296.8z"/>
		</g>
		<g>
			<path fill="#F8E2D2" d="M291.8,303.3c2.3,0,6.4,1,6.4,3.7v1.7h-2.2v-1c0-1.4-2.4-2.1-4.1-2.1c-3.4,0-6,2.6-6,6.4
				c0,3.7,2.7,6.6,6.1,6.6c3.4,0,5.4-2.3,5.4-2.3l1.3,1.7c0,0-2.4,2.8-6.7,2.8c-5.1,0-8.6-3.9-8.6-8.9
				C283.3,307,286.9,303.3,291.8,303.3z"/>
			<path fill="#F8E2D2" d="M306.7,308.1c3.6,0,6.6,2.7,6.6,6.3c0,3.7-2.9,6.4-6.6,6.4c-3.6,0-6.5-2.7-6.5-6.4
				C300.1,310.7,303,308.1,306.7,308.1z M306.7,318.8c2.3,0,4.2-1.8,4.2-4.4c0-2.5-1.9-4.3-4.2-4.3c-2.3,0-4.2,1.8-4.2,4.3
				C302.5,317,304.4,318.8,306.7,318.8z"/>
			<path fill="#F8E2D2" d="M316.1,310.9c0-0.4-0.2-0.5-0.5-0.5h-1v-2h2.2c1.1,0,1.5,0.5,1.5,1.3v0.5c0,0.4,0,0.7,0,0.7h0
				c0.6-1.4,2.3-2.8,4.2-2.8c2.1,0,3.2,0.9,3.6,2.8h0c0.7-1.5,2.4-2.8,4.3-2.8c2.7,0,4,1.6,4,4.7v5.3c0,0.4,0.2,0.5,0.5,0.5h1v2
				h-2.3c-1.1,0-1.5-0.5-1.5-1.5v-5.7c0-1.7-0.3-3-2.1-3c-1.7,0-3,1.5-3.4,3.1c-0.1,0.5-0.2,1-0.2,1.7v5.5h-2.3v-7.3
				c0-1.6-0.2-3-2.1-3c-1.8,0-3,1.5-3.5,3.2c-0.1,0.5-0.2,1-0.2,1.6v5.5h-2.3V310.9z"/>
			<path fill="#F8E2D2" d="M338.6,310.9c0-0.4-0.2-0.5-0.5-0.5h-1v-2h2.2c1.1,0,1.5,0.5,1.5,1.3v0.5c0,0.4,0,0.7,0,0.7h0
				c0.6-1.4,2.3-2.8,4.2-2.8c2.1,0,3.2,0.9,3.6,2.8h0c0.7-1.5,2.4-2.8,4.3-2.8c2.7,0,4,1.6,4,4.7v5.3c0,0.4,0.2,0.5,0.5,0.5h1v2
				h-2.3c-1.1,0-1.5-0.5-1.5-1.5v-5.7c0-1.7-0.3-3-2.1-3c-1.7,0-3,1.5-3.4,3.1c-0.1,0.5-0.2,1-0.2,1.7v5.5h-2.3v-7.3
				c0-1.6-0.2-3-2.1-3c-1.8,0-3,1.5-3.5,3.2c-0.1,0.5-0.2,1-0.2,1.6v5.5h-2.3V310.9z"/>
			<path fill="#F8E2D2" d="M367.3,312.9h0.5v-0.1c0-2.1-0.8-2.9-2.7-2.9c-0.6,0-2,0.1-2,0.9v0.7h-2.2v-1.2c0-2,3-2.3,4.2-2.3
				c3.9,0,5,2.1,5,4.8v5.2c0,0.4,0.2,0.5,0.5,0.5h1v2h-2.2c-1.1,0-1.5-0.5-1.5-1.4c0-0.4,0-0.7,0-0.7h0c0,0-1,2.4-3.9,2.4
				c-2.1,0-4.1-1.3-4.1-3.7C359.9,313.2,365.2,312.9,367.3,312.9z M364.6,318.9c2,0,3.2-2.1,3.2-3.9v-0.4h-0.6
				c-1.8,0-4.9,0.1-4.9,2.3C362.3,318,363,318.9,364.6,318.9z"/>
			<path fill="#F8E2D2" d="M374.2,310.9c0-0.4-0.2-0.5-0.5-0.5h-1v-2h2.2c1,0,1.5,0.5,1.5,1.3v0.5c0,0.4,0,0.7,0,0.7h0
				c0.5-1.1,1.9-2.8,4.6-2.8c2.9,0,4.2,1.6,4.2,4.7v5.3c0,0.4,0.2,0.5,0.5,0.5h1v2h-2.3c-1.1,0-1.5-0.5-1.5-1.5v-5.7
				c0-1.7-0.3-3-2.3-3c-1.9,0-3.4,1.2-3.8,3c-0.2,0.5-0.2,1-0.2,1.6v5.7h-2.3V310.9z"/>
			<path fill="#F8E2D2" d="M393.5,308.1c2.8,0,3.7,1.9,3.7,1.9h0c0,0,0-0.4,0-0.8v-3c0-0.4-0.2-0.5-0.5-0.5h-1v-2h2.3
				c1.1,0,1.5,0.5,1.5,1.5V318c0,0.4,0.2,0.5,0.5,0.5h1v2h-2.2c-1.1,0-1.5-0.5-1.5-1.3c0-0.4,0-0.6,0-0.6h0c0,0-1,2.2-4,2.2
				c-3.3,0-5.4-2.6-5.4-6.4C388,310.6,390.3,308.1,393.5,308.1z M397.3,314.4c0-2.2-1.1-4.3-3.5-4.3c-1.9,0-3.5,1.6-3.5,4.3
				c0,2.6,1.4,4.3,3.4,4.3C395.6,318.8,397.3,317.5,397.3,314.4z"/>
		</g>
		<g>
			<path fill="#F8E2D2" d="M196.2,227.3h-1.6v-2.1h10c1.1,0,1.5,0.5,1.5,1.5v2.1h-2.2v-1.1c0-0.4-0.2-0.5-0.5-0.5h-4.8v5.3h5.9v2.1
				h-5.9v4.9c0,0.3,0.2,0.5,0.5,0.5h4.9c0.3,0,0.5-0.2,0.5-0.5v-1.1h2.2v2.1c0,1.1-0.5,1.5-1.5,1.5h-7.5c-1.1,0-1.5-0.5-1.5-1.5
				V227.3z"/>
			<path fill="#F8E2D2" d="M208.6,232.5c-0.1-0.4-0.4-0.5-0.7-0.5h-0.2v-2h1.2c1.1,0,1.5,0.3,1.8,1.2l2.6,7c0.2,0.7,0.4,1.6,0.4,1.6
				h0c0,0,0.2-0.9,0.4-1.6l2.6-7c0.4-1,0.8-1.2,1.8-1.2h1.1v2h-0.2c-0.4,0-0.6,0.1-0.8,0.5l-3.7,9.7h-2.7L208.6,232.5z"/>
			<path fill="#F8E2D2" d="M226.8,229.7c3.4,0,5.2,2.5,5.2,5.7c0,0.3-0.1,1-0.1,1h-8.9c0.1,2.6,2,4.1,4.2,4.1c2.1,0,3.6-1.4,3.6-1.4
				l1,1.7c0,0-1.8,1.8-4.7,1.8c-3.8,0-6.5-2.8-6.5-6.4C220.7,232.2,223.3,229.7,226.8,229.7z M229.6,234.7c-0.1-2-1.3-3.1-2.9-3.1
				c-1.8,0-3.2,1.1-3.6,3.1H229.6z"/>
			<path fill="#F8E2D2" d="M235.1,232.5c0-0.4-0.2-0.5-0.5-0.5h-1v-2h2.2c1,0,1.5,0.5,1.5,1.3v0.5c0,0.4,0,0.7,0,0.7h0
				c0.5-1.1,1.9-2.8,4.6-2.8c2.9,0,4.2,1.6,4.2,4.7v5.3c0,0.4,0.2,0.5,0.5,0.5h1v2h-2.3c-1.1,0-1.5-0.5-1.5-1.5v-5.7
				c0-1.7-0.3-3-2.3-3c-1.9,0-3.4,1.2-3.8,3c-0.2,0.5-0.2,1-0.2,1.6v5.7h-2.3V232.5z"/>
			<path fill="#F8E2D2" d="M250.2,231.9h-1.6V230h1.6v-3.3h2.3v3.3h2.9v1.9h-2.9v5.6c0,2.4,1.7,2.7,2.6,2.7c0.3,0,0.6,0,0.6,0v2.1
				c0,0-0.3,0-0.8,0c-1.5,0-4.6-0.5-4.6-4.5V231.9z"/>
			<path fill="#F8E2D2" d="M258.4,238.7c0,0,1.4,1.8,3.7,1.8c1.1,0,2.1-0.5,2.1-1.6c0-2.2-6.6-1.9-6.6-5.9c0-2.3,2-3.4,4.5-3.4
				c1.5,0,4,0.5,4,2.4v1.2h-2.1v-0.6c0-0.7-1.1-1-1.8-1c-1.4,0-2.3,0.5-2.3,1.4c0,2.3,6.6,1.8,6.6,5.9c0,2.2-1.9,3.6-4.5,3.6
				c-3.2,0-4.8-2.1-4.8-2.1L258.4,238.7z"/>
		</g>
		<path fill="#F8E2D2" stroke="#DC7676" stroke-width="2" stroke-miterlimit="10" d="M253.5,296.8h-36c-4.8,0-8.7-3.9-8.7-8.7v-24
			c0-4.8,3.9-8.7,8.7-8.7h36c4.8,0,8.7,3.9,8.7,8.7v24C262.2,292.9,258.3,296.8,253.5,296.8z"/>
		<path fill="#F8E2D2" stroke="#DC7676" stroke-width="2" stroke-miterlimit="10" d="M259.1,302.9h-36c-4.8,0-8.7-3.9-8.7-8.7v-24
			c0-4.8,3.9-8.7,8.7-8.7h36c4.8,0,8.7,3.9,8.7,8.7v24C267.8,299,263.9,302.9,259.1,302.9z"/>
	</g>
	<g>
		<g>
			<path fill="#F8E2D2" d="M281.3,109.3h-36c-4.8,0-8.7-3.9-8.7-8.7v-24c0-4.8,3.9-8.7,8.7-8.7h36c4.8,0,8.7,3.9,8.7,8.7v24
				C290,105.4,286.1,109.3,281.3,109.3z"/>
		</g>
		<g>
			<line fill="#F8E2D2" x1="301.8" y1="154.9" x2="277.8" y2="109.3"/>
			<g>
				<line fill="none" stroke="#F8E2D2" stroke-width="4" stroke-miterlimit="10" x1="301.8" y1="154.9" x2="284.5" y2="122"/>
				<g>
					<polygon fill="#F8E2D2" points="294.7,120 277.8,109.3 277,129.2 					"/>
				</g>
			</g>
		</g>
		<g>
			<path fill="#F8E2D2" d="M362.5,109.3h-36c-4.8,0-8.7-3.9-8.7-8.7v-24c0-4.8,3.9-8.7,8.7-8.7h36c4.8,0,8.7,3.9,8.7,8.7v24
				C371.1,105.4,367.2,109.3,362.5,109.3z"/>
		</g>
		<g>
			<line fill="#F8E2D2" x1="314.2" y1="148.8" x2="332.6" y2="109.3"/>
			<g>
				<line fill="none" stroke="#F8E2D2" stroke-width="4" stroke-miterlimit="10" x1="314.2" y1="148.8" x2="326.6" y2="122.3"/>
				<g>
					<polygon fill="#F8E2D2" points="334.4,129.2 332.6,109.3 316.3,120.8 					"/>
				</g>
			</g>
		</g>
		<g>
			<path fill="#F8E2D2" d="M322.5,179.3h-36c-4.8,0-8.7-3.9-8.7-8.7v-24c0-4.8,3.9-8.7,8.7-8.7h36c4.8,0,8.7,3.9,8.7,8.7v24
				C331.1,175.4,327.2,179.3,322.5,179.3z"/>
		</g>
		<g>
			<path fill="#F8E2D2" d="M240.9,43.9c4.9,0,8.7,3.8,8.7,8.7c0,2.1-0.8,4.1-2,5.6l1.9,1.9l-1.4,1.5l-1.9-1.9
				c-1.5,1.2-3.3,1.8-5.3,1.8c-4.9,0-8.7-3.9-8.7-8.9C232.3,47.6,236,43.9,240.9,43.9z M240.9,59.1c2.2,0,3.6-1.2,3.6-1.2l-1.9-1.8
				l1.4-1.6l1.8,1.9c0.8-1.1,1.2-2.5,1.2-3.9c0-3.7-2.7-6.4-6.2-6.4c-3.5,0-6.2,2.7-6.2,6.4C234.8,56.3,237.5,59.1,240.9,59.1z"/>
			<path fill="#F8E2D2" d="M252.6,51.5c0-0.4-0.2-0.5-0.5-0.5h-1v-2h2.3c1.1,0,1.6,0.5,1.6,1.5v5.8c0,1.7,0.3,3,2.3,3
				c2.5,0,4-2.2,4-4.6V49h2.3v9.6c0,0.4,0.2,0.5,0.5,0.5h1v2h-2.2c-1,0-1.5-0.5-1.5-1.3v-0.5c0-0.4,0-0.7,0-0.7h0
				c-0.5,1.2-2.1,2.8-4.5,2.8c-2.7,0-4.1-1.4-4.1-4.7V51.5z"/>
			<path fill="#F8E2D2" d="M272.5,48.7c3.4,0,5.2,2.5,5.2,5.7c0,0.3-0.1,1-0.1,1h-8.9c0.1,2.6,2,4.1,4.2,4.1c2.1,0,3.6-1.4,3.6-1.4
				l1,1.7c0,0-1.8,1.8-4.7,1.8c-3.8,0-6.5-2.8-6.5-6.4C266.4,51.2,269.1,48.7,272.5,48.7z M275.3,53.6c-0.1-2-1.3-3.1-2.9-3.1
				c-1.8,0-3.2,1.1-3.6,3.1H275.3z"/>
			<path fill="#F8E2D2" d="M280.8,51.5c0-0.4-0.2-0.5-0.5-0.5h-1v-2h2.2c1.1,0,1.6,0.4,1.6,1.4v0.8c0,0.5,0,0.8,0,0.8h0
				c0.6-1.8,2-3.2,3.8-3.2c0.3,0,0.6,0,0.6,0v2.3c0,0-0.3-0.1-0.7-0.1c-1.5,0-2.9,1.1-3.4,2.9c-0.2,0.7-0.3,1.4-0.3,2.2v5h-2.3V51.5
				z"/>
			<path fill="#F8E2D2" d="M291.3,64.1c0.9,0,1.7-0.7,2.1-1.8l0.6-1.3l-4.2-9.6c-0.2-0.4-0.4-0.5-0.8-0.5h-0.3v-2h1.4
				c1,0,1.3,0.3,1.7,1.2l2.8,6.8c0.2,0.6,0.4,1.5,0.4,1.5h0c0,0,0.2-0.8,0.4-1.5l2.5-6.8c0.4-1,0.8-1.2,1.8-1.2h1.4v2h-0.3
				c-0.4,0-0.6,0.1-0.8,0.5l-4.8,11.9c-0.7,1.9-2.2,2.9-3.9,2.9c-1.8,0-2.9-1.2-2.9-1.2l1-1.7C289.5,63.3,290.2,64.1,291.3,64.1z"/>
			<path fill="#F8E2D2" d="M308.4,59h0.8c0.3,0,0.5-0.2,0.5-0.5l1.2-14.4h2.5l4,9c0.4,0.9,0.8,2.1,0.8,2.1h0c0,0,0.4-1.2,0.8-2.1
				l4-9h2.5l1.2,14.4c0,0.3,0.2,0.5,0.5,0.5h0.8v2.1h-2.1c-1.1,0-1.5-0.5-1.5-1.5l-0.7-9c-0.1-1,0-2.5,0-2.5h0c0,0-0.5,1.6-0.9,2.5
				l-3.4,7.4h-2l-3.4-7.4c-0.4-0.9-0.9-2.5-0.9-2.5h0c0,0,0,1.5,0,2.5l-0.7,9c-0.1,1.1-0.5,1.5-1.6,1.5h-2.1V59z"/>
			<path fill="#F8E2D2" d="M335.9,48.7c3.6,0,6.6,2.7,6.6,6.3c0,3.7-2.9,6.4-6.6,6.4s-6.5-2.7-6.5-6.4
				C329.4,51.3,332.3,48.7,335.9,48.7z M335.9,59.4c2.3,0,4.2-1.8,4.2-4.4c0-2.5-1.9-4.3-4.2-4.3c-2.3,0-4.2,1.8-4.2,4.3
				C331.8,57.6,333.6,59.4,335.9,59.4z"/>
			<path fill="#F8E2D2" d="M349.7,48.7c2.8,0,3.7,1.9,3.7,1.9h0c0,0,0-0.4,0-0.8v-3c0-0.4-0.2-0.5-0.5-0.5h-1v-2h2.3
				c1.1,0,1.5,0.5,1.5,1.5v12.9c0,0.4,0.2,0.5,0.5,0.5h1v2h-2.2c-1.1,0-1.5-0.5-1.5-1.3c0-0.4,0-0.6,0-0.6h0c0,0-1,2.2-4,2.2
				c-3.3,0-5.4-2.6-5.4-6.4C344.2,51.2,346.5,48.7,349.7,48.7z M353.5,55c0-2.2-1.1-4.3-3.5-4.3c-1.9,0-3.5,1.6-3.5,4.3
				c0,2.6,1.4,4.3,3.4,4.3C351.8,59.4,353.5,58.1,353.5,55z"/>
			<path fill="#F8E2D2" d="M364.8,48.7c3.4,0,5.2,2.5,5.2,5.7c0,0.3-0.1,1-0.1,1h-8.9c0.1,2.6,2,4.1,4.2,4.1c2.1,0,3.6-1.4,3.6-1.4
				l1,1.7c0,0-1.8,1.8-4.7,1.8c-3.8,0-6.5-2.8-6.5-6.4C358.7,51.2,361.4,48.7,364.8,48.7z M367.7,53.6c-0.1-2-1.3-3.1-2.9-3.1
				c-1.8,0-3.2,1.1-3.6,3.1H367.7z"/>
			<path fill="#F8E2D2" d="M373.1,46.7c0-0.4-0.2-0.5-0.5-0.5h-1v-2h2.3c1.1,0,1.5,0.5,1.5,1.5v12.9c0,0.4,0.2,0.5,0.5,0.5h1v2h-2.3
				c-1.1,0-1.5-0.5-1.5-1.5V46.7z"/>
		</g>
	</g>
	<g>
		<path fill="#DC7676" stroke="#F8E2D2" stroke-miterlimit="10" d="M25.9,249.4v72c0,5.6,17.2,10.2,38.4,10.2
			c21.2,0,38.4-4.6,38.4-10.2v-72H25.9z"/>
		<ellipse fill="#DC7676" stroke="#F8E2D2" stroke-miterlimit="10" cx="64.3" cy="249.4" rx="38.4" ry="10.2"/>
		<g>
			<path fill="#DC7676" d="M10.5,231.7l-1.2,0.6l-0.8-1.5l7.4-3.8c0.8-0.4,1.3-0.3,1.7,0.5l0.8,1.6l-1.6,0.8l-0.4-0.8
				c-0.1-0.3-0.3-0.3-0.6-0.2l-3.6,1.9l2,3.9l4.4-2.3l0.8,1.5l-4.4,2.3l1.9,3.6c0.1,0.2,0.3,0.3,0.6,0.2l3.7-1.9
				c0.2-0.1,0.3-0.3,0.2-0.6l-0.4-0.8l1.6-0.8l0.8,1.6c0.4,0.8,0.3,1.3-0.5,1.7l-5.6,2.9c-0.8,0.4-1.3,0.3-1.7-0.5L10.5,231.7z"/>
			<path fill="#DC7676" d="M22.9,230.9c-0.2-0.3-0.4-0.3-0.7-0.2l-0.2,0.1l-0.4-1.6l1-0.3c0.9-0.2,1.3-0.1,1.7,0.6l3.6,5.1
				c0.3,0.5,0.7,1.2,0.7,1.2l0,0c0,0,0-0.8,0-1.4l0.6-6.2c0.1-0.9,0.4-1.2,1.2-1.4l0.9-0.2l0.4,1.6l-0.2,0c-0.3,0.1-0.5,0.2-0.5,0.6
				l-1,8.6l-2.2,0.6L22.9,230.9z"/>
			<path fill="#DC7676" d="M37.8,225.3c2.8-0.4,4.6,1.4,5,4c0,0.3,0.1,0.8,0.1,0.8l-7.3,1.1c0.4,2.1,2.2,3.1,4,2.8
				c1.7-0.3,2.7-1.6,2.7-1.6l1,1.2c0,0-1.3,1.7-3.6,2.1c-3.2,0.5-5.7-1.5-6.1-4.4C33.1,228.1,34.9,225.7,37.8,225.3z M40.8,229
				c-0.3-1.7-1.5-2.4-2.7-2.2c-1.5,0.2-2.5,1.3-2.6,3L40.8,229z"/>
			<path fill="#DC7676" d="M45.4,226.6c0-0.3-0.2-0.4-0.5-0.4l-0.8,0.1l-0.1-1.7l1.9-0.1c0.9-0.1,1.3,0.3,1.4,1l0,0.4
				c0,0.3,0,0.6,0,0.6l0,0c0.3-0.9,1.4-2.4,3.6-2.6c2.4-0.2,3.6,1,3.8,3.6l0.3,4.4c0,0.3,0.2,0.4,0.5,0.4l0.8-0.1l0.1,1.7l-1.9,0.1
				c-0.9,0.1-1.3-0.3-1.4-1.2l-0.4-4.7c-0.1-1.4-0.5-2.5-2.1-2.4c-1.6,0.1-2.7,1.2-3,2.7c-0.1,0.4-0.1,0.9-0.1,1.4l0.4,4.7l-1.9,0.1
				L45.4,226.6z"/>
			<path fill="#DC7676" d="M58.2,225.3l-1.3,0l0-1.6l1.4,0l-0.1-2.8l1.9,0l0.1,2.8l2.4-0.1l0,1.6l-2.4,0.1l0.1,4.6
				c0,2,1.4,2.2,2.2,2.2c0.3,0,0.5,0,0.5,0l0,1.7c0,0-0.3,0-0.7,0.1c-1.3,0-3.9-0.3-3.9-3.7L58.2,225.3z"/>
			<path fill="#DC7676" d="M70.8,230.6c0,0,1.3,1.8,3.4,1.9c1.3,0.1,2.5-0.7,2.5-2c0.2-3-6.7-2.9-6.5-7.2c0.1-2.1,2.1-3.7,4.7-3.5
				c1.5,0.1,4,0.9,3.9,2.8l-0.1,1.2l-1.8-0.1l0-0.7c0-0.7-1-1.3-2.1-1.4c-1.5-0.1-2.5,0.7-2.6,1.8c-0.1,2.9,6.7,2.6,6.4,7.2
				c-0.1,2.2-1.9,3.9-4.7,3.8c-3-0.2-4.6-2.3-4.6-2.3L70.8,230.6z"/>
			<path fill="#DC7676" d="M81.9,226l-1.3-0.1l0.2-1.6l1.4,0.1l0.3-2.8l1.9,0.2l-0.3,2.8l2.4,0.3l-0.2,1.6l-2.4-0.3l-0.5,4.6
				c-0.2,2,1.2,2.4,1.9,2.5c0.3,0,0.5,0,0.5,0l-0.2,1.7c0,0-0.3,0-0.7,0c-1.3-0.1-3.8-0.8-3.4-4.2L81.9,226z"/>
			<path fill="#DC7676" d="M93.7,225.8c3,0.5,5,3.1,4.5,6.1c-0.5,3-3.3,4.8-6.3,4.3c-3-0.5-5-3.1-4.4-6.2
				C88,227,90.7,225.3,93.7,225.8z M92.2,234.6c1.9,0.3,3.7-0.9,4.1-3c0.4-2.1-0.9-3.8-2.8-4.1c-1.9-0.3-3.7,0.9-4,3
				C89,232.5,90.3,234.2,92.2,234.6z"/>
			<path fill="#DC7676" d="M101.5,229.8c0.1-0.3,0-0.5-0.3-0.5l-0.8-0.2l0.5-1.6l1.8,0.5c0.8,0.2,1.2,0.7,0.9,1.5l-0.2,0.6
				c-0.1,0.4-0.2,0.7-0.2,0.7l0,0c0.9-1.3,2.3-2.1,3.8-1.7c0.3,0.1,0.5,0.2,0.5,0.2l-0.5,1.8c0,0-0.2-0.1-0.5-0.2
				c-1.2-0.3-2.5,0.2-3.4,1.5c-0.3,0.5-0.6,1.1-0.7,1.7l-1.1,4l-1.9-0.5L101.5,229.8z"/>
			<path fill="#DC7676" d="M114.2,232c2.5,1.3,2.9,3.9,1.7,6.2c-0.1,0.2-0.4,0.7-0.4,0.7l-6.5-3.4c-0.9,2-0.1,3.8,1.5,4.6
				c1.5,0.8,3.2,0.3,3.2,0.3l0.1,1.6c0,0-2,0.6-4.1-0.5c-2.8-1.5-3.7-4.5-2.3-7.2C108.7,231.5,111.6,230.6,114.2,232z M114.4,236.7
				c0.7-1.5,0.2-2.8-0.9-3.4c-1.3-0.7-2.8-0.4-3.8,0.9L114.4,236.7z"/>
		</g>
		<path fill="#DC7676" stroke="#F8E2D2" stroke-miterlimit="10" d="M64.3,284.1c-21.2,0-38.4-4.6-38.4-10.2"/>
		<path fill="#DC7676" stroke="#F8E2D2" stroke-miterlimit="10" d="M102.7,273.9c0,5.6-17.2,10.2-38.4,10.2"/>
		<path fill="#DC7676" stroke="#F8E2D2" stroke-miterlimit="10" d="M64.3,308.6c-21.2,0-38.4-4.6-38.4-10.2"/>
		<path fill="#DC7676" stroke="#F8E2D2" stroke-miterlimit="10" d="M102.7,298.4c0,5.6-17.2,10.2-38.4,10.2"/>
	</g>
	<g>
		<line fill="#FAAE24" x1="190.3" y1="277.8" x2="112.4" y2="277.8"/>
		<g>
			<line fill="none" stroke="#FAAE24" stroke-width="7" stroke-miterlimit="10" x1="190.3" y1="277.8" x2="137.5" y2="277.8"/>
			<g>
				<polygon fill="#FAAE24" points="142.6,260.3 112.4,277.8 142.6,295.2 				"/>
			</g>
		</g>
	</g>
	<g>
		<line fill="#FAAE24" x1="322.9" y1="277.8" x2="279.4" y2="277.8"/>
		<g>
			<line fill="none" stroke="#FAAE24" stroke-width="7" stroke-miterlimit="10" x1="322.9" y1="277.8" x2="304.6" y2="277.8"/>
			<g>
				<polygon fill="#FAAE24" points="309.7,260.3 279.4,277.8 309.7,295.2 				"/>
			</g>
		</g>
	</g>
	<g>
		<line fill="#FAAE24" x1="65.9" y1="211.7" x2="65.9" y2="162.1"/>
		<g>
			<line fill="none" stroke="#FAAE24" stroke-width="7" stroke-miterlimit="10" x1="65.9" y1="211.7" x2="65.9" y2="187.2"/>
			<g>
				<polygon fill="#FAAE24" points="83.4,192.3 65.9,162.1 48.5,192.3 				"/>
			</g>
		</g>
	</g>
	<g>
		<line fill="#FAAE24" x1="115.8" y1="94.6" x2="193.7" y2="94.6"/>
		<g>
			<line fill="none" stroke="#FAAE24" stroke-width="7" stroke-miterlimit="10" x1="115.8" y1="94.6" x2="168.5" y2="94.6"/>
			<g>
				<polygon fill="#FAAE24" points="163.4,112 193.7,94.6 163.4,77.1 				"/>
			</g>
		</g>
	</g>
	<g>
		<path fill="#DC7676" d="M620,146.9h-6.2H612h-61.1c-5.8,0-10.6,4.7-10.6,10.6V169v22.5v12.7c0,5.8,4.7,10.6,10.6,10.6H612h1.8h6.2
			c5.8,0,10.6-4.7,10.6-10.6v-12.7V169v-11.5C630.6,151.6,625.8,146.9,620,146.9z"/>
		<g>
			<path fill="#F8E2D2" d="M565,173.3c2,0,5.4,0.8,5.4,3.1v1.4h-1.9V177c0-1.2-2.1-1.8-3.5-1.8c-2.9,0-5.2,2.2-5.2,5.5
				c0,3.2,2.3,5.7,5.2,5.7c2.9,0,4.6-2,4.6-2l1.1,1.5c0,0-2.1,2.4-5.7,2.4c-4.3,0-7.4-3.3-7.4-7.6
				C557.7,176.5,560.8,173.3,565,173.3z"/>
			<path fill="#F8E2D2" d="M573.1,175.7c0-0.3-0.2-0.5-0.5-0.5h-0.8v-1.7h2c0.9,0,1.3,0.4,1.3,1.3v11c0,0.3,0.2,0.5,0.5,0.5h0.8v1.7
				h-2c-0.9,0-1.3-0.4-1.3-1.3V175.7z"/>
			<path fill="#F8E2D2" d="M578.7,179.8c0-0.3-0.2-0.5-0.5-0.5h-0.8v-1.7h2c0.9,0,1.3,0.4,1.3,1.3v6.9c0,0.3,0.2,0.5,0.5,0.5h0.8
				v1.7h-2c-0.9,0-1.3-0.4-1.3-1.3V179.8z M578.8,173.5h1.8v2.1h-1.8V173.5z"/>
			<path fill="#F8E2D2" d="M588.5,177.4c2.9,0,4.5,2.2,4.5,4.9c0,0.3-0.1,0.8-0.1,0.8h-7.6c0.1,2.2,1.7,3.5,3.6,3.5
				c1.8,0,3-1.2,3-1.2l0.9,1.4c0,0-1.5,1.5-4,1.5c-3.3,0-5.5-2.4-5.5-5.4C583.3,179.5,585.5,177.4,588.5,177.4z M590.9,181.6
				c-0.1-1.7-1.2-2.6-2.4-2.6c-1.5,0-2.8,0.9-3.1,2.6H590.9z"/>
			<path fill="#F8E2D2" d="M595.6,179.8c0-0.3-0.2-0.5-0.5-0.5h-0.8v-1.7h1.9c0.9,0,1.3,0.4,1.3,1.2v0.4c0,0.3,0,0.6,0,0.6h0
				c0.4-0.9,1.6-2.4,3.9-2.4c2.5,0,3.6,1.3,3.6,4v4.5c0,0.3,0.2,0.5,0.5,0.5h0.8v1.7h-2c-0.9,0-1.3-0.4-1.3-1.3v-4.9
				c0-1.5-0.3-2.6-2-2.6c-1.6,0-2.9,1-3.3,2.5c-0.1,0.4-0.2,0.9-0.2,1.4v4.9h-2V179.8z"/>
			<path fill="#F8E2D2" d="M608.6,179.3h-1.4v-1.6h1.4v-2.9h2v2.9h2.5v1.6h-2.5v4.8c0,2.1,1.4,2.3,2.2,2.3c0.3,0,0.5,0,0.5,0v1.8
				c0,0-0.3,0-0.7,0c-1.3,0-4-0.4-4-3.9V179.3z"/>
		</g>
	</g>
	<g>
		<g>
			<path fill="none" stroke="#FAAE24" stroke-width="7" stroke-miterlimit="10" d="M585.5,238.3v24.3c0,8.1-6.6,14.7-14.7,14.7
				h-79.2"/>
			<g>
				<polygon fill="#FAAE24" points="496.7,259.9 466.4,277.3 496.7,294.8 				"/>
			</g>
		</g>
	</g>
	<g>
		<g>
			<path fill="none" stroke="#FAAE24" stroke-width="7" stroke-miterlimit="10" d="M466.4,79h99.2c8.1,0,14.7,6.6,14.7,14.7v7.6"/>
			<g>
				<polygon fill="#FAAE24" points="562.8,96.2 580.3,126.4 597.7,96.2 				"/>
			</g>
		</g>
	</g>
</g>
<g id="Layer_9">
	<path fill="#DC7676" d="M433.8,783.9v-39.6h0.2v-4.4v-26.2h11.1v-21.4h-12V569.6h12v-19h-11.1v-62h11.1v-29.8
		c0-5.5-4.4-9.9-9.9-9.9H181.3c-5.5,0-9.9,4.4-9.9,9.9v165.6v148.9v44c0,5.5,4.4,9.9,9.9,9.9h253.9c5.5,0,9.9-4.4,9.9-9.9v-17h-11.3
		v-6V783.9z"/>
	<g>
		<path fill="#FAAE24" d="M445.6,759c0.8,0,1.6-0.6,1.6-1.9c0-1.6-1.7-2.7-3.2-2.7h-0.3v0.5C443.6,756.4,443.7,759,445.6,759z"/>
		<path fill="#FAAE24" d="M439.9,732.2c0,1.9,1.5,3.5,3.6,3.5c2.1,0,3.6-1.6,3.6-3.5c0-1.9-1.5-3.5-3.6-3.5
			C441.4,728.7,439.9,730.3,439.9,732.2z"/>
		<path fill="#FAAE24" d="M428.2,713.2v86.9c0,3.3,2.7,5.9,5.9,5.9h16.5c3.3,0,5.9-2.7,5.9-5.9v-86.9c0-3.3-2.7-5.9-5.9-5.9h-16.5
			C430.9,707.2,428.2,709.9,428.2,713.2z M434.4,742v-1.7h2v1.7H434.4z M448.5,781.5v1.9c0,0.9-0.4,1.3-1.3,1.3h-4.8
			c-1.4,0-2.5,0.3-2.5,1.8c0,1.4,1.2,2.5,2.6,2.8c0.4,0.1,0.9,0.2,1.4,0.2h4.6v1.9h-6c-1.3,0-2.5,0.2-2.5,1.7c0,1.5,1.2,2.5,2.7,2.9
			c0.4,0.1,0.8,0.1,1.3,0.1h4.6v1.9h-8c-0.3,0-0.4,0.2-0.4,0.4v0.8h-1.7v-1.9c0-0.9,0.4-1.3,1.1-1.3h0.4c0.3,0,0.6,0,0.6,0v0
			c-1.2-0.5-2.3-1.9-2.3-3.5c0-1.7,0.8-2.7,2.3-3v0c-1.2-0.6-2.3-2-2.3-3.6c0-2.3,1.3-3.3,3.9-3.3h4.4c0.3,0,0.4-0.2,0.4-0.4v-0.8
			H448.5z M448.5,769.1v1.9c0,0.9-0.4,1.3-1.1,1.3H447c-0.3,0-0.6,0-0.6,0v0c1,0.4,2.3,1.7,2.3,3.7c0,2.3-1.2,3.4-3.9,3.4h-4.4
			c-0.3,0-0.4,0.2-0.4,0.4v0.8h-1.7v-1.9c0-0.9,0.4-1.3,1.2-1.3h4.8c1.4,0,2.5-0.3,2.5-1.9c0-2.1-1.8-3.3-3.8-3.3h-4.7v-1.9h8
			c0.3,0,0.4-0.2,0.4-0.4v-0.8H448.5z M448.6,762.4c0,0,0,0.3,0,0.7c0,1.3-0.4,3.9-3.8,3.9H440v1.3h-1.6v-1.4h-2.8v-1.9h2.8v-2.4
			h1.6v2.4h4.6c2,0,2.3-1.4,2.3-2.1c0-0.3,0-0.5,0-0.5H448.6z M448.5,751.3v1.8c0,0.9-0.4,1.3-1.2,1.3c-0.3,0-0.6,0-0.6,0v0
			c0,0,2,0.8,2,3.2c0,1.7-1.1,3.4-3.1,3.4c-3.3,0-3.5-4.4-3.5-6.1v-0.4h-0.1c-1.8,0-2.4,0.7-2.4,2.2c0,0.5,0.1,1.7,0.8,1.7h0.6v1.8
			h-1c-1.7,0-1.9-2.5-1.9-3.5c0-3.3,1.7-4.2,4-4.2h4.3c0.3,0,0.4-0.2,0.4-0.4v-0.8H448.5z M448.6,744.6c0,0,0,0.3,0,0.7
			c0,1.3-0.4,3.9-3.8,3.9H440v1.3h-1.6v-1.4h-2.8v-1.9h2.8v-2.4h1.6v2.4h4.6c2,0,2.3-1.4,2.3-2.1c0-0.3,0-0.5,0-0.5H448.6z
			 M448.5,738.9v1.9c0,0.9-0.4,1.3-1.3,1.3h-6.7c-0.3,0-0.4,0.2-0.4,0.4v0.8h-1.7v-1.9c0-0.9,0.4-1.3,1.3-1.3h6.7
			c0.3,0,0.4-0.2,0.4-0.4v-0.8H448.5z M448.8,732.2c0,3-2.2,5.4-5.3,5.4c-3.1,0-5.3-2.4-5.3-5.4c0-3,2.2-5.4,5.3-5.4
			C446.5,726.8,448.8,729.2,448.8,732.2z M448.5,713.9v1.9c0,0.9-0.4,1.3-1.3,1.3h-4.8c-1.4,0-2.5,0.3-2.5,1.9c0,1.6,1,2.8,2.5,3.2
			c0.4,0.1,0.9,0.2,1.4,0.2h4.7v1.9h-8c-0.3,0-0.4,0.2-0.4,0.4v0.8h-1.7v-1.9c0-0.9,0.4-1.3,1.1-1.3h0.4c0.3,0,0.6,0,0.6,0v0
			c-0.9-0.4-2.3-1.6-2.3-3.8c0-2.4,1.3-3.5,3.9-3.5h4.4c0.3,0,0.4-0.2,0.4-0.4v-0.8H448.5z"/>
	</g>
	<g>
		<path fill="#FAAE24" d="M439.7,515.9c0,1.5,0.9,2.7,2.6,3v-5.3C440.6,513.6,439.7,514.6,439.7,515.9z"/>
		<path fill="#FAAE24" d="M439.9,540.5c0,1.6,1.3,2.9,3.6,2.9c2.2,0,3.6-1.2,3.6-2.9c0-1.5-1.1-2.9-3.6-2.9
			C441.7,537.6,439.9,538.6,439.9,540.5z"/>
		<path fill="#FAAE24" d="M428.2,491.1v55.5c0,3.3,2.7,5.9,5.9,5.9h16.5c3.3,0,5.9-2.7,5.9-5.9v-55.5c0-3.3-2.7-5.9-5.9-5.9h-16.5
			C430.9,485.2,428.2,487.9,428.2,491.1z M440.1,534.5v0.8c0,0.3,0.1,0.4,0.4,0.4h12v1.9h-4.6c-0.5,0-0.9,0-0.9,0v0
			c0,0,1.7,0.9,1.7,3.3c0,2.7-2.2,4.4-5.3,4.4c-3.2,0-5.3-1.9-5.3-4.6c0-2.4,1.7-3.3,1.7-3.3v0c0,0-0.2,0-0.5,0c-0.6,0-1-0.4-1-1.2
			v-1.8H440.1z M448.5,522.1v1.9c0,0.9-0.4,1.3-1.1,1.3H447c-0.3,0-0.6,0-0.6,0v0c1,0.4,2.3,1.7,2.3,3.7c0,2.3-1.2,3.4-3.9,3.4h-4.4
			c-0.3,0-0.4,0.2-0.4,0.4v0.8h-1.7v-1.9c0-0.9,0.4-1.3,1.2-1.3h4.8c1.4,0,2.5-0.3,2.5-1.9c0-2.1-1.8-3.3-3.8-3.3h-4.7v-1.9h8
			c0.3,0,0.4-0.2,0.4-0.4v-0.8H448.5z M443.7,511.6v7.4c2.2-0.1,3.4-1.7,3.4-3.5c0-1.7-1.2-3-1.2-3l1.4-0.8c0,0,1.5,1.5,1.5,3.9
			c0,3.2-2.3,5.4-5.3,5.4c-3.2,0-5.3-2.2-5.3-5.1c0-2.8,2.1-4.4,4.7-4.4C443.2,511.5,443.7,511.6,443.7,511.6z M440.3,503.3
			c0,0-0.1,0.3-0.1,0.6c0,1.2,0.9,2.4,2.4,2.8c0.6,0.2,1.2,0.2,1.8,0.2h4.1v1.9h-8c-0.3,0-0.4,0.2-0.4,0.4v0.8h-1.7v-1.8
			c0-0.9,0.4-1.3,1.2-1.3h0.6c0.4,0,0.7,0,0.7,0v0c-1.5-0.5-2.6-1.6-2.6-3.2c0-0.3,0-0.5,0-0.5H440.3z M440.1,492v0.3
			c0,0.3,0.1,0.5,0.4,0.6l9.9,4c1.6,0.6,2.4,1.8,2.4,3.3c0,1.5-1,2.4-1,2.4l-1.4-0.8c0,0,0.7-0.6,0.7-1.5c0-0.8-0.6-1.4-1.5-1.8
			l-1.1-0.5l-8,3.5c-0.3,0.1-0.4,0.3-0.4,0.6v0.2h-1.7v-1.1c0-0.8,0.2-1.1,1-1.4l5.7-2.3c0.5-0.2,1.2-0.4,1.2-0.4v0
			c0,0-0.7-0.1-1.2-0.3l-5.7-2.1c-0.8-0.3-1-0.7-1-1.5V492H440.1z"/>
	</g>
	<g>
		<path fill="#DC7676" stroke="#F8E2D2" stroke-miterlimit="10" d="M28.3,501.7v72c0,5.6,17.2,10.2,38.4,10.2
			c21.2,0,38.4-4.6,38.4-10.2v-72H28.3z"/>
		<ellipse fill="#DC7676" stroke="#F8E2D2" stroke-miterlimit="10" cx="66.7" cy="501.7" rx="38.4" ry="10.2"/>
		<g>
			<path fill="#DC7676" d="M16.4,477l-1.4,0.5l-0.7-1.9l6.2-2.2c4.6-1.7,8.7,0,10.5,4.8c1.8,4.8-0.3,8.8-4.9,10.4l-3.4,1.2
				c-1,0.4-1.5,0.1-1.9-0.9L16.4,477z M23.3,487.6l2-0.7c3.4-1.2,4.9-4.1,3.5-7.8c-1.4-3.7-4.3-4.9-7.7-3.7l-2.5,0.9l4,11.1
				C22.7,487.6,23,487.7,23.3,487.6z"/>
			<path fill="#DC7676" d="M40.6,477.7l0.5-0.1l0-0.1c-0.3-2-1.2-2.6-3-2.3c-0.5,0.1-1.9,0.5-1.7,1.2l0.1,0.7l-2.1,0.3l-0.2-1.1
				c-0.3-1.9,2.5-2.6,3.6-2.8c3.7-0.6,5,1.2,5.5,3.7l0.8,4.9c0.1,0.3,0.3,0.5,0.6,0.4l0.9-0.2l0.3,1.9l-2.1,0.3
				c-1,0.2-1.5-0.3-1.6-1.1c-0.1-0.4-0.1-0.7-0.1-0.7l0,0c0,0-0.5,2.4-3.3,2.9c-2,0.3-4.1-0.5-4.5-2.8
				C33.8,479.1,38.7,478,40.6,477.7z M39,483.8c1.9-0.3,2.7-2.5,2.5-4.2l-0.1-0.4l-0.6,0.1c-1.7,0.3-4.6,0.9-4.3,3
				C36.7,483.2,37.6,484,39,483.8z"/>
			<path fill="#DC7676" d="M47.3,474.2l-1.5,0.1l-0.2-1.8l1.6-0.1l-0.3-3.2l2.2-0.2l0.3,3.2l2.8-0.3l0.2,1.8l-2.8,0.3l0.5,5.3
				c0.2,2.3,1.8,2.5,2.7,2.4c0.3,0,0.5-0.1,0.5-0.1l0.2,2c0,0-0.3,0.1-0.8,0.1c-1.5,0.1-4.5,0-4.8-3.9L47.3,474.2z"/>
			<path fill="#DC7676" d="M61.5,475.9l0.5,0l0-0.1c-0.1-2-0.9-2.8-2.7-2.7c-0.6,0-1.9,0.2-1.9,1l0,0.7l-2.1,0.1l0-1.1
				c-0.1-1.9,2.8-2.3,3.9-2.3c3.8-0.1,4.8,1.8,4.9,4.4l0.2,4.9c0,0.3,0.2,0.5,0.5,0.5l0.9,0l0.1,1.9l-2.1,0.1c-1,0-1.5-0.5-1.5-1.3
				c0-0.4,0-0.7,0-0.7l0,0c0,0-0.8,2.3-3.6,2.4c-2,0.1-4-1.1-4.1-3.4C54.5,476.4,59.5,476,61.5,475.9z M59.1,481.7
				c1.9-0.1,3-2.1,3-3.8l0-0.4l-0.6,0c-1.7,0.1-4.7,0.3-4.6,2.4C56.9,480.9,57.6,481.8,59.1,481.7z"/>
			<path fill="#DC7676" d="M68.4,469.2c0-0.3-0.2-0.5-0.5-0.5l-0.9,0l0.1-1.9l2.2,0.1c1,0,1.5,0.5,1.4,1.5l-0.1,3.8
				c0,0.6-0.1,1-0.1,1l0,0c0,0,1.1-1.9,3.8-1.8c3.1,0.1,5,2.7,4.9,6.3c-0.1,3.7-2.4,6-5.5,5.9c-2.6-0.1-3.6-2.1-3.6-2.1l0,0
				c0,0,0,0.4,0,0.9l0,0.8L68,483L68.4,469.2z M73.5,481.6c1.8,0.1,3.4-1.4,3.5-4c0.1-2.5-1.2-4.2-3.2-4.3c-1.7-0.1-3.4,1.1-3.5,4.1
				C70.3,479.4,71.3,481.5,73.5,481.6z"/>
			<path fill="#DC7676" d="M88.1,477.1l0.5,0.1l0-0.1c0.2-2-0.4-2.8-2.3-3c-0.5-0.1-1.9-0.1-2,0.7l-0.1,0.7l-2.1-0.2l0.1-1.1
				c0.2-1.9,3.1-1.9,4.2-1.7c3.7,0.4,4.5,2.5,4.3,5l-0.5,4.9c0,0.3,0.1,0.5,0.4,0.6l0.9,0.1l-0.2,1.9l-2.1-0.2
				c-1-0.1-1.4-0.7-1.3-1.5c0-0.4,0.1-0.7,0.1-0.7l0,0c0,0-1.2,2.2-3.9,1.9c-2-0.2-3.8-1.6-3.5-4C81.1,476.5,86.1,476.9,88.1,477.1z
				 M84.9,482.5c1.9,0.2,3.3-1.6,3.5-3.3l0-0.4l-0.6-0.1c-1.7-0.2-4.7-0.4-4.9,1.7C82.8,481.3,83.4,482.3,84.9,482.5z"/>
			<path fill="#DC7676" d="M94,481.9c0,0,1,2,3.1,2.4c1.1,0.2,2.1-0.1,2.3-1.1c0.4-2.1-5.9-3.1-5.1-6.8c0.4-2.2,2.6-2.8,4.9-2.3
				c1.4,0.3,3.6,1.2,3.3,3l-0.2,1.1l-2-0.4l0.1-0.6c0.1-0.7-0.8-1.2-1.5-1.3c-1.3-0.3-2.2,0-2.4,0.9c-0.4,2.2,5.9,2.9,5.1,6.8
				c-0.4,2-2.5,3-4.9,2.5c-3-0.6-4.2-2.9-4.2-2.9L94,481.9z"/>
			<path fill="#DC7676" d="M111.7,477.6c3.1,1.2,3.8,4.1,2.8,6.9c-0.1,0.3-0.4,0.8-0.4,0.8l-7.9-3c-0.8,2.4,0.4,4.3,2.4,5.1
				c1.9,0.7,3.7-0.1,3.7-0.1l0.3,1.8c0,0-2.2,1-4.8,0c-3.4-1.3-4.9-4.7-3.6-7.9C105.4,477.8,108.6,476.5,111.7,477.6z M112.6,483
				c0.6-1.8-0.2-3.2-1.5-3.7c-1.6-0.6-3.2-0.1-4.3,1.6L112.6,483z"/>
		</g>
		<path fill="#DC7676" stroke="#F8E2D2" stroke-miterlimit="10" d="M66.7,536.4c-21.2,0-38.4-4.6-38.4-10.2"/>
		<path fill="#DC7676" stroke="#F8E2D2" stroke-miterlimit="10" d="M105.1,526.2c0,5.6-17.2,10.2-38.4,10.2"/>
		<path fill="#DC7676" stroke="#F8E2D2" stroke-miterlimit="10" d="M66.7,560.9c-21.2,0-38.4-4.6-38.4-10.2"/>
		<path fill="#DC7676" stroke="#F8E2D2" stroke-miterlimit="10" d="M105.1,550.7c0,5.6-17.2,10.2-38.4,10.2"/>
	</g>
	<g>
		<g>
			<path fill="#F8E2D2" d="M251.8,781.1h-36c-4.8,0-8.7-3.9-8.7-8.7v-24c0-4.8,3.9-8.7,8.7-8.7h36c4.8,0,8.7,3.9,8.7,8.7v24
				C260.4,777.2,256.5,781.1,251.8,781.1z"/>
		</g>
		<g>
			<path fill="#F8E2D2" d="M383.2,786.7h-36c-4.8,0-8.7-3.9-8.7-8.7v-24c0-4.8,3.9-8.7,8.7-8.7h36c4.8,0,8.7,3.9,8.7,8.7v24
				C391.9,782.8,388,786.7,383.2,786.7z"/>
		</g>
		<g>
			<path fill="#F8E2D2" d="M295.1,793.2c2.3,0,6.4,1,6.4,3.7v1.7h-2.2v-1c0-1.4-2.4-2.1-4.1-2.1c-3.4,0-6,2.6-6,6.4
				c0,3.7,2.7,6.6,6.1,6.6c3.4,0,5.4-2.3,5.4-2.3l1.3,1.7c0,0-2.4,2.8-6.7,2.8c-5.1,0-8.6-3.9-8.6-8.9
				C286.6,796.9,290.3,793.2,295.1,793.2z"/>
			<path fill="#F8E2D2" d="M310,798c3.6,0,6.6,2.7,6.6,6.3c0,3.7-2.9,6.4-6.6,6.4c-3.6,0-6.5-2.7-6.5-6.4
				C303.5,800.6,306.4,798,310,798z M310,808.7c2.3,0,4.2-1.8,4.2-4.4c0-2.5-1.9-4.3-4.2-4.3c-2.3,0-4.2,1.8-4.2,4.3
				C305.9,806.9,307.8,808.7,310,808.7z"/>
			<path fill="#F8E2D2" d="M319.5,800.8c0-0.4-0.2-0.5-0.5-0.5h-1v-2h2.2c1.1,0,1.5,0.5,1.5,1.3v0.5c0,0.4,0,0.7,0,0.7h0
				c0.6-1.4,2.3-2.8,4.2-2.8c2.1,0,3.2,0.9,3.6,2.8h0c0.7-1.5,2.4-2.8,4.3-2.8c2.7,0,4,1.6,4,4.7v5.3c0,0.4,0.2,0.5,0.5,0.5h1v2
				h-2.3c-1.1,0-1.5-0.5-1.5-1.5v-5.7c0-1.7-0.3-3-2.1-3c-1.7,0-3,1.5-3.4,3.1c-0.1,0.5-0.2,1-0.2,1.7v5.5h-2.3v-7.3
				c0-1.6-0.2-3-2.1-3c-1.8,0-3,1.5-3.5,3.2c-0.1,0.5-0.2,1-0.2,1.6v5.5h-2.3V800.8z"/>
			<path fill="#F8E2D2" d="M342,800.8c0-0.4-0.2-0.5-0.5-0.5h-1v-2h2.2c1.1,0,1.5,0.5,1.5,1.3v0.5c0,0.4,0,0.7,0,0.7h0
				c0.6-1.4,2.3-2.8,4.2-2.8c2.1,0,3.2,0.9,3.6,2.8h0c0.7-1.5,2.4-2.8,4.3-2.8c2.7,0,4,1.6,4,4.7v5.3c0,0.4,0.2,0.5,0.5,0.5h1v2
				h-2.3c-1.1,0-1.5-0.5-1.5-1.5v-5.7c0-1.7-0.3-3-2.1-3c-1.7,0-3,1.5-3.4,3.1c-0.1,0.5-0.2,1-0.2,1.7v5.5H350v-7.3
				c0-1.6-0.2-3-2.1-3c-1.8,0-3,1.5-3.5,3.2c-0.1,0.5-0.2,1-0.2,1.6v5.5H342V800.8z"/>
			<path fill="#F8E2D2" d="M370.6,802.9h0.5v-0.1c0-2.1-0.8-2.9-2.7-2.9c-0.6,0-2,0.1-2,0.9v0.7h-2.2v-1.2c0-2,3-2.3,4.2-2.3
				c3.9,0,5,2.1,5,4.8v5.2c0,0.4,0.2,0.5,0.5,0.5h1v2h-2.2c-1.1,0-1.5-0.5-1.5-1.4c0-0.4,0-0.7,0-0.7h0c0,0-1,2.4-3.9,2.4
				c-2.1,0-4.1-1.3-4.1-3.7C363.3,803.1,368.6,802.9,370.6,802.9z M367.9,808.8c2,0,3.2-2.1,3.2-3.9v-0.4h-0.6
				c-1.8,0-4.9,0.1-4.9,2.3C365.7,807.9,366.4,808.8,367.9,808.8z"/>
			<path fill="#F8E2D2" d="M377.5,800.8c0-0.4-0.2-0.5-0.5-0.5h-1v-2h2.2c1,0,1.5,0.5,1.5,1.3v0.5c0,0.4,0,0.7,0,0.7h0
				c0.5-1.1,1.9-2.8,4.6-2.8c2.9,0,4.2,1.6,4.2,4.7v5.3c0,0.4,0.2,0.5,0.5,0.5h1v2h-2.3c-1.1,0-1.5-0.5-1.5-1.5v-5.7
				c0-1.7-0.3-3-2.3-3c-1.9,0-3.4,1.2-3.8,3c-0.2,0.5-0.2,1-0.2,1.6v5.7h-2.3V800.8z"/>
			<path fill="#F8E2D2" d="M396.9,798c2.8,0,3.7,1.9,3.7,1.9h0c0,0,0-0.4,0-0.8v-3c0-0.4-0.2-0.5-0.5-0.5h-1v-2h2.3
				c1.1,0,1.5,0.5,1.5,1.5v12.9c0,0.4,0.2,0.5,0.5,0.5h1v2h-2.2c-1.1,0-1.5-0.5-1.5-1.3c0-0.4,0-0.6,0-0.6h0c0,0-1,2.2-4,2.2
				c-3.3,0-5.4-2.6-5.4-6.4C391.4,800.5,393.7,798,396.9,798z M400.7,804.3c0-2.2-1.1-4.3-3.5-4.3c-1.9,0-3.5,1.6-3.5,4.3
				c0,2.6,1.4,4.3,3.4,4.3C399,808.7,400.7,807.4,400.7,804.3z"/>
		</g>
		<g>
			<path fill="#F8E2D2" d="M199.5,717.2H198v-2.1h10c1.1,0,1.5,0.5,1.5,1.5v2.1h-2.2v-1.1c0-0.4-0.2-0.5-0.5-0.5h-4.8v5.3h5.9v2.1
				h-5.9v4.9c0,0.3,0.2,0.5,0.5,0.5h4.9c0.3,0,0.5-0.2,0.5-0.5v-1.1h2.2v2.1c0,1.1-0.5,1.5-1.5,1.5h-7.5c-1.1,0-1.5-0.5-1.5-1.5
				V717.2z"/>
			<path fill="#F8E2D2" d="M211.9,722.4c-0.1-0.4-0.4-0.5-0.7-0.5h-0.2v-2h1.2c1.1,0,1.5,0.3,1.8,1.2l2.6,7c0.2,0.7,0.4,1.6,0.4,1.6
				h0c0,0,0.2-0.9,0.4-1.6l2.6-7c0.4-1,0.8-1.2,1.8-1.2h1.1v2h-0.2c-0.4,0-0.6,0.1-0.8,0.5l-3.7,9.7h-2.7L211.9,722.4z"/>
			<path fill="#F8E2D2" d="M230.1,719.6c3.4,0,5.2,2.5,5.2,5.7c0,0.3-0.1,1-0.1,1h-8.9c0.1,2.6,2,4.1,4.2,4.1c2.1,0,3.6-1.4,3.6-1.4
				l1,1.7c0,0-1.8,1.8-4.7,1.8c-3.8,0-6.5-2.8-6.5-6.4C224,722.1,226.7,719.6,230.1,719.6z M233,724.6c-0.1-2-1.3-3.1-2.9-3.1
				c-1.8,0-3.2,1.1-3.6,3.1H233z"/>
			<path fill="#F8E2D2" d="M238.5,722.4c0-0.4-0.2-0.5-0.5-0.5h-1v-2h2.2c1,0,1.5,0.5,1.5,1.3v0.5c0,0.4,0,0.7,0,0.7h0
				c0.5-1.1,1.9-2.8,4.6-2.8c2.9,0,4.2,1.6,4.2,4.7v5.3c0,0.4,0.2,0.5,0.5,0.5h1v2h-2.3c-1.1,0-1.5-0.5-1.5-1.5v-5.7
				c0-1.7-0.3-3-2.3-3c-1.9,0-3.4,1.2-3.8,3c-0.2,0.5-0.2,1-0.2,1.6v5.7h-2.3V722.4z"/>
			<path fill="#F8E2D2" d="M253.6,721.8H252v-1.9h1.6v-3.3h2.3v3.3h2.9v1.9h-2.9v5.6c0,2.4,1.7,2.7,2.6,2.7c0.3,0,0.6,0,0.6,0v2.1
				c0,0-0.3,0-0.8,0c-1.5,0-4.6-0.5-4.6-4.5V721.8z"/>
			<path fill="#F8E2D2" d="M261.7,728.6c0,0,1.4,1.8,3.7,1.8c1.1,0,2.1-0.5,2.1-1.6c0-2.2-6.6-1.9-6.6-5.9c0-2.3,2-3.4,4.5-3.4
				c1.5,0,4,0.5,4,2.4v1.2h-2.1v-0.6c0-0.7-1.1-1-1.8-1c-1.4,0-2.3,0.5-2.3,1.4c0,2.3,6.6,1.8,6.6,5.9c0,2.2-1.9,3.6-4.5,3.6
				c-3.2,0-4.8-2.1-4.8-2.1L261.7,728.6z"/>
		</g>
		<path fill="#F8E2D2" stroke="#DC7676" stroke-width="2" stroke-miterlimit="10" d="M256.9,786.7h-36c-4.8,0-8.7-3.9-8.7-8.7v-24
			c0-4.8,3.9-8.7,8.7-8.7h36c4.8,0,8.7,3.9,8.7,8.7v24C265.5,782.8,261.6,786.7,256.9,786.7z"/>
		<path fill="#F8E2D2" stroke="#DC7676" stroke-width="2" stroke-miterlimit="10" d="M262.5,792.8h-36c-4.8,0-8.7-3.9-8.7-8.7v-24
			c0-4.8,3.9-8.7,8.7-8.7h36c4.8,0,8.7,3.9,8.7,8.7v24C271.2,788.9,267.3,792.8,262.5,792.8z"/>
	</g>
	<g>
		<g>
			<path fill="#F8E2D2" d="M274.4,527.4h-36c-4.8,0-8.7-3.9-8.7-8.7v-24c0-4.8,3.9-8.7,8.7-8.7h36c4.8,0,8.7,3.9,8.7,8.7v24
				C283.1,523.5,279.2,527.4,274.4,527.4z"/>
		</g>
		<g>
			<line fill="#F8E2D2" x1="294.9" y1="573" x2="270.9" y2="527.4"/>
			<g>
				<line fill="none" stroke="#F8E2D2" stroke-width="4" stroke-miterlimit="10" x1="294.9" y1="573" x2="277.6" y2="540.1"/>
				<g>
					<polygon fill="#F8E2D2" points="287.8,538 270.9,527.4 270.1,547.3 					"/>
				</g>
			</g>
		</g>
		<g>
			<path fill="#F8E2D2" d="M355.6,527.4h-36c-4.8,0-8.7-3.9-8.7-8.7v-24c0-4.8,3.9-8.7,8.7-8.7h36c4.8,0,8.7,3.9,8.7,8.7v24
				C364.2,523.5,360.4,527.4,355.6,527.4z"/>
		</g>
		<g>
			<line fill="#F8E2D2" x1="307.4" y1="566.9" x2="325.7" y2="527.4"/>
			<g>
				<line fill="none" stroke="#F8E2D2" stroke-width="4" stroke-miterlimit="10" x1="307.4" y1="566.9" x2="319.7" y2="540.4"/>
				<g>
					<polygon fill="#F8E2D2" points="327.5,547.3 325.7,527.4 309.4,538.8 					"/>
				</g>
			</g>
		</g>
		<g>
			<path fill="#F8E2D2" d="M315.6,597.4h-36c-4.8,0-8.7-3.9-8.7-8.7v-24c0-4.8,3.9-8.7,8.7-8.7h36c4.8,0,8.7,3.9,8.7,8.7v24
				C324.2,593.5,320.4,597.4,315.6,597.4z"/>
		</g>
		<g>
			<path fill="#F8E2D2" d="M234.1,462c4.9,0,8.7,3.8,8.7,8.7c0,2.1-0.8,4.1-2,5.6l1.9,1.9l-1.4,1.5l-1.9-1.9
				c-1.5,1.2-3.3,1.8-5.3,1.8c-4.9,0-8.7-3.9-8.7-8.9C225.4,465.7,229.2,462,234.1,462z M234.1,477.2c2.2,0,3.6-1.2,3.6-1.2
				l-1.9-1.8l1.4-1.6l1.8,1.9c0.8-1.1,1.2-2.5,1.2-3.9c0-3.7-2.7-6.4-6.2-6.4c-3.5,0-6.2,2.7-6.2,6.4
				C227.9,474.3,230.6,477.2,234.1,477.2z"/>
			<path fill="#F8E2D2" d="M245.8,469.6c0-0.4-0.2-0.5-0.5-0.5h-1v-2h2.3c1.1,0,1.6,0.5,1.6,1.5v5.8c0,1.7,0.3,3,2.3,3
				c2.5,0,4-2.2,4-4.6V467h2.3v9.6c0,0.4,0.2,0.5,0.5,0.5h1v2h-2.2c-1,0-1.5-0.5-1.5-1.3v-0.5c0-0.4,0-0.7,0-0.7h0
				c-0.5,1.2-2.1,2.8-4.5,2.8c-2.7,0-4.1-1.4-4.1-4.7V469.6z"/>
			<path fill="#F8E2D2" d="M265.6,466.8c3.4,0,5.2,2.5,5.2,5.7c0,0.3-0.1,1-0.1,1h-8.9c0.1,2.6,2,4.1,4.2,4.1c2.1,0,3.6-1.4,3.6-1.4
				l1,1.7c0,0-1.8,1.8-4.7,1.8c-3.8,0-6.5-2.8-6.5-6.4C259.5,469.3,262.2,466.8,265.6,466.8z M268.5,471.7c-0.1-2-1.3-3.1-2.9-3.1
				c-1.8,0-3.2,1.1-3.6,3.1H268.5z"/>
			<path fill="#F8E2D2" d="M274,469.6c0-0.4-0.2-0.5-0.5-0.5h-1v-2h2.2c1.1,0,1.6,0.4,1.6,1.4v0.8c0,0.5,0,0.8,0,0.8h0
				c0.6-1.8,2-3.2,3.8-3.2c0.3,0,0.6,0,0.6,0v2.3c0,0-0.3-0.1-0.7-0.1c-1.5,0-2.9,1.1-3.4,2.9c-0.2,0.7-0.3,1.4-0.3,2.2v5H274V469.6
				z"/>
			<path fill="#F8E2D2" d="M284.4,482.2c0.9,0,1.7-0.7,2.1-1.8l0.6-1.3l-4.2-9.6c-0.2-0.4-0.4-0.5-0.8-0.5h-0.3v-2h1.4
				c1,0,1.3,0.3,1.7,1.2l2.8,6.8c0.2,0.6,0.4,1.5,0.4,1.5h0c0,0,0.2-0.8,0.4-1.5l2.5-6.8c0.4-1,0.8-1.2,1.8-1.2h1.4v2H294
				c-0.4,0-0.6,0.1-0.8,0.5l-4.8,11.9c-0.7,1.9-2.2,2.9-3.9,2.9c-1.8,0-2.9-1.2-2.9-1.2l1-1.7C282.6,481.4,283.3,482.2,284.4,482.2z
				"/>
			<path fill="#F8E2D2" d="M301.6,477.1h0.8c0.3,0,0.5-0.2,0.5-0.5l1.2-14.4h2.5l4,9c0.4,0.9,0.8,2.1,0.8,2.1h0c0,0,0.4-1.2,0.8-2.1
				l4-9h2.5l1.2,14.4c0,0.3,0.2,0.5,0.5,0.5h0.8v2.1H319c-1.1,0-1.5-0.5-1.5-1.5l-0.7-9c-0.1-1,0-2.5,0-2.5h0c0,0-0.5,1.6-0.9,2.5
				l-3.4,7.4h-2l-3.4-7.4c-0.4-0.9-0.9-2.5-0.9-2.5h0c0,0,0,1.5,0,2.5l-0.7,9c-0.1,1.1-0.5,1.5-1.6,1.5h-2.1V477.1z"/>
			<path fill="#F8E2D2" d="M329,466.8c3.6,0,6.6,2.7,6.6,6.3c0,3.7-2.9,6.4-6.6,6.4s-6.5-2.7-6.5-6.4
				C322.5,469.4,325.4,466.8,329,466.8z M329,477.5c2.3,0,4.2-1.8,4.2-4.4c0-2.5-1.9-4.3-4.2-4.3c-2.3,0-4.2,1.8-4.2,4.3
				C324.9,475.6,326.8,477.5,329,477.5z"/>
			<path fill="#F8E2D2" d="M342.8,466.8c2.8,0,3.7,1.9,3.7,1.9h0c0,0,0-0.4,0-0.8v-3c0-0.4-0.2-0.5-0.5-0.5h-1v-2h2.3
				c1.1,0,1.5,0.5,1.5,1.5v12.9c0,0.4,0.2,0.5,0.5,0.5h1v2h-2.2c-1.1,0-1.5-0.5-1.5-1.3c0-0.4,0-0.6,0-0.6h0c0,0-1,2.2-4,2.2
				c-3.3,0-5.4-2.6-5.4-6.4C337.3,469.3,339.6,466.8,342.8,466.8z M346.7,473.1c0-2.2-1.1-4.3-3.5-4.3c-1.9,0-3.5,1.6-3.5,4.3
				c0,2.6,1.4,4.3,3.4,4.3C345,477.5,346.7,476.2,346.7,473.1z"/>
			<path fill="#F8E2D2" d="M357.9,466.8c3.4,0,5.2,2.5,5.2,5.7c0,0.3-0.1,1-0.1,1h-8.9c0.1,2.6,2,4.1,4.2,4.1c2.1,0,3.6-1.4,3.6-1.4
				l1,1.7c0,0-1.8,1.8-4.7,1.8c-3.8,0-6.5-2.8-6.5-6.4C351.8,469.3,354.5,466.8,357.9,466.8z M360.8,471.7c-0.1-2-1.3-3.1-2.9-3.1
				c-1.8,0-3.2,1.1-3.6,3.1H360.8z"/>
			<path fill="#F8E2D2" d="M366.2,464.8c0-0.4-0.2-0.5-0.5-0.5h-1v-2h2.3c1.1,0,1.5,0.5,1.5,1.5v12.9c0,0.4,0.2,0.5,0.5,0.5h1v2
				h-2.3c-1.1,0-1.5-0.5-1.5-1.5V464.8z"/>
		</g>
	</g>
	<g>
		<path fill="#DC7676" stroke="#F8E2D2" stroke-miterlimit="10" d="M26.6,642.9v72c0,5.6,17.2,10.2,38.4,10.2
			c21.2,0,38.4-4.6,38.4-10.2v-72H26.6z"/>
		<ellipse fill="#DC7676" stroke="#F8E2D2" stroke-miterlimit="10" cx="65" cy="642.9" rx="38.4" ry="10.2"/>
		<g>
			<path fill="#DC7676" d="M11.2,625.2l-1.2,0.6l-0.8-1.5l7.4-3.8c0.8-0.4,1.3-0.3,1.7,0.5l0.8,1.6l-1.6,0.8l-0.4-0.8
				c-0.1-0.3-0.3-0.3-0.6-0.2l-3.6,1.9l2,3.9l4.4-2.3l0.8,1.5l-4.4,2.3l1.9,3.6c0.1,0.2,0.3,0.3,0.6,0.2l3.7-1.9
				c0.2-0.1,0.3-0.3,0.2-0.6l-0.4-0.8l1.6-0.8l0.8,1.6c0.4,0.8,0.3,1.3-0.5,1.7l-5.6,2.9c-0.8,0.4-1.3,0.3-1.7-0.5L11.2,625.2z"/>
			<path fill="#DC7676" d="M23.6,624.4c-0.2-0.3-0.4-0.3-0.7-0.2l-0.2,0.1l-0.4-1.6l1-0.3c0.9-0.2,1.3-0.1,1.7,0.6l3.6,5.1
				c0.3,0.5,0.7,1.2,0.7,1.2l0,0c0,0,0-0.8,0-1.4l0.6-6.2c0.1-0.9,0.4-1.2,1.2-1.4l0.9-0.2l0.4,1.6l-0.2,0c-0.3,0.1-0.5,0.2-0.5,0.6
				l-1,8.6l-2.2,0.6L23.6,624.4z"/>
			<path fill="#DC7676" d="M38.5,618.8c2.8-0.4,4.6,1.4,5,4c0,0.3,0.1,0.8,0.1,0.8l-7.3,1.1c0.4,2.1,2.2,3.1,4,2.8
				c1.7-0.3,2.7-1.6,2.7-1.6l1,1.2c0,0-1.3,1.7-3.6,2.1c-3.2,0.5-5.7-1.5-6.1-4.4C33.8,621.6,35.7,619.2,38.5,618.8z M41.5,622.5
				c-0.3-1.7-1.5-2.4-2.7-2.2c-1.5,0.2-2.5,1.3-2.6,3L41.5,622.5z"/>
			<path fill="#DC7676" d="M46.1,620.1c0-0.3-0.2-0.4-0.5-0.4l-0.8,0.1l-0.1-1.7l1.9-0.1c0.9-0.1,1.3,0.3,1.4,1l0,0.4
				c0,0.3,0,0.6,0,0.6l0,0c0.3-0.9,1.4-2.4,3.6-2.6c2.4-0.2,3.6,1,3.8,3.6l0.3,4.4c0,0.3,0.2,0.4,0.5,0.4l0.8-0.1l0.1,1.7l-1.9,0.1
				c-0.9,0.1-1.3-0.3-1.4-1.2l-0.4-4.7c-0.1-1.4-0.5-2.5-2.1-2.4c-1.6,0.1-2.7,1.2-3,2.7c-0.1,0.4-0.1,0.9-0.1,1.4l0.4,4.7l-1.9,0.1
				L46.1,620.1z"/>
			<path fill="#DC7676" d="M58.9,618.8l-1.3,0l0-1.6l1.4,0l-0.1-2.8l1.9,0l0.1,2.8l2.4-0.1l0,1.6l-2.4,0.1l0.1,4.6
				c0,2,1.4,2.2,2.2,2.2c0.3,0,0.5,0,0.5,0l0,1.7c0,0-0.3,0-0.7,0.1c-1.3,0-3.9-0.3-3.9-3.7L58.9,618.8z"/>
			<path fill="#DC7676" d="M71.5,624.1c0,0,1.3,1.8,3.4,1.9c1.3,0.1,2.5-0.7,2.5-2c0.2-3-6.7-2.9-6.5-7.2c0.1-2.1,2.1-3.7,4.7-3.5
				c1.5,0.1,4,0.9,3.9,2.8l-0.1,1.2l-1.8-0.1l0-0.7c0-0.7-1-1.3-2.1-1.4c-1.5-0.1-2.5,0.7-2.6,1.8c-0.1,2.9,6.7,2.6,6.4,7.2
				c-0.1,2.2-1.9,3.9-4.7,3.8c-3-0.2-4.6-2.3-4.6-2.3L71.5,624.1z"/>
			<path fill="#DC7676" d="M82.6,619.5l-1.3-0.1l0.2-1.6l1.4,0.1l0.3-2.8l1.9,0.2l-0.3,2.8l2.4,0.3L87,620l-2.4-0.3l-0.5,4.6
				c-0.2,2,1.2,2.4,1.9,2.5c0.3,0,0.5,0,0.5,0l-0.2,1.7c0,0-0.3,0-0.7,0c-1.3-0.1-3.8-0.8-3.4-4.2L82.6,619.5z"/>
			<path fill="#DC7676" d="M94.4,619.3c3,0.5,5,3.1,4.5,6.1c-0.5,3-3.3,4.8-6.3,4.3c-3-0.5-5-3.1-4.4-6.2
				C88.7,620.5,91.5,618.7,94.4,619.3z M92.9,628.1c1.9,0.3,3.7-0.9,4.1-3c0.4-2.1-0.9-3.8-2.8-4.1c-1.9-0.3-3.7,0.9-4,3
				C89.7,626,91,627.7,92.9,628.1z"/>
			<path fill="#DC7676" d="M102.2,623.3c0.1-0.3,0-0.5-0.3-0.5l-0.8-0.2l0.5-1.6l1.8,0.5c0.8,0.2,1.2,0.7,0.9,1.5l-0.2,0.6
				c-0.1,0.4-0.2,0.7-0.2,0.7l0,0c0.9-1.3,2.3-2.1,3.8-1.7c0.3,0.1,0.5,0.2,0.5,0.2l-0.5,1.8c0,0-0.2-0.1-0.5-0.2
				c-1.2-0.3-2.5,0.2-3.4,1.5c-0.3,0.5-0.6,1.1-0.7,1.7l-1.1,4L100,631L102.2,623.3z"/>
			<path fill="#DC7676" d="M114.9,625.5c2.5,1.3,2.9,3.9,1.7,6.2c-0.1,0.2-0.4,0.7-0.4,0.7l-6.5-3.4c-0.9,2-0.1,3.8,1.5,4.6
				c1.5,0.8,3.2,0.3,3.2,0.3l0.1,1.6c0,0-2,0.6-4.1-0.5c-2.8-1.5-3.7-4.5-2.3-7.2C109.4,625,112.3,624.1,114.9,625.5z M115.1,630.2
				c0.7-1.5,0.2-2.8-0.9-3.4c-1.3-0.7-2.8-0.4-3.8,0.9L115.1,630.2z"/>
		</g>
		<path fill="#DC7676" stroke="#F8E2D2" stroke-miterlimit="10" d="M65,677.6c-21.2,0-38.4-4.6-38.4-10.2"/>
		<path fill="#DC7676" stroke="#F8E2D2" stroke-miterlimit="10" d="M103.4,667.4c0,5.6-17.2,10.2-38.4,10.2"/>
		<path fill="#DC7676" stroke="#F8E2D2" stroke-miterlimit="10" d="M65,702.1c-21.2,0-38.4-4.6-38.4-10.2"/>
		<path fill="#DC7676" stroke="#F8E2D2" stroke-miterlimit="10" d="M103.4,691.9c0,5.6-17.2,10.2-38.4,10.2"/>
	</g>
	<g>
		<line fill="#FAAE24" x1="326.3" y1="767.7" x2="282.8" y2="767.7"/>
		<g>
			<line fill="none" stroke="#FAAE24" stroke-width="7" stroke-miterlimit="10" x1="326.3" y1="767.7" x2="307.9" y2="767.7"/>
			<g>
				<polygon fill="#FAAE24" points="313,750.2 282.8,767.7 313,785.1 				"/>
			</g>
		</g>
	</g>
	<g>
		<line fill="#FAAE24" x1="119.2" y1="531.3" x2="197" y2="531.3"/>
		<g>
			<line fill="none" stroke="#FAAE24" stroke-width="7" stroke-miterlimit="10" x1="119.2" y1="531.3" x2="171.9" y2="531.3"/>
			<g>
				<polygon fill="#FAAE24" points="166.8,548.8 197,531.3 166.8,513.8 				"/>
			</g>
		</g>
	</g>
	<g>
		<path fill="#FAAE24" d="M439.9,661c0,1.5,1.1,2.9,3.6,2.9c1.8,0,3.6-0.9,3.6-2.9c0-1.6-1.3-2.9-3.6-2.9
			C441.3,658.2,439.9,659.3,439.9,661z"/>
		<path fill="#FAAE24" d="M439.9,591.8c0,1.9,1.5,3.5,3.6,3.5c2.1,0,3.6-1.6,3.6-3.5c0-1.9-1.5-3.5-3.6-3.5
			C441.4,588.3,439.9,589.9,439.9,591.8z"/>
		<path fill="#FAAE24" d="M428.2,572.8v116.4c0,3.3,2.7,5.9,5.9,5.9h16.5c3.3,0,5.9-2.7,5.9-5.9V572.8c0-3.3-2.7-5.9-5.9-5.9h-16.5
			C430.9,566.9,428.2,569.5,428.2,572.8z M434.4,601.6v-1.7h2v1.7H434.4z M434.4,626.2v-1.7h2v1.7H434.4z M448.8,684.3
			c0,2.7-1.8,4-1.8,4l-1.3-1c0,0,1.5-1.2,1.5-3.1c0-0.9-0.4-1.8-1.3-1.8c-1.8,0-1.6,5.5-4.9,5.5c-1.9,0-2.8-1.7-2.8-3.8
			c0-1.2,0.4-3.3,2-3.3h1v1.7h-0.5c-0.6,0-0.9,0.9-0.9,1.5c0,1.1,0.4,1.9,1.2,1.9c1.9,0,1.5-5.5,4.9-5.5
			C447.6,680.6,448.8,682.2,448.8,684.3z M448.5,667.9v1.9c0,0.9-0.4,1.3-1.1,1.3H447c-0.3,0-0.6,0-0.6,0v0c1,0.4,2.3,1.7,2.3,3.7
			c0,2.3-1.2,3.4-3.9,3.4h-4.4c-0.3,0-0.4,0.2-0.4,0.4v0.8h-1.7v-1.9c0-0.9,0.4-1.3,1.2-1.3h4.8c1.4,0,2.5-0.3,2.5-1.9
			c0-2.1-1.8-3.3-3.8-3.3h-4.7v-1.9h8c0.3,0,0.4-0.2,0.4-0.4v-0.8H448.5z M448.8,660.8c0,2.3-1.7,3.2-1.7,3.2v0c0,0,0.3,0,0.8,0h0.7
			v1.9h-12c-0.3,0-0.4,0.2-0.4,0.4v0.8h-1.7v-1.9c0-0.9,0.4-1.3,1.3-1.3h3.3c0.5,0,0.8,0,0.8,0v0c0,0-1.7-0.9-1.7-3.3
			c0-2.7,2.2-4.4,5.3-4.4C446.7,656.2,448.8,658.1,448.8,660.8z M448.8,650.9c0,2.7-1.8,4-1.8,4l-1.3-1c0,0,1.5-1.2,1.5-3.1
			c0-0.9-0.4-1.8-1.3-1.8c-1.8,0-1.6,5.5-4.9,5.5c-1.9,0-2.8-1.7-2.8-3.8c0-1.2,0.4-3.3,2-3.3h1v1.7h-0.5c-0.6,0-0.9,0.9-0.9,1.5
			c0,1.1,0.4,1.9,1.2,1.9c1.9,0,1.5-5.5,4.9-5.5C447.6,647.2,448.8,648.8,448.8,650.9z M448.8,640.3c0,3.2-2.3,5.4-5.3,5.4
			c-3,0-5.3-2.2-5.3-5.4c0-1.2,0.5-3.6,2.2-3.6h1v1.8h-0.6c-0.7,0-1,1.1-1,1.9c0,2,1.5,3.5,3.6,3.5c2.3,0,3.6-1.7,3.6-3.6
			c0-1.9-1.4-3.1-1.4-3.1l1.4-0.8C447,636.2,448.8,637.6,448.8,640.3z M440.3,628.5c0,0-0.1,0.3-0.1,0.6c0,1.2,0.9,2.4,2.4,2.8
			c0.6,0.2,1.2,0.2,1.8,0.2h4.1v1.9h-8c-0.3,0-0.4,0.2-0.4,0.4v0.8h-1.7v-1.8c0-0.9,0.4-1.3,1.2-1.3h0.6c0.4,0,0.7,0,0.7,0v0
			c-1.5-0.5-2.6-1.6-2.6-3.2c0-0.3,0-0.5,0-0.5H440.3z M448.5,623.1v1.9c0,0.9-0.4,1.3-1.3,1.3h-6.7c-0.3,0-0.4,0.2-0.4,0.4v0.8
			h-1.7v-1.9c0-0.9,0.4-1.3,1.3-1.3h6.7c0.3,0,0.4-0.2,0.4-0.4v-0.8H448.5z M448.8,615.8c0,2.2-1.6,3.1-1.6,3.1v0c0,0,0.4,0,0.9,0
			h4.5v1.9h-12c-0.3,0-0.4,0.2-0.4,0.4v0.8h-1.7v-1.8c0-0.9,0.4-1.2,1-1.2c0.3,0,0.5,0,0.5,0v0c0,0-1.8-0.8-1.8-3.4
			c0-2.7,2.2-4.5,5.3-4.5C446.7,611.2,448.8,613.2,448.8,615.8z M448.6,604.2c0,0,0,0.3,0,0.7c0,1.3-0.4,3.9-3.8,3.9H440v1.3h-1.6
			v-1.4h-2.8v-1.9h2.8v-2.4h1.6v2.4h4.6c2,0,2.3-1.4,2.3-2.1c0-0.3,0-0.5,0-0.5H448.6z M448.5,598.5v1.9c0,0.9-0.4,1.3-1.3,1.3h-6.7
			c-0.3,0-0.4,0.2-0.4,0.4v0.8h-1.7V601c0-0.9,0.4-1.3,1.3-1.3h6.7c0.3,0,0.4-0.2,0.4-0.4v-0.8H448.5z M448.8,591.8
			c0,3-2.2,5.4-5.3,5.4c-3.1,0-5.3-2.4-5.3-5.4c0-3,2.2-5.4,5.3-5.4C446.5,586.4,448.8,588.8,448.8,591.8z M448.5,573.5v1.9
			c0,0.9-0.4,1.3-1.3,1.3h-4.8c-1.4,0-2.5,0.3-2.5,1.9c0,1.6,1,2.8,2.5,3.2c0.4,0.1,0.9,0.2,1.4,0.2h4.7v1.9h-8
			c-0.3,0-0.4,0.2-0.4,0.4v0.8h-1.7v-1.9c0-0.9,0.4-1.3,1.1-1.3h0.4c0.3,0,0.6,0,0.6,0v0c-0.9-0.4-2.3-1.6-2.3-3.8
			c0-2.4,1.3-3.5,3.9-3.5h4.4c0.3,0,0.4-0.2,0.4-0.4v-0.8H448.5z"/>
		<path fill="#FAAE24" d="M439.9,616c0,1.5,1.1,2.9,3.6,2.9c1.8,0,3.6-1,3.6-2.9c0-1.6-1.3-2.9-3.6-2.9
			C441.3,613.2,439.9,614.4,439.9,616z"/>
	</g>
	<path fill="none" stroke="#FAAE24" stroke-width="7" stroke-miterlimit="10" d="M145.3,546.7"/>
	<g>
		<g>
			<path fill="none" stroke="#FAAE24" stroke-width="7" stroke-miterlimit="10" d="M12.7,673.7h-44.4c-8.1,0-14.7-6.6-14.7-14.7
				V546.7c0-8.1,6.6-14.7,14.7-14.7h19.2"/>
			<g>
				<polygon fill="#FAAE24" points="-17.6,549.5 12.7,532 -17.6,514.6 				"/>
			</g>
		</g>
	</g>
	<g>
		<g>
			<path fill="none" stroke="#FAAE24" stroke-width="7" stroke-miterlimit="10" d="M195.2,784.1H82c-8.1,0-14.7-6.6-14.7-14.7v-7.6"
				/>
			<g>
				<polygon fill="#FAAE24" points="84.8,767 67.3,736.8 49.9,767 				"/>
			</g>
		</g>
	</g>
	<g>
		<line fill="#FAAE24" x1="119.2" y1="658.2" x2="197" y2="658.2"/>
		<g>
			<line fill="none" stroke="#FAAE24" stroke-width="7" stroke-miterlimit="10" x1="119.2" y1="658.2" x2="171.9" y2="658.2"/>
			<g>
				<polygon fill="#FAAE24" points="166.8,675.6 197,658.2 166.8,640.7 				"/>
			</g>
		</g>
	</g>
	<g>
		<g>
			<path fill="#F8E2D2" d="M254.9,674.9h-36c-4.8,0-8.7-3.9-8.7-8.7v-24c0-4.8,3.9-8.7,8.7-8.7h36c4.8,0,8.7,3.9,8.7,8.7v24
				C263.6,671,259.7,674.9,254.9,674.9z"/>
		</g>
		<g>
			<path fill="#F8E2D2" d="M208,613h-1.6v-2.1h10c1.1,0,1.5,0.5,1.5,1.5v2.1h-2.2v-1.1c0-0.4-0.2-0.5-0.5-0.5h-4.8v5.3h5.9v2.1h-5.9
				v4.9c0,0.3,0.2,0.5,0.5,0.5h4.9c0.3,0,0.5-0.2,0.5-0.5v-1.1h2.2v2.1c0,1.1-0.5,1.5-1.5,1.5h-7.5c-1.1,0-1.5-0.5-1.5-1.5V613z"/>
			<path fill="#F8E2D2" d="M220.4,618.2c-0.1-0.4-0.4-0.5-0.7-0.5h-0.2v-2h1.2c1.1,0,1.5,0.3,1.8,1.2l2.6,7c0.2,0.7,0.4,1.6,0.4,1.6
				h0c0,0,0.2-0.9,0.4-1.6l2.6-7c0.4-1,0.8-1.2,1.8-1.2h1.1v2h-0.2c-0.4,0-0.6,0.1-0.8,0.5l-3.7,9.7h-2.7L220.4,618.2z"/>
			<path fill="#F8E2D2" d="M238.6,615.4c3.4,0,5.2,2.5,5.2,5.7c0,0.3-0.1,1-0.1,1h-8.9c0.1,2.6,2,4.1,4.2,4.1c2.1,0,3.6-1.4,3.6-1.4
				l1,1.7c0,0-1.8,1.8-4.7,1.8c-3.8,0-6.5-2.8-6.5-6.4C232.5,617.9,235.1,615.4,238.6,615.4z M241.4,620.4c-0.1-2-1.3-3.1-2.9-3.1
				c-1.8,0-3.2,1.1-3.6,3.1H241.4z"/>
			<path fill="#F8E2D2" d="M246.9,618.2c0-0.4-0.2-0.5-0.5-0.5h-1v-2h2.2c1,0,1.5,0.5,1.5,1.3v0.5c0,0.4,0,0.7,0,0.7h0
				c0.5-1.1,1.9-2.8,4.6-2.8c2.9,0,4.2,1.6,4.2,4.7v5.3c0,0.4,0.2,0.5,0.5,0.5h1v2h-2.3c-1.1,0-1.5-0.5-1.5-1.5v-5.7
				c0-1.7-0.3-3-2.3-3c-1.9,0-3.4,1.2-3.8,3c-0.2,0.5-0.2,1-0.2,1.6v5.7h-2.3V618.2z"/>
			<path fill="#F8E2D2" d="M262,617.6h-1.6v-1.9h1.6v-3.3h2.3v3.3h2.9v1.9h-2.9v5.6c0,2.4,1.7,2.7,2.6,2.7c0.3,0,0.6,0,0.6,0v2.1
				c0,0-0.3,0-0.8,0c-1.5,0-4.6-0.5-4.6-4.5V617.6z"/>
		</g>
	</g>
	<g>
		<g>
			<path fill="#F8E2D2" d="M368.9,674.9h-36c-4.8,0-8.7-3.9-8.7-8.7v-24c0-4.8,3.9-8.7,8.7-8.7h36c4.8,0,8.7,3.9,8.7,8.7v24
				C377.6,671,373.7,674.9,368.9,674.9z"/>
		</g>
		<g>
			<path fill="#F8E2D2" d="M322,613h-1.6v-2.1h10c1.1,0,1.5,0.5,1.5,1.5v2.1h-2.2v-1.1c0-0.4-0.2-0.5-0.5-0.5h-4.8v5.3h5.9v2.1h-5.9
				v4.9c0,0.3,0.2,0.5,0.5,0.5h4.9c0.3,0,0.5-0.2,0.5-0.5v-1.1h2.2v2.1c0,1.1-0.5,1.5-1.5,1.5h-7.5c-1.1,0-1.5-0.5-1.5-1.5V613z"/>
			<path fill="#F8E2D2" d="M334.4,618.2c-0.1-0.4-0.4-0.5-0.7-0.5h-0.2v-2h1.2c1.1,0,1.5,0.3,1.8,1.2l2.6,7c0.2,0.7,0.4,1.6,0.4,1.6
				h0c0,0,0.2-0.9,0.4-1.6l2.6-7c0.4-1,0.8-1.2,1.8-1.2h1.1v2h-0.2c-0.4,0-0.6,0.1-0.8,0.5l-3.7,9.7h-2.7L334.4,618.2z"/>
			<path fill="#F8E2D2" d="M352.6,615.4c3.4,0,5.2,2.5,5.2,5.7c0,0.3-0.1,1-0.1,1h-8.9c0.1,2.6,2,4.1,4.2,4.1c2.1,0,3.6-1.4,3.6-1.4
				l1,1.7c0,0-1.8,1.8-4.7,1.8c-3.8,0-6.5-2.8-6.5-6.4C346.5,617.9,349.1,615.4,352.6,615.4z M355.4,620.4c-0.1-2-1.3-3.1-2.9-3.1
				c-1.8,0-3.2,1.1-3.6,3.1H355.4z"/>
			<path fill="#F8E2D2" d="M360.9,618.2c0-0.4-0.2-0.5-0.5-0.5h-1v-2h2.2c1,0,1.5,0.5,1.5,1.3v0.5c0,0.4,0,0.7,0,0.7h0
				c0.5-1.1,1.9-2.8,4.6-2.8c2.9,0,4.2,1.6,4.2,4.7v5.3c0,0.4,0.2,0.5,0.5,0.5h1v2h-2.3c-1.1,0-1.5-0.5-1.5-1.5v-5.7
				c0-1.7-0.3-3-2.3-3c-1.9,0-3.4,1.2-3.8,3c-0.2,0.5-0.2,1-0.2,1.6v5.7h-2.3V618.2z"/>
			<path fill="#F8E2D2" d="M376,617.6h-1.6v-1.9h1.6v-3.3h2.3v3.3h2.9v1.9h-2.9v5.6c0,2.4,1.7,2.7,2.6,2.7c0.3,0,0.6,0,0.6,0v2.1
				c0,0-0.3,0-0.8,0c-1.5,0-4.6-0.5-4.6-4.5V617.6z"/>
		</g>
	</g>
	<g>
		<line fill="#FAAE24" x1="271.7" y1="658.2" x2="315.2" y2="658.2"/>
		<g>
			<line fill="none" stroke="#FAAE24" stroke-width="7" stroke-miterlimit="10" x1="271.7" y1="658.2" x2="290.1" y2="658.2"/>
			<g>
				<polygon fill="#FAAE24" points="285,675.6 315.2,658.2 285,640.7 				"/>
			</g>
		</g>
	</g>
	<g>
		<line fill="#FAAE24" x1="382.7" y1="658.2" x2="421.4" y2="658.2"/>
		<g>
			<line fill="none" stroke="#FAAE24" stroke-width="7" stroke-miterlimit="10" x1="382.7" y1="658.2" x2="396.3" y2="658.2"/>
			<g>
				<polygon fill="#FAAE24" points="391.2,675.6 421.4,658.2 391.2,640.7 				"/>
			</g>
		</g>
	</g>
	<g>
		<line fill="#FAAE24" x1="377.9" y1="531.3" x2="421.4" y2="531.3"/>
		<g>
			<line fill="none" stroke="#FAAE24" stroke-width="7" stroke-miterlimit="10" x1="377.9" y1="531.3" x2="396.3" y2="531.3"/>
			<g>
				<polygon fill="#FAAE24" points="391.2,548.8 421.4,531.3 391.2,513.8 				"/>
			</g>
		</g>
	</g>
	<g>
		<g>
			
				<line fill="none" stroke="#FAAE24" stroke-width="7" stroke-linecap="round" stroke-miterlimit="10" x1="473.5" y1="645.7" x2="473.5" y2="645.7"/>
			<g>
				<path fill="#FAAE24" d="M520.7,645.7c0-1.9,1.6-3.5,3.5-3.5l0,0c1.9,0,3.5,1.6,3.5,3.5l0,0c0,1.9-1.6,3.5-3.5,3.5l0,0
					C522.3,649.2,520.7,647.6,520.7,645.7z M510.6,645.7c0-1.9,1.6-3.5,3.5-3.5l0,0c1.9,0,3.5,1.6,3.5,3.5l0,0
					c0,1.9-1.6,3.5-3.5,3.5l0,0C512.2,649.2,510.6,647.6,510.6,645.7z M500.5,645.7c0-1.9,1.6-3.5,3.5-3.5l0,0
					c1.9,0,3.5,1.6,3.5,3.5l0,0c0,1.9-1.6,3.5-3.5,3.5l0,0C502,649.2,500.5,647.6,500.5,645.7z M490.3,645.7c0-1.9,1.6-3.5,3.5-3.5
					l0,0c1.9,0,3.5,1.6,3.5,3.5l0,0c0,1.9-1.6,3.5-3.5,3.5l0,0C491.9,649.2,490.3,647.6,490.3,645.7z M480.2,645.7
					c0-1.9,1.6-3.5,3.5-3.5l0,0c1.9,0,3.5,1.6,3.5,3.5l0,0c0,1.9-1.6,3.5-3.5,3.5l0,0C481.7,649.2,480.2,647.6,480.2,645.7z"/>
			</g>
			
				<line fill="none" stroke="#FAAE24" stroke-width="7" stroke-linecap="round" stroke-miterlimit="10" x1="534.4" y1="645.7" x2="534.4" y2="645.7"/>
			<g>
				<polygon fill="#FAAE24" points="529.3,663.1 559.5,645.7 529.3,628.2 				"/>
			</g>
		</g>
	</g>
	<g>
		<path fill="#DC7676" d="M652.1,614.4h-6.2h-1.8H583c-5.8,0-10.6,4.7-10.6,10.6v11.5v22.5v12.7c0,5.8,4.7,10.6,10.6,10.6h61.1h1.8
			h6.2c5.8,0,10.6-4.7,10.6-10.6v-12.7v-22.5V625C662.6,619.1,657.9,614.4,652.1,614.4z"/>
		<g>
			<path fill="#F8E2D2" d="M597,640.8c2,0,5.4,0.8,5.4,3.1v1.4h-1.9v-0.8c0-1.2-2.1-1.8-3.5-1.8c-2.9,0-5.2,2.2-5.2,5.5
				c0,3.2,2.3,5.7,5.2,5.7c2.9,0,4.6-2,4.6-2l1.1,1.5c0,0-2.1,2.4-5.7,2.4c-4.3,0-7.4-3.3-7.4-7.6C589.8,644,592.9,640.8,597,640.8z
				"/>
			<path fill="#F8E2D2" d="M605.2,643.2c0-0.3-0.2-0.5-0.5-0.5h-0.8V641h2c0.9,0,1.3,0.4,1.3,1.3v11c0,0.3,0.2,0.5,0.5,0.5h0.8v1.7
				h-2c-0.9,0-1.3-0.4-1.3-1.3V643.2z"/>
			<path fill="#F8E2D2" d="M610.8,647.3c0-0.3-0.2-0.5-0.5-0.5h-0.8v-1.7h2c0.9,0,1.3,0.4,1.3,1.3v6.9c0,0.3,0.2,0.5,0.5,0.5h0.8
				v1.7h-2c-0.9,0-1.3-0.4-1.3-1.3V647.3z M610.9,641h1.8v2.1h-1.8V641z"/>
			<path fill="#F8E2D2" d="M620.6,644.9c2.9,0,4.5,2.2,4.5,4.9c0,0.3-0.1,0.8-0.1,0.8h-7.6c0.1,2.2,1.7,3.5,3.6,3.5
				c1.8,0,3-1.2,3-1.2l0.9,1.4c0,0-1.5,1.5-4,1.5c-3.3,0-5.5-2.4-5.5-5.4C615.4,647,617.6,644.9,620.6,644.9z M623,649.1
				c-0.1-1.7-1.2-2.6-2.4-2.6c-1.5,0-2.8,0.9-3.1,2.6H623z"/>
			<path fill="#F8E2D2" d="M627.7,647.3c0-0.3-0.2-0.5-0.5-0.5h-0.8v-1.7h1.9c0.9,0,1.3,0.4,1.3,1.2v0.4c0,0.3,0,0.6,0,0.6h0
				c0.4-0.9,1.6-2.4,3.9-2.4c2.5,0,3.6,1.3,3.6,4v4.5c0,0.3,0.2,0.5,0.5,0.5h0.8v1.7h-2c-0.9,0-1.3-0.4-1.3-1.3v-4.9
				c0-1.5-0.3-2.6-2-2.6c-1.6,0-2.9,1-3.3,2.5c-0.1,0.4-0.2,0.9-0.2,1.4v4.9h-2V647.3z"/>
			<path fill="#F8E2D2" d="M640.6,646.8h-1.4v-1.6h1.4v-2.9h2v2.9h2.5v1.6h-2.5v4.8c0,2.1,1.4,2.3,2.2,2.3c0.3,0,0.5,0,0.5,0v1.8
				c0,0-0.3,0-0.7,0c-1.3,0-4-0.4-4-3.9V646.8z"/>
		</g>
	</g>
	<g>
		<g>
			<path fill="none" stroke="#FAAE24" stroke-width="7" stroke-miterlimit="10" d="M617.5,702.1v40.8c0,8.1-6.6,14.7-14.7,14.7
				H499.6"/>
			<g>
				<polygon fill="#FAAE24" points="504.7,740.2 474.5,757.6 504.7,775.1 				"/>
			</g>
		</g>
	</g>
	<g>
		<g>
			<path fill="none" stroke="#FAAE24" stroke-width="7" stroke-miterlimit="10" d="M473.5,518.8h124.1c8.1,0,14.7,6.6,14.7,14.7
				v41.3"/>
			<g>
				<polygon fill="#FAAE24" points="594.9,569.7 612.3,599.9 629.8,569.7 				"/>
			</g>
		</g>
	</g>
</g>
</svg>
