<?xml version="1.0" encoding="utf-8"?>
<!-- Generator: Adobe Illustrator 19.0.0, SVG Export Plug-In . SVG Version: 6.00 Build 0)  -->
<!DOCTYPE svg PUBLIC "-//W3C//DTD SVG 1.1//EN" "http://www.w3.org/Graphics/SVG/1.1/DTD/svg11.dtd">
<svg version="1.1" xmlns="http://www.w3.org/2000/svg" xmlns:xlink="http://www.w3.org/1999/xlink" x="0px" y="0px"
	 viewBox="0 0 627 357.9" enable-background="new 0 0 627 357.9" xml:space="preserve">
<g id="Layer_7">
	<path fill="#DC7676" d="M423.6,52V22.2c0-5.5-4.4-9.9-9.9-9.9H159.9c-5.5,0-9.9,4.4-9.9,9.9v314.5c0,5.5,4.4,9.9,9.9,9.9h253.9
		c5.5,0,9.9-4.4,9.9-9.9v-17h-11.3v-16.5h0.2v-70.2h11.1v-82.6v-15.8V114h-11.1V52H423.6z"/>
	<g>
		<path fill="#DC7676" stroke="#F8E2D2" stroke-miterlimit="10" d="M22.1,149.5v72c0,5.6,17.2,10.2,38.4,10.2
			c21.2,0,38.4-4.6,38.4-10.2v-72H22.1z"/>
		<ellipse fill="#DC7676" stroke="#F8E2D2" stroke-miterlimit="10" cx="60.4" cy="149.5" rx="38.4" ry="10.2"/>
		<g>
			<path fill="#DC7676" d="M10.2,124.8l-1.4,0.5l-0.7-1.9l6.2-2.2c4.6-1.7,8.7,0,10.5,4.8c1.8,4.8-0.3,8.8-4.9,10.4l-3.4,1.2
				c-1,0.4-1.5,0.1-1.9-0.9L10.2,124.8z M17,135.4l2-0.7c3.4-1.2,4.9-4.1,3.5-7.8c-1.4-3.7-4.3-4.9-7.7-3.7l-2.5,0.9l4,11.1
				C16.4,135.4,16.7,135.5,17,135.4z"/>
			<path fill="#DC7676" d="M34.4,125.5l0.5-0.1l0-0.1c-0.3-2-1.2-2.6-3-2.3c-0.5,0.1-1.9,0.5-1.7,1.2l0.1,0.7l-2.1,0.3l-0.2-1.1
				c-0.3-1.9,2.5-2.6,3.6-2.8c3.7-0.6,5,1.2,5.5,3.7l0.8,4.9c0.1,0.3,0.3,0.5,0.6,0.4l0.9-0.2l0.3,1.9l-2.1,0.3
				c-1,0.2-1.5-0.3-1.6-1.1c-0.1-0.4-0.1-0.7-0.1-0.7l0,0c0,0-0.5,2.4-3.3,2.9c-2,0.3-4.1-0.5-4.5-2.8
				C27.5,126.9,32.4,125.8,34.4,125.5z M32.8,131.6c1.9-0.3,2.7-2.5,2.5-4.2l-0.1-0.4l-0.6,0.1c-1.7,0.3-4.6,0.9-4.3,3
				C30.5,131,31.3,131.8,32.8,131.6z"/>
			<path fill="#DC7676" d="M41,122l-1.5,0.1l-0.2-1.8l1.6-0.1l-0.3-3.2l2.2-0.2L43,120l2.8-0.3l0.2,1.8l-2.8,0.3l0.5,5.3
				c0.2,2.3,1.8,2.5,2.7,2.4c0.3,0,0.5-0.1,0.5-0.1l0.2,2c0,0-0.3,0.1-0.8,0.1c-1.5,0.1-4.5,0-4.8-3.9L41,122z"/>
			<path fill="#DC7676" d="M55.2,123.7l0.5,0l0-0.1c-0.1-2-0.9-2.8-2.7-2.7c-0.6,0-1.9,0.2-1.9,1l0,0.7l-2.1,0.1l0-1.1
				c-0.1-1.9,2.8-2.3,3.9-2.3c3.8-0.1,4.8,1.8,4.9,4.4l0.2,4.9c0,0.3,0.2,0.5,0.5,0.5l0.9,0l0.1,1.9l-2.1,0.1c-1,0-1.5-0.5-1.5-1.3
				c0-0.4,0-0.7,0-0.7l0,0c0,0-0.8,2.3-3.6,2.4c-2,0.1-4-1.1-4.1-3.4C48.2,124.2,53.2,123.8,55.2,123.7z M52.8,129.5
				c1.9-0.1,3-2.1,3-3.8l0-0.4l-0.6,0c-1.7,0.1-4.7,0.3-4.6,2.4C50.6,128.7,51.3,129.6,52.8,129.5z"/>
			<path fill="#DC7676" d="M62.2,117c0-0.3-0.2-0.5-0.5-0.5l-0.9,0l0.1-1.9l2.2,0.1c1,0,1.5,0.5,1.4,1.5l-0.1,3.8c0,0.6-0.1,1-0.1,1
				l0,0c0,0,1.1-1.9,3.8-1.8c3.1,0.1,5,2.7,4.9,6.3c-0.1,3.7-2.4,6-5.5,5.9c-2.6-0.1-3.6-2.1-3.6-2.1l0,0c0,0,0,0.4,0,0.9l0,0.8
				l-2.1-0.1L62.2,117z M67.2,129.4c1.8,0.1,3.4-1.4,3.5-4c0.1-2.5-1.2-4.2-3.2-4.3c-1.7-0.1-3.4,1.1-3.5,4.1
				C64,127.2,65,129.3,67.2,129.4z"/>
			<path fill="#DC7676" d="M81.8,124.9l0.5,0.1l0-0.1c0.2-2-0.4-2.8-2.3-3c-0.5-0.1-1.9-0.1-2,0.7l-0.1,0.7l-2.1-0.2l0.1-1.1
				c0.2-1.9,3.1-1.9,4.2-1.7c3.7,0.4,4.5,2.5,4.3,5L84,130c0,0.3,0.1,0.5,0.4,0.6l0.9,0.1l-0.2,1.9l-2.1-0.2c-1-0.1-1.4-0.7-1.3-1.5
				c0-0.4,0.1-0.7,0.1-0.7l0,0c0,0-1.2,2.2-3.9,1.9c-2-0.2-3.8-1.6-3.5-4C74.8,124.3,79.9,124.6,81.8,124.9z M78.6,130.3
				c1.9,0.2,3.3-1.6,3.5-3.3l0-0.4l-0.6-0.1c-1.7-0.2-4.7-0.4-4.9,1.7C76.6,129.1,77.2,130.1,78.6,130.3z"/>
			<path fill="#DC7676" d="M87.7,129.7c0,0,1,2,3.1,2.4c1.1,0.2,2.1-0.1,2.3-1.1c0.4-2.1-5.9-3.1-5.1-6.8c0.4-2.2,2.6-2.8,4.9-2.3
				c1.4,0.3,3.6,1.2,3.3,3l-0.2,1.1l-2-0.4l0.1-0.6c0.1-0.7-0.8-1.2-1.5-1.3c-1.3-0.3-2.2,0-2.4,0.9c-0.4,2.2,5.9,2.9,5.1,6.8
				c-0.4,2-2.5,3-4.9,2.5c-3-0.6-4.2-2.9-4.2-2.9L87.7,129.7z"/>
			<path fill="#DC7676" d="M105.5,125.4c3.1,1.2,3.8,4.1,2.8,6.9c-0.1,0.3-0.4,0.8-0.4,0.8l-7.9-3c-0.8,2.4,0.4,4.3,2.4,5.1
				c1.9,0.7,3.7-0.1,3.7-0.1l0.3,1.8c0,0-2.2,1-4.8,0c-3.4-1.3-4.9-4.7-3.6-7.9C99.2,125.6,102.4,124.2,105.5,125.4z M106.3,130.8
				c0.6-1.8-0.2-3.2-1.5-3.7c-1.6-0.6-3.2-0.1-4.3,1.6L106.3,130.8z"/>
		</g>
		<path fill="#DC7676" stroke="#F8E2D2" stroke-miterlimit="10" d="M60.4,184.2c-21.2,0-38.4-4.6-38.4-10.2"/>
		<path fill="#DC7676" stroke="#F8E2D2" stroke-miterlimit="10" d="M98.8,174c0,5.6-17.2,10.2-38.4,10.2"/>
		<path fill="#DC7676" stroke="#F8E2D2" stroke-miterlimit="10" d="M60.4,208.7c-21.2,0-38.4-4.6-38.4-10.2"/>
		<path fill="#DC7676" stroke="#F8E2D2" stroke-miterlimit="10" d="M98.8,198.5c0,5.6-17.2,10.2-38.4,10.2"/>
	</g>
	<g>
		<g>
			<path fill="#F8E2D2" d="M266.8,264.7h-36c-4.8,0-8.7-3.9-8.7-8.7v-24c0-4.8,3.9-8.7,8.7-8.7h36c4.8,0,8.7,3.9,8.7,8.7v24
				C275.4,260.8,271.5,264.7,266.8,264.7z"/>
		</g>
		<g>
			<line fill="#F8E2D2" x1="305.9" y1="241.7" x2="275.4" y2="241.7"/>
			<g>
				<line fill="none" stroke="#F8E2D2" stroke-width="4" stroke-miterlimit="10" x1="305.9" y1="241.7" x2="289.8" y2="241.7"/>
				<g>
					<polygon fill="#F8E2D2" points="292.7,231.7 275.4,241.7 292.7,251.7 					"/>
				</g>
			</g>
		</g>
		<g>
			<path fill="#F8E2D2" d="M350.6,264.7h-36c-4.8,0-8.7-3.9-8.7-8.7v-24c0-4.8,3.9-8.7,8.7-8.7h36c4.8,0,8.7,3.9,8.7,8.7v24
				C359.3,260.8,355.4,264.7,350.6,264.7z"/>
		</g>
		<g>
			<line fill="#F8E2D2" x1="332.6" y1="290.2" x2="332.6" y2="264.2"/>
			<g>
				<line fill="none" stroke="#F8E2D2" stroke-width="4" stroke-miterlimit="10" x1="332.6" y1="290.2" x2="332.6" y2="278.5"/>
				<g>
					<polygon fill="#F8E2D2" points="342.6,281.4 332.6,264.2 322.6,281.4 					"/>
				</g>
			</g>
		</g>
		<g>
			<path fill="#F8E2D2" d="M350.6,331.5h-36c-4.8,0-8.7-3.9-8.7-8.7v-24c0-4.8,3.9-8.7,8.7-8.7h36c4.8,0,8.7,3.9,8.7,8.7v24
				C359.3,327.7,355.4,331.5,350.6,331.5z"/>
		</g>
		<g>
			<g>
				<path fill="#F8E2D2" d="M227,203.7c-0.1-0.4-0.4-0.5-0.8-0.5h-0.4v-2.1h1.4c1.2,0,1.8,0.2,2.1,1.4l2.6,10.9
					c0.2,0.9,0.3,1.8,0.3,1.8h0c0,0,0.1-0.9,0.4-1.8l3.4-12.2h2.2l3.2,12.2c0.2,0.9,0.4,1.8,0.4,1.8h0c0,0,0.1-0.9,0.3-1.8l2.7-10.9
					c0.3-1.2,0.9-1.4,2.1-1.4h1.4v2.1h-0.4c-0.4,0-0.7,0.1-0.8,0.5l-3.7,14.4h-2.8l-2.9-10.7c-0.3-1.1-0.5-2.3-0.5-2.3h0
					c0,0-0.2,1.2-0.6,2.3l-3.1,10.7h-2.8L227,203.7z"/>
			</g>
			<g>
				<path fill="#F8E2D2" d="M250.2,208.4c0-0.4-0.2-0.5-0.5-0.5h-1v-2h2.2c1.1,0,1.6,0.4,1.6,1.4v0.8c0,0.5,0,0.8,0,0.8h0
					c0.6-1.8,2-3.2,3.8-3.2c0.3,0,0.6,0,0.6,0v2.3c0,0-0.3-0.1-0.7-0.1c-1.5,0-2.9,1.1-3.4,2.9c-0.2,0.7-0.3,1.4-0.3,2.2v5h-2.3
					V208.4z"/>
			</g>
			<g>
				<path fill="#F8E2D2" d="M259.6,208.4c0-0.4-0.2-0.5-0.5-0.5h-1v-2h2.3c1.1,0,1.5,0.5,1.5,1.5v8.1c0,0.4,0.2,0.5,0.5,0.5h1v2
					h-2.3c-1.1,0-1.5-0.5-1.5-1.5V208.4z M259.7,201.1h2.1v2.4h-2.1V201.1z"/>
			</g>
			<g>
				<path fill="#F8E2D2" d="M266.2,207.7h-1.6v-1.9h1.6v-3.3h2.3v3.3h2.9v1.9h-2.9v5.6c0,2.4,1.7,2.7,2.6,2.7c0.3,0,0.6,0,0.6,0v2.1
					c0,0-0.3,0-0.8,0c-1.5,0-4.6-0.5-4.6-4.5V207.7z"/>
			</g>
			<g>
				<path fill="#F8E2D2" d="M279.3,205.6c3.4,0,5.2,2.5,5.2,5.7c0,0.3-0.1,1-0.1,1h-8.9c0.1,2.6,2,4.1,4.2,4.1
					c2.1,0,3.6-1.4,3.6-1.4l1,1.7c0,0-1.8,1.8-4.7,1.8c-3.8,0-6.5-2.8-6.5-6.4C273.2,208.1,275.8,205.6,279.3,205.6z M282.1,210.5
					c-0.1-2-1.3-3.1-2.9-3.1c-1.8,0-3.2,1.1-3.6,3.1H282.1z"/>
			</g>
			<g>
				<path fill="#F8E2D2" d="M292.5,215.9h0.8c0.3,0,0.5-0.2,0.5-0.5l1.2-14.4h2.5l4,9c0.4,0.9,0.8,2.1,0.8,2.1h0
					c0,0,0.4-1.2,0.8-2.1l4-9h2.5l1.2,14.4c0,0.3,0.2,0.5,0.5,0.5h0.8v2.1H310c-1.1,0-1.5-0.5-1.5-1.5l-0.7-9c-0.1-1,0-2.5,0-2.5h0
					c0,0-0.5,1.6-0.9,2.5l-3.4,7.4h-2l-3.4-7.4c-0.4-0.9-0.9-2.5-0.9-2.5h0c0,0,0,1.5,0,2.5l-0.7,9c-0.1,1.1-0.5,1.5-1.6,1.5h-2.1
					V215.9z"/>
			</g>
			<g>
				<path fill="#F8E2D2" d="M320,205.6c3.6,0,6.6,2.7,6.6,6.3c0,3.7-2.9,6.4-6.6,6.4s-6.5-2.7-6.5-6.4
					C313.4,208.2,316.3,205.6,320,205.6z M320,216.3c2.3,0,4.2-1.8,4.2-4.4c0-2.5-1.9-4.3-4.2-4.3c-2.3,0-4.2,1.8-4.2,4.3
					C315.8,214.5,317.7,216.3,320,216.3z"/>
			</g>
			<g>
				<path fill="#F8E2D2" d="M333.8,205.6c2.8,0,3.7,1.9,3.7,1.9h0c0,0,0-0.4,0-0.8v-3c0-0.4-0.2-0.5-0.5-0.5h-1v-2h2.3
					c1.1,0,1.5,0.5,1.5,1.5v12.9c0,0.4,0.2,0.5,0.5,0.5h1v2h-2.2c-1.1,0-1.5-0.5-1.5-1.3c0-0.4,0-0.6,0-0.6h0c0,0-1,2.2-4,2.2
					c-3.3,0-5.4-2.6-5.4-6.4C328.3,208.1,330.5,205.6,333.8,205.6z M337.6,211.9c0-2.2-1.1-4.3-3.5-4.3c-1.9,0-3.5,1.6-3.5,4.3
					c0,2.6,1.4,4.3,3.4,4.3C335.9,216.3,337.6,215,337.6,211.9z"/>
			</g>
			<g>
				<path fill="#F8E2D2" d="M348.9,205.6c3.4,0,5.2,2.5,5.2,5.7c0,0.3-0.1,1-0.1,1h-8.9c0.1,2.6,2,4.1,4.2,4.1
					c2.1,0,3.6-1.4,3.6-1.4l1,1.7c0,0-1.8,1.8-4.7,1.8c-3.8,0-6.5-2.8-6.5-6.4C342.8,208.1,345.4,205.6,348.9,205.6z M351.7,210.5
					c-0.1-2-1.3-3.1-2.9-3.1c-1.8,0-3.2,1.1-3.6,3.1H351.7z"/>
			</g>
			<g>
				<path fill="#F8E2D2" d="M357.1,203.6c0-0.4-0.2-0.5-0.5-0.5h-1v-2h2.3c1.1,0,1.5,0.5,1.5,1.5v12.9c0,0.4,0.2,0.5,0.5,0.5h1v2
					h-2.3c-1.1,0-1.5-0.5-1.5-1.5V203.6z"/>
			</g>
		</g>
	</g>
	<g>
		<g>
			<path fill="#F8E2D2" d="M267.5,93.3h-36c-4.8,0-8.7-3.9-8.7-8.7v-24c0-4.8,3.9-8.7,8.7-8.7h36c4.8,0,8.7,3.9,8.7,8.7v24
				C276.2,89.4,272.3,93.3,267.5,93.3z"/>
		</g>
		<g>
			<line fill="#F8E2D2" x1="288" y1="138.9" x2="264" y2="93.3"/>
			<g>
				<line fill="none" stroke="#F8E2D2" stroke-width="4" stroke-miterlimit="10" x1="288" y1="138.9" x2="270.7" y2="106"/>
				<g>
					<polygon fill="#F8E2D2" points="280.9,104 264,93.3 263.2,113.3 					"/>
				</g>
			</g>
		</g>
		<g>
			<path fill="#F8E2D2" d="M348.7,93.3h-36c-4.8,0-8.7-3.9-8.7-8.7v-24c0-4.8,3.9-8.7,8.7-8.7h36c4.8,0,8.7,3.9,8.7,8.7v24
				C357.3,89.4,353.5,93.3,348.7,93.3z"/>
		</g>
		<g>
			<line fill="#F8E2D2" x1="300.5" y1="132.8" x2="318.8" y2="93.3"/>
			<g>
				<line fill="none" stroke="#F8E2D2" stroke-width="4" stroke-miterlimit="10" x1="300.5" y1="132.8" x2="312.8" y2="106.3"/>
				<g>
					<polygon fill="#F8E2D2" points="320.6,113.2 318.8,93.3 302.5,104.8 					"/>
				</g>
			</g>
		</g>
		<g>
			<path fill="#F8E2D2" d="M308.7,163.3h-36c-4.8,0-8.7-3.9-8.7-8.7v-24c0-4.8,3.9-8.7,8.7-8.7h36c4.8,0,8.7,3.9,8.7,8.7v24
				C317.3,159.5,313.5,163.3,308.7,163.3z"/>
		</g>
		<g>
			<g>
				<path fill="#F8E2D2" d="M227.2,27.9c4.9,0,8.7,3.8,8.7,8.7c0,2.1-0.8,4.1-2,5.6l1.9,1.9l-1.4,1.5l-1.9-1.9
					c-1.5,1.2-3.3,1.8-5.3,1.8c-4.9,0-8.7-3.9-8.7-8.9C218.5,31.7,222.3,27.9,227.2,27.9z M227.2,43.2c2.2,0,3.6-1.2,3.6-1.2
					l-1.9-1.8l1.4-1.6l1.8,1.9c0.8-1.1,1.2-2.5,1.2-3.9c0-3.7-2.7-6.4-6.2-6.4c-3.5,0-6.2,2.7-6.2,6.4
					C221,40.3,223.7,43.2,227.2,43.2z"/>
			</g>
			<g>
				<path fill="#F8E2D2" d="M238.9,35.5c0-0.4-0.2-0.5-0.5-0.5h-1v-2h2.3c1.1,0,1.6,0.5,1.6,1.5v5.8c0,1.7,0.3,3,2.3,3
					c2.5,0,4-2.2,4-4.6V33h2.3v9.6c0,0.4,0.2,0.5,0.5,0.5h1v2H249c-1,0-1.5-0.5-1.5-1.3v-0.5c0-0.4,0-0.7,0-0.7h0
					c-0.5,1.2-2.1,2.8-4.5,2.8c-2.7,0-4.1-1.4-4.1-4.7V35.5z"/>
			</g>
			<g>
				<path fill="#F8E2D2" d="M258.7,32.7c3.4,0,5.2,2.5,5.2,5.7c0,0.3-0.1,1-0.1,1H255c0.1,2.6,2,4.1,4.2,4.1c2.1,0,3.6-1.4,3.6-1.4
					l1,1.7c0,0-1.8,1.8-4.7,1.8c-3.8,0-6.5-2.8-6.5-6.4C252.6,35.2,255.3,32.7,258.7,32.7z M261.6,37.6c-0.1-2-1.3-3.1-2.9-3.1
					c-1.8,0-3.2,1.1-3.6,3.1H261.6z"/>
			</g>
			<g>
				<path fill="#F8E2D2" d="M267.1,35.5c0-0.4-0.2-0.5-0.5-0.5h-1v-2h2.2c1.1,0,1.6,0.4,1.6,1.4v0.8c0,0.5,0,0.8,0,0.8h0
					c0.6-1.8,2-3.2,3.8-3.2c0.3,0,0.6,0,0.6,0v2.3c0,0-0.3-0.1-0.7-0.1c-1.5,0-2.9,1.1-3.4,2.9c-0.2,0.7-0.3,1.4-0.3,2.2v5h-2.3
					V35.5z"/>
			</g>
			<g>
				<path fill="#F8E2D2" d="M277.5,48.2c0.9,0,1.7-0.7,2.1-1.8l0.6-1.3l-4.2-9.6c-0.2-0.4-0.4-0.5-0.8-0.5H275v-2h1.4
					c1,0,1.3,0.3,1.7,1.2l2.8,6.8c0.2,0.6,0.4,1.5,0.4,1.5h0c0,0,0.2-0.8,0.4-1.5l2.5-6.8c0.4-1,0.8-1.2,1.8-1.2h1.4v2h-0.3
					c-0.4,0-0.6,0.1-0.8,0.5l-4.8,11.9c-0.7,1.9-2.2,2.9-3.9,2.9c-1.8,0-2.9-1.2-2.9-1.2l1-1.7C275.7,47.3,276.5,48.2,277.5,48.2z"
					/>
			</g>
			<g>
				<path fill="#F8E2D2" d="M294.7,43.1h0.8c0.3,0,0.5-0.2,0.5-0.5l1.2-14.4h2.5l4,9c0.4,0.9,0.8,2.1,0.8,2.1h0c0,0,0.4-1.2,0.8-2.1
					l4-9h2.5l1.2,14.4c0,0.3,0.2,0.5,0.5,0.5h0.8v2.1h-2.1c-1.1,0-1.5-0.5-1.5-1.5l-0.7-9c-0.1-1,0-2.5,0-2.5h0c0,0-0.5,1.6-0.9,2.5
					l-3.4,7.4h-2l-3.4-7.4c-0.4-0.9-0.9-2.5-0.9-2.5h0c0,0,0,1.5,0,2.5l-0.7,9c-0.1,1.1-0.5,1.5-1.6,1.5h-2.1V43.1z"/>
			</g>
			<g>
				<path fill="#F8E2D2" d="M322.1,32.7c3.6,0,6.6,2.7,6.6,6.3c0,3.7-2.9,6.4-6.6,6.4s-6.5-2.7-6.5-6.4
					C315.6,35.4,318.5,32.7,322.1,32.7z M322.1,43.4c2.3,0,4.2-1.8,4.2-4.4c0-2.5-1.9-4.3-4.2-4.3c-2.3,0-4.2,1.8-4.2,4.3
					C318,41.6,319.9,43.4,322.1,43.4z"/>
			</g>
			<g>
				<path fill="#F8E2D2" d="M336,32.7c2.8,0,3.7,1.9,3.7,1.9h0c0,0,0-0.4,0-0.8v-3c0-0.4-0.2-0.5-0.5-0.5h-1v-2h2.3
					c1.1,0,1.5,0.5,1.5,1.5v12.9c0,0.4,0.2,0.5,0.5,0.5h1v2h-2.2c-1.1,0-1.5-0.5-1.5-1.3c0-0.4,0-0.6,0-0.6h0c0,0-1,2.2-4,2.2
					c-3.3,0-5.4-2.6-5.4-6.4C330.5,35.2,332.7,32.7,336,32.7z M339.8,39c0-2.2-1.1-4.3-3.5-4.3c-1.9,0-3.5,1.6-3.5,4.3
					c0,2.6,1.4,4.3,3.4,4.3C338.1,43.4,339.8,42.1,339.8,39z"/>
			</g>
			<g>
				<path fill="#F8E2D2" d="M351,32.7c3.4,0,5.2,2.5,5.2,5.7c0,0.3-0.1,1-0.1,1h-8.9c0.1,2.6,2,4.1,4.2,4.1c2.1,0,3.6-1.4,3.6-1.4
					l1,1.7c0,0-1.8,1.8-4.7,1.8c-3.8,0-6.5-2.8-6.5-6.4C344.9,35.2,347.6,32.7,351,32.7z M353.9,37.6c-0.1-2-1.3-3.1-2.9-3.1
					c-1.8,0-3.2,1.1-3.6,3.1H353.9z"/>
			</g>
			<g>
				<path fill="#F8E2D2" d="M359.3,30.7c0-0.4-0.2-0.5-0.5-0.5h-1v-2h2.3c1.1,0,1.5,0.5,1.5,1.5v12.9c0,0.4,0.2,0.5,0.5,0.5h1v2
					h-2.3c-1.1,0-1.5-0.5-1.5-1.5V30.7z"/>
			</g>
		</g>
	</g>
	<g>
		<path fill="#FAAE24" d="M424.6,279c0.8,0,1.6-0.6,1.6-1.9c0-1.6-1.7-2.7-3.2-2.7h-0.3v0.5C422.7,276.3,422.7,279,424.6,279z"/>
		<path fill="#FAAE24" d="M418.9,252.1c0,1.9,1.5,3.5,3.6,3.5c2.1,0,3.6-1.6,3.6-3.5c0-1.9-1.5-3.5-3.6-3.5
			C420.4,248.7,418.9,250.2,418.9,252.1z"/>
		<path fill="#FAAE24" d="M407.2,233.1v86.9c0,3.3,2.7,5.9,5.9,5.9h16.5c3.3,0,5.9-2.7,5.9-5.9v-86.9c0-3.3-2.7-5.9-5.9-5.9h-16.5
			C409.9,227.2,407.2,229.9,407.2,233.1z M413.4,261.9v-1.7h2v1.7H413.4z M427.5,301.4v1.9c0,0.9-0.4,1.3-1.3,1.3h-4.8
			c-1.4,0-2.5,0.3-2.5,1.8c0,1.4,1.2,2.5,2.6,2.8c0.4,0.1,0.9,0.2,1.4,0.2h4.6v1.9h-6c-1.3,0-2.5,0.2-2.5,1.7c0,1.5,1.2,2.5,2.7,2.9
			c0.4,0.1,0.8,0.1,1.3,0.1h4.6v1.9h-8c-0.3,0-0.4,0.2-0.4,0.4v0.8h-1.7v-1.9c0-0.9,0.4-1.3,1.1-1.3h0.4c0.3,0,0.6,0,0.6,0v0
			c-1.2-0.5-2.3-1.9-2.3-3.5c0-1.7,0.8-2.7,2.3-3v0c-1.2-0.6-2.3-2-2.3-3.6c0-2.3,1.3-3.3,3.9-3.3h4.4c0.3,0,0.4-0.2,0.4-0.4v-0.8
			H427.5z M427.5,289v1.9c0,0.9-0.4,1.3-1.1,1.3H426c-0.3,0-0.6,0-0.6,0v0c1,0.4,2.3,1.7,2.3,3.7c0,2.3-1.2,3.4-3.9,3.4h-4.4
			c-0.3,0-0.4,0.2-0.4,0.4v0.8h-1.7v-1.9c0-0.9,0.4-1.3,1.2-1.3h4.8c1.4,0,2.5-0.3,2.5-1.9c0-2.1-1.8-3.3-3.8-3.3h-4.7v-1.9h8
			c0.3,0,0.4-0.2,0.4-0.4V289H427.5z M427.6,282.3c0,0,0,0.3,0,0.7c0,1.3-0.4,3.9-3.8,3.9H419v1.3h-1.6v-1.4h-2.8v-1.9h2.8v-2.4h1.6
			v2.4h4.6c2,0,2.3-1.4,2.3-2.1c0-0.3,0-0.5,0-0.5H427.6z M427.5,271.2v1.8c0,0.9-0.4,1.3-1.2,1.3c-0.3,0-0.6,0-0.6,0v0
			c0,0,2,0.8,2,3.2c0,1.7-1.1,3.4-3.1,3.4c-3.3,0-3.5-4.4-3.5-6.1v-0.4h-0.1c-1.8,0-2.4,0.7-2.4,2.2c0,0.5,0.1,1.7,0.8,1.7h0.6v1.8
			h-1c-1.7,0-1.9-2.5-1.9-3.5c0-3.3,1.7-4.2,4-4.2h4.3c0.3,0,0.4-0.2,0.4-0.4v-0.8H427.5z M427.6,264.5c0,0,0,0.3,0,0.7
			c0,1.3-0.4,3.9-3.8,3.9H419v1.3h-1.6V269h-2.8v-1.9h2.8v-2.4h1.6v2.4h4.6c2,0,2.3-1.4,2.3-2.1c0-0.3,0-0.5,0-0.5H427.6z
			 M427.5,258.8v1.9c0,0.9-0.4,1.3-1.3,1.3h-6.7c-0.3,0-0.4,0.2-0.4,0.4v0.8h-1.7v-1.9c0-0.9,0.4-1.3,1.3-1.3h6.7
			c0.3,0,0.4-0.2,0.4-0.4v-0.8H427.5z M427.8,252.1c0,3-2.2,5.4-5.3,5.4c-3.1,0-5.3-2.4-5.3-5.4c0-3,2.2-5.4,5.3-5.4
			C425.5,246.7,427.8,249.1,427.8,252.1z M427.5,233.9v1.9c0,0.9-0.4,1.3-1.3,1.3h-4.8c-1.4,0-2.5,0.3-2.5,1.9c0,1.6,1,2.8,2.5,3.2
			c0.4,0.1,0.9,0.2,1.4,0.2h4.7v1.9h-8c-0.3,0-0.4,0.2-0.4,0.4v0.8h-1.7v-1.9c0-0.9,0.4-1.3,1.1-1.3h0.4c0.3,0,0.6,0,0.6,0v0
			c-0.9-0.4-2.3-1.6-2.3-3.8c0-2.4,1.3-3.5,3.9-3.5h4.4c0.3,0,0.4-0.2,0.4-0.4v-0.8H427.5z"/>
	</g>
	<g>
		<path fill="#FAAE24" d="M418.3,79.3c0,1.5,0.9,2.7,2.6,3V77C419.2,77,418.3,78.1,418.3,79.3z"/>
		<path fill="#FAAE24" d="M418.4,103.9c0,1.6,1.3,2.9,3.6,2.9c2.2,0,3.6-1.2,3.6-2.9c0-1.5-1.1-2.9-3.6-2.9
			C420.2,101.1,418.4,102,418.4,103.9z"/>
		<path fill="#FAAE24" d="M406.8,54.6v55.5c0,3.3,2.7,5.9,5.9,5.9h16.5c3.3,0,5.9-2.7,5.9-5.9V54.6c0-3.3-2.7-5.9-5.9-5.9h-16.5
			C409.5,48.7,406.8,51.4,406.8,54.6z M418.6,97.9v0.8c0,0.3,0.1,0.4,0.4,0.4h12v1.9h-4.6c-0.5,0-0.9,0-0.9,0v0c0,0,1.7,0.9,1.7,3.3
			c0,2.7-2.2,4.4-5.3,4.4c-3.2,0-5.3-1.9-5.3-4.6c0-2.4,1.7-3.3,1.7-3.3v0c0,0-0.2,0-0.5,0c-0.6,0-1-0.4-1-1.2v-1.8H418.6z
			 M427.1,85.6v1.9c0,0.9-0.4,1.3-1.1,1.3h-0.4c-0.3,0-0.6,0-0.6,0v0c1,0.4,2.3,1.7,2.3,3.7c0,2.3-1.2,3.4-3.9,3.4h-4.4
			c-0.3,0-0.4,0.2-0.4,0.4v0.8H417v-1.9c0-0.9,0.4-1.3,1.2-1.3h4.8c1.4,0,2.5-0.3,2.5-1.9c0-2.1-1.8-3.3-3.8-3.3H417v-1.9h8
			c0.3,0,0.4-0.2,0.4-0.4v-0.8H427.1z M422.3,75v7.4c2.2-0.1,3.4-1.7,3.4-3.5c0-1.7-1.2-3-1.2-3l1.4-0.8c0,0,1.5,1.5,1.5,3.9
			c0,3.2-2.3,5.4-5.3,5.4c-3.2,0-5.3-2.2-5.3-5.1c0-2.8,2.1-4.4,4.7-4.4C421.7,75,422.3,75,422.3,75z M418.8,66.8
			c0,0-0.1,0.3-0.1,0.6c0,1.2,0.9,2.4,2.4,2.8c0.6,0.2,1.2,0.2,1.8,0.2h4.1v1.9h-8c-0.3,0-0.4,0.2-0.4,0.4v0.8H417v-1.8
			c0-0.9,0.4-1.3,1.2-1.3h0.6c0.4,0,0.7,0,0.7,0v0c-1.5-0.5-2.6-1.6-2.6-3.2c0-0.3,0-0.5,0-0.5H418.8z M418.6,55.5v0.3
			c0,0.3,0.1,0.5,0.4,0.6l9.9,4c1.6,0.6,2.4,1.8,2.4,3.3c0,1.5-1,2.4-1,2.4l-1.4-0.8c0,0,0.7-0.6,0.7-1.5c0-0.8-0.6-1.4-1.5-1.8
			l-1.1-0.5l-8,3.5c-0.3,0.1-0.4,0.3-0.4,0.6v0.2H417v-1.1c0-0.8,0.2-1.1,1-1.4l5.7-2.3c0.5-0.2,1.2-0.4,1.2-0.4v0
			c0,0-0.7-0.1-1.2-0.3l-5.7-2.1c-0.8-0.3-1-0.7-1-1.5v-1.2H418.6z"/>
	</g>
	<g>
		<path fill="#DC7676" d="M604.8,151h-6.2h-1.8h-61.1c-5.8,0-10.6,4.7-10.6,10.6v11.5v22.5v12.7c0,5.8,4.7,10.6,10.6,10.6h61.1h1.8
			h6.2c5.8,0,10.6-4.7,10.6-10.6v-12.7v-22.5v-11.5C615.3,155.8,610.6,151,604.8,151z"/>
		<g>
			<path fill="#F8E2D2" d="M549.7,177.4c2,0,5.4,0.8,5.4,3.1v1.4h-1.9v-0.8c0-1.2-2.1-1.8-3.5-1.8c-2.9,0-5.2,2.2-5.2,5.5
				c0,3.2,2.3,5.7,5.2,5.7c2.9,0,4.6-2,4.6-2l1.1,1.5c0,0-2.1,2.4-5.7,2.4c-4.3,0-7.4-3.3-7.4-7.6
				C542.5,180.6,545.6,177.4,549.7,177.4z"/>
			<path fill="#F8E2D2" d="M557.9,179.8c0-0.3-0.2-0.5-0.5-0.5h-0.8v-1.7h2c0.9,0,1.3,0.4,1.3,1.3v11c0,0.3,0.2,0.5,0.5,0.5h0.8v1.7
				h-2c-0.9,0-1.3-0.4-1.3-1.3V179.8z"/>
			<path fill="#F8E2D2" d="M563.5,183.9c0-0.3-0.2-0.5-0.5-0.5h-0.8v-1.7h2c0.9,0,1.3,0.4,1.3,1.3v6.9c0,0.3,0.2,0.5,0.5,0.5h0.8
				v1.7h-2c-0.9,0-1.3-0.4-1.3-1.3V183.9z M563.6,177.7h1.8v2.1h-1.8V177.7z"/>
			<path fill="#F8E2D2" d="M573.3,181.5c2.9,0,4.5,2.2,4.5,4.9c0,0.3-0.1,0.8-0.1,0.8h-7.6c0.1,2.2,1.7,3.5,3.6,3.5
				c1.8,0,3-1.2,3-1.2l0.9,1.4c0,0-1.5,1.5-4,1.5c-3.3,0-5.5-2.4-5.5-5.4C568.1,183.7,570.3,181.5,573.3,181.5z M575.7,185.8
				c-0.1-1.7-1.2-2.6-2.4-2.6c-1.5,0-2.8,0.9-3.1,2.6H575.7z"/>
			<path fill="#F8E2D2" d="M580.4,183.9c0-0.3-0.2-0.5-0.5-0.5h-0.8v-1.7h1.9c0.9,0,1.3,0.4,1.3,1.2v0.4c0,0.3,0,0.6,0,0.6h0
				c0.4-0.9,1.6-2.4,3.9-2.4c2.5,0,3.6,1.3,3.6,4v4.5c0,0.3,0.2,0.5,0.5,0.5h0.8v1.7h-2c-0.9,0-1.3-0.4-1.3-1.3V186
				c0-1.5-0.3-2.6-2-2.6c-1.6,0-2.9,1-3.3,2.5c-0.1,0.4-0.2,0.9-0.2,1.4v4.9h-2V183.9z"/>
			<path fill="#F8E2D2" d="M593.3,183.4H592v-1.6h1.4v-2.9h2v2.9h2.5v1.6h-2.5v4.8c0,2.1,1.4,2.3,2.2,2.3c0.3,0,0.5,0,0.5,0v1.8
				c0,0-0.3,0-0.7,0c-1.3,0-4-0.4-4-3.9V183.4z"/>
		</g>
	</g>
	<g>
		<g>
			<path fill="none" stroke="#FAAE24" stroke-width="7" stroke-miterlimit="10" d="M196.5,291.1H75.3c-8.1,0-14.7-6.6-14.7-14.7
				v-7.6"/>
			<g>
				<polygon fill="#FAAE24" points="78.1,274 60.6,243.7 43.2,274 				"/>
			</g>
		</g>
	</g>
	<g>
		<g>
			<path fill="none" stroke="#FAAE24" stroke-width="7" stroke-miterlimit="10" d="M60.6,103.9V79.6c0-8.1,6.6-14.7,14.7-14.7h103.2
				"/>
			<g>
				<polygon fill="#FAAE24" points="173.4,82.4 203.6,64.9 173.4,47.4 				"/>
			</g>
		</g>
	</g>
	<g>
		<path fill="none" d="M-101.5,182.9"/>
	</g>
	<g>
		<g>
			<path fill="none" stroke="#FAAE24" stroke-width="7" stroke-miterlimit="10" d="M570.2,242.5v24.3c0,8.1-6.6,14.7-14.7,14.7
				h-79.2"/>
			<g>
				<polygon fill="#FAAE24" points="481.4,264 451.2,281.4 481.4,298.9 				"/>
			</g>
		</g>
	</g>
	<g>
		<g>
			<path fill="none" stroke="#FAAE24" stroke-width="7" stroke-miterlimit="10" d="M451.2,83.2h99.2c8.1,0,14.7,6.6,14.7,14.7v7.6"
				/>
			<g>
				<polygon fill="#FAAE24" points="547.6,100.3 565,130.5 582.5,100.3 				"/>
			</g>
		</g>
	</g>
</g>
<g id="Layer_8">
	<path fill="#DC7676" d="M426.5,498.3v-29.8c0-5.5-4.4-9.9-9.9-9.9H162.7c-5.5,0-9.9,4.4-9.9,9.9v314.5c0,5.5,4.4,9.9,9.9,9.9h253.9
		c5.5,0,9.9-4.4,9.9-9.9v-17h-11.3v-16.5h0.2v-70.2h11.1v-82.6V581v-20.6h-11.1v-62H426.5z"/>
	<g>
		<path fill="#FAAE24" d="M427.4,725.3c0.8,0,1.6-0.6,1.6-1.9c0-1.6-1.7-2.7-3.2-2.7h-0.3v0.5C425.5,722.6,425.6,725.3,427.4,725.3z
			"/>
		<path fill="#FAAE24" d="M421.7,698.4c0,1.9,1.5,3.5,3.6,3.5c2.1,0,3.6-1.6,3.6-3.5c0-1.9-1.5-3.5-3.6-3.5
			C423.2,695,421.7,696.5,421.7,698.4z"/>
		<path fill="#FAAE24" d="M410.1,679.4v86.9c0,3.3,2.7,5.9,5.9,5.9h16.5c3.3,0,5.9-2.7,5.9-5.9v-86.9c0-3.3-2.7-5.9-5.9-5.9H416
			C412.7,673.5,410.1,676.2,410.1,679.4z M416.3,708.2v-1.7h2v1.7H416.3z M430.4,747.7v1.9c0,0.9-0.4,1.3-1.3,1.3h-4.8
			c-1.4,0-2.5,0.3-2.5,1.8c0,1.4,1.2,2.5,2.6,2.8c0.4,0.1,0.9,0.2,1.4,0.2h4.6v1.9h-6c-1.3,0-2.5,0.2-2.5,1.7c0,1.5,1.2,2.5,2.7,2.9
			c0.4,0.1,0.8,0.1,1.3,0.1h4.6v1.9h-8c-0.3,0-0.4,0.2-0.4,0.4v0.8h-1.7v-1.9c0-0.9,0.4-1.3,1.1-1.3h0.4c0.3,0,0.6,0,0.6,0v0
			c-1.2-0.5-2.3-1.9-2.3-3.5c0-1.7,0.8-2.7,2.3-3v0c-1.2-0.6-2.3-2-2.3-3.6c0-2.3,1.3-3.3,3.9-3.3h4.4c0.3,0,0.4-0.2,0.4-0.4v-0.8
			H430.4z M430.4,735.3v1.9c0,0.9-0.4,1.3-1.1,1.3h-0.4c-0.3,0-0.6,0-0.6,0v0c1,0.4,2.3,1.7,2.3,3.7c0,2.3-1.2,3.4-3.9,3.4h-4.4
			c-0.3,0-0.4,0.2-0.4,0.4v0.8h-1.7V745c0-0.9,0.4-1.3,1.2-1.3h4.8c1.4,0,2.5-0.3,2.5-1.9c0-2.1-1.8-3.3-3.8-3.3h-4.7v-1.9h8
			c0.3,0,0.4-0.2,0.4-0.4v-0.8H430.4z M430.4,728.6c0,0,0,0.3,0,0.7c0,1.3-0.4,3.9-3.8,3.9h-4.8v1.3h-1.6v-1.4h-2.8v-1.9h2.8v-2.4
			h1.6v2.4h4.6c2,0,2.3-1.4,2.3-2.1c0-0.3,0-0.5,0-0.5H430.4z M430.4,717.5v1.8c0,0.9-0.4,1.3-1.2,1.3c-0.3,0-0.6,0-0.6,0v0
			c0,0,2,0.8,2,3.2c0,1.7-1.1,3.4-3.1,3.4c-3.3,0-3.5-4.4-3.5-6.1v-0.4H424c-1.8,0-2.4,0.7-2.4,2.2c0,0.5,0.1,1.7,0.8,1.7h0.6v1.8
			h-1c-1.7,0-1.9-2.5-1.9-3.5c0-3.3,1.7-4.2,4-4.2h4.3c0.3,0,0.4-0.2,0.4-0.4v-0.8H430.4z M430.4,710.8c0,0,0,0.3,0,0.7
			c0,1.3-0.4,3.9-3.8,3.9h-4.8v1.3h-1.6v-1.4h-2.8v-1.9h2.8V711h1.6v2.4h4.6c2,0,2.3-1.4,2.3-2.1c0-0.3,0-0.5,0-0.5H430.4z
			 M430.4,705.1v1.9c0,0.9-0.4,1.3-1.3,1.3h-6.7c-0.3,0-0.4,0.2-0.4,0.4v0.8h-1.7v-1.9c0-0.9,0.4-1.3,1.3-1.3h6.7
			c0.3,0,0.4-0.2,0.4-0.4v-0.8H430.4z M430.6,698.4c0,3-2.2,5.4-5.3,5.4c-3.1,0-5.3-2.4-5.3-5.4c0-3,2.2-5.4,5.3-5.4
			C428.4,693,430.6,695.4,430.6,698.4z M430.4,680.2v1.9c0,0.9-0.4,1.3-1.3,1.3h-4.8c-1.4,0-2.5,0.3-2.5,1.9c0,1.6,1,2.8,2.5,3.2
			c0.4,0.1,0.9,0.2,1.4,0.2h4.7v1.9h-8c-0.3,0-0.4,0.2-0.4,0.4v0.8h-1.7V690c0-0.9,0.4-1.3,1.1-1.3h0.4c0.3,0,0.6,0,0.6,0v0
			c-0.9-0.4-2.3-1.6-2.3-3.8c0-2.4,1.3-3.5,3.9-3.5h4.4c0.3,0,0.4-0.2,0.4-0.4v-0.8H430.4z"/>
	</g>
	<g>
		<path fill="#FAAE24" d="M421.1,525.6c0,1.5,0.9,2.7,2.6,3v-5.3C422,523.3,421.1,524.4,421.1,525.6z"/>
		<path fill="#FAAE24" d="M421.3,550.2c0,1.6,1.3,2.9,3.6,2.9c2.2,0,3.6-1.2,3.6-2.9c0-1.5-1.1-2.9-3.6-2.9
			C423.1,547.4,421.3,548.3,421.3,550.2z"/>
		<path fill="#FAAE24" d="M409.6,500.9v55.5c0,3.3,2.7,5.9,5.9,5.9H432c3.3,0,5.9-2.7,5.9-5.9v-55.5c0-3.3-2.7-5.9-5.9-5.9h-16.5
			C412.3,495,409.6,497.7,409.6,500.9z M421.5,544.2v0.8c0,0.3,0.1,0.4,0.4,0.4h12v1.9h-4.6c-0.5,0-0.9,0-0.9,0v0
			c0,0,1.7,0.9,1.7,3.3c0,2.7-2.2,4.4-5.3,4.4c-3.2,0-5.3-1.9-5.3-4.6c0-2.4,1.7-3.3,1.7-3.3v0c0,0-0.2,0-0.5,0c-0.6,0-1-0.4-1-1.2
			v-1.8H421.5z M429.9,531.9v1.9c0,0.9-0.4,1.3-1.1,1.3h-0.4c-0.3,0-0.6,0-0.6,0v0c1,0.4,2.3,1.7,2.3,3.7c0,2.3-1.2,3.4-3.9,3.4
			h-4.4c-0.3,0-0.4,0.2-0.4,0.4v0.8h-1.7v-1.9c0-0.9,0.4-1.3,1.2-1.3h4.8c1.4,0,2.5-0.3,2.5-1.9c0-2.1-1.8-3.3-3.8-3.3h-4.7v-1.9h8
			c0.3,0,0.4-0.2,0.4-0.4v-0.8H429.9z M425.1,521.3v7.4c2.2-0.1,3.4-1.7,3.4-3.5c0-1.7-1.2-3-1.2-3l1.4-0.8c0,0,1.5,1.5,1.5,3.9
			c0,3.2-2.3,5.4-5.3,5.4c-3.2,0-5.3-2.2-5.3-5.1c0-2.8,2.1-4.4,4.7-4.4C424.6,521.3,425.1,521.3,425.1,521.3z M421.7,513.1
			c0,0-0.1,0.3-0.1,0.6c0,1.2,0.9,2.4,2.4,2.8c0.6,0.2,1.2,0.2,1.8,0.2h4.1v1.9h-8c-0.3,0-0.4,0.2-0.4,0.4v0.8h-1.7v-1.8
			c0-0.9,0.4-1.3,1.2-1.3h0.6c0.4,0,0.7,0,0.7,0v0c-1.5-0.5-2.6-1.6-2.6-3.2c0-0.3,0-0.5,0-0.5H421.7z M421.5,501.8v0.3
			c0,0.3,0.1,0.5,0.4,0.6l9.9,4c1.6,0.6,2.4,1.8,2.4,3.3c0,1.5-1,2.4-1,2.4l-1.4-0.8c0,0,0.7-0.6,0.7-1.5c0-0.8-0.6-1.4-1.5-1.8
			l-1.1-0.5l-8,3.5c-0.3,0.1-0.4,0.3-0.4,0.6v0.2h-1.7V511c0-0.8,0.2-1.1,1-1.4l5.7-2.3c0.5-0.2,1.2-0.4,1.2-0.4v0
			c0,0-0.7-0.1-1.2-0.3l-5.7-2.1c-0.8-0.3-1-0.7-1-1.5v-1.2H421.5z"/>
	</g>
	<g>
		<path fill="#DC7676" stroke="#F8E2D2" stroke-miterlimit="10" d="M9.7,511.5v72c0,5.6,17.2,10.2,38.4,10.2
			c21.2,0,38.4-4.6,38.4-10.2v-72H9.7z"/>
		<ellipse fill="#DC7676" stroke="#F8E2D2" stroke-miterlimit="10" cx="48.1" cy="511.5" rx="38.4" ry="10.2"/>
		<g>
			<path fill="#DC7676" d="M-2.2,486.8l-1.4,0.5l-0.7-1.9l6.2-2.2c4.6-1.7,8.7,0,10.5,4.8c1.8,4.8-0.3,8.8-4.9,10.4l-3.4,1.2
				c-1,0.4-1.5,0.1-1.9-0.9L-2.2,486.8z M4.7,497.4l2-0.7c3.4-1.2,4.9-4.1,3.5-7.8c-1.4-3.7-4.3-4.9-7.7-3.7L0,486l4,11.1
				C4.1,497.4,4.4,497.5,4.7,497.4z"/>
			<path fill="#DC7676" d="M22,487.5l0.5-0.1l0-0.1c-0.3-2-1.2-2.6-3-2.3c-0.5,0.1-1.9,0.5-1.7,1.2l0.1,0.7l-2.1,0.3l-0.2-1.1
				c-0.3-1.9,2.5-2.6,3.6-2.8c3.7-0.6,5,1.2,5.5,3.7l0.8,4.9c0.1,0.3,0.3,0.5,0.6,0.4l0.9-0.2l0.3,1.9l-2.1,0.3
				c-1,0.2-1.5-0.3-1.6-1.1c-0.1-0.4-0.1-0.7-0.1-0.7l0,0c0,0-0.5,2.4-3.3,2.9c-2,0.3-4.1-0.5-4.5-2.8
				C15.2,488.9,20.1,487.8,22,487.5z M20.5,493.6c1.9-0.3,2.7-2.5,2.5-4.2l-0.1-0.4l-0.6,0.1c-1.7,0.3-4.6,0.9-4.3,3
				C18.1,493,19,493.8,20.5,493.6z"/>
			<path fill="#DC7676" d="M28.7,484l-1.5,0.1l-0.2-1.8l1.6-0.1l-0.3-3.2l2.2-0.2l0.3,3.2l2.8-0.3l0.2,1.8l-2.8,0.3l0.5,5.3
				c0.2,2.3,1.8,2.5,2.7,2.4c0.3,0,0.5-0.1,0.5-0.1l0.2,2c0,0-0.3,0.1-0.8,0.1c-1.5,0.1-4.5,0-4.8-3.9L28.7,484z"/>
			<path fill="#DC7676" d="M42.9,485.7l0.5,0l0-0.1c-0.1-2-0.9-2.8-2.7-2.7c-0.6,0-1.9,0.2-1.9,1l0,0.7l-2.1,0.1l0-1.1
				c-0.1-1.9,2.8-2.3,3.9-2.3c3.8-0.1,4.8,1.8,4.9,4.4l0.2,4.9c0,0.3,0.2,0.5,0.5,0.5l0.9,0l0.1,1.9l-2.1,0.1c-1,0-1.5-0.5-1.5-1.3
				c0-0.4,0-0.7,0-0.7l0,0c0,0-0.8,2.3-3.6,2.4c-2,0.1-4-1.1-4.1-3.4C35.9,486.2,40.9,485.8,42.9,485.7z M40.5,491.5
				c1.9-0.1,3-2.1,3-3.8l0-0.4l-0.6,0c-1.7,0.1-4.7,0.3-4.6,2.4C38.3,490.7,39,491.6,40.5,491.5z"/>
			<path fill="#DC7676" d="M49.8,479c0-0.3-0.2-0.5-0.5-0.5l-0.9,0l0.1-1.9l2.2,0.1c1,0,1.5,0.5,1.4,1.5l-0.1,3.8c0,0.6-0.1,1-0.1,1
				l0,0c0,0,1.1-1.9,3.8-1.8c3.1,0.1,5,2.7,4.9,6.3c-0.1,3.7-2.4,6-5.5,5.9c-2.6-0.1-3.6-2.1-3.6-2.1l0,0c0,0,0,0.4,0,0.9l0,0.8
				l-2.1-0.1L49.8,479z M54.9,491.4c1.8,0.1,3.4-1.4,3.5-4c0.1-2.5-1.2-4.2-3.2-4.3c-1.7-0.1-3.4,1.1-3.5,4.1
				C51.7,489.2,52.7,491.3,54.9,491.4z"/>
			<path fill="#DC7676" d="M69.5,486.9l0.5,0.1l0-0.1c0.2-2-0.4-2.8-2.3-3c-0.5-0.1-1.9-0.1-2,0.7l-0.1,0.7l-2.1-0.2l0.1-1.1
				c0.2-1.9,3.1-1.9,4.2-1.7c3.7,0.4,4.5,2.5,4.3,5l-0.5,4.9c0,0.3,0.1,0.5,0.4,0.6l0.9,0.1l-0.2,1.9l-2.1-0.2
				c-1-0.1-1.4-0.7-1.3-1.5c0-0.4,0.1-0.7,0.1-0.7l0,0c0,0-1.2,2.2-3.9,1.9c-2-0.2-3.8-1.6-3.5-4C62.5,486.3,67.5,486.6,69.5,486.9z
				 M66.3,492.3c1.9,0.2,3.3-1.6,3.5-3.3l0-0.4l-0.6-0.1c-1.7-0.2-4.7-0.4-4.9,1.7C64.2,491.1,64.8,492.1,66.3,492.3z"/>
			<path fill="#DC7676" d="M75.4,491.7c0,0,1,2,3.1,2.4c1.1,0.2,2.1-0.1,2.3-1.1c0.4-2.1-5.9-3.1-5.1-6.8c0.4-2.2,2.6-2.8,4.9-2.3
				c1.4,0.3,3.6,1.2,3.3,3l-0.2,1.1l-2-0.4l0.1-0.6c0.1-0.7-0.8-1.2-1.5-1.3c-1.3-0.3-2.2,0-2.4,0.9c-0.4,2.2,5.9,2.9,5.1,6.8
				c-0.4,2-2.5,3-4.9,2.5c-3-0.6-4.2-2.9-4.2-2.9L75.4,491.7z"/>
			<path fill="#DC7676" d="M93.1,487.4c3.1,1.2,3.8,4.1,2.8,6.9c-0.1,0.3-0.4,0.8-0.4,0.8l-7.9-3c-0.8,2.4,0.4,4.3,2.4,5.1
				c1.9,0.7,3.7-0.1,3.7-0.1l0.3,1.8c0,0-2.2,1-4.8,0c-3.4-1.3-4.9-4.7-3.6-7.9C86.8,487.6,90,486.2,93.1,487.4z M94,492.8
				c0.6-1.8-0.2-3.2-1.5-3.7c-1.6-0.6-3.2-0.1-4.3,1.6L94,492.8z"/>
		</g>
		<path fill="#DC7676" stroke="#F8E2D2" stroke-miterlimit="10" d="M48.1,546.2c-21.2,0-38.4-4.6-38.4-10.2"/>
		<path fill="#DC7676" stroke="#F8E2D2" stroke-miterlimit="10" d="M86.5,536c0,5.6-17.2,10.2-38.4,10.2"/>
		<path fill="#DC7676" stroke="#F8E2D2" stroke-miterlimit="10" d="M48.1,570.7c-21.2,0-38.4-4.6-38.4-10.2"/>
		<path fill="#DC7676" stroke="#F8E2D2" stroke-miterlimit="10" d="M86.5,560.5c0,5.6-17.2,10.2-38.4,10.2"/>
	</g>
	<g>
		<g>
			<path fill="#F8E2D2" d="M233.2,737.7h-36c-4.8,0-8.7-3.9-8.7-8.7v-24c0-4.8,3.9-8.7,8.7-8.7h36c4.8,0,8.7,3.9,8.7,8.7v24
				C241.8,733.8,237.9,737.7,233.2,737.7z"/>
		</g>
		<g>
			<path fill="#F8E2D2" d="M364.6,743.3h-36c-4.8,0-8.7-3.9-8.7-8.7v-24c0-4.8,3.9-8.7,8.7-8.7h36c4.8,0,8.7,3.9,8.7,8.7v24
				C373.3,739.4,369.4,743.3,364.6,743.3z"/>
		</g>
		<g>
			<path fill="#F8E2D2" d="M276.5,749.8c2.3,0,6.4,1,6.4,3.7v1.7h-2.2v-1c0-1.4-2.4-2.1-4.1-2.1c-3.4,0-6,2.6-6,6.4
				c0,3.7,2.7,6.6,6.1,6.6c3.4,0,5.4-2.3,5.4-2.3l1.3,1.7c0,0-2.4,2.8-6.7,2.8c-5.1,0-8.6-3.9-8.6-8.9
				C268,753.5,271.7,749.8,276.5,749.8z"/>
			<path fill="#F8E2D2" d="M291.4,754.6c3.6,0,6.6,2.7,6.6,6.3c0,3.7-2.9,6.4-6.6,6.4c-3.6,0-6.5-2.7-6.5-6.4
				C284.9,757.2,287.8,754.6,291.4,754.6z M291.4,765.3c2.3,0,4.2-1.8,4.2-4.4c0-2.5-1.9-4.3-4.2-4.3c-2.3,0-4.2,1.8-4.2,4.3
				C287.3,763.4,289.2,765.3,291.4,765.3z"/>
			<path fill="#F8E2D2" d="M300.9,757.4c0-0.4-0.2-0.5-0.5-0.5h-1v-2h2.2c1.1,0,1.5,0.5,1.5,1.3v0.5c0,0.4,0,0.7,0,0.7h0
				c0.6-1.4,2.3-2.8,4.2-2.8c2.1,0,3.2,0.9,3.6,2.8h0c0.7-1.5,2.4-2.8,4.3-2.8c2.7,0,4,1.6,4,4.7v5.3c0,0.4,0.2,0.5,0.5,0.5h1v2
				h-2.3c-1.1,0-1.5-0.5-1.5-1.5v-5.7c0-1.7-0.3-3-2.1-3c-1.7,0-3,1.5-3.4,3.1c-0.1,0.5-0.2,1-0.2,1.7v5.5H309v-7.3
				c0-1.6-0.2-3-2.1-3c-1.8,0-3,1.5-3.5,3.2c-0.1,0.5-0.2,1-0.2,1.6v5.5h-2.3V757.4z"/>
			<path fill="#F8E2D2" d="M323.4,757.4c0-0.4-0.2-0.5-0.5-0.5h-1v-2h2.2c1.1,0,1.5,0.5,1.5,1.3v0.5c0,0.4,0,0.7,0,0.7h0
				c0.6-1.4,2.3-2.8,4.2-2.8c2.1,0,3.2,0.9,3.6,2.8h0c0.7-1.5,2.4-2.8,4.3-2.8c2.7,0,4,1.6,4,4.7v5.3c0,0.4,0.2,0.5,0.5,0.5h1v2H341
				c-1.1,0-1.5-0.5-1.5-1.5v-5.7c0-1.7-0.3-3-2.1-3c-1.7,0-3,1.5-3.4,3.1c-0.1,0.5-0.2,1-0.2,1.7v5.5h-2.3v-7.3c0-1.6-0.2-3-2.1-3
				c-1.8,0-3,1.5-3.5,3.2c-0.1,0.5-0.2,1-0.2,1.6v5.5h-2.3V757.4z"/>
			<path fill="#F8E2D2" d="M352,759.4h0.5v-0.1c0-2.1-0.8-2.9-2.7-2.9c-0.6,0-2,0.1-2,0.9v0.7h-2.2v-1.2c0-2,3-2.3,4.2-2.3
				c3.9,0,5,2.1,5,4.8v5.2c0,0.4,0.2,0.5,0.5,0.5h1v2h-2.2c-1.1,0-1.5-0.5-1.5-1.4c0-0.4,0-0.7,0-0.7h0c0,0-1,2.4-3.9,2.4
				c-2.1,0-4.1-1.3-4.1-3.7C344.7,759.7,350,759.4,352,759.4z M349.3,765.4c2,0,3.2-2.1,3.2-3.9v-0.4H352c-1.8,0-4.9,0.1-4.9,2.3
				C347.1,764.4,347.8,765.4,349.3,765.4z"/>
			<path fill="#F8E2D2" d="M358.9,757.4c0-0.4-0.2-0.5-0.5-0.5h-1v-2h2.2c1,0,1.5,0.5,1.5,1.3v0.5c0,0.4,0,0.7,0,0.7h0
				c0.5-1.1,1.9-2.8,4.6-2.8c2.9,0,4.2,1.6,4.2,4.7v5.3c0,0.4,0.2,0.5,0.5,0.5h1v2h-2.3c-1.1,0-1.5-0.5-1.5-1.5v-5.7
				c0-1.7-0.3-3-2.3-3c-1.9,0-3.4,1.2-3.8,3c-0.2,0.5-0.2,1-0.2,1.6v5.7h-2.3V757.4z"/>
			<path fill="#F8E2D2" d="M378.3,754.6c2.8,0,3.7,1.9,3.7,1.9h0c0,0,0-0.4,0-0.8v-3c0-0.4-0.2-0.5-0.5-0.5h-1v-2h2.3
				c1.1,0,1.5,0.5,1.5,1.5v12.9c0,0.4,0.2,0.5,0.5,0.5h1v2h-2.2c-1.1,0-1.5-0.5-1.5-1.3c0-0.4,0-0.6,0-0.6h0c0,0-1,2.2-4,2.2
				c-3.3,0-5.4-2.6-5.4-6.4C372.8,757.1,375.1,754.6,378.3,754.6z M382.1,760.9c0-2.2-1.1-4.3-3.5-4.3c-1.9,0-3.5,1.6-3.5,4.3
				c0,2.6,1.4,4.3,3.4,4.3C380.4,765.3,382.1,764,382.1,760.9z"/>
		</g>
		<g>
			<path fill="#F8E2D2" d="M180.9,673.7h-1.6v-2.1h10c1.1,0,1.5,0.5,1.5,1.5v2.1h-2.2v-1.1c0-0.4-0.2-0.5-0.5-0.5h-4.8v5.3h5.9v2.1
				h-5.9v4.9c0,0.3,0.2,0.5,0.5,0.5h4.9c0.3,0,0.5-0.2,0.5-0.5V685h2.2v2.1c0,1.1-0.5,1.5-1.5,1.5h-7.5c-1.1,0-1.5-0.5-1.5-1.5
				V673.7z"/>
			<path fill="#F8E2D2" d="M193.3,679c-0.1-0.4-0.4-0.5-0.7-0.5h-0.2v-2h1.2c1.1,0,1.5,0.3,1.8,1.2l2.6,7c0.2,0.7,0.4,1.6,0.4,1.6h0
				c0,0,0.2-0.9,0.4-1.6l2.6-7c0.4-1,0.8-1.2,1.8-1.2h1.1v2h-0.2c-0.4,0-0.6,0.1-0.8,0.5l-3.7,9.7h-2.7L193.3,679z"/>
			<path fill="#F8E2D2" d="M211.5,676.2c3.4,0,5.2,2.5,5.2,5.7c0,0.3-0.1,1-0.1,1h-8.9c0.1,2.6,2,4.1,4.2,4.1c2.1,0,3.6-1.4,3.6-1.4
				l1,1.7c0,0-1.8,1.8-4.7,1.8c-3.8,0-6.5-2.8-6.5-6.4C205.4,678.7,208.1,676.2,211.5,676.2z M214.4,681.1c-0.1-2-1.3-3.1-2.9-3.1
				c-1.8,0-3.2,1.1-3.6,3.1H214.4z"/>
			<path fill="#F8E2D2" d="M219.9,679c0-0.4-0.2-0.5-0.5-0.5h-1v-2h2.2c1,0,1.5,0.5,1.5,1.3v0.5c0,0.4,0,0.7,0,0.7h0
				c0.5-1.1,1.9-2.8,4.6-2.8c2.9,0,4.2,1.6,4.2,4.7v5.3c0,0.4,0.2,0.5,0.5,0.5h1v2h-2.3c-1.1,0-1.5-0.5-1.5-1.5v-5.7
				c0-1.7-0.3-3-2.3-3c-1.9,0-3.4,1.2-3.8,3c-0.2,0.5-0.2,1-0.2,1.6v5.7h-2.3V679z"/>
			<path fill="#F8E2D2" d="M235,678.4h-1.6v-1.9h1.6v-3.3h2.3v3.3h2.9v1.9h-2.9v5.6c0,2.4,1.7,2.7,2.6,2.7c0.3,0,0.6,0,0.6,0v2.1
				c0,0-0.3,0-0.8,0c-1.5,0-4.6-0.5-4.6-4.5V678.4z"/>
			<path fill="#F8E2D2" d="M243.1,685.2c0,0,1.4,1.8,3.7,1.8c1.1,0,2.1-0.5,2.1-1.6c0-2.2-6.6-1.9-6.6-5.9c0-2.3,2-3.4,4.5-3.4
				c1.5,0,4,0.5,4,2.4v1.2h-2.1v-0.6c0-0.7-1.1-1-1.8-1c-1.4,0-2.3,0.5-2.3,1.4c0,2.3,6.6,1.8,6.6,5.9c0,2.2-1.9,3.6-4.5,3.6
				c-3.2,0-4.8-2.1-4.8-2.1L243.1,685.2z"/>
		</g>
		<path fill="#F8E2D2" stroke="#DC7676" stroke-width="2" stroke-miterlimit="10" d="M238.3,743.3h-36c-4.8,0-8.7-3.9-8.7-8.7v-24
			c0-4.8,3.9-8.7,8.7-8.7h36c4.8,0,8.7,3.9,8.7,8.7v24C246.9,739.4,243.1,743.3,238.3,743.3z"/>
		<path fill="#F8E2D2" stroke="#DC7676" stroke-width="2" stroke-miterlimit="10" d="M243.9,749.3h-36c-4.8,0-8.7-3.9-8.7-8.7v-24
			c0-4.8,3.9-8.7,8.7-8.7h36c4.8,0,8.7,3.9,8.7,8.7v24C252.6,745.5,248.7,749.3,243.9,749.3z"/>
	</g>
	<g>
		<g>
			<path fill="#F8E2D2" d="M266.1,555.8h-36c-4.8,0-8.7-3.9-8.7-8.7v-24c0-4.8,3.9-8.7,8.7-8.7h36c4.8,0,8.7,3.9,8.7,8.7v24
				C274.7,551.9,270.8,555.8,266.1,555.8z"/>
		</g>
		<g>
			<line fill="#F8E2D2" x1="286.5" y1="601.4" x2="262.6" y2="555.8"/>
			<g>
				<line fill="none" stroke="#F8E2D2" stroke-width="4" stroke-miterlimit="10" x1="286.5" y1="601.4" x2="269.2" y2="568.5"/>
				<g>
					<polygon fill="#F8E2D2" points="279.4,566.4 262.6,555.8 261.8,575.7 					"/>
				</g>
			</g>
		</g>
		<g>
			<path fill="#F8E2D2" d="M347.2,555.8h-36c-4.8,0-8.7-3.9-8.7-8.7v-24c0-4.8,3.9-8.7,8.7-8.7h36c4.8,0,8.7,3.9,8.7,8.7v24
				C355.9,551.9,352,555.8,347.2,555.8z"/>
		</g>
		<g>
			<line fill="#F8E2D2" x1="299" y1="595.3" x2="317.4" y2="555.8"/>
			<g>
				<line fill="none" stroke="#F8E2D2" stroke-width="4" stroke-miterlimit="10" x1="299" y1="595.3" x2="311.3" y2="568.8"/>
				<g>
					<polygon fill="#F8E2D2" points="319.1,575.7 317.4,555.8 301.1,567.2 					"/>
				</g>
			</g>
		</g>
		<g>
			<path fill="#F8E2D2" d="M307.2,625.8h-36c-4.8,0-8.7-3.9-8.7-8.7v-24c0-4.8,3.9-8.7,8.7-8.7h36c4.8,0,8.7,3.9,8.7,8.7v24
				C315.9,621.9,312,625.8,307.2,625.8z"/>
		</g>
		<g>
			<path fill="#F8E2D2" d="M225.7,490.4c4.9,0,8.7,3.8,8.7,8.7c0,2.1-0.8,4.1-2,5.6l1.9,1.9L233,508l-1.9-1.9
				c-1.5,1.2-3.3,1.8-5.3,1.8c-4.9,0-8.7-3.9-8.7-8.9C217,494.1,220.8,490.4,225.7,490.4z M225.7,505.6c2.2,0,3.6-1.2,3.6-1.2
				l-1.9-1.8l1.4-1.6l1.8,1.9c0.8-1.1,1.2-2.5,1.2-3.9c0-3.7-2.7-6.4-6.2-6.4c-3.5,0-6.2,2.7-6.2,6.4
				C219.5,502.7,222.2,505.6,225.7,505.6z"/>
			<path fill="#F8E2D2" d="M237.4,498c0-0.4-0.2-0.5-0.5-0.5h-1v-2h2.3c1.1,0,1.6,0.5,1.6,1.5v5.8c0,1.7,0.3,3,2.3,3
				c2.5,0,4-2.2,4-4.6v-5.7h2.3v9.6c0,0.4,0.2,0.5,0.5,0.5h1v2h-2.2c-1,0-1.5-0.5-1.5-1.3v-0.5c0-0.4,0-0.7,0-0.7h0
				c-0.5,1.2-2.1,2.8-4.5,2.8c-2.7,0-4.1-1.4-4.1-4.7V498z"/>
			<path fill="#F8E2D2" d="M257.3,495.2c3.4,0,5.2,2.5,5.2,5.7c0,0.3-0.1,1-0.1,1h-8.9c0.1,2.6,2,4.1,4.2,4.1c2.1,0,3.6-1.4,3.6-1.4
				l1,1.7c0,0-1.8,1.8-4.7,1.8c-3.8,0-6.5-2.8-6.5-6.4C251.2,497.7,253.8,495.2,257.3,495.2z M260.1,500.1c-0.1-2-1.3-3.1-2.9-3.1
				c-1.8,0-3.2,1.1-3.6,3.1H260.1z"/>
			<path fill="#F8E2D2" d="M265.6,498c0-0.4-0.2-0.5-0.5-0.5h-1v-2h2.2c1.1,0,1.6,0.4,1.6,1.4v0.8c0,0.5,0,0.8,0,0.8h0
				c0.6-1.8,2-3.2,3.8-3.2c0.3,0,0.6,0,0.6,0v2.3c0,0-0.3-0.1-0.7-0.1c-1.5,0-2.9,1.1-3.4,2.9c-0.2,0.7-0.3,1.4-0.3,2.2v5h-2.3V498z
				"/>
			<path fill="#F8E2D2" d="M276,510.6c0.9,0,1.7-0.7,2.1-1.8l0.6-1.3l-4.2-9.6c-0.2-0.4-0.4-0.5-0.8-0.5h-0.3v-2h1.4
				c1,0,1.3,0.3,1.7,1.2l2.8,6.8c0.2,0.6,0.4,1.5,0.4,1.5h0c0,0,0.2-0.8,0.4-1.5l2.5-6.8c0.4-1,0.8-1.2,1.8-1.2h1.4v2h-0.3
				c-0.4,0-0.6,0.1-0.8,0.5l-4.8,11.9c-0.7,1.9-2.2,2.9-3.9,2.9c-1.8,0-2.9-1.2-2.9-1.2l1-1.7C274.3,509.8,275,510.6,276,510.6z"/>
			<path fill="#F8E2D2" d="M293.2,505.5h0.8c0.3,0,0.5-0.2,0.5-0.5l1.2-14.4h2.5l4,9c0.4,0.9,0.8,2.1,0.8,2.1h0c0,0,0.4-1.2,0.8-2.1
				l4-9h2.5l1.2,14.4c0,0.3,0.2,0.5,0.5,0.5h0.8v2.1h-2.1c-1.1,0-1.5-0.5-1.5-1.5l-0.7-9c-0.1-1,0-2.5,0-2.5h0c0,0-0.5,1.6-0.9,2.5
				l-3.4,7.4h-2l-3.4-7.4c-0.4-0.9-0.9-2.5-0.9-2.5h0c0,0,0,1.5,0,2.5l-0.7,9c-0.1,1.1-0.5,1.5-1.6,1.5h-2.1V505.5z"/>
			<path fill="#F8E2D2" d="M320.7,495.2c3.6,0,6.6,2.7,6.6,6.3c0,3.7-2.9,6.4-6.6,6.4s-6.5-2.7-6.5-6.4
				C314.2,497.8,317.1,495.2,320.7,495.2z M320.7,505.9c2.3,0,4.2-1.8,4.2-4.4c0-2.5-1.9-4.3-4.2-4.3c-2.3,0-4.2,1.8-4.2,4.3
				C316.5,504,318.4,505.9,320.7,505.9z"/>
			<path fill="#F8E2D2" d="M334.5,495.2c2.8,0,3.7,1.9,3.7,1.9h0c0,0,0-0.4,0-0.8v-3c0-0.4-0.2-0.5-0.5-0.5h-1v-2h2.3
				c1.1,0,1.5,0.5,1.5,1.5v12.9c0,0.4,0.2,0.5,0.5,0.5h1v2h-2.2c-1.1,0-1.5-0.5-1.5-1.3c0-0.4,0-0.6,0-0.6h0c0,0-1,2.2-4,2.2
				c-3.3,0-5.4-2.6-5.4-6.4C329,497.7,331.3,495.2,334.5,495.2z M338.3,501.5c0-2.2-1.1-4.3-3.5-4.3c-1.9,0-3.5,1.6-3.5,4.3
				c0,2.6,1.4,4.3,3.4,4.3C336.6,505.9,338.3,504.6,338.3,501.5z"/>
			<path fill="#F8E2D2" d="M349.6,495.2c3.4,0,5.2,2.5,5.2,5.7c0,0.3-0.1,1-0.1,1h-8.9c0.1,2.6,2,4.1,4.2,4.1c2.1,0,3.6-1.4,3.6-1.4
				l1,1.7c0,0-1.8,1.8-4.7,1.8c-3.8,0-6.5-2.8-6.5-6.4C343.5,497.7,346.1,495.2,349.6,495.2z M352.4,500.1c-0.1-2-1.3-3.1-2.9-3.1
				c-1.8,0-3.2,1.1-3.6,3.1H352.4z"/>
			<path fill="#F8E2D2" d="M357.9,493.2c0-0.4-0.2-0.5-0.5-0.5h-1v-2h2.3c1.1,0,1.5,0.5,1.5,1.5v12.9c0,0.4,0.2,0.5,0.5,0.5h1v2
				h-2.3c-1.1,0-1.5-0.5-1.5-1.5V493.2z"/>
		</g>
	</g>
	<g>
		<path fill="#DC7676" stroke="#F8E2D2" stroke-miterlimit="10" d="M10.7,695.9v72c0,5.6,17.2,10.2,38.4,10.2
			c21.2,0,38.4-4.6,38.4-10.2v-72H10.7z"/>
		<ellipse fill="#DC7676" stroke="#F8E2D2" stroke-miterlimit="10" cx="49.1" cy="695.9" rx="38.4" ry="10.2"/>
		<g>
			<path fill="#DC7676" d="M-4.7,678.2l-1.2,0.6l-0.8-1.5l7.4-3.8c0.8-0.4,1.3-0.3,1.7,0.5l0.8,1.6l-1.6,0.8l-0.4-0.8
				c-0.1-0.3-0.3-0.3-0.6-0.2l-3.6,1.9l2,3.9l4.4-2.3l0.8,1.5l-4.4,2.3l1.9,3.6c0.1,0.2,0.3,0.3,0.6,0.2l3.7-1.9
				c0.2-0.1,0.3-0.3,0.2-0.6l-0.4-0.8l1.6-0.8l0.8,1.6c0.4,0.8,0.3,1.3-0.5,1.7l-5.6,2.9c-0.8,0.4-1.3,0.3-1.7-0.5L-4.7,678.2z"/>
			<path fill="#DC7676" d="M7.7,677.4c-0.2-0.3-0.4-0.3-0.7-0.2l-0.2,0.1l-0.4-1.6l1-0.3c0.9-0.2,1.3-0.1,1.7,0.6l3.6,5.1
				c0.3,0.5,0.7,1.2,0.7,1.2l0,0c0,0,0-0.8,0-1.4l0.6-6.2c0.1-0.9,0.4-1.2,1.2-1.4l0.9-0.2l0.4,1.6l-0.2,0c-0.3,0.1-0.5,0.2-0.5,0.6
				l-1,8.6l-2.2,0.6L7.7,677.4z"/>
			<path fill="#DC7676" d="M22.6,671.8c2.8-0.4,4.6,1.4,5,4c0,0.3,0.1,0.8,0.1,0.8l-7.3,1.1c0.4,2.1,2.2,3.1,4,2.8
				c1.7-0.3,2.7-1.6,2.7-1.6l1,1.2c0,0-1.3,1.7-3.6,2.1c-3.2,0.5-5.7-1.5-6.1-4.4C17.9,674.6,19.7,672.2,22.6,671.8z M25.5,675.5
				c-0.3-1.7-1.5-2.4-2.7-2.2c-1.5,0.2-2.5,1.3-2.6,3L25.5,675.5z"/>
			<path fill="#DC7676" d="M30.2,673.1c0-0.3-0.2-0.4-0.5-0.4l-0.8,0.1l-0.1-1.7l1.9-0.1c0.9-0.1,1.3,0.3,1.4,1l0,0.4
				c0,0.3,0,0.6,0,0.6l0,0c0.3-0.9,1.4-2.4,3.6-2.6c2.4-0.2,3.6,1,3.8,3.6l0.3,4.4c0,0.3,0.2,0.4,0.5,0.4l0.8-0.1l0.1,1.7l-1.9,0.1
				c-0.9,0.1-1.3-0.3-1.4-1.2l-0.4-4.7c-0.1-1.4-0.5-2.5-2.1-2.4c-1.6,0.1-2.7,1.2-3,2.7c-0.1,0.4-0.1,0.9-0.1,1.4l0.4,4.7l-1.9,0.1
				L30.2,673.1z"/>
			<path fill="#DC7676" d="M43,671.8l-1.3,0l0-1.6l1.4,0l-0.1-2.8l1.9,0l0.1,2.8l2.4-0.1l0,1.6l-2.4,0.1l0.1,4.6
				c0,2,1.4,2.2,2.2,2.2c0.3,0,0.5,0,0.5,0l0,1.7c0,0-0.3,0-0.7,0.1c-1.3,0-3.9-0.3-3.9-3.7L43,671.8z"/>
			<path fill="#DC7676" d="M55.6,677.1c0,0,1.3,1.8,3.4,1.9c1.3,0.1,2.5-0.7,2.5-2c0.2-3-6.7-2.9-6.5-7.2c0.1-2.1,2.1-3.7,4.7-3.5
				c1.5,0.1,4,0.9,3.9,2.8l-0.1,1.2l-1.8-0.1l0-0.7c0-0.7-1-1.3-2.1-1.4c-1.5-0.1-2.5,0.7-2.6,1.8c-0.1,2.9,6.7,2.6,6.4,7.2
				c-0.1,2.2-1.9,3.9-4.7,3.8c-3-0.2-4.6-2.3-4.6-2.3L55.6,677.1z"/>
			<path fill="#DC7676" d="M66.7,672.5l-1.3-0.1l0.2-1.6l1.4,0.1l0.3-2.8l1.9,0.2l-0.3,2.8l2.4,0.3L71,673l-2.4-0.3l-0.5,4.6
				c-0.2,2,1.2,2.4,1.9,2.5c0.3,0,0.5,0,0.5,0l-0.2,1.7c0,0-0.3,0-0.7,0c-1.3-0.1-3.8-0.8-3.4-4.2L66.7,672.5z"/>
			<path fill="#DC7676" d="M78.5,672.3c3,0.5,5,3.1,4.5,6.1c-0.5,3-3.3,4.8-6.3,4.3c-3-0.5-5-3.1-4.4-6.2
				C72.7,673.5,75.5,671.7,78.5,672.3z M77,681c1.9,0.3,3.7-0.9,4.1-3c0.4-2.1-0.9-3.8-2.8-4.1c-1.9-0.3-3.7,0.9-4,3
				C73.8,678.9,75.1,680.7,77,681z"/>
			<path fill="#DC7676" d="M86.3,676.3c0.1-0.3,0-0.5-0.3-0.5l-0.8-0.2l0.5-1.6l1.8,0.5c0.8,0.2,1.2,0.7,0.9,1.5l-0.2,0.6
				c-0.1,0.4-0.2,0.7-0.2,0.7l0,0c0.9-1.3,2.3-2.1,3.8-1.7c0.3,0.1,0.5,0.2,0.5,0.2l-0.5,1.8c0,0-0.2-0.1-0.5-0.2
				c-1.2-0.3-2.5,0.2-3.4,1.5c-0.3,0.5-0.6,1.1-0.7,1.7l-1.1,4l-1.9-0.5L86.3,676.3z"/>
			<path fill="#DC7676" d="M99,678.5c2.5,1.3,2.9,3.9,1.7,6.2c-0.1,0.2-0.4,0.7-0.4,0.7l-6.5-3.4c-0.9,2-0.1,3.8,1.5,4.6
				c1.5,0.8,3.2,0.3,3.2,0.3l0.1,1.6c0,0-2,0.6-4.1-0.5c-2.8-1.5-3.7-4.5-2.3-7.2C93.5,678,96.4,677.1,99,678.5z M99.1,683.2
				c0.7-1.5,0.2-2.8-0.9-3.4c-1.3-0.7-2.8-0.4-3.8,0.9L99.1,683.2z"/>
		</g>
		<path fill="#DC7676" stroke="#F8E2D2" stroke-miterlimit="10" d="M49.1,730.6c-21.2,0-38.4-4.6-38.4-10.2"/>
		<path fill="#DC7676" stroke="#F8E2D2" stroke-miterlimit="10" d="M87.5,720.4c0,5.6-17.2,10.2-38.4,10.2"/>
		<path fill="#DC7676" stroke="#F8E2D2" stroke-miterlimit="10" d="M49.1,755.1c-21.2,0-38.4-4.6-38.4-10.2"/>
		<path fill="#DC7676" stroke="#F8E2D2" stroke-miterlimit="10" d="M87.5,744.9c0,5.6-17.2,10.2-38.4,10.2"/>
	</g>
	<g>
		<line fill="#FAAE24" x1="175" y1="724.3" x2="97.2" y2="724.3"/>
		<g>
			<line fill="none" stroke="#FAAE24" stroke-width="7" stroke-miterlimit="10" x1="175" y1="724.3" x2="122.3" y2="724.3"/>
			<g>
				<polygon fill="#FAAE24" points="127.4,706.8 97.2,724.3 127.4,741.7 				"/>
			</g>
		</g>
	</g>
	<g>
		<line fill="#FAAE24" x1="307.7" y1="724.3" x2="264.2" y2="724.3"/>
		<g>
			<line fill="none" stroke="#FAAE24" stroke-width="7" stroke-miterlimit="10" x1="307.7" y1="724.3" x2="289.3" y2="724.3"/>
			<g>
				<polygon fill="#FAAE24" points="294.4,706.8 264.2,724.3 294.4,741.7 				"/>
			</g>
		</g>
	</g>
	<g>
		<line fill="#FAAE24" x1="50.7" y1="658.2" x2="50.7" y2="608.5"/>
		<g>
			<line fill="none" stroke="#FAAE24" stroke-width="7" stroke-miterlimit="10" x1="50.7" y1="658.2" x2="50.7" y2="633.7"/>
			<g>
				<polygon fill="#FAAE24" points="68.2,638.8 50.7,608.5 33.3,638.8 				"/>
			</g>
		</g>
	</g>
	<g>
		<line fill="#FAAE24" x1="100.6" y1="541.1" x2="178.4" y2="541.1"/>
		<g>
			<line fill="none" stroke="#FAAE24" stroke-width="7" stroke-miterlimit="10" x1="100.6" y1="541.1" x2="153.3" y2="541.1"/>
			<g>
				<polygon fill="#FAAE24" points="148.2,558.5 178.4,541.1 148.2,523.6 				"/>
			</g>
		</g>
	</g>
	<g>
		<path fill="#DC7676" d="M604.8,593.4h-6.2h-1.8h-61.1c-5.8,0-10.6,4.7-10.6,10.6v11.5v22.5v12.7c0,5.8,4.7,10.6,10.6,10.6h61.1
			h1.8h6.2c5.8,0,10.6-4.7,10.6-10.6v-12.7v-22.5V604C615.3,598.1,610.6,593.4,604.8,593.4z"/>
		<g>
			<path fill="#F8E2D2" d="M549.7,619.8c2,0,5.4,0.8,5.4,3.1v1.4h-1.9v-0.8c0-1.2-2.1-1.8-3.5-1.8c-2.9,0-5.2,2.2-5.2,5.5
				c0,3.2,2.3,5.7,5.2,5.7c2.9,0,4.6-2,4.6-2l1.1,1.5c0,0-2.1,2.4-5.7,2.4c-4.3,0-7.4-3.3-7.4-7.6
				C542.5,623,545.6,619.8,549.7,619.8z"/>
			<path fill="#F8E2D2" d="M557.9,622.2c0-0.3-0.2-0.5-0.5-0.5h-0.8V620h2c0.9,0,1.3,0.4,1.3,1.3v11c0,0.3,0.2,0.5,0.5,0.5h0.8v1.7
				h-2c-0.9,0-1.3-0.4-1.3-1.3V622.2z"/>
			<path fill="#F8E2D2" d="M563.5,626.3c0-0.3-0.2-0.5-0.5-0.5h-0.8v-1.7h2c0.9,0,1.3,0.4,1.3,1.3v6.9c0,0.3,0.2,0.5,0.5,0.5h0.8
				v1.7h-2c-0.9,0-1.3-0.4-1.3-1.3V626.3z M563.6,620h1.8v2.1h-1.8V620z"/>
			<path fill="#F8E2D2" d="M573.3,623.9c2.9,0,4.5,2.2,4.5,4.9c0,0.3-0.1,0.8-0.1,0.8h-7.6c0.1,2.2,1.7,3.5,3.6,3.5
				c1.8,0,3-1.2,3-1.2l0.9,1.4c0,0-1.5,1.5-4,1.5c-3.3,0-5.5-2.4-5.5-5.4C568.1,626,570.3,623.9,573.3,623.9z M575.7,628.1
				c-0.1-1.7-1.2-2.6-2.4-2.6c-1.5,0-2.8,0.9-3.1,2.6H575.7z"/>
			<path fill="#F8E2D2" d="M580.4,626.3c0-0.3-0.2-0.5-0.5-0.5h-0.8v-1.7h1.9c0.9,0,1.3,0.4,1.3,1.2v0.4c0,0.3,0,0.6,0,0.6h0
				c0.4-0.9,1.6-2.4,3.9-2.4c2.5,0,3.6,1.3,3.6,4v4.5c0,0.3,0.2,0.5,0.5,0.5h0.8v1.7h-2c-0.9,0-1.3-0.4-1.3-1.3v-4.9
				c0-1.5-0.3-2.6-2-2.6c-1.6,0-2.9,1-3.3,2.5c-0.1,0.4-0.2,0.9-0.2,1.4v4.9h-2V626.3z"/>
			<path fill="#F8E2D2" d="M593.3,625.7H592v-1.6h1.4v-2.9h2v2.9h2.5v1.6h-2.5v4.8c0,2.1,1.4,2.3,2.2,2.3c0.3,0,0.5,0,0.5,0v1.8
				c0,0-0.3,0-0.7,0c-1.3,0-4-0.4-4-3.9V625.7z"/>
		</g>
	</g>
	<g>
		<g>
			<path fill="none" stroke="#FAAE24" stroke-width="7" stroke-miterlimit="10" d="M570.2,684.8v24.3c0,8.1-6.6,14.7-14.7,14.7
				h-79.2"/>
			<g>
				<polygon fill="#FAAE24" points="481.4,706.3 451.2,723.8 481.4,741.2 				"/>
			</g>
		</g>
	</g>
	<g>
		<g>
			<path fill="none" stroke="#FAAE24" stroke-width="7" stroke-miterlimit="10" d="M451.2,525.5h99.2c8.1,0,14.7,6.6,14.7,14.7v7.6"
				/>
			<g>
				<polygon fill="#FAAE24" points="547.6,542.7 565,572.9 582.5,542.7 				"/>
			</g>
		</g>
	</g>
</g>
<g id="Layer_9">
	<path fill="#DC7676" d="M418.5,1230.3v-39.6h0.2v-4.4v-26.2h11.1v-21.4h-12v-122.6h12v-19h-11.1v-62h11.1v-29.8
		c0-5.5-4.4-9.9-9.9-9.9H166.1c-5.5,0-9.9,4.4-9.9,9.9v165.6v148.9v44c0,5.5,4.4,9.9,9.9,9.9h253.9c5.5,0,9.9-4.4,9.9-9.9v-17h-11.3
		v-6V1230.3z"/>
	<g>
		<path fill="#FAAE24" d="M430.4,1205.5c0.8,0,1.6-0.6,1.6-1.9c0-1.6-1.7-2.7-3.2-2.7h-0.3v0.5
			C428.4,1202.9,428.5,1205.5,430.4,1205.5z"/>
		<path fill="#FAAE24" d="M424.6,1178.7c0,1.9,1.5,3.5,3.6,3.5c2.1,0,3.6-1.6,3.6-3.5c0-1.9-1.5-3.5-3.6-3.5
			C426.1,1175.2,424.6,1176.8,424.6,1178.7z"/>
		<path fill="#FAAE24" d="M413,1159.7v86.9c0,3.3,2.7,5.9,5.9,5.9h16.5c3.3,0,5.9-2.7,5.9-5.9v-86.9c0-3.3-2.7-5.9-5.9-5.9h-16.5
			C415.7,1153.7,413,1156.4,413,1159.7z M419.2,1188.5v-1.7h2v1.7H419.2z M433.3,1227.9v1.9c0,0.9-0.4,1.3-1.3,1.3h-4.8
			c-1.4,0-2.5,0.3-2.5,1.8c0,1.4,1.2,2.5,2.6,2.8c0.4,0.1,0.9,0.2,1.4,0.2h4.6v1.9h-6c-1.3,0-2.5,0.2-2.5,1.7c0,1.5,1.2,2.5,2.7,2.9
			c0.4,0.1,0.8,0.1,1.3,0.1h4.6v1.9h-8c-0.3,0-0.4,0.2-0.4,0.4v0.8h-1.7v-1.9c0-0.9,0.4-1.3,1.1-1.3h0.4c0.3,0,0.6,0,0.6,0v0
			c-1.2-0.5-2.3-1.9-2.3-3.5c0-1.7,0.8-2.7,2.3-3v0c-1.2-0.6-2.3-2-2.3-3.6c0-2.3,1.3-3.3,3.9-3.3h4.4c0.3,0,0.4-0.2,0.4-0.4v-0.8
			H433.3z M433.3,1215.6v1.9c0,0.9-0.4,1.3-1.1,1.3h-0.4c-0.3,0-0.6,0-0.6,0v0c1,0.4,2.3,1.7,2.3,3.7c0,2.3-1.2,3.4-3.9,3.4h-4.4
			c-0.3,0-0.4,0.2-0.4,0.4v0.8h-1.7v-1.9c0-0.9,0.4-1.3,1.2-1.3h4.8c1.4,0,2.5-0.3,2.5-1.9c0-2.1-1.8-3.3-3.8-3.3h-4.7v-1.9h8
			c0.3,0,0.4-0.2,0.4-0.4v-0.8H433.3z M433.3,1208.8c0,0,0,0.3,0,0.7c0,1.3-0.4,3.9-3.8,3.9h-4.8v1.3h-1.6v-1.4h-2.8v-1.9h2.8v-2.4
			h1.6v2.4h4.6c2,0,2.3-1.4,2.3-2.1c0-0.3,0-0.5,0-0.5H433.3z M433.3,1197.8v1.8c0,0.9-0.4,1.3-1.2,1.3c-0.3,0-0.6,0-0.6,0v0
			c0,0,2,0.8,2,3.2c0,1.7-1.1,3.4-3.1,3.4c-3.3,0-3.5-4.4-3.5-6.1v-0.4h-0.1c-1.8,0-2.4,0.7-2.4,2.2c0,0.5,0.1,1.7,0.8,1.7h0.6v1.8
			h-1c-1.7,0-1.9-2.5-1.9-3.5c0-3.3,1.7-4.2,4-4.2h4.3c0.3,0,0.4-0.2,0.4-0.4v-0.8H433.3z M433.3,1191c0,0,0,0.3,0,0.7
			c0,1.3-0.4,3.9-3.8,3.9h-4.8v1.3h-1.6v-1.4h-2.8v-1.9h2.8v-2.4h1.6v2.4h4.6c2,0,2.3-1.4,2.3-2.1c0-0.3,0-0.5,0-0.5H433.3z
			 M433.3,1185.4v1.9c0,0.9-0.4,1.3-1.3,1.3h-6.7c-0.3,0-0.4,0.2-0.4,0.4v0.8h-1.7v-1.9c0-0.9,0.4-1.3,1.3-1.3h6.7
			c0.3,0,0.4-0.2,0.4-0.4v-0.8H433.3z M433.5,1178.7c0,3-2.2,5.4-5.3,5.4c-3.1,0-5.3-2.4-5.3-5.4c0-3,2.2-5.4,5.3-5.4
			C431.3,1173.2,433.5,1175.7,433.5,1178.7z M433.3,1160.4v1.9c0,0.9-0.4,1.3-1.3,1.3h-4.8c-1.4,0-2.5,0.3-2.5,1.9
			c0,1.6,1,2.8,2.5,3.2c0.4,0.1,0.9,0.2,1.4,0.2h4.7v1.9h-8c-0.3,0-0.4,0.2-0.4,0.4v0.8h-1.7v-1.9c0-0.9,0.4-1.3,1.1-1.3h0.4
			c0.3,0,0.6,0,0.6,0v0c-0.9-0.4-2.3-1.6-2.3-3.8c0-2.4,1.3-3.5,3.9-3.5h4.4c0.3,0,0.4-0.2,0.4-0.4v-0.8H433.3z"/>
	</g>
	<g>
		<path fill="#FAAE24" d="M424.5,962.4c0,1.5,0.9,2.7,2.6,3V960C425.4,960,424.5,961.1,424.5,962.4z"/>
		<path fill="#FAAE24" d="M424.6,986.9c0,1.6,1.3,2.9,3.6,2.9c2.2,0,3.6-1.2,3.6-2.9c0-1.5-1.1-2.9-3.6-2.9
			C426.4,984.1,424.6,985,424.6,986.9z"/>
		<path fill="#FAAE24" d="M413,937.6v55.5c0,3.3,2.7,5.9,5.9,5.9h16.5c3.3,0,5.9-2.7,5.9-5.9v-55.5c0-3.3-2.7-5.9-5.9-5.9h-16.5
			C415.7,931.7,413,934.4,413,937.6z M424.8,980.9v0.8c0,0.3,0.1,0.4,0.4,0.4h12v1.9h-4.6c-0.5,0-0.9,0-0.9,0v0c0,0,1.7,0.9,1.7,3.3
			c0,2.7-2.2,4.4-5.3,4.4c-3.2,0-5.3-1.9-5.3-4.6c0-2.4,1.7-3.3,1.7-3.3v0c0,0-0.2,0-0.5,0c-0.6,0-1-0.4-1-1.2v-1.8H424.8z
			 M433.3,968.6v1.9c0,0.9-0.4,1.3-1.1,1.3h-0.4c-0.3,0-0.6,0-0.6,0v0c1,0.4,2.3,1.7,2.3,3.7c0,2.3-1.2,3.4-3.9,3.4h-4.4
			c-0.3,0-0.4,0.2-0.4,0.4v0.8h-1.7v-1.9c0-0.9,0.4-1.3,1.2-1.3h4.8c1.4,0,2.5-0.3,2.5-1.9c0-2.1-1.8-3.3-3.8-3.3h-4.7v-1.9h8
			c0.3,0,0.4-0.2,0.4-0.4v-0.8H433.3z M428.5,958v7.4c2.2-0.1,3.4-1.7,3.4-3.5c0-1.7-1.2-3-1.2-3l1.4-0.8c0,0,1.5,1.5,1.5,3.9
			c0,3.2-2.3,5.4-5.3,5.4c-3.2,0-5.3-2.2-5.3-5.1c0-2.8,2.1-4.4,4.7-4.4C427.9,958,428.5,958,428.5,958z M425,949.8
			c0,0-0.1,0.3-0.1,0.6c0,1.2,0.9,2.4,2.4,2.8c0.6,0.2,1.2,0.2,1.8,0.2h4.1v1.9h-8c-0.3,0-0.4,0.2-0.4,0.4v0.8h-1.7v-1.8
			c0-0.9,0.4-1.3,1.2-1.3h0.6c0.4,0,0.7,0,0.7,0v0c-1.5-0.5-2.6-1.6-2.6-3.2c0-0.3,0-0.5,0-0.5H425z M424.8,938.5v0.3
			c0,0.3,0.1,0.5,0.4,0.6l9.9,4c1.6,0.6,2.4,1.8,2.4,3.3c0,1.5-1,2.4-1,2.4l-1.4-0.8c0,0,0.7-0.6,0.7-1.5c0-0.8-0.6-1.4-1.5-1.8
			l-1.1-0.5l-8,3.5c-0.3,0.1-0.4,0.3-0.4,0.6v0.2h-1.7v-1.1c0-0.8,0.2-1.1,1-1.4l5.7-2.3c0.5-0.2,1.2-0.4,1.2-0.4v0
			c0,0-0.7-0.1-1.2-0.3l-5.7-2.1c-0.8-0.3-1-0.7-1-1.5v-1.2H424.8z"/>
	</g>
	<g>
		<path fill="#DC7676" stroke="#F8E2D2" stroke-miterlimit="10" d="M13.1,948.2v72c0,5.6,17.2,10.2,38.4,10.2
			c21.2,0,38.4-4.6,38.4-10.2v-72H13.1z"/>
		<ellipse fill="#DC7676" stroke="#F8E2D2" stroke-miterlimit="10" cx="51.5" cy="948.2" rx="38.4" ry="10.2"/>
		<g>
			<path fill="#DC7676" d="M1.2,923.5l-1.4,0.5l-0.7-1.9l6.2-2.2c4.6-1.7,8.7,0,10.5,4.8c1.8,4.8-0.3,8.8-4.9,10.4l-3.4,1.2
				c-1,0.4-1.5,0.1-1.9-0.9L1.2,923.5z M8,934.1l2-0.7c3.4-1.2,4.9-4.1,3.5-7.8c-1.4-3.7-4.3-4.9-7.7-3.7l-2.5,0.9l4,11.1
				C7.5,934.1,7.7,934.2,8,934.1z"/>
			<path fill="#DC7676" d="M25.4,924.2l0.5-0.1l0-0.1c-0.3-2-1.2-2.6-3-2.3c-0.5,0.1-1.9,0.5-1.7,1.2l0.1,0.7l-2.1,0.3l-0.2-1.1
				c-0.3-1.9,2.5-2.6,3.6-2.8c3.7-0.6,5,1.2,5.5,3.7l0.8,4.9c0.1,0.3,0.3,0.5,0.6,0.4l0.9-0.2l0.3,1.9l-2.1,0.3
				c-1,0.2-1.5-0.3-1.6-1.1c-0.1-0.4-0.1-0.7-0.1-0.7l0,0c0,0-0.5,2.4-3.3,2.9c-2,0.3-4.1-0.5-4.5-2.8
				C18.5,925.6,23.5,924.5,25.4,924.2z M23.8,930.3c1.9-0.3,2.7-2.5,2.5-4.2l-0.1-0.4l-0.6,0.1c-1.7,0.3-4.6,0.9-4.3,3
				C21.5,929.7,22.4,930.5,23.8,930.3z"/>
			<path fill="#DC7676" d="M32,920.7l-1.5,0.1l-0.2-1.8l1.6-0.1l-0.3-3.2l2.2-0.2l0.3,3.2l2.8-0.3l0.2,1.8l-2.8,0.3l0.5,5.3
				c0.2,2.3,1.8,2.5,2.7,2.4c0.3,0,0.5-0.1,0.5-0.1l0.2,2c0,0-0.3,0.1-0.8,0.1c-1.5,0.1-4.5,0-4.8-3.9L32,920.7z"/>
			<path fill="#DC7676" d="M46.2,922.4l0.5,0l0-0.1c-0.1-2-0.9-2.8-2.7-2.7c-0.6,0-1.9,0.2-1.9,1l0,0.7l-2.1,0.1l0-1.1
				c-0.1-1.9,2.8-2.3,3.9-2.3c3.8-0.1,4.8,1.8,4.9,4.4l0.2,4.9c0,0.3,0.2,0.5,0.5,0.5l0.9,0l0.1,1.9l-2.1,0.1c-1,0-1.5-0.5-1.5-1.3
				c0-0.4,0-0.7,0-0.7l0,0c0,0-0.8,2.3-3.6,2.4c-2,0.1-4-1.1-4.1-3.4C39.2,922.9,44.3,922.5,46.2,922.4z M43.9,928.2
				c1.9-0.1,3-2.1,3-3.8l0-0.4l-0.6,0c-1.7,0.1-4.7,0.3-4.6,2.4C41.6,927.4,42.4,928.3,43.9,928.2z"/>
			<path fill="#DC7676" d="M53.2,915.7c0-0.3-0.2-0.5-0.5-0.5l-0.9,0l0.1-1.9l2.2,0.1c1,0,1.5,0.5,1.4,1.5l-0.1,3.8
				c0,0.6-0.1,1-0.1,1l0,0c0,0,1.1-1.9,3.8-1.8c3.1,0.1,5,2.7,4.9,6.3c-0.1,3.7-2.4,6-5.5,5.9c-2.6-0.1-3.6-2.1-3.6-2.1l0,0
				c0,0,0,0.4,0,0.9l0,0.8l-2.1-0.1L53.2,915.7z M58.3,928.1c1.8,0.1,3.4-1.4,3.5-4c0.1-2.5-1.2-4.2-3.2-4.3
				c-1.7-0.1-3.4,1.1-3.5,4.1C55,925.9,56,928,58.3,928.1z"/>
			<path fill="#DC7676" d="M72.9,923.6l0.5,0.1l0-0.1c0.2-2-0.4-2.8-2.3-3c-0.5-0.1-1.9-0.1-2,0.7l-0.1,0.7l-2.1-0.2l0.1-1.1
				c0.2-1.9,3.1-1.9,4.2-1.7c3.7,0.4,4.5,2.5,4.3,5l-0.5,4.9c0,0.3,0.1,0.5,0.4,0.6l0.9,0.1l-0.2,1.9l-2.1-0.2
				c-1-0.1-1.4-0.7-1.3-1.5c0-0.4,0.1-0.7,0.1-0.7l0,0c0,0-1.2,2.2-3.9,1.9c-2-0.2-3.8-1.6-3.5-4C65.9,923,70.9,923.3,72.9,923.6z
				 M69.7,929c1.9,0.2,3.3-1.6,3.5-3.3l0-0.4l-0.6-0.1c-1.7-0.2-4.7-0.4-4.9,1.7C67.6,927.8,68.2,928.8,69.7,929z"/>
			<path fill="#DC7676" d="M78.7,928.4c0,0,1,2,3.1,2.4c1.1,0.2,2.1-0.1,2.3-1.1c0.4-2.1-5.9-3.1-5.1-6.8c0.4-2.2,2.6-2.8,4.9-2.3
				c1.4,0.3,3.6,1.2,3.3,3l-0.2,1.1l-2-0.4l0.1-0.6c0.1-0.7-0.8-1.2-1.5-1.3c-1.3-0.3-2.2,0-2.4,0.9c-0.4,2.2,5.9,2.9,5.1,6.8
				c-0.4,2-2.5,3-4.9,2.5c-3-0.6-4.2-2.9-4.2-2.9L78.7,928.4z"/>
			<path fill="#DC7676" d="M96.5,924.1c3.1,1.2,3.8,4.1,2.8,6.9c-0.1,0.3-0.4,0.8-0.4,0.8l-7.9-3c-0.8,2.4,0.4,4.3,2.4,5.1
				c1.9,0.7,3.7-0.1,3.7-0.1l0.3,1.8c0,0-2.2,1-4.8,0c-3.4-1.3-4.9-4.7-3.6-7.9C90.2,924.3,93.4,922.9,96.5,924.1z M97.4,929.5
				c0.6-1.8-0.2-3.2-1.5-3.7c-1.6-0.6-3.2-0.1-4.3,1.6L97.4,929.5z"/>
		</g>
		<path fill="#DC7676" stroke="#F8E2D2" stroke-miterlimit="10" d="M51.5,982.9c-21.2,0-38.4-4.6-38.4-10.2"/>
		<path fill="#DC7676" stroke="#F8E2D2" stroke-miterlimit="10" d="M89.9,972.7c0,5.6-17.2,10.2-38.4,10.2"/>
		<path fill="#DC7676" stroke="#F8E2D2" stroke-miterlimit="10" d="M51.5,1007.4c-21.2,0-38.4-4.6-38.4-10.2"/>
		<path fill="#DC7676" stroke="#F8E2D2" stroke-miterlimit="10" d="M89.9,997.2c0,5.6-17.2,10.2-38.4,10.2"/>
	</g>
	<g>
		<g>
			<path fill="#F8E2D2" d="M236.5,1227.6h-36c-4.8,0-8.7-3.9-8.7-8.7v-24c0-4.8,3.9-8.7,8.7-8.7h36c4.8,0,8.7,3.9,8.7,8.7v24
				C245.2,1223.7,241.3,1227.6,236.5,1227.6z"/>
		</g>
		<g>
			<path fill="#F8E2D2" d="M368,1233.2h-36c-4.8,0-8.7-3.9-8.7-8.7v-24c0-4.8,3.9-8.7,8.7-8.7h36c4.8,0,8.7,3.9,8.7,8.7v24
				C376.7,1229.3,372.8,1233.2,368,1233.2z"/>
		</g>
		<g>
			<path fill="#F8E2D2" d="M279.9,1239.7c2.3,0,6.4,1,6.4,3.7v1.7h-2.2v-1c0-1.4-2.4-2.1-4.1-2.1c-3.4,0-6,2.6-6,6.4
				c0,3.7,2.7,6.6,6.1,6.6c3.4,0,5.4-2.3,5.4-2.3l1.3,1.7c0,0-2.4,2.8-6.7,2.8c-5.1,0-8.6-3.9-8.6-8.9
				C271.4,1243.4,275.1,1239.7,279.9,1239.7z"/>
			<path fill="#F8E2D2" d="M294.8,1244.5c3.6,0,6.6,2.7,6.6,6.3c0,3.7-2.9,6.4-6.6,6.4c-3.6,0-6.5-2.7-6.5-6.4
				C288.3,1247.1,291.2,1244.5,294.8,1244.5z M294.8,1255.2c2.3,0,4.2-1.8,4.2-4.4c0-2.5-1.9-4.3-4.2-4.3c-2.3,0-4.2,1.8-4.2,4.3
				C290.7,1253.3,292.5,1255.2,294.8,1255.2z"/>
			<path fill="#F8E2D2" d="M304.3,1247.3c0-0.4-0.2-0.5-0.5-0.5h-1v-2h2.2c1.1,0,1.5,0.5,1.5,1.3v0.5c0,0.4,0,0.7,0,0.7h0
				c0.6-1.4,2.3-2.8,4.2-2.8c2.1,0,3.2,0.9,3.6,2.8h0c0.7-1.5,2.4-2.8,4.3-2.8c2.7,0,4,1.6,4,4.7v5.3c0,0.4,0.2,0.5,0.5,0.5h1v2
				h-2.3c-1.1,0-1.5-0.5-1.5-1.5v-5.7c0-1.7-0.3-3-2.1-3c-1.7,0-3,1.5-3.4,3.1c-0.1,0.5-0.2,1-0.2,1.7v5.5h-2.3v-7.3
				c0-1.6-0.2-3-2.1-3c-1.8,0-3,1.5-3.5,3.2c-0.1,0.5-0.2,1-0.2,1.6v5.5h-2.3V1247.3z"/>
			<path fill="#F8E2D2" d="M326.8,1247.3c0-0.4-0.2-0.5-0.5-0.5h-1v-2h2.2c1.1,0,1.5,0.5,1.5,1.3v0.5c0,0.4,0,0.7,0,0.7h0
				c0.6-1.4,2.3-2.8,4.2-2.8c2.1,0,3.2,0.9,3.6,2.8h0c0.7-1.5,2.4-2.8,4.3-2.8c2.7,0,4,1.6,4,4.7v5.3c0,0.4,0.2,0.5,0.5,0.5h1v2
				h-2.3c-1.1,0-1.5-0.5-1.5-1.5v-5.7c0-1.7-0.3-3-2.1-3c-1.7,0-3,1.5-3.4,3.1c-0.1,0.5-0.2,1-0.2,1.7v5.5h-2.3v-7.3
				c0-1.6-0.2-3-2.1-3c-1.8,0-3,1.5-3.5,3.2c-0.1,0.5-0.2,1-0.2,1.6v5.5h-2.3V1247.3z"/>
			<path fill="#F8E2D2" d="M355.4,1249.3h0.5v-0.1c0-2.1-0.8-2.9-2.7-2.9c-0.6,0-2,0.1-2,0.9v0.7h-2.2v-1.2c0-2,3-2.3,4.2-2.3
				c3.9,0,5,2.1,5,4.8v5.2c0,0.4,0.2,0.5,0.5,0.5h1v2h-2.2c-1.1,0-1.5-0.5-1.5-1.4c0-0.4,0-0.7,0-0.7h0c0,0-1,2.4-3.9,2.4
				c-2.1,0-4.1-1.3-4.1-3.7C348.1,1249.6,353.4,1249.3,355.4,1249.3z M352.7,1255.3c2,0,3.2-2.1,3.2-3.9v-0.4h-0.6
				c-1.8,0-4.9,0.1-4.9,2.3C350.4,1254.3,351.2,1255.3,352.7,1255.3z"/>
			<path fill="#F8E2D2" d="M362.3,1247.3c0-0.4-0.2-0.5-0.5-0.5h-1v-2h2.2c1,0,1.5,0.5,1.5,1.3v0.5c0,0.4,0,0.7,0,0.7h0
				c0.5-1.1,1.9-2.8,4.6-2.8c2.9,0,4.2,1.6,4.2,4.7v5.3c0,0.4,0.2,0.5,0.5,0.5h1v2h-2.3c-1.1,0-1.5-0.5-1.5-1.5v-5.7
				c0-1.7-0.3-3-2.3-3c-1.9,0-3.4,1.2-3.8,3c-0.2,0.5-0.2,1-0.2,1.6v5.7h-2.3V1247.3z"/>
			<path fill="#F8E2D2" d="M381.7,1244.5c2.8,0,3.7,1.9,3.7,1.9h0c0,0,0-0.4,0-0.8v-3c0-0.4-0.2-0.5-0.5-0.5h-1v-2h2.3
				c1.1,0,1.5,0.5,1.5,1.5v12.9c0,0.4,0.2,0.5,0.5,0.5h1v2H387c-1.1,0-1.5-0.5-1.5-1.3c0-0.4,0-0.6,0-0.6h0c0,0-1,2.2-4,2.2
				c-3.3,0-5.4-2.6-5.4-6.4C376.2,1247,378.4,1244.5,381.7,1244.5z M385.5,1250.8c0-2.2-1.1-4.3-3.5-4.3c-1.9,0-3.5,1.6-3.5,4.3
				c0,2.6,1.4,4.3,3.4,4.3C383.8,1255.2,385.5,1253.9,385.5,1250.8z"/>
		</g>
		<g>
			<path fill="#F8E2D2" d="M184.3,1163.6h-1.6v-2.1h10c1.1,0,1.5,0.5,1.5,1.5v2.1h-2.2v-1.1c0-0.4-0.2-0.5-0.5-0.5h-4.8v5.3h5.9v2.1
				h-5.9v4.9c0,0.3,0.2,0.5,0.5,0.5h4.9c0.3,0,0.5-0.2,0.5-0.5v-1.1h2.2v2.1c0,1.1-0.5,1.5-1.5,1.5h-7.5c-1.1,0-1.5-0.5-1.5-1.5
				V1163.6z"/>
			<path fill="#F8E2D2" d="M196.7,1168.9c-0.1-0.4-0.4-0.5-0.7-0.5h-0.2v-2h1.2c1.1,0,1.5,0.3,1.8,1.2l2.6,7
				c0.2,0.7,0.4,1.6,0.4,1.6h0c0,0,0.2-0.9,0.4-1.6l2.6-7c0.4-1,0.8-1.2,1.8-1.2h1.1v2h-0.2c-0.4,0-0.6,0.1-0.8,0.5l-3.7,9.7h-2.7
				L196.7,1168.9z"/>
			<path fill="#F8E2D2" d="M214.9,1166.1c3.4,0,5.2,2.5,5.2,5.7c0,0.3-0.1,1-0.1,1h-8.9c0.1,2.6,2,4.1,4.2,4.1
				c2.1,0,3.6-1.4,3.6-1.4l1,1.7c0,0-1.8,1.8-4.7,1.8c-3.8,0-6.5-2.8-6.5-6.4C208.8,1168.6,211.4,1166.1,214.9,1166.1z M217.7,1171
				c-0.1-2-1.3-3.1-2.9-3.1c-1.8,0-3.2,1.1-3.6,3.1H217.7z"/>
			<path fill="#F8E2D2" d="M223.2,1168.9c0-0.4-0.2-0.5-0.5-0.5h-1v-2h2.2c1,0,1.5,0.5,1.5,1.3v0.5c0,0.4,0,0.7,0,0.7h0
				c0.5-1.1,1.9-2.8,4.6-2.8c2.9,0,4.2,1.6,4.2,4.7v5.3c0,0.4,0.2,0.5,0.5,0.5h1v2h-2.3c-1.1,0-1.5-0.5-1.5-1.5v-5.7
				c0-1.7-0.3-3-2.3-3c-1.9,0-3.4,1.2-3.8,3c-0.2,0.5-0.2,1-0.2,1.6v5.7h-2.3V1168.9z"/>
			<path fill="#F8E2D2" d="M238.3,1168.3h-1.6v-1.9h1.6v-3.3h2.3v3.3h2.9v1.9h-2.9v5.6c0,2.4,1.7,2.7,2.6,2.7c0.3,0,0.6,0,0.6,0v2.1
				c0,0-0.3,0-0.8,0c-1.5,0-4.6-0.5-4.6-4.5V1168.3z"/>
			<path fill="#F8E2D2" d="M246.5,1175.1c0,0,1.4,1.8,3.7,1.8c1.1,0,2.1-0.5,2.1-1.6c0-2.2-6.6-1.9-6.6-5.9c0-2.3,2-3.4,4.5-3.4
				c1.5,0,4,0.5,4,2.4v1.2h-2.1v-0.6c0-0.7-1.1-1-1.8-1c-1.4,0-2.3,0.5-2.3,1.4c0,2.3,6.6,1.8,6.6,5.9c0,2.2-1.9,3.6-4.5,3.6
				c-3.2,0-4.8-2.1-4.8-2.1L246.5,1175.1z"/>
		</g>
		<path fill="#F8E2D2" stroke="#DC7676" stroke-width="2" stroke-miterlimit="10" d="M241.6,1233.2h-36c-4.8,0-8.7-3.9-8.7-8.7v-24
			c0-4.8,3.9-8.7,8.7-8.7h36c4.8,0,8.7,3.9,8.7,8.7v24C250.3,1229.3,246.4,1233.2,241.6,1233.2z"/>
		<path fill="#F8E2D2" stroke="#DC7676" stroke-width="2" stroke-miterlimit="10" d="M247.3,1239.2h-36c-4.8,0-8.7-3.9-8.7-8.7v-24
			c0-4.8,3.9-8.7,8.7-8.7h36c4.8,0,8.7,3.9,8.7,8.7v24C255.9,1235.4,252.1,1239.2,247.3,1239.2z"/>
	</g>
	<g>
		<g>
			<path fill="#F8E2D2" d="M259.2,973.9h-36c-4.8,0-8.7-3.9-8.7-8.7v-24c0-4.8,3.9-8.7,8.7-8.7h36c4.8,0,8.7,3.9,8.7,8.7v24
				C267.8,970,264,973.9,259.2,973.9z"/>
		</g>
		<g>
			<line fill="#F8E2D2" x1="279.7" y1="1019.5" x2="255.7" y2="973.9"/>
			<g>
				<line fill="none" stroke="#F8E2D2" stroke-width="4" stroke-miterlimit="10" x1="279.7" y1="1019.5" x2="262.4" y2="986.6"/>
				<g>
					<polygon fill="#F8E2D2" points="272.5,984.5 255.7,973.9 254.9,993.8 					"/>
				</g>
			</g>
		</g>
		<g>
			<path fill="#F8E2D2" d="M340.3,973.9h-36c-4.8,0-8.7-3.9-8.7-8.7v-24c0-4.8,3.9-8.7,8.7-8.7h36c4.8,0,8.7,3.9,8.7,8.7v24
				C349,970,345.1,973.9,340.3,973.9z"/>
		</g>
		<g>
			<line fill="#F8E2D2" x1="292.1" y1="1013.4" x2="310.5" y2="973.9"/>
			<g>
				<line fill="none" stroke="#F8E2D2" stroke-width="4" stroke-miterlimit="10" x1="292.1" y1="1013.4" x2="304.5" y2="986.9"/>
				<g>
					<polygon fill="#F8E2D2" points="312.3,993.7 310.5,973.9 294.2,985.3 					"/>
				</g>
			</g>
		</g>
		<g>
			<path fill="#F8E2D2" d="M300.3,1043.9h-36c-4.8,0-8.7-3.9-8.7-8.7v-24c0-4.8,3.9-8.7,8.7-8.7h36c4.8,0,8.7,3.9,8.7,8.7v24
				C309,1040,305.1,1043.9,300.3,1043.9z"/>
		</g>
		<g>
			<path fill="#F8E2D2" d="M218.8,908.4c4.9,0,8.7,3.8,8.7,8.7c0,2.1-0.8,4.1-2,5.6l1.9,1.9l-1.4,1.5l-1.9-1.9
				c-1.5,1.2-3.3,1.8-5.3,1.8c-4.9,0-8.7-3.9-8.7-8.9C210.2,912.2,213.9,908.4,218.8,908.4z M218.8,923.7c2.2,0,3.6-1.2,3.6-1.2
				l-1.9-1.8l1.4-1.6l1.8,1.9c0.8-1.1,1.2-2.5,1.2-3.9c0-3.7-2.7-6.4-6.2-6.4c-3.5,0-6.2,2.7-6.2,6.4
				C212.7,920.8,215.4,923.7,218.8,923.7z"/>
			<path fill="#F8E2D2" d="M230.5,916c0-0.4-0.2-0.5-0.5-0.5h-1v-2h2.3c1.1,0,1.6,0.5,1.6,1.5v5.8c0,1.7,0.3,3,2.3,3
				c2.5,0,4-2.2,4-4.6v-5.7h2.3v9.6c0,0.4,0.2,0.5,0.5,0.5h1v2h-2.2c-1,0-1.5-0.5-1.5-1.3v-0.5c0-0.4,0-0.7,0-0.7h0
				c-0.5,1.2-2.1,2.8-4.5,2.8c-2.7,0-4.1-1.4-4.1-4.7V916z"/>
			<path fill="#F8E2D2" d="M250.4,913.2c3.4,0,5.2,2.5,5.2,5.7c0,0.3-0.1,1-0.1,1h-8.9c0.1,2.6,2,4.1,4.2,4.1c2.1,0,3.6-1.4,3.6-1.4
				l1,1.7c0,0-1.8,1.8-4.7,1.8c-3.8,0-6.5-2.8-6.5-6.4C244.3,915.7,247,913.2,250.4,913.2z M253.2,918.2c-0.1-2-1.3-3.1-2.9-3.1
				c-1.8,0-3.2,1.1-3.6,3.1H253.2z"/>
			<path fill="#F8E2D2" d="M258.7,916c0-0.4-0.2-0.5-0.5-0.5h-1v-2h2.2c1.1,0,1.6,0.4,1.6,1.4v0.8c0,0.5,0,0.8,0,0.8h0
				c0.6-1.8,2-3.2,3.8-3.2c0.3,0,0.6,0,0.6,0v2.3c0,0-0.3-0.1-0.7-0.1c-1.5,0-2.9,1.1-3.4,2.9c-0.2,0.7-0.3,1.4-0.3,2.2v5h-2.3V916z
				"/>
			<path fill="#F8E2D2" d="M269.2,928.7c0.9,0,1.7-0.7,2.1-1.8l0.6-1.3l-4.2-9.6c-0.2-0.4-0.4-0.5-0.8-0.5h-0.3v-2h1.4
				c1,0,1.3,0.3,1.7,1.2l2.8,6.8c0.2,0.6,0.4,1.5,0.4,1.5h0c0,0,0.2-0.8,0.4-1.5l2.5-6.8c0.4-1,0.8-1.2,1.8-1.2h1.4v2h-0.3
				c-0.4,0-0.6,0.1-0.8,0.5l-4.8,11.9c-0.7,1.9-2.2,2.9-3.9,2.9c-1.8,0-2.9-1.2-2.9-1.2l1-1.7C267.4,927.9,268.1,928.7,269.2,928.7z
				"/>
			<path fill="#F8E2D2" d="M286.3,923.6h0.8c0.3,0,0.5-0.2,0.5-0.5l1.2-14.4h2.5l4,9c0.4,0.9,0.8,2.1,0.8,2.1h0c0,0,0.4-1.2,0.8-2.1
				l4-9h2.5l1.2,14.4c0,0.3,0.2,0.5,0.5,0.5h0.8v2.1h-2.1c-1.1,0-1.5-0.5-1.5-1.5l-0.7-9c-0.1-1,0-2.5,0-2.5h0c0,0-0.5,1.6-0.9,2.5
				l-3.4,7.4h-2l-3.4-7.4c-0.4-0.9-0.9-2.5-0.9-2.5h0c0,0,0,1.5,0,2.5l-0.7,9c-0.1,1.1-0.5,1.5-1.6,1.5h-2.1V923.6z"/>
			<path fill="#F8E2D2" d="M313.8,913.2c3.6,0,6.6,2.7,6.6,6.3c0,3.7-2.9,6.4-6.6,6.4s-6.5-2.7-6.5-6.4
				C307.3,915.9,310.2,913.2,313.8,913.2z M313.8,923.9c2.3,0,4.2-1.8,4.2-4.4c0-2.5-1.9-4.3-4.2-4.3c-2.3,0-4.2,1.8-4.2,4.3
				C309.7,922.1,311.5,923.9,313.8,923.9z"/>
			<path fill="#F8E2D2" d="M327.6,913.2c2.8,0,3.7,1.9,3.7,1.9h0c0,0,0-0.4,0-0.8v-3c0-0.4-0.2-0.5-0.5-0.5h-1v-2h2.3
				c1.1,0,1.5,0.5,1.5,1.5v12.9c0,0.4,0.2,0.5,0.5,0.5h1v2H333c-1.1,0-1.5-0.5-1.5-1.3c0-0.4,0-0.6,0-0.6h0c0,0-1,2.2-4,2.2
				c-3.3,0-5.4-2.6-5.4-6.4C322.1,915.7,324.4,913.2,327.6,913.2z M331.4,919.6c0-2.2-1.1-4.3-3.5-4.3c-1.9,0-3.5,1.6-3.5,4.3
				c0,2.6,1.4,4.3,3.4,4.3C329.7,923.9,331.4,922.7,331.4,919.6z"/>
			<path fill="#F8E2D2" d="M342.7,913.2c3.4,0,5.2,2.5,5.2,5.7c0,0.3-0.1,1-0.1,1H339c0.1,2.6,2,4.1,4.2,4.1c2.1,0,3.6-1.4,3.6-1.4
				l1,1.7c0,0-1.8,1.8-4.7,1.8c-3.8,0-6.5-2.8-6.5-6.4C336.6,915.7,339.3,913.2,342.7,913.2z M345.5,918.2c-0.1-2-1.3-3.1-2.9-3.1
				c-1.8,0-3.2,1.1-3.6,3.1H345.5z"/>
			<path fill="#F8E2D2" d="M351,911.2c0-0.4-0.2-0.5-0.5-0.5h-1v-2h2.3c1.1,0,1.5,0.5,1.5,1.5v12.9c0,0.4,0.2,0.5,0.5,0.5h1v2h-2.3
				c-1.1,0-1.5-0.5-1.5-1.5V911.2z"/>
		</g>
	</g>
	<g>
		<path fill="#DC7676" stroke="#F8E2D2" stroke-miterlimit="10" d="M11.4,1089.4v72c0,5.6,17.2,10.2,38.4,10.2
			c21.2,0,38.4-4.6,38.4-10.2v-72H11.4z"/>
		<ellipse fill="#DC7676" stroke="#F8E2D2" stroke-miterlimit="10" cx="49.8" cy="1089.4" rx="38.4" ry="10.2"/>
		<g>
			<path fill="#DC7676" d="M-4,1071.7l-1.2,0.6l-0.8-1.5l7.4-3.8c0.8-0.4,1.3-0.3,1.7,0.5L4,1069l-1.6,0.8l-0.4-0.8
				c-0.1-0.3-0.3-0.3-0.6-0.2l-3.6,1.9l2,3.9l4.4-2.3l0.8,1.5l-4.4,2.3l1.9,3.6c0.1,0.2,0.3,0.3,0.6,0.2l3.7-1.9
				c0.2-0.1,0.3-0.3,0.2-0.6l-0.4-0.8l1.6-0.8l0.8,1.6c0.4,0.8,0.3,1.3-0.5,1.7l-5.6,2.9c-0.8,0.4-1.3,0.3-1.7-0.5L-4,1071.7z"/>
			<path fill="#DC7676" d="M8.4,1070.8c-0.2-0.3-0.4-0.3-0.7-0.2l-0.2,0.1l-0.4-1.6l1-0.3c0.9-0.2,1.3-0.1,1.7,0.6l3.6,5.1
				c0.3,0.5,0.7,1.2,0.7,1.2l0,0c0,0,0-0.8,0-1.4l0.6-6.2c0.1-0.9,0.4-1.2,1.2-1.4l0.9-0.2l0.4,1.6l-0.2,0c-0.3,0.1-0.5,0.2-0.5,0.6
				l-1,8.6l-2.2,0.6L8.4,1070.8z"/>
			<path fill="#DC7676" d="M23.3,1065.3c2.8-0.4,4.6,1.4,5,4c0,0.3,0.1,0.8,0.1,0.8l-7.3,1.1c0.4,2.1,2.2,3.1,4,2.8
				c1.7-0.3,2.7-1.6,2.7-1.6l1,1.2c0,0-1.3,1.7-3.6,2.1c-3.2,0.5-5.7-1.5-6.1-4.4C18.6,1068.1,20.4,1065.7,23.3,1065.3z M26.2,1069
				c-0.3-1.7-1.5-2.4-2.7-2.2c-1.5,0.2-2.5,1.3-2.6,3L26.2,1069z"/>
			<path fill="#DC7676" d="M30.9,1066.6c0-0.3-0.2-0.4-0.5-0.4l-0.8,0.1l-0.1-1.7l1.9-0.1c0.9-0.1,1.3,0.3,1.4,1l0,0.4
				c0,0.3,0,0.6,0,0.6l0,0c0.3-0.9,1.4-2.4,3.6-2.6c2.4-0.2,3.6,1,3.8,3.6l0.3,4.4c0,0.3,0.2,0.4,0.5,0.4l0.8-0.1l0.1,1.7L40,1074
				c-0.9,0.1-1.3-0.3-1.4-1.2l-0.4-4.7c-0.1-1.4-0.5-2.5-2.1-2.4c-1.6,0.1-2.7,1.2-3,2.7c-0.1,0.4-0.1,0.9-0.1,1.4l0.4,4.7l-1.9,0.1
				L30.9,1066.6z"/>
			<path fill="#DC7676" d="M43.7,1065.3l-1.3,0l0-1.6l1.4,0l-0.1-2.8l1.9,0l0.1,2.8l2.4-0.1l0,1.6l-2.4,0.1l0.1,4.6
				c0,2,1.4,2.2,2.2,2.2c0.3,0,0.5,0,0.5,0l0,1.7c0,0-0.3,0-0.7,0.1c-1.3,0-3.9-0.3-3.9-3.7L43.7,1065.3z"/>
			<path fill="#DC7676" d="M56.3,1070.6c0,0,1.3,1.8,3.4,1.9c1.3,0.1,2.5-0.7,2.5-2c0.2-3-6.7-2.9-6.5-7.2c0.1-2.1,2.1-3.7,4.7-3.5
				c1.5,0.1,4,0.9,3.9,2.8l-0.1,1.2l-1.8-0.1l0-0.7c0-0.7-1-1.3-2.1-1.4c-1.5-0.1-2.5,0.7-2.6,1.8c-0.1,2.9,6.7,2.6,6.4,7.2
				c-0.1,2.2-1.9,3.9-4.7,3.8c-3-0.2-4.6-2.3-4.6-2.3L56.3,1070.6z"/>
			<path fill="#DC7676" d="M67.4,1066l-1.3-0.1l0.2-1.6l1.4,0.1l0.3-2.8l1.9,0.2l-0.3,2.8l2.4,0.3l-0.2,1.6l-2.4-0.3l-0.5,4.6
				c-0.2,2,1.2,2.4,1.9,2.5c0.3,0,0.5,0,0.5,0L71,1075c0,0-0.3,0-0.7,0c-1.3-0.1-3.8-0.8-3.4-4.2L67.4,1066z"/>
			<path fill="#DC7676" d="M79.2,1065.7c3,0.5,5,3.1,4.5,6.1c-0.5,3-3.3,4.8-6.3,4.3c-3-0.5-5-3.1-4.4-6.2
				C73.5,1067,76.2,1065.2,79.2,1065.7z M77.7,1074.5c1.9,0.3,3.7-0.9,4.1-3c0.4-2.1-0.9-3.8-2.8-4.1c-1.9-0.3-3.7,0.9-4,3
				C74.5,1072.4,75.8,1074.2,77.7,1074.5z"/>
			<path fill="#DC7676" d="M87,1069.8c0.1-0.3,0-0.5-0.3-0.5l-0.8-0.2l0.5-1.6l1.8,0.5c0.8,0.2,1.2,0.7,0.9,1.5l-0.2,0.6
				c-0.1,0.4-0.2,0.7-0.2,0.7l0,0c0.9-1.3,2.3-2.1,3.8-1.7c0.3,0.1,0.5,0.2,0.5,0.2l-0.5,1.8c0,0-0.2-0.1-0.5-0.2
				c-1.2-0.3-2.5,0.2-3.4,1.5c-0.3,0.5-0.6,1.1-0.7,1.7l-1.1,4l-1.9-0.5L87,1069.8z"/>
			<path fill="#DC7676" d="M99.7,1071.9c2.5,1.3,2.9,3.9,1.7,6.2c-0.1,0.2-0.4,0.7-0.4,0.7l-6.5-3.4c-0.9,2-0.1,3.8,1.5,4.6
				c1.5,0.8,3.2,0.3,3.2,0.3l0.1,1.6c0,0-2,0.6-4.1-0.5c-2.8-1.5-3.7-4.5-2.3-7.2C94.2,1071.4,97.1,1070.6,99.7,1071.9z
				 M99.9,1076.7c0.7-1.5,0.2-2.8-0.9-3.4c-1.3-0.7-2.8-0.4-3.8,0.9L99.9,1076.7z"/>
		</g>
		<path fill="#DC7676" stroke="#F8E2D2" stroke-miterlimit="10" d="M49.8,1124.1c-21.2,0-38.4-4.6-38.4-10.2"/>
		<path fill="#DC7676" stroke="#F8E2D2" stroke-miterlimit="10" d="M88.2,1113.9c0,5.6-17.2,10.2-38.4,10.2"/>
		<path fill="#DC7676" stroke="#F8E2D2" stroke-miterlimit="10" d="M49.8,1148.6c-21.2,0-38.4-4.6-38.4-10.2"/>
		<path fill="#DC7676" stroke="#F8E2D2" stroke-miterlimit="10" d="M88.2,1138.4c0,5.6-17.2,10.2-38.4,10.2"/>
	</g>
	<g>
		<line fill="#FAAE24" x1="311.1" y1="1214.2" x2="267.6" y2="1214.2"/>
		<g>
			<line fill="none" stroke="#FAAE24" stroke-width="7" stroke-miterlimit="10" x1="311.1" y1="1214.2" x2="292.7" y2="1214.2"/>
			<g>
				<polygon fill="#FAAE24" points="297.8,1196.7 267.6,1214.2 297.8,1231.6 				"/>
			</g>
		</g>
	</g>
	<g>
		<line fill="#FAAE24" x1="104" y1="977.8" x2="181.8" y2="977.8"/>
		<g>
			<line fill="none" stroke="#FAAE24" stroke-width="7" stroke-miterlimit="10" x1="104" y1="977.8" x2="156.7" y2="977.8"/>
			<g>
				<polygon fill="#FAAE24" points="151.6,995.2 181.8,977.8 151.6,960.3 				"/>
			</g>
		</g>
	</g>
	<g>
		<path fill="#FAAE24" d="M424.6,1107.5c0,1.5,1.1,2.9,3.6,2.9c1.8,0,3.6-0.9,3.6-2.9c0-1.6-1.3-2.9-3.6-2.9
			C426.1,1104.6,424.6,1105.8,424.6,1107.5z"/>
		<path fill="#FAAE24" d="M424.6,1038.3c0,1.9,1.5,3.5,3.6,3.5c2.1,0,3.6-1.6,3.6-3.5c0-1.9-1.5-3.5-3.6-3.5
			C426.1,1034.8,424.6,1036.4,424.6,1038.3z"/>
		<path fill="#FAAE24" d="M413,1019.3v116.4c0,3.3,2.7,5.9,5.9,5.9h16.5c3.3,0,5.9-2.7,5.9-5.9v-116.4c0-3.3-2.7-5.9-5.9-5.9h-16.5
			C415.7,1013.4,413,1016,413,1019.3z M419.2,1048.1v-1.7h2v1.7H419.2z M419.2,1072.7v-1.7h2v1.7H419.2z M433.5,1130.8
			c0,2.7-1.8,4-1.8,4l-1.3-1c0,0,1.5-1.2,1.5-3.1c0-0.9-0.4-1.8-1.3-1.8c-1.8,0-1.6,5.5-4.9,5.5c-1.9,0-2.8-1.7-2.8-3.8
			c0-1.2,0.4-3.3,2-3.3h1v1.7h-0.5c-0.6,0-0.9,0.9-0.9,1.5c0,1.1,0.4,1.9,1.2,1.9c1.9,0,1.5-5.5,4.9-5.5
			C432.4,1127.1,433.5,1128.7,433.5,1130.8z M433.3,1114.4v1.9c0,0.9-0.4,1.3-1.1,1.3h-0.4c-0.3,0-0.6,0-0.6,0v0
			c1,0.4,2.3,1.7,2.3,3.7c0,2.3-1.2,3.4-3.9,3.4h-4.4c-0.3,0-0.4,0.2-0.4,0.4v0.8h-1.7v-1.9c0-0.9,0.4-1.3,1.2-1.3h4.8
			c1.4,0,2.5-0.3,2.5-1.9c0-2.1-1.8-3.3-3.8-3.3h-4.7v-1.9h8c0.3,0,0.4-0.2,0.4-0.4v-0.8H433.3z M433.5,1107.3
			c0,2.3-1.7,3.2-1.7,3.2v0c0,0,0.3,0,0.8,0h0.7v1.9h-12c-0.3,0-0.4,0.2-0.4,0.4v0.8h-1.7v-1.9c0-0.9,0.4-1.3,1.3-1.3h3.3
			c0.5,0,0.8,0,0.8,0v0c0,0-1.7-0.9-1.7-3.3c0-2.7,2.2-4.4,5.3-4.4C431.5,1102.7,433.5,1104.6,433.5,1107.3z M433.5,1097.4
			c0,2.7-1.8,4-1.8,4l-1.3-1c0,0,1.5-1.2,1.5-3.1c0-0.9-0.4-1.8-1.3-1.8c-1.8,0-1.6,5.5-4.9,5.5c-1.9,0-2.8-1.7-2.8-3.8
			c0-1.2,0.4-3.3,2-3.3h1v1.7h-0.5c-0.6,0-0.9,0.9-0.9,1.5c0,1.1,0.4,1.9,1.2,1.9c1.9,0,1.5-5.5,4.9-5.5
			C432.4,1093.7,433.5,1095.3,433.5,1097.4z M433.5,1086.8c0,3.2-2.3,5.4-5.3,5.4c-3,0-5.3-2.2-5.3-5.4c0-1.2,0.5-3.6,2.2-3.6h1v1.8
			h-0.6c-0.7,0-1,1.1-1,1.9c0,2,1.5,3.5,3.6,3.5c2.3,0,3.6-1.7,3.6-3.6c0-1.9-1.4-3.1-1.4-3.1l1.4-0.8
			C431.8,1082.7,433.5,1084.1,433.5,1086.8z M425,1074.9c0,0-0.1,0.3-0.1,0.6c0,1.2,0.9,2.4,2.4,2.8c0.6,0.2,1.2,0.2,1.8,0.2h4.1
			v1.9h-8c-0.3,0-0.4,0.2-0.4,0.4v0.8h-1.7v-1.8c0-0.9,0.4-1.3,1.2-1.3h0.6c0.4,0,0.7,0,0.7,0v0c-1.5-0.5-2.6-1.6-2.6-3.2
			c0-0.3,0-0.5,0-0.5H425z M433.3,1069.5v1.9c0,0.9-0.4,1.3-1.3,1.3h-6.7c-0.3,0-0.4,0.2-0.4,0.4v0.8h-1.7v-1.9
			c0-0.9,0.4-1.3,1.3-1.3h6.7c0.3,0,0.4-0.2,0.4-0.4v-0.8H433.3z M433.5,1062.3c0,2.2-1.6,3.1-1.6,3.1v0c0,0,0.4,0,0.9,0h4.5v1.9
			h-12c-0.3,0-0.4,0.2-0.4,0.4v0.8h-1.7v-1.8c0-0.9,0.4-1.2,1-1.2c0.3,0,0.5,0,0.5,0v0c0,0-1.8-0.8-1.8-3.4c0-2.7,2.2-4.5,5.3-4.5
			C431.5,1057.7,433.5,1059.7,433.5,1062.3z M433.3,1050.7c0,0,0,0.3,0,0.7c0,1.3-0.4,3.9-3.8,3.9h-4.8v1.3h-1.6v-1.4h-2.8v-1.9h2.8
			v-2.4h1.6v2.4h4.6c2,0,2.3-1.4,2.3-2.1c0-0.3,0-0.5,0-0.5H433.3z M433.3,1045v1.9c0,0.9-0.4,1.3-1.3,1.3h-6.7
			c-0.3,0-0.4,0.2-0.4,0.4v0.8h-1.7v-1.9c0-0.9,0.4-1.3,1.3-1.3h6.7c0.3,0,0.4-0.2,0.4-0.4v-0.8H433.3z M433.5,1038.3
			c0,3-2.2,5.4-5.3,5.4c-3.1,0-5.3-2.4-5.3-5.4c0-3,2.2-5.4,5.3-5.4C431.3,1032.8,433.5,1035.3,433.5,1038.3z M433.3,1020v1.9
			c0,0.9-0.4,1.3-1.3,1.3h-4.8c-1.4,0-2.5,0.3-2.5,1.9c0,1.6,1,2.8,2.5,3.2c0.4,0.1,0.9,0.2,1.4,0.2h4.7v1.9h-8
			c-0.3,0-0.4,0.2-0.4,0.4v0.8h-1.7v-1.9c0-0.9,0.4-1.3,1.1-1.3h0.4c0.3,0,0.6,0,0.6,0v0c-0.9-0.4-2.3-1.6-2.3-3.8
			c0-2.4,1.3-3.5,3.9-3.5h4.4c0.3,0,0.4-0.2,0.4-0.4v-0.8H433.3z"/>
		<path fill="#FAAE24" d="M424.6,1062.5c0,1.5,1.1,2.9,3.6,2.9c1.8,0,3.6-1,3.6-2.9c0-1.6-1.3-2.9-3.6-2.9
			C426.1,1059.7,424.6,1060.9,424.6,1062.5z"/>
	</g>
	<path fill="none" stroke="#FAAE24" stroke-width="7" stroke-miterlimit="10" d="M130.1,993.1"/>
	<g>
		<g>
			<path fill="none" stroke="#FAAE24" stroke-width="7" stroke-miterlimit="10" d="M-2.6,1120.1h-44.4c-8.1,0-14.7-6.6-14.7-14.7
				V993.1c0-8.1,6.6-14.7,14.7-14.7h19.2"/>
			<g>
				<polygon fill="#FAAE24" points="-32.8,995.9 -2.6,978.5 -32.8,961 				"/>
			</g>
		</g>
	</g>
	<g>
		<g>
			<path fill="none" stroke="#FAAE24" stroke-width="7" stroke-miterlimit="10" d="M179.9,1230.6H66.8c-8.1,0-14.7-6.6-14.7-14.7
				v-7.6"/>
			<g>
				<polygon fill="#FAAE24" points="69.6,1213.5 52.1,1183.2 34.7,1213.5 				"/>
			</g>
		</g>
	</g>
	<g>
		<line fill="#FAAE24" x1="104" y1="1104.6" x2="181.8" y2="1104.6"/>
		<g>
			<line fill="none" stroke="#FAAE24" stroke-width="7" stroke-miterlimit="10" x1="104" y1="1104.6" x2="156.7" y2="1104.6"/>
			<g>
				<polygon fill="#FAAE24" points="151.6,1122.1 181.8,1104.6 151.6,1087.2 				"/>
			</g>
		</g>
	</g>
	<g>
		<g>
			<path fill="#F8E2D2" d="M239.7,1121.4h-36c-4.8,0-8.7-3.9-8.7-8.7v-24c0-4.8,3.9-8.7,8.7-8.7h36c4.8,0,8.7,3.9,8.7,8.7v24
				C248.4,1117.5,244.5,1121.4,239.7,1121.4z"/>
		</g>
		<g>
			<path fill="#F8E2D2" d="M192.8,1059.5h-1.6v-2.1h10c1.1,0,1.5,0.5,1.5,1.5v2.1h-2.2v-1.1c0-0.4-0.2-0.5-0.5-0.5h-4.8v5.3h5.9v2.1
				h-5.9v4.9c0,0.3,0.2,0.5,0.5,0.5h4.9c0.3,0,0.5-0.2,0.5-0.5v-1.1h2.2v2.1c0,1.1-0.5,1.5-1.5,1.5h-7.5c-1.1,0-1.5-0.5-1.5-1.5
				V1059.5z"/>
			<path fill="#F8E2D2" d="M205.1,1064.7c-0.1-0.4-0.4-0.5-0.7-0.5h-0.2v-2h1.2c1.1,0,1.5,0.3,1.8,1.2l2.6,7
				c0.2,0.7,0.4,1.6,0.4,1.6h0c0,0,0.2-0.9,0.4-1.6l2.6-7c0.4-1,0.8-1.2,1.8-1.2h1.1v2h-0.2c-0.4,0-0.6,0.1-0.8,0.5l-3.7,9.7h-2.7
				L205.1,1064.7z"/>
			<path fill="#F8E2D2" d="M223.3,1061.9c3.4,0,5.2,2.5,5.2,5.7c0,0.3-0.1,1-0.1,1h-8.9c0.1,2.6,2,4.1,4.2,4.1
				c2.1,0,3.6-1.4,3.6-1.4l1,1.7c0,0-1.8,1.8-4.7,1.8c-3.8,0-6.5-2.8-6.5-6.4C217.2,1064.4,219.9,1061.9,223.3,1061.9z
				 M226.2,1066.9c-0.1-2-1.3-3.1-2.9-3.1c-1.8,0-3.2,1.1-3.6,3.1H226.2z"/>
			<path fill="#F8E2D2" d="M231.7,1064.7c0-0.4-0.2-0.5-0.5-0.5h-1v-2h2.2c1,0,1.5,0.5,1.5,1.3v0.5c0,0.4,0,0.7,0,0.7h0
				c0.5-1.1,1.9-2.8,4.6-2.8c2.9,0,4.2,1.6,4.2,4.7v5.3c0,0.4,0.2,0.5,0.5,0.5h1v2h-2.3c-1.1,0-1.5-0.5-1.5-1.5v-5.7
				c0-1.7-0.3-3-2.3-3c-1.9,0-3.4,1.2-3.8,3c-0.2,0.5-0.2,1-0.2,1.6v5.7h-2.3V1064.7z"/>
			<path fill="#F8E2D2" d="M246.8,1064.1h-1.6v-1.9h1.6v-3.3h2.3v3.3h2.9v1.9h-2.9v5.6c0,2.4,1.7,2.7,2.6,2.7c0.3,0,0.6,0,0.6,0v2.1
				c0,0-0.3,0-0.8,0c-1.5,0-4.6-0.5-4.6-4.5V1064.1z"/>
		</g>
	</g>
	<g>
		<g>
			<path fill="#F8E2D2" d="M353.7,1121.4h-36c-4.8,0-8.7-3.9-8.7-8.7v-24c0-4.8,3.9-8.7,8.7-8.7h36c4.8,0,8.7,3.9,8.7,8.7v24
				C362.4,1117.5,358.5,1121.4,353.7,1121.4z"/>
		</g>
		<g>
			<path fill="#F8E2D2" d="M306.8,1059.5h-1.6v-2.1h10c1.1,0,1.5,0.5,1.5,1.5v2.1h-2.2v-1.1c0-0.4-0.2-0.5-0.5-0.5h-4.8v5.3h5.9v2.1
				h-5.9v4.9c0,0.3,0.2,0.5,0.5,0.5h4.9c0.3,0,0.5-0.2,0.5-0.5v-1.1h2.2v2.1c0,1.1-0.5,1.5-1.5,1.5h-7.5c-1.1,0-1.5-0.5-1.5-1.5
				V1059.5z"/>
			<path fill="#F8E2D2" d="M319.1,1064.7c-0.1-0.4-0.4-0.5-0.7-0.5h-0.2v-2h1.2c1.1,0,1.5,0.3,1.8,1.2l2.6,7
				c0.2,0.7,0.4,1.6,0.4,1.6h0c0,0,0.2-0.9,0.4-1.6l2.6-7c0.4-1,0.8-1.2,1.8-1.2h1.1v2h-0.2c-0.4,0-0.6,0.1-0.8,0.5l-3.7,9.7h-2.7
				L319.1,1064.7z"/>
			<path fill="#F8E2D2" d="M337.3,1061.9c3.4,0,5.2,2.5,5.2,5.7c0,0.3-0.1,1-0.1,1h-8.9c0.1,2.6,2,4.1,4.2,4.1
				c2.1,0,3.6-1.4,3.6-1.4l1,1.7c0,0-1.8,1.8-4.7,1.8c-3.8,0-6.5-2.8-6.5-6.4C331.2,1064.4,333.9,1061.9,337.3,1061.9z
				 M340.2,1066.9c-0.1-2-1.3-3.1-2.9-3.1c-1.8,0-3.2,1.1-3.6,3.1H340.2z"/>
			<path fill="#F8E2D2" d="M345.7,1064.7c0-0.4-0.2-0.5-0.5-0.5h-1v-2h2.2c1,0,1.5,0.5,1.5,1.3v0.5c0,0.4,0,0.7,0,0.7h0
				c0.5-1.1,1.9-2.8,4.6-2.8c2.9,0,4.2,1.6,4.2,4.7v5.3c0,0.4,0.2,0.5,0.5,0.5h1v2h-2.3c-1.1,0-1.5-0.5-1.5-1.5v-5.7
				c0-1.7-0.3-3-2.3-3c-1.9,0-3.4,1.2-3.8,3c-0.2,0.5-0.2,1-0.2,1.6v5.7h-2.3V1064.7z"/>
			<path fill="#F8E2D2" d="M360.8,1064.1h-1.6v-1.9h1.6v-3.3h2.3v3.3h2.9v1.9h-2.9v5.6c0,2.4,1.7,2.7,2.6,2.7c0.3,0,0.6,0,0.6,0v2.1
				c0,0-0.3,0-0.8,0c-1.5,0-4.6-0.5-4.6-4.5V1064.1z"/>
		</g>
	</g>
	<g>
		<line fill="#FAAE24" x1="256.5" y1="1104.6" x2="300" y2="1104.6"/>
		<g>
			<line fill="none" stroke="#FAAE24" stroke-width="7" stroke-miterlimit="10" x1="256.5" y1="1104.6" x2="274.9" y2="1104.6"/>
			<g>
				<polygon fill="#FAAE24" points="269.8,1122.1 300,1104.6 269.8,1087.2 				"/>
			</g>
		</g>
	</g>
	<g>
		<line fill="#FAAE24" x1="367.5" y1="1104.6" x2="406.2" y2="1104.6"/>
		<g>
			<line fill="none" stroke="#FAAE24" stroke-width="7" stroke-miterlimit="10" x1="367.5" y1="1104.6" x2="381.1" y2="1104.6"/>
			<g>
				<polygon fill="#FAAE24" points="376,1122.1 406.2,1104.6 376,1087.2 				"/>
			</g>
		</g>
	</g>
	<g>
		<line fill="#FAAE24" x1="362.7" y1="977.8" x2="406.2" y2="977.8"/>
		<g>
			<line fill="none" stroke="#FAAE24" stroke-width="7" stroke-miterlimit="10" x1="362.7" y1="977.8" x2="381.1" y2="977.8"/>
			<g>
				<polygon fill="#FAAE24" points="376,995.2 406.2,977.8 376,960.3 				"/>
			</g>
		</g>
	</g>
	<g>
		<g>
			
				<line fill="none" stroke="#FAAE24" stroke-width="7" stroke-linecap="round" stroke-miterlimit="10" x1="458.3" y1="1092.2" x2="458.3" y2="1092.2"/>
			<g>
				<path fill="#FAAE24" d="M505.5,1092.2c0-1.9,1.6-3.5,3.5-3.5l0,0c1.9,0,3.5,1.6,3.5,3.5l0,0c0,1.9-1.6,3.5-3.5,3.5l0,0
					C507.1,1095.7,505.5,1094.1,505.5,1092.2z M495.4,1092.2c0-1.9,1.6-3.5,3.5-3.5l0,0c1.9,0,3.5,1.6,3.5,3.5l0,0
					c0,1.9-1.6,3.5-3.5,3.5l0,0C496.9,1095.7,495.4,1094.1,495.4,1092.2z M485.2,1092.2c0-1.9,1.6-3.5,3.5-3.5l0,0
					c1.9,0,3.5,1.6,3.5,3.5l0,0c0,1.9-1.6,3.5-3.5,3.5l0,0C486.8,1095.7,485.2,1094.1,485.2,1092.2z M475.1,1092.2
					c0-1.9,1.6-3.5,3.5-3.5l0,0c1.9,0,3.5,1.6,3.5,3.5l0,0c0,1.9-1.6,3.5-3.5,3.5l0,0C476.7,1095.7,475.1,1094.1,475.1,1092.2z
					 M465,1092.2c0-1.9,1.6-3.5,3.5-3.5l0,0c1.9,0,3.5,1.6,3.5,3.5l0,0c0,1.9-1.6,3.5-3.5,3.5l0,0
					C466.5,1095.7,465,1094.1,465,1092.2z"/>
			</g>
			
				<line fill="none" stroke="#FAAE24" stroke-width="7" stroke-linecap="round" stroke-miterlimit="10" x1="519.1" y1="1092.2" x2="519.1" y2="1092.2"/>
			<g>
				<polygon fill="#FAAE24" points="514,1109.6 544.3,1092.2 514,1074.7 				"/>
			</g>
		</g>
	</g>
	<g>
		<path fill="#DC7676" d="M636.8,1060.9h-6.2h-1.8h-61.1c-5.8,0-10.6,4.7-10.6,10.6v11.5v22.5v12.7c0,5.8,4.7,10.6,10.6,10.6h61.1
			h1.8h6.2c5.8,0,10.6-4.7,10.6-10.6v-12.7v-22.5v-11.5C647.4,1065.6,642.7,1060.9,636.8,1060.9z"/>
		<g>
			<path fill="#F8E2D2" d="M581.8,1087.3c2,0,5.4,0.8,5.4,3.1v1.4h-1.9v-0.8c0-1.2-2.1-1.8-3.5-1.8c-2.9,0-5.2,2.2-5.2,5.5
				c0,3.2,2.3,5.7,5.2,5.7c2.9,0,4.6-2,4.6-2l1.1,1.5c0,0-2.1,2.4-5.7,2.4c-4.3,0-7.4-3.3-7.4-7.6
				C574.5,1090.5,577.7,1087.3,581.8,1087.3z"/>
			<path fill="#F8E2D2" d="M589.9,1089.7c0-0.3-0.2-0.5-0.5-0.5h-0.8v-1.7h2c0.9,0,1.3,0.4,1.3,1.3v11c0,0.3,0.2,0.5,0.5,0.5h0.8
				v1.7h-2c-0.9,0-1.3-0.4-1.3-1.3V1089.7z"/>
			<path fill="#F8E2D2" d="M595.6,1093.8c0-0.3-0.2-0.5-0.5-0.5h-0.8v-1.7h2c0.9,0,1.3,0.4,1.3,1.3v6.9c0,0.3,0.2,0.5,0.5,0.5h0.8
				v1.7h-2c-0.9,0-1.3-0.4-1.3-1.3V1093.8z M595.6,1087.5h1.8v2.1h-1.8V1087.5z"/>
			<path fill="#F8E2D2" d="M605.3,1091.4c2.9,0,4.5,2.2,4.5,4.9c0,0.3-0.1,0.8-0.1,0.8h-7.6c0.1,2.2,1.7,3.5,3.6,3.5
				c1.8,0,3-1.2,3-1.2l0.9,1.4c0,0-1.5,1.5-4,1.5c-3.3,0-5.5-2.4-5.5-5.4C600.1,1093.5,602.4,1091.4,605.3,1091.4z M607.8,1095.6
				c-0.1-1.7-1.2-2.6-2.4-2.6c-1.5,0-2.8,0.9-3.1,2.6H607.8z"/>
			<path fill="#F8E2D2" d="M612.5,1093.8c0-0.3-0.2-0.5-0.5-0.5h-0.8v-1.7h1.9c0.9,0,1.3,0.4,1.3,1.2v0.4c0,0.3,0,0.6,0,0.6h0
				c0.4-0.9,1.6-2.4,3.9-2.4c2.5,0,3.6,1.3,3.6,4v4.5c0,0.3,0.2,0.5,0.5,0.5h0.8v1.7h-2c-0.9,0-1.3-0.4-1.3-1.3v-4.9
				c0-1.5-0.3-2.6-2-2.6c-1.6,0-2.9,1-3.3,2.5c-0.1,0.4-0.2,0.9-0.2,1.4v4.9h-2V1093.8z"/>
			<path fill="#F8E2D2" d="M625.4,1093.2H624v-1.6h1.4v-2.9h2v2.9h2.5v1.6h-2.5v4.8c0,2.1,1.4,2.3,2.2,2.3c0.3,0,0.5,0,0.5,0v1.8
				c0,0-0.3,0-0.7,0c-1.3,0-4-0.4-4-3.9V1093.2z"/>
		</g>
	</g>
	<g>
		<g>
			<path fill="none" stroke="#FAAE24" stroke-width="7" stroke-miterlimit="10" d="M602.3,1148.6v40.8c0,8.1-6.6,14.7-14.7,14.7
				H484.4"/>
			<g>
				<polygon fill="#FAAE24" points="489.5,1186.6 459.3,1204.1 489.5,1221.5 				"/>
			</g>
		</g>
	</g>
	<g>
		<g>
			<path fill="none" stroke="#FAAE24" stroke-width="7" stroke-miterlimit="10" d="M458.3,965.3h124.1c8.1,0,14.7,6.6,14.7,14.7
				v41.3"/>
			<g>
				<polygon fill="#FAAE24" points="579.7,1016.1 597.1,1046.4 614.6,1016.1 				"/>
			</g>
		</g>
	</g>
</g>
</svg>
